<svg width="880" height="498" viewBox="0 0 880 498" fill="none" xmlns="http://www.w3.org/2000/svg">
<path d="M827.085 470.092L826.604 473.25C824.545 486.781 813.122 496.37 801.22 494.558L656.34 472.506C658.593 457.703 650.72 444.212 638.782 442.395C626.844 440.578 615.313 451.115 613.06 465.918L23.7682 376.22C10.676 374.227 1.68543 361.531 3.74506 348L4.22565 344.842C8.87824 345.551 13.2783 341.857 14.0834 336.568C14.8885 331.278 11.7506 326.437 7.1341 325.735L7.58972 322.741C12.2423 323.45 16.6486 319.715 17.4475 314.467L823.5 437.158C822.695 442.448 825.833 447.289 830.449 447.991L829.993 450.985C825.341 450.276 820.935 454.011 820.136 459.259C819.337 464.508 822.469 469.39 827.085 470.092Z" fill="#594386"/>
<path d="M833.814 425.891L833.358 428.884C828.705 428.176 824.299 431.91 823.5 437.159L17.4479 314.467C18.253 309.178 15.1151 304.337 10.4986 303.634L10.9542 300.641C15.6068 301.349 20.0131 297.615 20.8119 292.366C21.6108 287.118 18.4792 282.236 13.8627 281.533L15.1796 272.881C57.2332 279.282 97.2204 245.681 104.498 197.87C111.775 150.059 83.5903 106.123 41.5367 99.7218L42.8536 91.07C47.5062 91.7782 51.9062 88.0847 52.7113 82.7952C53.5165 77.5057 50.3786 72.6649 45.762 71.9622L46.2176 68.9689C50.8702 69.6771 55.2765 65.9427 56.0754 60.6942L862.128 183.386C861.323 188.675 864.461 193.516 869.077 194.219L868.621 197.212C863.969 196.504 859.563 200.238 858.764 205.487C857.965 210.735 861.096 215.617 865.713 216.32L864.396 224.972C822.342 218.571 782.355 252.172 775.084 299.942C767.813 347.711 795.985 391.73 838.039 398.131L836.722 406.783C832.069 406.075 827.669 409.768 826.864 415.058C826.059 420.347 829.197 425.188 833.814 425.891Z" fill="#C19BAA"/>
<path d="M872.441 172.117L871.986 175.111C867.333 174.402 862.927 178.137 862.128 183.385L56.0757 60.6937C56.8808 55.4042 53.7429 50.5634 49.1264 49.8607L49.582 46.8674C54.2346 47.5756 58.6408 43.8412 59.4397 38.5927C60.2386 33.3442 57.107 28.4623 52.4904 27.7596L52.971 24.6023C55.0307 11.071 67.4276 1.63047 80.4837 3.61778L669.776 93.3156C667.523 108.118 675.396 121.609 687.334 123.426C699.272 125.243 710.803 114.706 713.056 99.9034L857.935 121.956C869.837 123.768 877.89 136.321 875.83 149.852L875.35 153.009C870.697 152.301 866.297 155.995 865.492 161.284C864.687 166.574 867.825 171.415 872.441 172.117Z" fill="#594386"/>
<path d="M7.1352 325.735L7.59082 322.742" stroke="#212121" stroke-width="2" stroke-miterlimit="10"/>
<path d="M13.8628 281.533L15.1797 272.881" stroke="#212121" stroke-width="2" stroke-miterlimit="10"/>
<path d="M10.4985 303.634L10.9541 300.641" stroke="#212121" stroke-width="2" stroke-miterlimit="10"/>
<path d="M4.22656 344.843L3.74598 348C1.68634 361.531 10.713 374.233 23.7691 376.22L613.061 465.918" stroke="#212121" stroke-width="2" stroke-miterlimit="10"/>
<path d="M871.986 175.11L872.441 172.117" stroke="#212121" stroke-width="2" stroke-miterlimit="10"/>
<path d="M864.396 224.972L865.713 216.32" stroke="#212121" stroke-width="2" stroke-miterlimit="10"/>
<path d="M868.622 197.212L869.077 194.219" stroke="#212121" stroke-width="2" stroke-miterlimit="10"/>
<path d="M713.056 99.9043L857.935 121.957C869.837 123.768 877.89 136.322 875.83 149.853L875.35 153.01" stroke="#212121" stroke-width="2" stroke-miterlimit="10"/>
<path d="M41.5366 99.7221L42.8535 91.0703" stroke="#212121" stroke-width="2" stroke-miterlimit="10"/>
<path d="M49.1264 49.8614L49.582 46.8682" stroke="#212121" stroke-width="2" stroke-miterlimit="10"/>
<path d="M52.4904 27.7596L52.971 24.6023C55.0307 11.071 67.4276 1.63047 80.4837 3.61778L669.776 93.3156" stroke="#212121" stroke-width="2" stroke-miterlimit="10"/>
<path d="M45.7622 71.962L46.2178 68.9688" stroke="#212121" stroke-width="2" stroke-miterlimit="10"/>
<path d="M836.722 406.783L838.039 398.131" stroke="#212121" stroke-width="2" stroke-miterlimit="10"/>
<path d="M833.358 428.884L833.813 425.891" stroke="#212121" stroke-width="2" stroke-miterlimit="10"/>
<path d="M829.995 450.985L830.45 447.992" stroke="#212121" stroke-width="2" stroke-miterlimit="10"/>
<path d="M827.086 470.093L826.605 473.25C824.546 486.781 813.123 496.37 801.221 494.558L656.341 472.506" stroke="#212121" stroke-width="2" stroke-miterlimit="10"/>
<path d="M669.775 93.3164C667.522 108.119 675.395 121.61 687.334 123.427C699.272 125.244 710.802 114.707 713.055 99.9042" stroke="#212121" stroke-width="2" stroke-miterlimit="10"/>
<path d="M656.348 472.465C658.601 457.662 650.727 444.172 638.789 442.354C626.851 440.537 615.321 451.075 613.068 465.877" stroke="#212121" stroke-width="2" stroke-miterlimit="10"/>
<path d="M838.039 398.131C795.986 391.73 767.807 347.753 775.084 299.942C782.362 252.131 822.343 218.571 864.396 224.972" stroke="#212121" stroke-width="2" stroke-miterlimit="10"/>
<path d="M15.18 272.881C57.2337 279.282 97.2209 245.68 104.498 197.87C111.776 150.059 83.5908 106.123 41.5371 99.7217" stroke="#212121" stroke-width="2" stroke-miterlimit="10"/>
<path d="M49.5818 46.8676C54.2344 47.5758 58.6406 43.8413 59.4395 38.5928C60.2384 33.3443 57.1068 28.4625 52.4902 27.7598" stroke="#212121" stroke-width="2" stroke-miterlimit="10"/>
<path d="M46.2175 68.9691C50.8701 69.6773 55.2764 65.9429 56.0753 60.6944C56.8742 55.4459 53.7425 50.564 49.126 49.8613" stroke="#212121" stroke-width="2" stroke-miterlimit="10"/>
<path d="M42.8542 91.0697C47.5068 91.7779 51.9069 88.0844 52.712 82.7949C53.5171 77.5054 50.3792 72.6646 45.7627 71.9619" stroke="#212121" stroke-width="2" stroke-miterlimit="10"/>
<path d="M10.9548 300.641C15.6074 301.349 20.0137 297.615 20.8126 292.366C21.6115 287.118 18.4798 282.236 13.8633 281.533" stroke="#212121" stroke-width="2" stroke-miterlimit="10"/>
<path d="M7.59057 322.742C12.2432 323.45 16.6494 319.715 17.4483 314.467C18.2472 309.218 15.1155 304.336 10.499 303.634" stroke="#212121" stroke-width="2" stroke-miterlimit="10"/>
<path d="M4.22631 344.843C8.8789 345.551 13.2789 341.858 14.0841 336.568C14.8892 331.279 11.7513 326.438 7.13477 325.735" stroke="#212121" stroke-width="2" stroke-miterlimit="10"/>
<path d="M872.441 172.117C867.789 171.409 864.693 166.533 865.492 161.284C866.291 156.036 870.733 152.307 875.35 153.01" stroke="#212121" stroke-width="2" stroke-miterlimit="10"/>
<path d="M869.077 194.219C864.424 193.511 861.329 188.634 862.128 183.386C862.927 178.137 867.369 174.408 871.985 175.111" stroke="#212121" stroke-width="2" stroke-miterlimit="10"/>
<path d="M865.713 216.32C861.06 215.611 857.958 210.776 858.764 205.487C859.569 200.197 864.005 196.509 868.621 197.212" stroke="#212121" stroke-width="2" stroke-miterlimit="10"/>
<path d="M833.813 425.891C829.161 425.183 826.065 420.306 826.864 415.058C827.663 409.809 832.105 406.08 836.722 406.783" stroke="#212121" stroke-width="2" stroke-miterlimit="10"/>
<path d="M830.45 447.991C825.798 447.283 822.702 442.407 823.501 437.158C824.3 431.91 828.742 428.181 833.359 428.884" stroke="#212121" stroke-width="2" stroke-miterlimit="10"/>
<path d="M827.086 470.093C822.433 469.385 819.331 464.549 820.137 459.26C820.942 453.97 825.378 450.282 829.994 450.985" stroke="#212121" stroke-width="2" stroke-miterlimit="10"/>
<path d="M862.128 183.386L56.0752 60.6943" stroke="#212121" stroke-width="2" stroke-miterlimit="10"/>
<path d="M823.501 437.158L17.4482 314.467" stroke="#212121" stroke-width="2" stroke-miterlimit="10"/>
<path d="M157.964 225.631L165.171 203.571L216.607 211.379L209.399 233.438L157.964 225.631ZM295.92 289.37C288.033 288.173 281.243 285.914 275.549 282.594C269.987 279.177 265.773 274.971 262.906 269.976C260.171 264.883 259.167 259.176 259.892 252.855L287.196 252.088C287.348 253.397 287.628 255.019 288.037 256.952C288.445 258.884 289.345 260.658 290.737 262.273C292.261 263.79 294.737 264.809 298.166 265.33C302.167 265.937 305.708 265.715 308.791 264.662C311.989 263.628 314.636 261.983 316.732 259.729C318.828 257.474 320.168 254.813 320.75 251.744C321.291 249.721 321.12 247.766 320.238 245.878C319.372 243.875 317.655 242.095 315.085 240.535C312.515 238.976 308.773 237.823 303.858 237.077L294.085 235.594L299.878 218.231L306.736 219.272C313.365 220.278 319.399 222.13 324.836 224.826C330.406 227.425 335.053 230.703 338.779 234.66C342.619 238.634 345.164 243.055 346.413 247.922C347.777 252.806 347.567 258.036 345.785 263.613C343.584 270.412 339.824 275.921 334.506 280.142C329.32 284.266 323.278 287.091 316.381 288.617C309.599 290.16 302.778 290.411 295.92 289.37ZM295.801 230.066L301.24 213.877L308.956 215.048C315.699 216.072 321.368 215.705 325.962 213.946C330.669 212.205 333.603 208.675 334.761 203.355C335.406 200.646 334.742 198.09 332.768 195.685C330.926 193.184 328.29 191.673 324.861 191.152C321.546 190.649 318.093 191.06 314.501 192.386C311.022 193.729 307.825 196.693 304.907 201.279L281.389 189.816C284.778 183.665 289.194 178.839 294.637 175.339C300.097 171.724 305.955 169.339 312.211 168.184C318.598 166.932 324.764 166.757 330.708 167.659C338.594 168.856 345.284 171.392 350.777 175.266C356.269 179.14 360.045 183.923 362.105 189.614C364.181 195.192 364.119 201.38 361.918 208.179C360.171 213.526 357.345 217.892 353.44 221.275C349.535 224.658 344.877 227.225 339.466 228.976C334.17 230.745 328.511 231.815 322.491 232.188C316.471 232.56 310.489 232.295 304.545 231.393L295.801 230.066ZM393.399 304.167C387.226 303.23 381.333 301.224 375.719 298.15C370.105 295.076 365.487 291.218 361.865 286.576C358.375 281.836 356.541 276.588 356.362 270.831L383.495 270.038C384.186 273.184 385.694 275.576 388.018 277.215C390.359 278.74 392.959 279.719 395.816 280.153C399.474 280.708 402.901 280.468 406.099 279.433C409.428 278.301 412.329 276.52 414.803 274.089C417.408 271.561 419.266 268.569 420.375 265.112C421.72 260.873 421.467 257.151 419.615 253.947C417.894 250.645 414.69 248.639 410.004 247.927C406.346 247.372 402.893 247.783 399.643 249.161C396.526 250.442 394.019 251.932 392.124 253.633L368.715 243.765L397.87 179.959L467.479 190.525L459.565 214.932L394.584 205.069L397.74 180.816L425.172 184.98L392.592 250.546L379.963 244.77C381.401 243.001 383.511 241.041 386.293 238.891C389.19 236.758 392.526 234.808 396.302 233.043C400.209 231.18 404.505 229.845 409.188 229.035C414.003 228.129 419.031 228.132 424.272 229.045C430.769 230.148 436.224 232.73 440.636 236.791C445.065 240.737 448.055 245.693 449.605 251.658C451.172 257.509 450.772 263.997 448.405 271.121C445.819 278.914 441.771 285.55 436.262 291.028C430.77 296.392 424.335 300.268 416.957 302.656C409.595 304.93 401.743 305.433 393.399 304.167ZM501.758 320.615C493.528 319.366 486.522 316.607 480.738 312.338C475.086 307.972 470.769 302.522 467.784 295.988C464.8 289.455 463.23 282.083 463.073 273.874C463.03 265.682 464.446 257.127 467.32 248.208C471.032 236.844 476.234 227.227 482.925 219.355C489.747 211.387 497.475 205.544 506.108 201.826C514.741 198.108 523.687 196.952 532.945 198.357C541.06 199.589 547.887 202.379 553.424 206.728C559.093 210.98 563.411 216.43 566.378 223.077C569.362 229.611 570.875 236.974 570.918 245.166C571.093 253.261 569.743 261.768 566.869 270.686C563.34 281.61 558.164 291.056 551.342 299.025C544.633 307.01 536.946 312.976 528.278 316.923C519.628 320.755 510.788 321.986 501.758 320.615ZM505.241 295.359C510.63 296.061 515.617 295.18 520.2 292.719C524.801 290.143 528.823 286.369 532.268 281.395C535.712 276.422 538.509 270.708 540.658 264.252C542.825 257.682 543.836 251.404 543.692 245.418C543.549 239.433 542.154 234.368 539.509 230.225C536.978 226.099 533.084 223.636 527.826 222.838C523.482 222.179 519.076 223.089 514.607 225.568C510.138 228.047 506.067 231.755 502.394 236.694C498.721 241.632 495.766 247.615 493.53 254.642C491.312 261.556 490.283 267.948 490.444 273.819C490.737 279.593 492.109 284.421 494.56 288.301C497.143 292.084 500.703 294.437 505.241 295.359ZM624.744 339.284C613.657 337.601 604.701 333.435 597.875 326.786C591.05 320.137 586.7 311.817 584.825 301.827C583.082 291.74 584.185 280.623 588.133 268.476C591.864 256.998 597.386 247.196 604.7 239.068C612.146 230.843 620.717 224.836 630.414 221.046C640.11 217.255 650.159 216.15 660.56 217.729C668.561 218.943 675.357 221.553 680.946 225.559C686.536 229.565 690.866 234.549 693.937 240.511C697.008 246.473 698.708 252.987 699.039 260.053L673.059 263.652C672.652 257.86 670.968 253.161 668.008 249.555C665.161 245.965 661.223 243.789 656.194 243.026C650.708 242.193 645.255 243.061 639.837 245.629C634.551 248.101 629.693 251.983 625.265 257.274C620.969 262.469 617.619 268.743 615.217 276.096C613.033 282.78 612.17 288.847 612.63 294.296C613.089 299.744 614.75 304.206 617.614 307.681C620.477 311.156 624.424 313.275 629.453 314.039C633.682 314.681 637.633 314.462 641.305 313.382C645.108 312.206 648.665 310.348 651.973 307.81C655.282 305.272 658.26 302.216 660.907 298.642L682.98 312.692C678.264 319.109 672.764 324.53 666.479 328.955C660.212 333.266 653.547 336.347 646.483 338.198C639.42 340.05 632.174 340.411 624.744 339.284ZM569.97 284.137L574.005 271.419L653.902 283.546L649.867 296.265L569.97 284.137ZM576.195 265.086L580.401 252.394L660.298 264.521L656.091 277.213L576.195 265.086Z" fill="#212121"/>
<line x1="686.063" y1="125.221" x2="639.485" y2="439.221" stroke="white" stroke-width="3" stroke-dasharray="10 10"/>
</svg>
