<svg width="421" height="453" viewBox="0 0 421 453" fill="none" xmlns="http://www.w3.org/2000/svg">
<g clip-path="url(#clip0_114_7373)">
<path d="M354.453 76.2043C354.453 76.2043 361.033 81.5522 351.772 95.1567C351.772 95.1567 353.834 123.773 342.005 127.488C330.176 131.204 325.959 134.488 324.628 139.423C323.278 144.377 313.305 163.93 313.305 163.93C313.305 163.93 312.892 175.264 323.278 174.851C333.663 174.438 329.97 188.549 329.97 188.549C329.97 188.549 327.908 191.833 328.021 193.691C328.114 195.548 333.27 198.645 334.301 200.071C335.332 201.516 335.95 208.402 327.308 213.656C318.666 218.91 330.795 239.814 330.795 239.814L341.499 249.178C341.499 249.178 349.523 267.924 323.503 282.542C306.331 292.187 285.973 285.788 274.125 280.309V38.5996C287.454 47.344 301.288 52.2228 301.288 52.2228C301.288 52.2228 306.425 52.4293 312.499 53.8741L323.297 64.5888C323.297 64.5888 326.277 69.9368 354.472 76.223L354.453 76.2043Z" fill="#A44F3D"/>
<path d="M274.106 38.5994V280.309C267.995 277.494 264.133 274.923 264.133 274.923C264.133 274.923 229.771 276.668 229.152 300.969C228.534 325.269 196.14 312.19 196.14 312.19L172.276 290.873C172.276 290.873 171.976 290.667 171.451 290.442V47.0436C171.639 46.8559 171.807 46.6495 171.976 46.4431C180.299 36.7605 193.366 37.0795 193.366 37.0795C193.366 37.0795 204.576 34.3961 204.37 18.9527C204.163 3.50925 210.65 0.938477 210.65 0.938477C210.65 0.938477 241.9 1.44512 255.06 21.0168C259.709 27.9035 266.814 33.8332 274.087 38.5994H274.106Z" fill="#FAFAEE"/>
<path d="M171.451 47.0438V290.442C169.801 289.748 165.883 288.96 161.684 294.176C156.135 301.063 148.318 296.334 148.318 296.334C148.318 296.334 115.193 281.51 113.45 277.175C111.707 272.859 104.714 266.16 109.851 254.826C114.987 243.492 120.855 233.51 121.173 228.368C121.492 223.226 124.154 178.942 129.197 175.245C134.24 171.529 121.68 150.944 121.68 150.944C121.68 150.944 108.52 140.436 101.827 122.628C95.1348 104.821 65.3095 100.805 65.3095 100.805C65.3095 100.805 44.0137 84.3295 57.286 75.7727C70.5584 67.2348 85.8741 66.4654 85.8741 66.4654L112.85 74.9658C112.85 74.9658 129.834 81.4585 125.335 64.4576C120.836 47.4567 123.329 41.9586 123.329 41.9586C123.329 41.9586 129.815 30.4558 159.791 51.4536C159.791 51.4536 163.484 55.9008 171.451 47.0251V47.0438Z" fill="#3F5B7A"/>
<path d="M171.451 290.442C169.801 289.748 165.883 288.959 161.684 294.176C156.135 301.063 148.318 296.334 148.318 296.334C148.318 296.334 115.193 281.51 113.45 277.175C111.707 272.859 104.714 266.16 109.851 254.826C114.987 243.492 120.855 233.51 121.173 228.368C121.492 223.226 124.154 178.942 129.197 175.245C134.24 171.529 121.68 150.944 121.68 150.944C121.68 150.944 108.52 140.436 101.827 122.628C95.1348 104.821 65.3095 100.805 65.3095 100.805C65.3095 100.805 44.0137 84.3294 57.286 75.7727C70.5584 67.2347 85.8741 66.4653 85.8741 66.4653L112.85 74.9658C112.85 74.9658 129.834 81.4584 125.335 64.4575C120.836 47.4566 123.329 41.9585 123.329 41.9585C123.329 41.9585 129.815 30.4557 159.791 51.4535C159.791 51.4535 163.484 55.9008 171.451 47.025C171.638 46.8374 171.807 46.631 171.976 46.4245C180.299 36.7419 193.365 37.0609 193.365 37.0609C193.365 37.0609 204.576 34.3775 204.37 18.9341C204.163 3.4907 210.65 0.919922 210.65 0.919922C210.65 0.919922 241.9 1.42657 255.06 20.9982C259.709 27.8849 266.813 33.8146 274.087 38.5809C287.416 47.3253 301.25 52.2041 301.25 52.2041C301.25 52.2041 306.387 52.4105 312.461 53.8554L323.259 64.5701C323.259 64.5701 326.239 69.9181 354.434 76.2043C354.434 76.2043 361.014 81.5522 351.753 95.1567C351.753 95.1567 353.815 123.773 341.986 127.488C330.157 131.204 325.939 134.488 324.608 139.423C323.259 144.377 313.286 163.93 313.286 163.93C313.286 163.93 312.873 175.264 323.259 174.851C333.644 174.438 329.951 188.549 329.951 188.549C329.951 188.549 327.889 191.833 328.001 193.691C328.095 195.548 333.25 198.645 334.281 200.071C335.312 201.516 335.931 208.402 327.289 213.656C318.647 218.911 330.776 239.814 330.776 239.814L341.48 249.178C341.48 249.178 349.503 267.924 323.484 282.542C306.312 292.187 285.953 285.788 274.106 280.309C267.994 277.494 264.133 274.923 264.133 274.923C264.133 274.923 229.771 276.669 229.152 300.969C228.534 325.269 196.14 312.19 196.14 312.19L172.276 290.873C172.276 290.873 171.976 290.667 171.451 290.442Z" stroke="#212121" stroke-miterlimit="10"/>
<path d="M171.451 290.442V47.0439" stroke="#212121" stroke-miterlimit="10"/>
<path d="M274.105 280.309V38.5996" stroke="#212121" stroke-miterlimit="10"/>
<path d="M353.89 290.779C353.89 290.779 343.411 296.765 340.43 309.394C337.45 322.022 340.43 325.438 340.43 325.438C340.43 325.438 343.205 332.287 350.909 332.062C358.614 331.836 353.478 326.282 359.027 321.797C364.575 317.312 368.006 311.42 368.006 311.42C368.006 311.42 361.595 283.836 353.909 290.779H353.89Z" fill="#A44F3D" stroke="#212121" stroke-miterlimit="10"/>
<g clip-path="url(#clip1_114_7373)">
<path d="M270.025 201.287V216.374H265.46V209.993H265.452C268.381 207.354 270.025 204.401 270.025 201.287Z" fill="#E1C37A"/>
<path d="M270.025 201.28C270.025 204.402 268.381 207.355 265.453 209.985C264.604 210.745 263.656 211.481 262.601 212.187C261.239 213.1 259.71 213.959 258.036 214.764C257.126 215.201 256.178 215.623 255.184 216.022C254.885 216.145 254.58 216.26 254.274 216.375H238.239C253.647 214.181 264.826 208.751 265.896 202.292C265.95 201.955 265.98 201.617 265.98 201.272C265.98 192.352 246.742 185.127 223.016 185.127C199.289 185.127 180.051 192.359 180.051 201.272C180.051 201.617 180.081 201.955 180.135 202.292C181.205 208.751 192.384 214.189 207.792 216.382H191.536C191.299 216.29 191.069 216.206 190.847 216.114C189.853 215.715 188.905 215.301 187.995 214.871C186.306 214.074 184.761 213.215 183.385 212.302C182.337 211.612 181.381 210.891 180.533 210.139C177.497 207.47 175.792 204.463 175.784 201.295C175.784 190.112 196.88 181.054 222.901 181.054C248.921 181.054 270.017 190.112 270.017 201.288L270.025 201.28Z" fill="#E5DD73"/>
<path d="M265.46 216.375H270.025C270.025 219.489 268.389 222.442 265.46 225.081V216.375Z" fill="#E1C37A"/>
<path d="M265.988 201.273C265.988 201.618 265.957 201.955 265.904 202.293C264.505 193.848 245.84 187.16 223.023 187.16C200.207 187.16 181.542 193.848 180.143 202.293C180.089 201.955 180.059 201.618 180.059 201.273C180.059 192.352 199.297 185.127 223.023 185.127C246.75 185.127 265.988 192.36 265.988 201.273Z" fill="#D8B767"/>
<path d="M265.904 202.292H180.143C181.542 193.848 200.207 187.159 223.023 187.159C245.84 187.159 264.504 193.848 265.904 202.292Z" fill="#E1C37A"/>
<path d="M180.15 202.292H265.912C264.841 208.75 253.662 214.181 238.255 216.374H207.815C192.407 214.181 181.229 208.75 180.158 202.292H180.15Z" fill="#E1C37A"/>
<path d="M265.46 216.375V225.081C264.619 225.84 263.664 226.576 262.608 227.29V216.383H265.46V216.375Z" fill="#D8B767"/>
<path d="M265.46 209.993V216.375H262.608V212.187C263.656 211.481 264.604 210.745 265.453 209.985H265.46V209.993Z" fill="#D8B767"/>
<path d="M262.608 216.375V227.282C261.247 228.195 259.718 229.054 258.043 229.859V216.375H262.608Z" fill="#E1C37A"/>
<path d="M262.608 212.194V216.374H258.043V214.764C259.71 213.958 261.239 213.099 262.6 212.187V212.202L262.608 212.194Z" fill="#E1C37A"/>
<path d="M258.043 216.375V229.859C257.134 230.296 256.185 230.718 255.191 231.117V216.375H258.043Z" fill="#D8B767"/>
<path d="M258.043 214.779V216.374H255.191V216.022C256.178 215.623 257.126 215.201 258.036 214.764V214.779H258.043Z" fill="#D8B767"/>
<path d="M255.191 216.375V231.117C253.746 231.7 252.209 232.245 250.596 232.751V217.648C251.873 217.249 253.096 216.828 254.274 216.375H255.191Z" fill="#E1C37A"/>
<path d="M238.247 216.375H254.282C253.104 216.828 251.881 217.249 250.604 217.648C249.678 217.94 248.723 218.216 247.752 218.469C246.314 218.852 244.823 219.205 243.286 219.52C242.353 219.712 241.405 219.888 240.449 220.057C238.928 220.317 237.368 220.548 235.77 220.747C234.829 220.862 233.881 220.962 232.918 221.054C231.381 221.2 229.821 221.307 228.238 221.384C227.298 221.43 226.342 221.46 225.386 221.483C224.568 221.499 223.75 221.506 222.924 221.506C222.182 221.506 221.441 221.506 220.707 221.483C219.751 221.46 218.795 221.43 217.854 221.391C216.318 221.322 214.804 221.223 213.313 221.084C212.349 221 211.401 220.9 210.46 220.793C208.908 220.609 207.394 220.394 205.919 220.149C204.955 219.988 203.999 219.819 203.066 219.627C201.438 219.305 199.855 218.937 198.333 218.538C197.362 218.285 196.407 218.009 195.481 217.725C194.12 217.303 192.813 216.851 191.566 216.375H207.822C212.556 217.05 217.686 217.418 223.039 217.418C228.391 217.418 233.529 217.05 238.255 216.375H238.247Z" fill="#E5DD73"/>
<path d="M250.603 217.671V232.758C249.678 233.049 248.722 233.325 247.751 233.586V218.484C248.722 218.223 249.678 217.947 250.595 217.663V217.678L250.603 217.671Z" fill="#D8B767"/>
<path d="M247.752 218.492V233.579C246.314 233.963 244.831 234.315 243.301 234.63V219.604L243.286 219.527C244.823 219.213 246.314 218.86 247.752 218.477V218.5V218.492Z" fill="#E1C37A"/>
<path d="M243.293 219.604V234.63C242.361 234.822 241.412 235.006 240.441 235.167V220.064C241.397 219.896 242.353 219.719 243.278 219.527L243.293 219.604Z" fill="#D8B767"/>
<path d="M240.441 220.08V235.167C238.92 235.428 237.36 235.658 235.762 235.857V220.747C237.36 220.555 238.92 220.325 240.441 220.057V220.08Z" fill="#E1C37A"/>
<path d="M207.807 216.375H238.247C233.514 217.05 228.383 217.418 223.03 217.418C217.678 217.418 212.54 217.05 207.814 216.375H207.807Z" fill="#E1C37A"/>
<path d="M235.762 220.77V235.857C234.822 235.972 233.874 236.072 232.91 236.164V221.054C233.866 220.962 234.822 220.862 235.755 220.747V220.77H235.762Z" fill="#D8B767"/>
<path d="M232.91 221.077V236.164C231.373 236.302 229.813 236.417 228.23 236.494V221.384C229.813 221.307 231.381 221.199 232.91 221.054V221.077Z" fill="#E1C37A"/>
<path d="M228.23 221.406V236.493C227.29 236.539 226.334 236.57 225.378 236.593V221.483C226.334 221.46 227.29 221.429 228.23 221.383V221.406Z" fill="#D8B767"/>
<path d="M225.378 221.506V236.594C224.56 236.609 223.741 236.617 222.916 236.617C222.174 236.617 221.432 236.617 220.698 236.594V221.483C221.432 221.499 222.174 221.506 222.916 221.506C223.741 221.506 224.567 221.499 225.378 221.483V221.506Z" fill="#E1C37A"/>
<path d="M220.691 221.513V236.601C219.735 236.578 218.779 236.547 217.839 236.509V221.398C218.779 221.444 219.728 221.475 220.691 221.49V221.513Z" fill="#D8B767"/>
<path d="M217.846 221.414V236.501C216.31 236.432 214.788 236.332 213.297 236.194V221.084C214.788 221.214 216.302 221.322 217.846 221.391V221.414Z" fill="#E1C37A"/>
<path d="M213.297 221.092V221.115V236.202C212.334 236.118 211.386 236.018 210.445 235.903V220.801C211.386 220.908 212.342 221.008 213.297 221.092Z" fill="#D8B767"/>
<path d="M210.445 220.793V220.816V235.903C208.893 235.719 207.379 235.504 205.896 235.259V220.148C207.379 220.394 208.893 220.609 210.445 220.793Z" fill="#E1C37A"/>
<path d="M205.903 220.149V220.172V235.259C204.939 235.098 203.984 234.921 203.051 234.737V219.627C203.991 219.819 204.939 219.987 205.903 220.149Z" fill="#D8B767"/>
<path d="M203.051 219.627V219.65V234.737C201.423 234.408 199.84 234.047 198.318 233.641V218.538C199.848 218.937 201.423 219.305 203.059 219.627H203.051Z" fill="#E1C37A"/>
<path d="M198.318 218.538V218.553V233.64C197.347 233.387 196.391 233.111 195.466 232.827V217.725C196.399 218.008 197.347 218.285 198.318 218.538Z" fill="#D8B767"/>
<path d="M195.466 217.725V217.74V232.827C193.853 232.329 192.308 231.784 190.855 231.209V216.375H191.551C192.798 216.851 194.105 217.303 195.466 217.725Z" fill="#E1C37A"/>
<path d="M190.863 216.106V216.121V216.374H188.011V214.863C188.928 215.293 189.876 215.707 190.87 216.106H190.863Z" fill="#D8B767"/>
<path d="M190.855 216.375V231.209C189.861 230.81 188.913 230.404 188.003 229.966V216.375H190.855Z" fill="#D8B767"/>
<path d="M188.011 214.863V214.879V216.374H183.4V212.294C184.784 213.207 186.329 214.066 188.019 214.863H188.011Z" fill="#E1C37A"/>
<path d="M188.003 216.375V229.966C186.313 229.169 184.769 228.31 183.393 227.397V216.375H188.003Z" fill="#E1C37A"/>
<path d="M183.4 212.302V212.317L183.392 216.382H180.54V210.154H180.548C181.396 210.891 182.352 211.619 183.4 212.31V212.302Z" fill="#D8B767"/>
<path d="M183.392 216.375V227.397C182.345 226.699 181.389 225.978 180.54 225.234V216.375H183.392Z" fill="#D8B767"/>
<path d="M180.547 210.139H180.54V216.382H175.807V201.295C175.807 204.47 177.512 207.469 180.555 210.139H180.547Z" fill="#E1C37A"/>
<path d="M180.54 216.375V225.234C177.504 222.557 175.807 219.558 175.807 216.375H180.54Z" fill="#E1C37A"/>
<path d="M191.551 216.375C191.314 216.282 191.085 216.198 190.863 216.106C189.869 215.707 188.921 215.293 188.011 214.864C186.321 214.066 184.777 213.207 183.4 212.294C182.353 211.604 181.397 210.883 180.548 210.131C177.513 207.462 175.807 204.455 175.8 201.287C175.8 190.104 196.896 181.046 222.916 181.046C248.937 181.046 270.033 190.104 270.033 201.28C270.033 204.401 268.389 207.354 265.461 209.985C264.612 210.745 263.664 211.481 262.609 212.187C261.247 213.099 259.718 213.958 258.044 214.764C257.134 215.201 256.186 215.623 255.192 216.022C254.893 216.144 254.588 216.259 254.282 216.375" stroke="#212121" stroke-miterlimit="10"/>
<path d="M175.8 216.375C175.8 219.55 177.505 222.557 180.533 225.234C181.382 225.986 182.337 226.707 183.385 227.397C184.761 228.302 186.306 229.169 187.996 229.966C188.906 230.404 189.854 230.81 190.848 231.209C192.301 231.792 193.845 232.329 195.458 232.827C196.384 233.111 197.332 233.387 198.311 233.64C199.832 234.039 201.415 234.407 203.044 234.737C203.977 234.921 204.925 235.098 205.896 235.259C207.371 235.504 208.893 235.719 210.445 235.903C211.386 236.011 212.334 236.11 213.297 236.202C214.788 236.333 216.302 236.44 217.847 236.509C218.787 236.555 219.736 236.586 220.699 236.601C221.433 236.616 222.175 236.624 222.916 236.624C223.742 236.624 224.568 236.616 225.379 236.601C226.334 236.578 227.29 236.547 228.231 236.501C229.813 236.425 231.381 236.317 232.91 236.172C233.874 236.08 234.822 235.98 235.762 235.865C237.36 235.673 238.92 235.435 240.442 235.175C241.413 235.006 242.361 234.829 243.294 234.638C244.823 234.323 246.314 233.97 247.744 233.587C248.715 233.326 249.671 233.05 250.596 232.758C252.21 232.252 253.739 231.708 255.192 231.125C256.178 230.726 257.134 230.304 258.044 229.867C259.718 229.061 261.247 228.202 262.609 227.29C263.664 226.584 264.619 225.848 265.461 225.081C268.389 222.442 270.025 219.489 270.025 216.375" stroke="#212121" stroke-miterlimit="10"/>
<path d="M175.8 216.374V201.287" stroke="#212121" stroke-miterlimit="10"/>
<path d="M270.025 216.374V201.287" stroke="#212121" stroke-miterlimit="10"/>
<path d="M265.904 202.292C264.834 208.75 253.655 214.181 238.247 216.374C233.514 217.049 228.384 217.417 223.031 217.417C217.679 217.417 212.54 217.049 207.815 216.374C192.408 214.181 181.229 208.75 180.158 202.292" stroke="#212121" stroke-miterlimit="10"/>
<path d="M180.151 202.292C180.097 201.954 180.066 201.617 180.066 201.272C180.066 192.351 199.305 185.126 223.031 185.126C246.758 185.126 265.996 192.359 265.996 201.272C265.996 201.617 265.965 201.954 265.912 202.292" stroke="#212121" stroke-miterlimit="10"/>
<path d="M180.15 202.292C181.55 193.848 200.214 187.159 223.031 187.159C245.848 187.159 264.512 193.848 265.912 202.292" stroke="#212121" stroke-miterlimit="10"/>
<path d="M180.54 225.234V216.375V210.146" stroke="#212121" stroke-miterlimit="10"/>
<path d="M183.393 227.397V216.375V212.31" stroke="#212121" stroke-miterlimit="10"/>
<path d="M188.003 229.966V216.375V214.879" stroke="#212121" stroke-miterlimit="10"/>
<path d="M190.855 231.208V216.374V216.121" stroke="#212121" stroke-miterlimit="10"/>
<path d="M195.466 232.827V217.74" stroke="#212121" stroke-miterlimit="10"/>
<path d="M198.318 233.64V218.553" stroke="#212121" stroke-miterlimit="10"/>
<path d="M203.052 234.737V219.649" stroke="#212121" stroke-miterlimit="10"/>
<path d="M205.903 235.258V220.171" stroke="#212121" stroke-miterlimit="10"/>
<path d="M210.445 235.903V220.815" stroke="#212121" stroke-miterlimit="10"/>
<path d="M213.298 236.195V221.107" stroke="#212121" stroke-miterlimit="10"/>
<path d="M217.847 236.501V221.414" stroke="#212121" stroke-miterlimit="10"/>
<path d="M220.691 236.593V221.514" stroke="#212121" stroke-miterlimit="10"/>
<path d="M225.379 236.593V221.506" stroke="#212121" stroke-miterlimit="10"/>
<path d="M228.23 236.493V221.406" stroke="#212121" stroke-miterlimit="10"/>
<path d="M232.91 236.163V221.076" stroke="#212121" stroke-miterlimit="10"/>
<path d="M235.763 235.857V220.77" stroke="#212121" stroke-miterlimit="10"/>
<path d="M240.441 235.166V220.079" stroke="#212121" stroke-miterlimit="10"/>
<path d="M243.294 234.629V219.604" stroke="#212121" stroke-miterlimit="10"/>
<path d="M247.752 233.578V218.491" stroke="#212121" stroke-miterlimit="10"/>
<path d="M250.604 232.758V217.671" stroke="#212121" stroke-miterlimit="10"/>
<path d="M255.191 231.124V216.375V216.037" stroke="#212121" stroke-miterlimit="10"/>
<path d="M258.044 229.866V216.375V214.779" stroke="#212121" stroke-miterlimit="10"/>
<path d="M262.608 227.281V216.375V212.194" stroke="#212121" stroke-miterlimit="10"/>
<path d="M265.461 225.08V216.375V209.993" stroke="#212121" stroke-miterlimit="10"/>
<path d="M222.916 221.514C248.938 221.514 270.033 212.455 270.033 201.28C270.033 190.105 248.938 181.046 222.916 181.046C196.895 181.046 175.8 190.105 175.8 201.28C175.8 212.455 196.895 221.514 222.916 221.514Z" stroke="#212121" stroke-miterlimit="10"/>
<path d="M277.617 181.1V196.187H273.053V189.805H273.045C275.973 187.167 277.617 184.214 277.617 181.1Z" fill="#E1C37A"/>
<path d="M277.618 181.092C277.618 184.214 275.974 187.167 273.045 189.798C272.197 190.557 271.248 191.294 270.193 191.999C268.832 192.912 267.303 193.771 265.628 194.576C264.719 195.014 263.77 195.435 262.776 195.834C262.478 195.957 262.172 196.072 261.866 196.187H245.832C261.239 193.994 272.418 188.563 273.489 182.105C273.542 181.767 273.573 181.43 273.573 181.085C273.573 172.164 254.335 164.939 230.608 164.939C206.882 164.939 187.644 172.172 187.644 181.085C187.644 181.43 187.674 181.767 187.728 182.105C188.798 188.563 199.977 194.001 215.384 196.195H199.128C198.891 196.103 198.662 196.018 198.44 195.926C197.446 195.528 196.498 195.113 195.588 194.684C193.898 193.886 192.354 193.027 190.977 192.114C189.93 191.424 188.974 190.703 188.125 189.951C185.09 187.282 183.385 184.275 183.377 181.108C183.377 169.925 204.473 160.866 230.494 160.866C256.514 160.866 277.61 169.925 277.61 181.1L277.618 181.092Z" fill="#E5DD73"/>
<path d="M273.053 196.188H277.618C277.618 199.302 275.981 202.255 273.053 204.893V196.188Z" fill="#E1C37A"/>
<path d="M273.581 181.085C273.581 181.43 273.55 181.768 273.497 182.105C272.097 173.66 253.433 166.972 230.616 166.972C207.799 166.972 189.135 173.66 187.735 182.105C187.682 181.768 187.651 181.43 187.651 181.085C187.651 172.165 206.89 164.939 230.616 164.939C254.343 164.939 273.581 172.172 273.581 181.085Z" fill="#D8B767"/>
<path d="M273.497 182.105H187.735C189.135 173.66 207.799 166.972 230.616 166.972C253.433 166.972 272.097 173.66 273.497 182.105Z" fill="#E1C37A"/>
<path d="M187.735 182.104H273.497C272.426 188.563 261.247 193.993 245.84 196.187H215.4C199.992 193.993 188.813 188.563 187.743 182.104H187.735Z" fill="#E1C37A"/>
<path d="M273.053 196.188V204.893C272.212 205.652 271.256 206.389 270.201 207.102V196.195H273.053V196.188Z" fill="#D8B767"/>
<path d="M273.053 189.806V196.187H270.201V191.999C271.249 191.294 272.197 190.557 273.046 189.798H273.053V189.806Z" fill="#D8B767"/>
<path d="M270.201 196.188V207.094C268.84 208.007 267.31 208.866 265.636 209.672V196.188H270.201Z" fill="#E1C37A"/>
<path d="M270.201 192.015V196.195H265.636V194.584C267.303 193.779 268.832 192.92 270.193 192.007V192.022L270.201 192.015Z" fill="#E1C37A"/>
<path d="M265.636 196.188V209.672C264.726 210.109 263.778 210.531 262.784 210.929V196.188H265.636Z" fill="#D8B767"/>
<path d="M265.636 194.592V196.187H262.784V195.834C263.771 195.435 264.719 195.013 265.629 194.576V194.592H265.636Z" fill="#D8B767"/>
<path d="M262.784 196.188V210.929C261.339 211.512 259.802 212.057 258.188 212.563V197.461C259.465 197.062 260.689 196.64 261.866 196.188H262.784Z" fill="#E1C37A"/>
<path d="M245.832 196.188H261.867C260.689 196.64 259.466 197.062 258.189 197.461C257.263 197.752 256.308 198.028 255.337 198.281C253.899 198.665 252.408 199.018 250.871 199.332C249.938 199.524 248.99 199.7 248.034 199.869C246.513 200.13 244.953 200.36 243.355 200.559C242.414 200.675 241.466 200.774 240.503 200.866C238.966 201.012 237.406 201.119 235.823 201.196C234.883 201.242 233.927 201.273 232.971 201.296C232.153 201.311 231.335 201.319 230.509 201.319C229.767 201.319 229.026 201.319 228.292 201.296C227.336 201.273 226.38 201.242 225.439 201.204C223.903 201.135 222.389 201.035 220.898 200.897C219.934 200.813 218.986 200.713 218.045 200.605C216.493 200.421 214.979 200.207 213.504 199.961C212.54 199.8 211.584 199.631 210.651 199.44C209.023 199.117 207.44 198.749 205.918 198.35C204.947 198.097 203.991 197.821 203.066 197.537C201.705 197.116 200.398 196.663 199.151 196.188H215.407C220.141 196.862 225.271 197.231 230.624 197.231C235.976 197.231 241.114 196.862 245.84 196.188H245.832Z" fill="#E5DD73"/>
<path d="M258.189 197.483V212.57C257.264 212.862 256.308 213.138 255.337 213.399V198.296C256.308 198.036 257.264 197.759 258.181 197.476V197.491L258.189 197.483Z" fill="#D8B767"/>
<path d="M255.337 198.304V213.392C253.899 213.775 252.416 214.128 250.886 214.442V199.417L250.871 199.34C252.408 199.025 253.899 198.673 255.337 198.289V198.312V198.304Z" fill="#E1C37A"/>
<path d="M250.886 199.417V214.442C249.953 214.634 249.005 214.818 248.034 214.979V199.877C248.99 199.708 249.946 199.532 250.871 199.34L250.886 199.417Z" fill="#D8B767"/>
<path d="M248.034 199.892V214.979C246.512 215.24 244.953 215.47 243.354 215.67V200.559C244.953 200.368 246.512 200.138 248.034 199.869V199.892Z" fill="#E1C37A"/>
<path d="M215.399 196.188H245.839C241.106 196.862 235.976 197.231 230.623 197.231C225.271 197.231 220.132 196.862 215.407 196.188H215.399Z" fill="#E1C37A"/>
<path d="M243.355 200.583V215.67C242.415 215.785 241.466 215.885 240.503 215.977V200.866C241.459 200.774 242.415 200.675 243.347 200.56V200.583H243.355Z" fill="#D8B767"/>
<path d="M240.503 200.889V215.976C238.966 216.114 237.406 216.229 235.823 216.306V201.196C237.406 201.119 238.974 201.012 240.503 200.866V200.889Z" fill="#E1C37A"/>
<path d="M235.815 201.218V216.305C234.874 216.351 233.919 216.382 232.963 216.405V201.295C233.919 201.272 234.874 201.241 235.815 201.195V201.218Z" fill="#D8B767"/>
<path d="M232.964 201.319V216.406C232.146 216.421 231.327 216.429 230.502 216.429C229.76 216.429 229.018 216.429 228.284 216.406V201.296C229.018 201.311 229.76 201.319 230.502 201.319C231.327 201.319 232.153 201.311 232.964 201.296V201.319Z" fill="#E1C37A"/>
<path d="M228.284 201.326V216.413C227.328 216.39 226.372 216.359 225.432 216.321V201.211C226.372 201.257 227.32 201.288 228.284 201.303V201.326Z" fill="#D8B767"/>
<path d="M225.431 201.226V216.313C223.894 216.244 222.373 216.145 220.882 216.007V200.896C222.373 201.027 223.887 201.134 225.431 201.203V201.226Z" fill="#E1C37A"/>
<path d="M220.89 200.905V200.928V216.015C219.927 215.931 218.979 215.831 218.038 215.716V200.613C218.979 200.721 219.934 200.82 220.89 200.905Z" fill="#D8B767"/>
<path d="M218.038 200.605V200.628V215.715C216.486 215.531 214.972 215.317 213.488 215.071V199.961C214.972 200.206 216.486 200.421 218.038 200.605Z" fill="#E1C37A"/>
<path d="M213.496 199.961V199.984V215.071C212.532 214.91 211.576 214.734 210.644 214.55V199.439C211.584 199.631 212.532 199.8 213.496 199.961Z" fill="#D8B767"/>
<path d="M210.644 199.439V199.462V214.549C209.016 214.219 207.433 213.859 205.911 213.452V198.35C207.44 198.748 209.016 199.117 210.652 199.439H210.644Z" fill="#E1C37A"/>
<path d="M205.911 198.35V198.365V213.453C204.94 213.2 203.984 212.923 203.059 212.64V197.537C203.991 197.821 204.94 198.097 205.911 198.35Z" fill="#D8B767"/>
<path d="M203.059 197.537V197.553V212.64C201.446 212.141 199.901 211.597 198.448 211.022V196.188H199.144C200.39 196.663 201.698 197.116 203.059 197.537Z" fill="#E1C37A"/>
<path d="M198.448 195.918V195.934V196.187H195.596V194.676C196.513 195.105 197.461 195.519 198.455 195.918H198.448Z" fill="#E8BB00"/>
<path d="M198.44 196.188V211.022C197.446 210.623 196.498 210.216 195.588 209.779V196.188H198.44Z" fill="#D8B767"/>
<path d="M195.596 194.676V194.691V196.187H190.985V192.106C192.369 193.019 193.914 193.878 195.604 194.676H195.596Z" fill="#E1C37A"/>
<path d="M195.588 196.188V209.779C193.898 208.981 192.354 208.122 190.978 207.209V196.188H195.588Z" fill="#E1C37A"/>
<path d="M190.985 192.114V192.13L190.977 196.195H188.125V189.967H188.133C188.981 190.703 189.937 191.432 190.985 192.122V192.114Z" fill="#D8B767"/>
<path d="M190.977 196.188V207.209C189.93 206.511 188.974 205.791 188.125 205.047V196.188H190.977Z" fill="#D8B767"/>
<path d="M188.133 189.951H188.126V196.195H183.393V181.107C183.393 184.283 185.098 187.282 188.141 189.951H188.133Z" fill="#E1C37A"/>
<path d="M188.126 196.188V205.047C185.09 202.37 183.393 199.371 183.393 196.188H188.126Z" fill="#E1C37A"/>
<path d="M199.144 196.187C198.907 196.095 198.678 196.011 198.456 195.919C197.462 195.52 196.514 195.106 195.604 194.676C193.914 193.878 192.369 193.019 190.993 192.107C189.945 191.416 188.99 190.695 188.141 189.944C185.105 187.274 183.4 184.268 183.393 181.1C183.393 169.917 204.489 160.858 230.509 160.858C256.53 160.858 277.626 169.917 277.626 181.092C277.626 184.214 275.982 187.167 273.053 189.798C272.205 190.557 271.256 191.293 270.201 191.999C268.84 192.912 267.311 193.771 265.636 194.576C264.727 195.014 263.778 195.435 262.784 195.834C262.486 195.957 262.18 196.072 261.874 196.187" stroke="#212121" stroke-miterlimit="10"/>
<path d="M183.393 196.188C183.393 199.363 185.098 202.37 188.126 205.047C188.974 205.798 189.93 206.519 190.978 207.209C192.354 208.115 193.899 208.981 195.588 209.779C196.498 210.216 197.447 210.623 198.441 211.022C199.893 211.604 201.438 212.141 203.051 212.64C203.976 212.924 204.925 213.2 205.903 213.453C207.425 213.852 209.008 214.22 210.636 214.55C211.569 214.734 212.517 214.91 213.489 215.071C214.964 215.317 216.486 215.532 218.038 215.716C218.979 215.823 219.927 215.923 220.89 216.015C222.381 216.145 223.895 216.253 225.44 216.322C226.38 216.368 227.328 216.398 228.292 216.414C229.026 216.429 229.768 216.437 230.509 216.437C231.335 216.437 232.161 216.429 232.971 216.414C233.927 216.391 234.883 216.36 235.823 216.314C237.406 216.237 238.974 216.13 240.503 215.984C241.466 215.892 242.415 215.792 243.355 215.677C244.953 215.486 246.513 215.248 248.035 214.987C249.006 214.818 249.954 214.642 250.887 214.45C252.416 214.136 253.907 213.783 255.337 213.399C256.308 213.138 257.264 212.862 258.189 212.571C259.802 212.065 261.332 211.52 262.784 210.937C263.771 210.538 264.727 210.116 265.636 209.679C267.311 208.874 268.84 208.015 270.201 207.102C271.256 206.396 272.212 205.66 273.053 204.893C275.982 202.255 277.618 199.302 277.618 196.188" stroke="#212121" stroke-miterlimit="10"/>
<path d="M183.393 196.187V181.1" stroke="#212121" stroke-miterlimit="10"/>
<path d="M277.618 196.187V181.1" stroke="#212121" stroke-miterlimit="10"/>
<path d="M273.497 182.104C272.426 188.563 261.247 193.993 245.84 196.187C241.107 196.862 235.976 197.23 230.624 197.23C225.271 197.23 220.133 196.862 215.408 196.187C200 193.993 188.821 188.563 187.751 182.104" stroke="#212121" stroke-miterlimit="10"/>
<path d="M187.735 182.104C187.682 181.767 187.651 181.429 187.651 181.084C187.651 172.164 206.89 164.938 230.616 164.938C254.343 164.938 273.581 172.171 273.581 181.084C273.581 181.429 273.55 181.767 273.497 182.104" stroke="#212121" stroke-miterlimit="10"/>
<path d="M187.735 182.105C189.135 173.66 207.799 166.972 230.616 166.972C253.433 166.972 272.097 173.66 273.497 182.105" stroke="#212121" stroke-miterlimit="10"/>
<path d="M188.126 205.046V196.187V189.959" stroke="#212121" stroke-miterlimit="10"/>
<path d="M190.978 207.209V196.187V192.122" stroke="#212121" stroke-miterlimit="10"/>
<path d="M195.589 209.779V196.187V194.691" stroke="#212121" stroke-miterlimit="10"/>
<path d="M198.44 211.021V196.187V195.934" stroke="#212121" stroke-miterlimit="10"/>
<path d="M203.052 212.64V197.553" stroke="#212121" stroke-miterlimit="10"/>
<path d="M205.903 213.452V198.365" stroke="#212121" stroke-miterlimit="10"/>
<path d="M210.637 214.549V199.462" stroke="#212121" stroke-miterlimit="10"/>
<path d="M213.488 215.071V199.983" stroke="#212121" stroke-miterlimit="10"/>
<path d="M218.038 215.715V200.628" stroke="#212121" stroke-miterlimit="10"/>
<path d="M220.891 216.007V200.92" stroke="#212121" stroke-miterlimit="10"/>
<path d="M225.432 216.314V201.227" stroke="#212121" stroke-miterlimit="10"/>
<path d="M228.284 216.406V201.326" stroke="#212121" stroke-miterlimit="10"/>
<path d="M232.964 216.406V201.318" stroke="#212121" stroke-miterlimit="10"/>
<path d="M235.815 216.306V201.219" stroke="#212121" stroke-miterlimit="10"/>
<path d="M240.503 215.976V200.889" stroke="#212121" stroke-miterlimit="10"/>
<path d="M243.355 215.669V200.582" stroke="#212121" stroke-miterlimit="10"/>
<path d="M248.034 214.979V199.892" stroke="#212121" stroke-miterlimit="10"/>
<path d="M250.887 214.442V199.416" stroke="#212121" stroke-miterlimit="10"/>
<path d="M255.337 213.391V198.304" stroke="#212121" stroke-miterlimit="10"/>
<path d="M258.188 212.571V197.483" stroke="#212121" stroke-miterlimit="10"/>
<path d="M262.784 210.937V196.187V195.85" stroke="#212121" stroke-miterlimit="10"/>
<path d="M265.637 209.679V196.187V194.592" stroke="#212121" stroke-miterlimit="10"/>
<path d="M270.201 207.094V196.187V192.015" stroke="#212121" stroke-miterlimit="10"/>
<path d="M273.054 204.893V196.187V189.806" stroke="#212121" stroke-miterlimit="10"/>
<path d="M230.501 201.326C256.523 201.326 277.618 192.267 277.618 181.092C277.618 169.917 256.523 160.858 230.501 160.858C204.48 160.858 183.385 169.917 183.385 181.092C183.385 192.267 204.48 201.326 230.501 201.326Z" stroke="#212121" stroke-miterlimit="10"/>
<path d="M262.609 162.224V177.311H258.044V170.929H258.036C260.965 168.291 262.609 165.338 262.609 162.224Z" fill="#E1C37A"/>
<path d="M262.608 162.216C262.608 165.338 260.964 168.291 258.036 170.922C257.187 171.681 256.239 172.418 255.184 173.123C253.823 174.036 252.293 174.895 250.619 175.7C249.709 176.138 248.761 176.56 247.767 176.958C247.469 177.081 247.163 177.196 246.857 177.311H230.823C246.23 175.118 257.409 169.687 258.479 163.229C258.533 162.891 258.563 162.554 258.563 162.209C258.563 153.288 239.325 146.063 215.599 146.063C191.872 146.063 172.642 153.288 172.642 162.209C172.642 162.554 172.672 162.891 172.726 163.229C173.796 169.687 184.975 175.125 200.383 177.319H184.126C183.889 177.227 183.66 177.142 183.438 177.05C182.444 176.652 181.496 176.237 180.586 175.808C178.896 175.01 177.352 174.151 175.975 173.238C174.928 172.548 173.972 171.827 173.123 171.075C170.088 168.406 168.383 165.399 168.375 162.232C168.375 151.049 189.471 141.99 215.492 141.99C241.512 141.99 262.608 151.049 262.608 162.224V162.216Z" fill="#E5DD73"/>
<path d="M258.043 177.312H262.608C262.608 180.426 260.972 183.379 258.043 186.017V177.312Z" fill="#E1C37A"/>
<path d="M258.571 162.209C258.571 162.554 258.54 162.892 258.487 163.229C257.088 154.784 238.423 148.096 215.606 148.096C192.79 148.096 174.125 154.784 172.726 163.229C172.672 162.892 172.642 162.554 172.642 162.209C172.642 153.289 191.88 146.063 215.606 146.063C239.333 146.063 258.571 153.296 258.571 162.209Z" fill="#D8B767"/>
<path d="M258.487 163.229H172.726C174.125 154.784 192.79 148.096 215.606 148.096C238.423 148.096 257.087 154.784 258.487 163.229Z" fill="#E1C37A"/>
<path d="M172.726 163.229H258.487C257.416 169.687 246.237 175.117 230.83 177.311H200.39C184.983 175.117 173.804 169.687 172.733 163.229H172.726Z" fill="#E1C37A"/>
<path d="M258.043 177.312V186.017C257.202 186.776 256.247 187.513 255.191 188.226V177.319H258.043V177.312Z" fill="#D8B767"/>
<path d="M258.043 170.93V177.311H255.191V173.123C256.239 172.418 257.187 171.681 258.036 170.922H258.043V170.93Z" fill="#D8B767"/>
<path d="M255.192 177.312V188.218C253.831 189.131 252.301 189.99 250.627 190.796V177.312H255.192Z" fill="#E1C37A"/>
<path d="M255.192 173.139V177.319H250.627V175.708C252.294 174.903 253.823 174.044 255.184 173.131V173.146L255.192 173.139Z" fill="#E1C37A"/>
<path d="M250.626 177.312V190.796C249.717 191.233 248.768 191.655 247.774 192.054V177.312H250.626Z" fill="#D8B767"/>
<path d="M250.626 175.716V177.311H247.774V176.958C248.761 176.559 249.709 176.137 250.619 175.7V175.716H250.626Z" fill="#D8B767"/>
<path d="M247.774 177.312V192.054C246.329 192.636 244.792 193.181 243.179 193.687V178.585C244.456 178.186 245.679 177.764 246.857 177.312H247.774Z" fill="#E1C37A"/>
<path d="M230.83 177.312H246.865C245.687 177.764 244.464 178.186 243.187 178.585C242.261 178.876 241.306 179.152 240.335 179.405C238.897 179.789 237.406 180.142 235.869 180.456C234.936 180.648 233.988 180.824 233.032 180.993C231.511 181.254 229.951 181.484 228.353 181.683C227.412 181.799 226.464 181.898 225.501 181.99C223.964 182.136 222.404 182.243 220.821 182.32C219.881 182.366 218.925 182.397 217.969 182.42C217.151 182.435 216.333 182.443 215.507 182.443C214.765 182.443 214.024 182.443 213.29 182.42C212.334 182.397 211.378 182.366 210.437 182.328C208.901 182.259 207.387 182.159 205.896 182.021C204.932 181.937 203.984 181.837 203.043 181.73C201.491 181.545 199.977 181.331 198.502 181.085C197.538 180.924 196.582 180.755 195.649 180.564C194.021 180.242 192.438 179.873 190.916 179.475C189.945 179.221 188.99 178.945 188.064 178.661C186.703 178.24 185.396 177.787 184.149 177.312H200.405C205.139 177.986 210.269 178.355 215.622 178.355C220.974 178.355 226.112 177.986 230.838 177.312H230.83Z" fill="#E5DD73"/>
<path d="M243.187 178.607V193.694C242.262 193.986 241.306 194.262 240.335 194.523V179.42C241.306 179.16 242.262 178.883 243.179 178.6V178.615L243.187 178.607Z" fill="#D8B767"/>
<path d="M240.335 179.428V194.516C238.897 194.899 237.414 195.252 235.884 195.566V180.541L235.869 180.464C237.406 180.149 238.897 179.797 240.335 179.413V179.436V179.428Z" fill="#E1C37A"/>
<path d="M235.876 180.541V195.566C234.944 195.758 233.995 195.942 233.024 196.103V181.001C233.98 180.832 234.936 180.656 235.861 180.464L235.876 180.541Z" fill="#D8B767"/>
<path d="M233.024 181.023V196.11C231.503 196.371 229.943 196.601 228.345 196.8V181.69C229.943 181.499 231.503 181.268 233.024 181V181.023Z" fill="#E1C37A"/>
<path d="M200.391 177.312H230.831C226.098 177.986 220.967 178.355 215.614 178.355C210.262 178.355 205.124 177.986 200.398 177.312H200.391Z" fill="#FCD501"/>
<path d="M228.345 181.707V196.794C227.405 196.909 226.457 197.009 225.493 197.101V181.99C226.449 181.898 227.405 181.799 228.338 181.684V181.707H228.345Z" fill="#D8B767"/>
<path d="M225.493 182.013V197.1C223.956 197.238 222.396 197.354 220.813 197.43V182.32C222.396 182.243 223.964 182.136 225.493 181.99V182.013Z" fill="#E1C37A"/>
<path d="M220.813 182.342V197.429C219.873 197.476 218.917 197.506 217.961 197.529V182.419C218.917 182.396 219.873 182.365 220.813 182.319V182.342Z" fill="#D8B767"/>
<path d="M217.962 182.443V197.53C217.144 197.545 216.325 197.553 215.5 197.553C214.758 197.553 214.016 197.553 213.282 197.53V182.42C214.016 182.435 214.758 182.443 215.5 182.443C216.325 182.443 217.151 182.435 217.962 182.42V182.443Z" fill="#E1C37A"/>
<path d="M213.274 182.45V197.537C212.318 197.514 211.362 197.483 210.422 197.445V182.335C211.362 182.381 212.311 182.412 213.274 182.427V182.45Z" fill="#D8B767"/>
<path d="M210.429 182.35V197.437C208.893 197.368 207.371 197.269 205.88 197.131V182.021C207.371 182.151 208.885 182.258 210.429 182.327V182.35Z" fill="#E1C37A"/>
<path d="M205.88 182.029V182.052V197.139C204.917 197.055 203.969 196.955 203.028 196.84V181.737C203.969 181.845 204.925 181.944 205.88 182.029Z" fill="#D8B767"/>
<path d="M203.028 181.729V181.752V196.839C201.476 196.655 199.962 196.441 198.479 196.195V181.085C199.962 181.33 201.476 181.545 203.028 181.729Z" fill="#E1C37A"/>
<path d="M198.486 181.085V181.108V196.195C197.522 196.034 196.567 195.858 195.634 195.674V180.563C196.574 180.755 197.522 180.924 198.486 181.085Z" fill="#D8B767"/>
<path d="M195.634 180.564V180.587V195.674C194.006 195.344 192.423 194.984 190.901 194.577V179.475C192.431 179.873 194.006 180.242 195.642 180.564H195.634Z" fill="#E1C37A"/>
<path d="M190.901 179.474V179.49V194.577C189.93 194.324 188.974 194.047 188.049 193.764V178.661C188.982 178.945 189.93 179.221 190.901 179.474Z" fill="#D8B767"/>
<path d="M188.049 178.661V178.677V193.764C186.436 193.265 184.891 192.721 183.438 192.146V177.312H184.134C185.381 177.787 186.688 178.24 188.049 178.661Z" fill="#E1C37A"/>
<path d="M183.438 177.042V177.058V177.311H180.586V175.8C181.503 176.229 182.452 176.644 183.446 177.042H183.438Z" fill="#D8B767"/>
<path d="M183.438 177.312V192.146C182.444 191.747 181.496 191.34 180.586 190.903V177.312H183.438Z" fill="#D8B767"/>
<path d="M180.586 175.8V175.815V177.311H175.976V173.23C177.36 174.143 178.904 175.002 180.594 175.8H180.586Z" fill="#E1C37A"/>
<path d="M180.586 177.312V190.903C178.896 190.105 177.352 189.246 175.976 188.334V177.312H180.586Z" fill="#E1C37A"/>
<path d="M175.983 173.238V173.254L175.975 177.319H173.123V171.091H173.131C173.979 171.827 174.935 172.556 175.983 173.246V173.238Z" fill="#D8B767"/>
<path d="M175.975 177.312V188.334C174.928 187.636 173.972 186.915 173.123 186.171V177.312H175.975Z" fill="#D8B767"/>
<path d="M173.131 171.075H173.124V177.319H168.383V162.231C168.383 165.407 170.088 168.406 173.131 171.075Z" fill="#E1C37A"/>
<path d="M173.116 177.312V186.171C170.08 183.494 168.383 180.495 168.383 177.312H173.116Z" fill="#E1C37A"/>
<path d="M184.134 177.311C183.897 177.219 183.668 177.135 183.446 177.043C182.452 176.644 181.504 176.23 180.594 175.8C178.904 175.002 177.36 174.143 175.983 173.231C174.936 172.54 173.98 171.819 173.131 171.068C170.096 168.398 168.39 165.392 168.383 162.224C168.383 151.041 189.479 141.982 215.499 141.982C241.52 141.982 262.616 151.041 262.616 162.216C262.616 165.338 260.972 168.291 258.044 170.922C257.195 171.681 256.247 172.418 255.192 173.123C253.83 174.036 252.301 174.895 250.627 175.7C249.717 176.138 248.769 176.559 247.775 176.958C247.476 177.081 247.171 177.196 246.865 177.311" stroke="#212121" stroke-miterlimit="10"/>
<path d="M168.383 177.312C168.383 180.487 170.088 183.494 173.116 186.171C173.965 186.922 174.92 187.643 175.968 188.334C177.344 189.239 178.889 190.105 180.579 190.903C181.489 191.34 182.437 191.747 183.431 192.146C184.884 192.728 186.428 193.265 188.042 193.764C188.967 194.048 189.915 194.324 190.894 194.577C192.415 194.976 193.998 195.344 195.627 195.674C196.56 195.858 197.508 196.034 198.479 196.195C199.954 196.441 201.476 196.656 203.028 196.84C203.969 196.947 204.917 197.047 205.88 197.139C207.371 197.269 208.885 197.377 210.43 197.446C211.37 197.492 212.319 197.522 213.282 197.538C214.016 197.553 214.758 197.561 215.499 197.561C216.325 197.561 217.151 197.553 217.962 197.538C218.917 197.515 219.873 197.484 220.814 197.438C222.396 197.361 223.964 197.254 225.493 197.108C226.457 197.016 227.405 196.916 228.345 196.801C229.943 196.61 231.503 196.372 233.025 196.111C233.996 195.942 234.944 195.766 235.877 195.574C237.406 195.26 238.897 194.907 240.327 194.523C241.298 194.263 242.254 193.986 243.179 193.695C244.793 193.189 246.322 192.644 247.775 192.061C248.761 191.662 249.717 191.24 250.627 190.803C252.301 189.998 253.83 189.139 255.192 188.226C256.247 187.52 257.203 186.784 258.044 186.017C260.972 183.379 262.608 180.426 262.608 177.312" stroke="#212121" stroke-miterlimit="10"/>
<path d="M168.383 177.311V162.224" stroke="#212121" stroke-miterlimit="10"/>
<path d="M262.608 177.311V162.224" stroke="#212121" stroke-miterlimit="10"/>
<path d="M258.487 163.229C257.417 169.687 246.238 175.117 230.83 177.311C226.097 177.986 220.967 178.354 215.614 178.354C210.262 178.354 205.123 177.986 200.398 177.311C184.991 175.117 173.812 169.687 172.741 163.229" stroke="#212121" stroke-miterlimit="10"/>
<path d="M172.726 163.228C172.672 162.891 172.642 162.553 172.642 162.208C172.642 153.288 191.88 146.062 215.606 146.062C239.333 146.062 258.571 153.295 258.571 162.208C258.571 162.553 258.54 162.891 258.487 163.228" stroke="#212121" stroke-miterlimit="10"/>
<path d="M172.726 163.229C174.125 154.784 192.79 148.096 215.606 148.096C238.423 148.096 257.087 154.784 258.487 163.229" stroke="#212121" stroke-miterlimit="10"/>
<path d="M173.116 186.17V177.311V171.083" stroke="#212121" stroke-miterlimit="10"/>
<path d="M175.976 188.333V177.311V173.246" stroke="#212121" stroke-miterlimit="10"/>
<path d="M180.586 190.903V177.311V175.815" stroke="#212121" stroke-miterlimit="10"/>
<path d="M183.438 192.145V177.311V177.058" stroke="#212121" stroke-miterlimit="10"/>
<path d="M188.049 193.764V178.677" stroke="#212121" stroke-miterlimit="10"/>
<path d="M190.894 194.576V179.489" stroke="#212121" stroke-miterlimit="10"/>
<path d="M195.634 195.673V180.586" stroke="#212121" stroke-miterlimit="10"/>
<path d="M198.479 196.195V181.107" stroke="#212121" stroke-miterlimit="10"/>
<path d="M203.028 196.839V181.752" stroke="#212121" stroke-miterlimit="10"/>
<path d="M205.88 197.13V182.051" stroke="#212121" stroke-miterlimit="10"/>
<path d="M210.43 197.438V182.351" stroke="#212121" stroke-miterlimit="10"/>
<path d="M213.274 197.537V182.45" stroke="#212121" stroke-miterlimit="10"/>
<path d="M217.962 197.53V182.442" stroke="#212121" stroke-miterlimit="10"/>
<path d="M220.813 197.43V182.343" stroke="#212121" stroke-miterlimit="10"/>
<path d="M225.493 197.1V182.013" stroke="#212121" stroke-miterlimit="10"/>
<path d="M228.346 196.793V181.706" stroke="#212121" stroke-miterlimit="10"/>
<path d="M233.024 196.103V181.023" stroke="#212121" stroke-miterlimit="10"/>
<path d="M235.877 195.566V180.54" stroke="#212121" stroke-miterlimit="10"/>
<path d="M240.335 194.515V179.428" stroke="#212121" stroke-miterlimit="10"/>
<path d="M243.187 193.695V178.607" stroke="#212121" stroke-miterlimit="10"/>
<path d="M247.774 192.061V177.311V176.974" stroke="#212121" stroke-miterlimit="10"/>
<path d="M250.627 190.803V177.311V175.716" stroke="#212121" stroke-miterlimit="10"/>
<path d="M255.191 188.226V177.311V173.139" stroke="#212121" stroke-miterlimit="10"/>
<path d="M258.044 186.017V177.311V170.93" stroke="#212121" stroke-miterlimit="10"/>
<path d="M215.499 182.45C241.521 182.45 262.616 173.391 262.616 162.216C262.616 151.041 241.521 141.982 215.499 141.982C189.478 141.982 168.383 151.041 168.383 162.216C168.383 173.391 189.478 182.45 215.499 182.45Z" stroke="#212121" stroke-miterlimit="10"/>
<path d="M271.447 144.406V159.493H266.882V153.112H266.874C269.803 150.473 271.447 147.52 271.447 144.406Z" fill="#E1C37A"/>
<path d="M271.447 144.399C271.447 147.521 269.803 150.474 266.874 153.105C266.026 153.864 265.078 154.6 264.022 155.306C262.661 156.219 261.132 157.078 259.458 157.883C258.548 158.32 257.599 158.742 256.605 159.141C256.307 159.264 256.001 159.379 255.696 159.494H239.661C255.069 157.3 266.247 151.87 267.318 145.411C267.371 145.074 267.402 144.736 267.402 144.391C267.402 135.471 248.164 128.246 224.437 128.246C200.711 128.246 181.473 135.479 181.473 144.391C181.473 144.736 181.503 145.074 181.557 145.411C182.627 151.87 193.806 157.308 209.214 159.501H192.957C192.72 159.409 192.491 159.325 192.269 159.233C191.275 158.834 190.327 158.42 189.417 157.99C187.727 157.193 186.183 156.334 184.806 155.421C183.759 154.731 182.803 154.01 181.954 153.258C178.919 150.589 177.214 147.582 177.206 144.414C177.206 133.231 198.302 124.173 224.323 124.173C250.343 124.173 271.439 133.231 271.439 144.407L271.447 144.399Z" fill="#E5DD73"/>
<path d="M266.882 159.494H271.447C271.447 162.608 269.81 165.561 266.882 168.2V159.494Z" fill="#E1C37A"/>
<path d="M267.41 144.392C267.41 144.737 267.379 145.074 267.326 145.412C265.926 136.967 247.262 130.279 224.445 130.279C201.629 130.279 182.964 136.967 181.565 145.412C181.511 145.074 181.48 144.737 181.48 144.392C181.48 135.471 200.719 128.246 224.445 128.246C248.172 128.246 267.41 135.479 267.41 144.392Z" fill="#E1C37A"/>
<path d="M267.326 145.411H181.564C182.964 136.967 201.628 130.278 224.445 130.278C247.262 130.278 265.926 136.967 267.326 145.411Z" fill="#E1C37A"/>
<path d="M181.564 145.411H267.326C266.255 151.869 255.076 157.3 239.669 159.493H209.229C193.822 157.3 182.643 151.869 181.572 145.411H181.564Z" fill="#E1C37A"/>
<path d="M266.882 159.494V168.2C266.041 168.959 265.085 169.695 264.03 170.409V159.502H266.882V159.494Z" fill="#D8B767"/>
<path d="M266.882 153.112V159.494H264.03V155.306C265.078 154.6 266.026 153.864 266.875 153.104H266.882V153.112Z" fill="#D8B767"/>
<path d="M264.03 159.494V170.401C262.669 171.314 261.139 172.173 259.465 172.978V159.494H264.03Z" fill="#E1C37A"/>
<path d="M264.03 155.313V159.494H259.465V157.883C261.132 157.077 262.661 156.218 264.022 155.306V155.321L264.03 155.313Z" fill="#E1C37A"/>
<path d="M259.465 159.494V172.978C258.555 173.415 257.607 173.837 256.613 174.236V159.494H259.465Z" fill="#D8B767"/>
<path d="M259.465 157.898V159.494H256.613V159.141C257.6 158.742 258.548 158.32 259.458 157.883V157.898H259.465Z" fill="#D8B767"/>
<path d="M256.613 159.494V174.236C255.168 174.819 253.631 175.364 252.018 175.87V160.767C253.295 160.369 254.518 159.947 255.695 159.494H256.613Z" fill="#E1C37A"/>
<path d="M239.669 159.494H255.703C254.526 159.947 253.302 160.369 252.026 160.767C251.1 161.059 250.145 161.335 249.173 161.588C247.736 161.972 246.245 162.324 244.708 162.639C243.775 162.831 242.827 163.007 241.871 163.176C240.35 163.437 238.79 163.667 237.192 163.866C236.251 163.981 235.303 164.081 234.34 164.173C232.803 164.319 231.243 164.426 229.66 164.503C228.72 164.549 227.764 164.579 226.808 164.602C225.99 164.618 225.172 164.625 224.346 164.625C223.604 164.625 222.862 164.625 222.128 164.602C221.173 164.579 220.217 164.549 219.276 164.51C217.739 164.441 216.225 164.342 214.734 164.204C213.771 164.119 212.823 164.02 211.882 163.912C210.33 163.728 208.816 163.513 207.34 163.268C206.377 163.107 205.421 162.938 204.488 162.746C202.86 162.424 201.277 162.056 199.755 161.657C198.784 161.404 197.828 161.128 196.903 160.844C195.542 160.422 194.235 159.97 192.988 159.494H209.244C213.977 160.169 219.108 160.537 224.461 160.537C229.813 160.537 234.951 160.169 239.677 159.494H239.669Z" fill="#E5DD73"/>
<path d="M252.025 160.79V175.877C251.1 176.169 250.144 176.445 249.173 176.705V161.603C250.144 161.342 251.1 161.066 252.017 160.782V160.798L252.025 160.79Z" fill="#D8B767"/>
<path d="M249.173 161.611V176.698C247.736 177.082 246.253 177.435 244.723 177.749V162.723L244.708 162.647C246.245 162.332 247.736 161.979 249.173 161.596V161.619V161.611Z" fill="#E1C37A"/>
<path d="M244.715 162.723V177.749C243.783 177.941 242.834 178.125 241.863 178.286V163.183C242.819 163.015 243.775 162.838 244.7 162.646L244.715 162.723Z" fill="#D8B767"/>
<path d="M241.863 163.199V178.286C240.342 178.547 238.782 178.777 237.184 178.976V163.866C238.782 163.674 240.342 163.444 241.863 163.176V163.199Z" fill="#E1C37A"/>
<path d="M209.229 159.494H239.669C234.935 160.169 229.805 160.537 224.452 160.537C219.1 160.537 213.962 160.169 209.236 159.494H209.229Z" fill="#FCD501"/>
<path d="M237.184 163.889V178.976C236.244 179.091 235.295 179.191 234.332 179.283V164.173C235.288 164.081 236.244 163.981 237.176 163.866V163.889H237.184Z" fill="#D8B767"/>
<path d="M234.332 164.196V179.283C232.795 179.421 231.235 179.536 229.652 179.613V164.503C231.235 164.426 232.803 164.319 234.332 164.173V164.196Z" fill="#E1C37A"/>
<path d="M229.652 164.525V179.612C228.711 179.658 227.756 179.689 226.8 179.712V164.602C227.756 164.579 228.711 164.548 229.652 164.502V164.525Z" fill="#D8B767"/>
<path d="M226.793 164.626V179.713C225.975 179.728 225.157 179.736 224.331 179.736C223.589 179.736 222.847 179.736 222.113 179.713V164.603C222.847 164.618 223.589 164.626 224.331 164.626C225.157 164.626 225.982 164.618 226.793 164.603V164.626Z" fill="#E1C37A"/>
<path d="M222.113 164.625V179.712C221.157 179.689 220.201 179.658 219.261 179.62V164.51C220.201 164.556 221.149 164.586 222.113 164.602V164.625Z" fill="#D8B767"/>
<path d="M219.26 164.533V179.62C217.724 179.551 216.202 179.451 214.711 179.313V164.203C216.202 164.334 217.716 164.441 219.26 164.51V164.533Z" fill="#E1C37A"/>
<path d="M214.719 164.211V164.234V179.322C213.756 179.237 212.808 179.137 211.867 179.022V163.92C212.808 164.027 213.763 164.127 214.719 164.211Z" fill="#D8B767"/>
<path d="M211.867 163.912V163.935V179.022C210.315 178.838 208.801 178.623 207.317 178.378V163.268C208.801 163.513 210.315 163.728 211.867 163.912Z" fill="#E1C37A"/>
<path d="M207.325 163.268V163.291V178.378C206.361 178.217 205.406 178.04 204.473 177.856V162.746C205.413 162.938 206.361 163.107 207.325 163.268Z" fill="#D8B767"/>
<path d="M204.473 162.746V162.769V177.857C202.845 177.527 201.262 177.166 199.74 176.76V161.657C201.269 162.056 202.845 162.424 204.481 162.746H204.473Z" fill="#E1C37A"/>
<path d="M199.74 161.657V161.672V176.759C198.769 176.506 197.813 176.23 196.888 175.946V160.844C197.821 161.128 198.769 161.404 199.74 161.657Z" fill="#D8B767"/>
<path d="M196.888 160.844V160.859V175.947C195.275 175.448 193.73 174.903 192.277 174.328V159.494H192.973C194.22 159.97 195.527 160.422 196.888 160.844Z" fill="#E1C37A"/>
<path d="M192.277 159.225V159.24V159.493H189.425V157.982C190.342 158.412 191.291 158.826 192.285 159.225H192.277Z" fill="#E8BB00"/>
<path d="M192.269 159.494V174.328C191.275 173.929 190.327 173.523 189.417 173.086V159.494H192.269Z" fill="#D8B767"/>
<path d="M189.425 157.983V157.998V159.494H184.814V155.413C186.198 156.326 187.743 157.185 189.433 157.983H189.425Z" fill="#FCD501"/>
<path d="M189.417 159.494V173.086C187.728 172.288 186.183 171.429 184.807 170.516V159.494H189.417Z" fill="#E1C37A"/>
<path d="M184.814 155.413V155.429L184.806 159.494H181.954V153.266H181.962C182.81 154.002 183.766 154.731 184.814 155.421V155.413Z" fill="#D8B767"/>
<path d="M184.806 159.494V170.516C183.759 169.818 182.803 169.097 181.954 168.353V159.494H184.806Z" fill="#D8B767"/>
<path d="M181.962 153.258H181.955V159.501H177.222V144.414C177.222 147.589 178.927 150.589 181.97 153.258H181.962Z" fill="#E1C37A"/>
<path d="M181.955 159.494V168.353C178.919 165.676 177.222 162.677 177.222 159.494H181.955Z" fill="#E1C37A"/>
<path d="M192.973 159.494C192.736 159.402 192.507 159.317 192.285 159.225C191.291 158.826 190.343 158.412 189.433 157.983C187.743 157.185 186.198 156.326 184.822 155.413C183.775 154.723 182.819 154.002 181.97 153.25C178.934 150.581 177.229 147.574 177.222 144.407C177.222 133.223 198.318 124.165 224.338 124.165C250.359 124.165 271.455 133.223 271.455 144.399C271.455 147.521 269.811 150.474 266.882 153.104C266.034 153.864 265.086 154.6 264.03 155.306C262.669 156.219 261.14 157.078 259.466 157.883C258.556 158.32 257.607 158.742 256.613 159.141C256.315 159.264 256.009 159.379 255.704 159.494" stroke="#212121" stroke-miterlimit="10"/>
<path d="M177.222 159.494C177.222 162.67 178.927 165.676 181.955 168.353C182.803 169.105 183.759 169.826 184.807 170.516C186.183 171.421 187.728 172.288 189.418 173.086C190.327 173.523 191.276 173.929 192.27 174.328C193.722 174.911 195.267 175.448 196.88 175.947C197.806 176.23 198.754 176.506 199.732 176.76C201.254 177.158 202.837 177.527 204.466 177.856C205.398 178.041 206.347 178.217 207.318 178.378C208.793 178.623 210.315 178.838 211.867 179.022C212.808 179.13 213.756 179.229 214.719 179.321C216.21 179.452 217.724 179.559 219.269 179.628C220.209 179.674 221.157 179.705 222.121 179.72C222.855 179.736 223.597 179.743 224.338 179.743C225.164 179.743 225.99 179.736 226.8 179.72C227.756 179.697 228.712 179.667 229.653 179.621C231.235 179.544 232.803 179.436 234.332 179.291C235.295 179.199 236.244 179.099 237.184 178.984C238.782 178.792 240.342 178.554 241.864 178.294C242.835 178.125 243.783 177.948 244.716 177.757C246.245 177.442 247.736 177.089 249.166 176.706C250.137 176.445 251.093 176.169 252.018 175.878C253.631 175.371 255.161 174.827 256.613 174.244C257.6 173.845 258.556 173.423 259.466 172.986C261.14 172.181 262.669 171.321 264.03 170.409C265.086 169.703 266.041 168.967 266.882 168.2C269.811 165.561 271.447 162.608 271.447 159.494" stroke="#212121" stroke-miterlimit="10"/>
<path d="M177.222 159.493V144.406" stroke="#212121" stroke-miterlimit="10"/>
<path d="M271.447 159.493V144.406" stroke="#212121" stroke-miterlimit="10"/>
<path d="M267.326 145.411C266.255 151.869 255.077 157.3 239.669 159.493C234.936 160.168 229.805 160.537 224.453 160.537C219.101 160.537 213.962 160.168 209.237 159.493C193.829 157.3 182.651 151.869 181.58 145.411" stroke="#212121" stroke-miterlimit="10"/>
<path d="M181.565 145.411C181.511 145.073 181.48 144.736 181.48 144.391C181.48 135.47 200.719 128.245 224.445 128.245C248.172 128.245 267.41 135.478 267.41 144.391C267.41 144.736 267.379 145.073 267.326 145.411" stroke="#212121" stroke-miterlimit="10"/>
<path d="M181.564 145.411C182.964 136.967 201.628 130.278 224.445 130.278C247.262 130.278 265.926 136.967 267.326 145.411" stroke="#212121" stroke-miterlimit="10"/>
<path d="M181.955 168.353V159.494V153.266" stroke="#212121" stroke-miterlimit="10"/>
<path d="M184.807 170.516V159.494V155.429" stroke="#212121" stroke-miterlimit="10"/>
<path d="M189.418 173.085V159.494V157.998" stroke="#212121" stroke-miterlimit="10"/>
<path d="M192.27 174.327V159.493V159.24" stroke="#212121" stroke-miterlimit="10"/>
<path d="M196.881 175.947V160.859" stroke="#212121" stroke-miterlimit="10"/>
<path d="M199.732 176.759V161.672" stroke="#212121" stroke-miterlimit="10"/>
<path d="M204.466 177.856V162.769" stroke="#212121" stroke-miterlimit="10"/>
<path d="M207.317 178.377V163.29" stroke="#212121" stroke-miterlimit="10"/>
<path d="M211.867 179.022V163.935" stroke="#212121" stroke-miterlimit="10"/>
<path d="M214.72 179.314V164.227" stroke="#212121" stroke-miterlimit="10"/>
<path d="M219.261 179.62V164.533" stroke="#212121" stroke-miterlimit="10"/>
<path d="M222.113 179.712V164.625" stroke="#212121" stroke-miterlimit="10"/>
<path d="M226.793 179.712V164.625" stroke="#212121" stroke-miterlimit="10"/>
<path d="M229.652 179.613V164.525" stroke="#212121" stroke-miterlimit="10"/>
<path d="M234.332 179.282V164.195" stroke="#212121" stroke-miterlimit="10"/>
<path d="M237.185 178.976V163.889" stroke="#212121" stroke-miterlimit="10"/>
<path d="M241.863 178.285V163.198" stroke="#212121" stroke-miterlimit="10"/>
<path d="M244.716 177.748V162.723" stroke="#212121" stroke-miterlimit="10"/>
<path d="M249.174 176.698V161.61" stroke="#212121" stroke-miterlimit="10"/>
<path d="M252.025 175.877V160.79" stroke="#212121" stroke-miterlimit="10"/>
<path d="M256.613 174.243V159.494V159.156" stroke="#212121" stroke-miterlimit="10"/>
<path d="M259.466 172.986V159.494V157.898" stroke="#212121" stroke-miterlimit="10"/>
<path d="M264.03 170.401V159.494V155.313" stroke="#212121" stroke-miterlimit="10"/>
<path d="M266.883 168.199V159.494V153.112" stroke="#212121" stroke-miterlimit="10"/>
<path d="M224.331 164.633C250.352 164.633 271.447 155.574 271.447 144.399C271.447 133.224 250.352 124.165 224.331 124.165C198.309 124.165 177.214 133.224 177.214 144.399C177.214 155.574 198.309 164.633 224.331 164.633Z" stroke="#212121" stroke-miterlimit="10"/>
<path d="M264.955 130.301V145.388H260.39V139.006H260.383C263.311 136.368 264.955 133.415 264.955 130.301Z" fill="#E1C37A"/>
<path d="M264.955 130.286C264.955 133.407 263.311 136.36 260.382 138.991C259.534 139.751 258.586 140.487 257.53 141.193C256.169 142.105 254.64 142.964 252.966 143.77C252.056 144.207 251.107 144.629 250.113 145.028C249.815 145.15 249.509 145.265 249.204 145.381H233.169C248.577 143.187 259.755 137.756 260.826 131.298C260.879 130.961 260.91 130.623 260.91 130.278C260.91 121.358 241.672 114.132 217.945 114.132C194.219 114.132 174.988 121.365 174.988 130.278C174.988 130.623 175.019 130.961 175.072 131.298C176.143 137.756 187.322 143.195 202.729 145.388H186.473C186.236 145.296 186.007 145.212 185.785 145.12C184.791 144.721 183.843 144.307 182.933 143.877C181.243 143.079 179.698 142.22 178.322 141.308C177.275 140.617 176.319 139.896 175.47 139.145C172.434 136.476 170.729 133.469 170.722 130.301C170.722 119.118 191.818 110.06 217.838 110.06C243.859 110.06 264.955 119.118 264.955 130.293V130.286Z" fill="#E5DD73"/>
<path d="M260.39 145.389H264.955C264.955 148.503 263.318 151.456 260.39 154.094V145.389Z" fill="#E1C37A"/>
<path d="M260.918 130.278C260.918 130.624 260.887 130.961 260.834 131.299C259.434 122.854 240.77 116.165 217.953 116.165C195.137 116.165 176.479 122.854 175.08 131.299C175.027 130.961 174.996 130.624 174.996 130.278C174.996 121.358 194.234 114.133 217.961 114.133C241.687 114.133 260.925 121.366 260.925 130.278H260.918Z" fill="#E8BB00"/>
<path d="M260.833 131.298H175.072C176.472 122.853 195.136 116.165 217.953 116.165C240.769 116.165 259.434 122.853 260.833 131.298Z" fill="#FCD501"/>
<path d="M175.08 131.298H260.841C259.771 137.756 248.592 143.187 233.184 145.38H202.744C187.337 143.187 176.158 137.756 175.088 131.298H175.08Z" fill="#E1C37A"/>
<path d="M260.39 145.389V154.094C259.549 154.854 258.593 155.59 257.538 156.303V145.396H260.39V145.389Z" fill="#D8B767"/>
<path d="M260.39 139.007V145.388H257.538V141.2C258.586 140.495 259.534 139.758 260.383 138.999H260.39V139.007Z" fill="#D8B767"/>
<path d="M257.538 145.389V156.296C256.177 157.208 254.648 158.067 252.974 158.873V145.389H257.538Z" fill="#E1C37A"/>
<path d="M257.538 141.208V145.388H252.974V143.777C254.641 142.972 256.17 142.113 257.531 141.2V141.216L257.538 141.208Z" fill="#E1C37A"/>
<path d="M252.973 145.389V158.873C252.063 159.31 251.115 159.732 250.121 160.131V145.389H252.973Z" fill="#D8B767"/>
<path d="M252.973 143.785V145.38H250.121V145.027C251.107 144.629 252.056 144.207 252.966 143.77V143.785H252.973Z" fill="#D8B767"/>
<path d="M250.121 145.389V160.131C248.676 160.714 247.139 161.258 245.525 161.764V146.662C246.802 146.263 248.026 145.841 249.203 145.389H250.121Z" fill="#E1C37A"/>
<path d="M233.177 145.389H249.211C248.034 145.841 246.81 146.263 245.533 146.662C244.608 146.953 243.652 147.23 242.681 147.483C241.244 147.866 239.753 148.219 238.216 148.533C237.283 148.725 236.335 148.902 235.379 149.07C233.857 149.331 232.298 149.561 230.699 149.761C229.759 149.876 228.811 149.975 227.847 150.067C226.31 150.213 224.751 150.321 223.168 150.397C222.227 150.443 221.272 150.474 220.316 150.497C219.498 150.512 218.679 150.52 217.854 150.52C217.112 150.52 216.37 150.52 215.636 150.497C214.68 150.474 213.725 150.443 212.784 150.405C211.247 150.336 209.733 150.236 208.242 150.098C207.279 150.014 206.331 149.914 205.39 149.807C203.838 149.623 202.324 149.408 200.848 149.162C199.885 149.001 198.929 148.833 197.996 148.641C196.367 148.319 194.785 147.95 193.263 147.552C192.292 147.299 191.336 147.022 190.411 146.739C189.05 146.317 187.742 145.864 186.496 145.389H202.752C207.485 146.064 212.616 146.432 217.968 146.432C223.321 146.432 228.459 146.064 233.185 145.389H233.177Z" fill="#E5DD73"/>
<path d="M245.534 146.677V161.764C244.609 162.055 243.653 162.331 242.682 162.592V147.49C243.653 147.229 244.609 146.953 245.526 146.669V146.684L245.534 146.677Z" fill="#D8B767"/>
<path d="M242.681 147.506V162.593C241.244 162.976 239.76 163.329 238.231 163.644V148.618L238.216 148.541C239.753 148.227 241.244 147.874 242.681 147.49V147.513V147.506Z" fill="#E1C37A"/>
<path d="M238.223 148.61V163.636C237.29 163.827 236.342 164.012 235.371 164.173V149.07C236.327 148.901 237.283 148.725 238.208 148.533L238.223 148.61Z" fill="#D8B767"/>
<path d="M235.371 149.093V164.18C233.849 164.441 232.289 164.671 230.691 164.871V149.761C232.289 149.569 233.849 149.339 235.371 149.07V149.093Z" fill="#E1C37A"/>
<path d="M202.737 145.389H233.177C228.444 146.064 223.314 146.432 217.961 146.432C212.609 146.432 207.47 146.064 202.745 145.389H202.737Z" fill="#E1C37A"/>
<path d="M230.692 149.783V164.87C229.751 164.985 228.803 165.085 227.84 165.177V150.067C228.796 149.975 229.751 149.875 230.684 149.76V149.783H230.692Z" fill="#D8B767"/>
<path d="M227.84 150.083V165.17C226.303 165.308 224.743 165.423 223.16 165.5V150.389C224.743 150.313 226.31 150.205 227.84 150.06V150.083Z" fill="#E1C37A"/>
<path d="M223.16 150.412V165.499C222.219 165.545 221.263 165.576 220.308 165.599V150.488C221.263 150.465 222.219 150.435 223.16 150.389V150.412Z" fill="#D8B767"/>
<path d="M220.308 150.519V165.606C219.49 165.622 218.672 165.629 217.846 165.629C217.105 165.629 216.363 165.629 215.629 165.606V150.496C216.363 150.511 217.105 150.519 217.846 150.519C218.672 150.519 219.498 150.511 220.308 150.496V150.519Z" fill="#E1C37A"/>
<path d="M215.621 150.519V165.607C214.665 165.583 213.709 165.553 212.769 165.514V150.404C213.709 150.45 214.657 150.481 215.621 150.496V150.519Z" fill="#D8B767"/>
<path d="M212.776 150.427V165.515C211.239 165.446 209.718 165.346 208.227 165.208V150.098C209.718 150.228 211.232 150.335 212.776 150.404V150.427Z" fill="#E1C37A"/>
<path d="M208.227 150.098V150.121V165.208C207.264 165.124 206.315 165.024 205.375 164.909V149.807C206.315 149.914 207.271 150.014 208.227 150.098Z" fill="#D8B767"/>
<path d="M205.375 149.806V149.829V164.917C203.823 164.732 202.309 164.518 200.825 164.272V149.162C202.309 149.408 203.823 149.622 205.375 149.806Z" fill="#E1C37A"/>
<path d="M200.833 149.162V149.185V164.272C199.869 164.111 198.913 163.935 197.98 163.751V148.641C198.921 148.832 199.869 149.001 200.833 149.162Z" fill="#D8B767"/>
<path d="M197.981 148.64V148.663V163.75C196.352 163.42 194.77 163.06 193.248 162.653V147.551C194.777 147.95 196.352 148.318 197.989 148.64H197.981Z" fill="#E1C37A"/>
<path d="M193.248 147.551V147.567V162.654C192.277 162.401 191.321 162.125 190.396 161.841V146.738C191.328 147.022 192.277 147.298 193.248 147.551Z" fill="#D8B767"/>
<path d="M190.396 146.739V146.754V161.841C188.783 161.343 187.238 160.798 185.785 160.223V145.389H186.481C187.727 145.864 189.035 146.317 190.396 146.739Z" fill="#E1C37A"/>
<path d="M185.793 145.12V145.135V145.388H182.94V143.877C183.858 144.306 184.806 144.721 185.8 145.12H185.793Z" fill="#D8B767"/>
<path d="M185.785 145.389V160.223C184.791 159.824 183.843 159.417 182.933 158.98V145.389H185.785Z" fill="#D8B767"/>
<path d="M182.933 143.877V143.892V145.388H178.322V141.308C179.706 142.22 181.251 143.079 182.941 143.877H182.933Z" fill="#E1C37A"/>
<path d="M182.933 145.389V158.98C181.243 158.182 179.699 157.323 178.322 156.411V145.389H182.933Z" fill="#E1C37A"/>
<path d="M178.329 141.308V141.323L178.322 145.388H175.47V139.16H175.477C176.326 139.896 177.282 140.625 178.329 141.315V141.308Z" fill="#D8B767"/>
<path d="M178.322 145.389V156.411C177.274 155.713 176.318 154.992 175.47 154.248V145.389H178.322Z" fill="#D8B767"/>
<path d="M175.478 139.144H175.47V145.388H170.729V130.301C170.729 133.476 172.435 136.475 175.478 139.144Z" fill="#E1C37A"/>
<path d="M175.47 145.389V154.248C172.435 151.571 170.737 148.572 170.737 145.389H175.47Z" fill="#E1C37A"/>
<path d="M186.481 145.388C186.244 145.296 186.014 145.212 185.793 145.12C184.799 144.721 183.851 144.307 182.941 143.877C181.251 143.079 179.706 142.22 178.33 141.308C177.282 140.617 176.327 139.896 175.478 139.145C172.442 136.476 170.737 133.469 170.729 130.301C170.729 119.118 191.826 110.06 217.846 110.06C243.867 110.06 264.963 119.118 264.963 130.293C264.963 133.415 263.319 136.368 260.39 138.999C259.542 139.758 258.593 140.495 257.538 141.2C256.177 142.113 254.648 142.972 252.973 143.777C252.063 144.215 251.115 144.637 250.121 145.035C249.823 145.158 249.517 145.273 249.211 145.388" stroke="#212121" stroke-miterlimit="10"/>
<path d="M170.729 145.389C170.729 148.564 172.435 151.571 175.463 154.248C176.311 154.999 177.267 155.72 178.315 156.411C179.691 157.316 181.236 158.182 182.925 158.98C183.835 159.417 184.783 159.824 185.777 160.223C187.23 160.806 188.775 161.343 190.388 161.841C191.313 162.125 192.262 162.401 193.24 162.654C194.762 163.053 196.345 163.421 197.973 163.751C198.906 163.935 199.854 164.111 200.825 164.273C202.301 164.518 203.823 164.733 205.375 164.917C206.315 165.024 207.264 165.124 208.227 165.216C209.718 165.346 211.232 165.454 212.777 165.523C213.717 165.569 214.665 165.599 215.629 165.615C216.363 165.63 217.104 165.638 217.846 165.638C218.672 165.638 219.498 165.63 220.308 165.615C221.264 165.592 222.22 165.561 223.16 165.515C224.743 165.438 226.311 165.331 227.84 165.185C228.803 165.093 229.751 164.994 230.692 164.878C232.29 164.687 233.85 164.449 235.372 164.188C236.343 164.019 237.291 163.843 238.224 163.651C239.753 163.337 241.244 162.984 242.674 162.6C243.645 162.34 244.601 162.064 245.526 161.772C247.139 161.266 248.668 160.721 250.121 160.138C251.108 159.739 252.063 159.318 252.973 158.88C254.648 158.075 256.177 157.216 257.538 156.303C258.593 155.598 259.549 154.861 260.39 154.094C263.319 151.456 264.955 148.503 264.955 145.389" stroke="#212121" stroke-miterlimit="10"/>
<path d="M170.729 145.388V130.301" stroke="#212121" stroke-miterlimit="10"/>
<path d="M264.955 145.388V130.301" stroke="#212121" stroke-miterlimit="10"/>
<path d="M260.834 131.298C259.763 137.756 248.584 143.187 233.177 145.38C228.444 146.055 223.313 146.423 217.961 146.423C212.608 146.423 207.47 146.055 202.745 145.38C187.337 143.187 176.158 137.756 175.088 131.298" stroke="#212121" stroke-miterlimit="10"/>
<path d="M175.08 131.299C175.027 130.961 174.996 130.624 174.996 130.278C174.996 121.358 194.234 114.133 217.961 114.133C241.687 114.133 260.925 121.366 260.925 130.278C260.925 130.624 260.895 130.961 260.841 131.299" stroke="#212121" stroke-miterlimit="10"/>
<path d="M175.08 131.298C176.479 122.853 195.144 116.165 217.961 116.165C240.777 116.165 259.442 122.853 260.841 131.298" stroke="#212121" stroke-miterlimit="10"/>
<path d="M175.47 154.239V145.388V139.152" stroke="#212121" stroke-miterlimit="10"/>
<path d="M178.322 156.41V145.388V141.323" stroke="#212121" stroke-miterlimit="10"/>
<path d="M182.933 158.98V145.388V143.893" stroke="#212121" stroke-miterlimit="10"/>
<path d="M185.785 160.222V145.388V145.135" stroke="#212121" stroke-miterlimit="10"/>
<path d="M190.396 161.841V146.754" stroke="#212121" stroke-miterlimit="10"/>
<path d="M193.24 162.654V147.566" stroke="#212121" stroke-miterlimit="10"/>
<path d="M197.98 163.75V148.663" stroke="#212121" stroke-miterlimit="10"/>
<path d="M200.825 164.272V149.185" stroke="#212121" stroke-miterlimit="10"/>
<path d="M205.375 164.908V149.821" stroke="#212121" stroke-miterlimit="10"/>
<path d="M208.227 165.208V150.121" stroke="#212121" stroke-miterlimit="10"/>
<path d="M212.776 165.515V150.428" stroke="#212121" stroke-miterlimit="10"/>
<path d="M215.621 165.607V150.52" stroke="#212121" stroke-miterlimit="10"/>
<path d="M220.309 165.599V150.52" stroke="#212121" stroke-miterlimit="10"/>
<path d="M223.16 165.499V150.412" stroke="#212121" stroke-miterlimit="10"/>
<path d="M227.84 165.169V150.082" stroke="#212121" stroke-miterlimit="10"/>
<path d="M230.692 164.87V149.783" stroke="#212121" stroke-miterlimit="10"/>
<path d="M235.371 164.18V149.093" stroke="#212121" stroke-miterlimit="10"/>
<path d="M238.224 163.643V148.609" stroke="#212121" stroke-miterlimit="10"/>
<path d="M242.682 162.592V147.505" stroke="#212121" stroke-miterlimit="10"/>
<path d="M245.533 161.764V146.677" stroke="#212121" stroke-miterlimit="10"/>
<path d="M250.121 160.13V145.388V145.043" stroke="#212121" stroke-miterlimit="10"/>
<path d="M252.974 158.872V145.388V143.785" stroke="#212121" stroke-miterlimit="10"/>
<path d="M257.538 156.295V145.388V141.208" stroke="#212121" stroke-miterlimit="10"/>
<path d="M260.391 154.094V145.388V139.007" stroke="#212121" stroke-miterlimit="10"/>
<path d="M217.846 150.527C243.868 150.527 264.963 141.468 264.963 130.293C264.963 119.119 243.868 110.06 217.846 110.06C191.824 110.06 170.729 119.119 170.729 130.293C170.729 141.468 191.824 150.527 217.846 150.527Z" stroke="#212121" stroke-miterlimit="10"/>
<path d="M266.378 108.625V123.712H261.813V117.331H261.806C264.734 114.692 266.378 111.739 266.378 108.625Z" fill="#E1C37A"/>
<path d="M266.378 108.618C266.378 111.739 264.734 114.692 261.805 117.323C260.957 118.083 260.008 118.819 258.953 119.525C257.592 120.437 256.063 121.296 254.388 122.102C253.478 122.539 252.53 122.961 251.536 123.36C251.238 123.482 250.932 123.597 250.626 123.712H234.592C249.999 121.519 261.178 116.088 262.249 109.63C262.302 109.293 262.333 108.955 262.333 108.61C262.333 99.6896 243.095 92.4643 219.368 92.4643C195.642 92.4643 176.411 99.6896 176.411 108.61C176.411 108.955 176.442 109.293 176.495 109.63C177.566 116.088 188.745 121.526 204.152 123.72H187.896C187.659 123.628 187.43 123.544 187.208 123.452C186.214 123.053 185.266 122.639 184.356 122.209C182.666 121.411 181.121 120.552 179.745 119.64C178.697 118.949 177.742 118.228 176.893 117.477C173.857 114.807 172.152 111.801 172.145 108.633C172.152 97.4422 193.241 88.3838 219.261 88.3838C245.282 88.3838 266.378 97.4422 266.378 108.618Z" fill="#E5DD73"/>
<path d="M261.812 123.713H266.377C266.377 126.827 264.741 129.78 261.812 132.418V123.713Z" fill="#E1C37A"/>
<path d="M262.341 108.61C262.341 108.955 262.31 109.293 262.256 109.63C260.857 101.186 242.192 94.4973 219.376 94.4973C196.559 94.4973 177.895 101.178 176.495 109.623C176.442 109.285 176.411 108.948 176.411 108.603C176.411 99.6823 195.649 92.457 219.376 92.457C243.102 92.457 262.341 99.69 262.341 108.603V108.61Z" fill="#D8B767"/>
<path d="M262.256 109.622H176.495C177.894 101.178 196.559 94.4893 219.376 94.4893C242.192 94.4893 260.857 101.178 262.256 109.622Z" fill="#E1C37A"/>
<path d="M176.495 109.63H262.256C261.186 116.088 250.007 121.519 234.6 123.712H204.16C188.752 121.519 177.573 116.088 176.503 109.63H176.495Z" fill="#E1C37A"/>
<path d="M261.813 123.713V132.418C260.972 133.178 260.016 133.914 258.961 134.627V123.721H261.813V123.713Z" fill="#D8B767"/>
<path d="M261.813 117.331V123.712H258.961V119.525C260.008 118.819 260.957 118.083 261.805 117.323H261.813V117.331Z" fill="#D8B767"/>
<path d="M258.961 123.713V134.62C257.6 135.533 256.071 136.392 254.396 137.197V123.713H258.961Z" fill="#E1C37A"/>
<path d="M258.961 119.532V123.712H254.396V122.102C256.063 121.296 257.593 120.437 258.954 119.524V119.54L258.961 119.532Z" fill="#E1C37A"/>
<path d="M254.396 123.713V137.197C253.486 137.634 252.538 138.056 251.544 138.455V123.713H254.396Z" fill="#D8B767"/>
<path d="M254.396 122.117V123.712H251.544V123.359C252.53 122.961 253.478 122.539 254.388 122.102V122.117H254.396Z" fill="#D8B767"/>
<path d="M251.544 123.713V138.455C250.099 139.038 248.562 139.582 246.948 140.089V124.986C248.225 124.587 249.449 124.165 250.626 123.713H251.544Z" fill="#E1C37A"/>
<path d="M234.592 123.713H250.626C249.449 124.165 248.225 124.587 246.948 124.986C246.023 125.278 245.067 125.554 244.096 125.807C242.659 126.19 241.168 126.543 239.631 126.858C238.698 127.049 237.75 127.226 236.794 127.395C235.272 127.655 233.713 127.885 232.115 128.085C231.174 128.2 230.226 128.3 229.262 128.392C227.726 128.537 226.166 128.645 224.583 128.721C223.642 128.768 222.687 128.798 221.731 128.821C220.913 128.837 220.095 128.844 219.269 128.844C218.527 128.844 217.785 128.844 217.051 128.821C216.095 128.798 215.14 128.768 214.199 128.729C212.662 128.66 211.148 128.56 209.657 128.422C208.694 128.338 207.746 128.238 206.805 128.131C205.253 127.947 203.739 127.732 202.263 127.487C201.3 127.326 200.344 127.157 199.411 126.965C197.783 126.643 196.2 126.275 194.678 125.876C193.707 125.623 192.751 125.347 191.826 125.063C190.465 124.641 189.157 124.188 187.911 123.713H204.167C208.9 124.388 214.031 124.756 219.383 124.756C224.736 124.756 229.874 124.388 234.6 123.713H234.592Z" fill="#E5DD73"/>
<path d="M246.949 125.009V140.096C246.024 140.387 245.068 140.663 244.097 140.924V125.822C245.068 125.561 246.024 125.285 246.941 125.001V125.016L246.949 125.009Z" fill="#D8B767"/>
<path d="M244.096 125.83V140.917C242.659 141.3 241.175 141.653 239.646 141.968V126.942L239.631 126.865C241.168 126.551 242.659 126.198 244.096 125.814V125.837V125.83Z" fill="#E1C37A"/>
<path d="M239.646 126.942V141.968C238.713 142.159 237.765 142.344 236.794 142.505V127.402C237.75 127.233 238.706 127.057 239.631 126.865L239.646 126.942Z" fill="#D8B767"/>
<path d="M236.794 127.418V142.505C235.272 142.765 233.712 142.996 232.114 143.195V128.085C233.712 127.893 235.272 127.663 236.794 127.395V127.418Z" fill="#E1C37A"/>
<path d="M204.16 123.713H234.6C229.867 124.388 224.736 124.756 219.384 124.756C214.032 124.756 208.893 124.388 204.168 123.713H204.16Z" fill="#E1C37A"/>
<path d="M232.115 128.107V143.194C231.174 143.309 230.226 143.409 229.263 143.501V128.391C230.218 128.299 231.174 128.199 232.107 128.084V128.107H232.115Z" fill="#D8B767"/>
<path d="M229.263 128.415V143.502C227.726 143.64 226.166 143.755 224.583 143.832V128.721C226.166 128.645 227.733 128.537 229.263 128.392V128.415Z" fill="#E1C37A"/>
<path d="M224.576 128.736V143.823C223.635 143.869 222.679 143.9 221.724 143.923V128.813C222.679 128.79 223.635 128.759 224.576 128.713V128.736Z" fill="#D8B767"/>
<path d="M221.723 128.843V143.93C220.905 143.946 220.087 143.953 219.261 143.953C218.52 143.953 217.778 143.953 217.044 143.93V128.82C217.778 128.836 218.52 128.843 219.261 128.843C220.087 128.843 220.913 128.836 221.723 128.82V128.843Z" fill="#E1C37A"/>
<path d="M217.043 128.844V143.931C216.088 143.908 215.132 143.877 214.191 143.839V128.729C215.132 128.775 216.08 128.805 217.043 128.821V128.844Z" fill="#D8B767"/>
<path d="M214.192 128.752V143.839C212.655 143.77 211.134 143.67 209.643 143.532V128.422C211.134 128.552 212.648 128.66 214.192 128.729V128.752Z" fill="#E1C37A"/>
<path d="M209.65 128.422V128.445V143.532C208.686 143.448 207.738 143.348 206.798 143.233V128.131C207.738 128.238 208.694 128.338 209.65 128.422Z" fill="#D8B767"/>
<path d="M206.798 128.131V128.154V143.241C205.245 143.057 203.731 142.842 202.248 142.596V127.486C203.731 127.732 205.245 127.947 206.798 128.131Z" fill="#E1C37A"/>
<path d="M202.255 127.486V127.509V142.597C201.292 142.436 200.336 142.259 199.403 142.075V126.965C200.344 127.157 201.292 127.325 202.255 127.486Z" fill="#D8B767"/>
<path d="M199.404 126.964V126.987V142.074C197.775 141.745 196.193 141.384 194.671 140.977V125.875C196.2 126.274 197.775 126.642 199.412 126.964H199.404Z" fill="#E1C37A"/>
<path d="M194.67 125.876V125.891V140.978C193.699 140.725 192.744 140.449 191.818 140.165V125.062C192.751 125.346 193.699 125.622 194.67 125.876Z" fill="#D8B767"/>
<path d="M191.819 125.063V125.078V140.165C190.205 139.667 188.661 139.122 187.208 138.547V123.713H187.904C189.15 124.188 190.458 124.641 191.819 125.063Z" fill="#E1C37A"/>
<path d="M187.208 123.444V123.459V123.712H184.355V122.201C185.273 122.631 186.221 123.045 187.215 123.444H187.208Z" fill="#D8B767"/>
<path d="M187.2 123.713V138.547C186.206 138.148 185.258 137.742 184.348 137.304V123.713H187.2Z" fill="#D8B767"/>
<path d="M184.356 122.201V122.217V123.712H179.745V119.632C181.129 120.545 182.674 121.404 184.363 122.201H184.356Z" fill="#E1C37A"/>
<path d="M184.348 123.713V137.304C182.658 136.507 181.114 135.648 179.737 134.735V123.713H184.348Z" fill="#E1C37A"/>
<path d="M179.744 119.632V119.647L179.737 123.713H176.885V117.484H176.892C177.741 118.221 178.697 118.949 179.744 119.64V119.632Z" fill="#D8B767"/>
<path d="M179.737 123.713V134.735C178.689 134.037 177.734 133.316 176.885 132.572V123.713H179.737Z" fill="#D8B767"/>
<path d="M176.893 117.469H176.885V123.712H172.152V108.625C172.152 111.8 173.857 114.799 176.901 117.469H176.893Z" fill="#E1C37A"/>
<path d="M176.885 123.713V132.572C173.85 129.895 172.152 126.896 172.152 123.713H176.885Z" fill="#E1C37A"/>
<path d="M187.904 123.712C187.667 123.62 187.437 123.536 187.216 123.444C186.222 123.045 185.273 122.631 184.364 122.201C182.674 121.404 181.129 120.545 179.753 119.632C178.705 118.942 177.749 118.221 176.901 117.469C173.865 114.8 172.16 111.793 172.152 108.625C172.152 97.4422 193.241 88.3838 219.261 88.3838C245.282 88.3838 266.378 97.4422 266.378 108.618C266.378 111.739 264.734 114.692 261.805 117.323C260.957 118.083 260.009 118.819 258.953 119.525C257.592 120.437 256.063 121.296 254.389 122.102C253.479 122.539 252.53 122.961 251.536 123.36C251.238 123.482 250.932 123.597 250.627 123.712" stroke="#212121" stroke-miterlimit="10"/>
<path d="M172.152 123.713C172.152 126.888 173.857 129.895 176.885 132.572C177.734 133.324 178.69 134.045 179.737 134.735C181.114 135.64 182.658 136.507 184.348 137.304C185.258 137.742 186.206 138.148 187.2 138.547C188.653 139.13 190.198 139.667 191.811 140.165C192.736 140.449 193.684 140.725 194.663 140.978C196.185 141.377 197.768 141.745 199.396 142.075C200.329 142.259 201.277 142.436 202.248 142.597C203.724 142.842 205.246 143.057 206.798 143.241C207.738 143.348 208.686 143.448 209.65 143.54C211.141 143.671 212.655 143.778 214.199 143.847C215.14 143.893 216.088 143.924 217.052 143.939C217.786 143.954 218.527 143.962 219.269 143.962C220.095 143.962 220.921 143.954 221.731 143.939C222.687 143.916 223.643 143.885 224.583 143.839C226.166 143.763 227.733 143.655 229.263 143.51C230.226 143.417 231.174 143.318 232.115 143.203C233.713 143.011 235.273 142.773 236.794 142.512C237.765 142.344 238.714 142.167 239.646 141.975C241.176 141.661 242.667 141.308 244.097 140.925C245.068 140.664 246.023 140.388 246.949 140.096C248.562 139.59 250.091 139.045 251.544 138.463C252.53 138.064 253.486 137.642 254.396 137.205C256.071 136.399 257.6 135.54 258.961 134.627C260.016 133.922 260.972 133.186 261.813 132.418C264.742 129.78 266.378 126.827 266.378 123.713" stroke="#212121" stroke-miterlimit="10"/>
<path d="M172.152 123.712V108.625" stroke="#212121" stroke-miterlimit="10"/>
<path d="M266.378 123.712V108.625" stroke="#212121" stroke-miterlimit="10"/>
<path d="M262.257 109.63C261.186 116.088 250.007 121.519 234.6 123.712C229.867 124.387 224.736 124.755 219.384 124.755C214.031 124.755 208.893 124.387 204.167 123.712C188.76 121.519 177.581 116.088 176.511 109.63" stroke="#212121" stroke-miterlimit="10"/>
<path d="M176.495 109.623C176.442 109.285 176.411 108.948 176.411 108.603C176.411 99.6823 195.649 92.457 219.376 92.457C243.102 92.457 262.341 99.69 262.341 108.603C262.341 108.948 262.31 109.285 262.256 109.623" stroke="#212121" stroke-miterlimit="10"/>
<path d="M176.495 109.63C177.894 101.185 196.559 94.4971 219.376 94.4971C242.192 94.4971 260.857 101.185 262.256 109.63" stroke="#212121" stroke-miterlimit="10"/>
<path d="M176.886 132.572V123.713V117.484" stroke="#212121" stroke-miterlimit="10"/>
<path d="M179.737 134.735V123.713V119.647" stroke="#212121" stroke-miterlimit="10"/>
<path d="M184.349 137.304V123.712V122.217" stroke="#212121" stroke-miterlimit="10"/>
<path d="M187.2 138.546V123.712V123.459" stroke="#212121" stroke-miterlimit="10"/>
<path d="M191.811 140.165V125.078" stroke="#212121" stroke-miterlimit="10"/>
<path d="M194.663 140.978V125.891" stroke="#212121" stroke-miterlimit="10"/>
<path d="M199.396 142.074V126.987" stroke="#212121" stroke-miterlimit="10"/>
<path d="M202.248 142.596V127.509" stroke="#212121" stroke-miterlimit="10"/>
<path d="M206.798 143.24V128.153" stroke="#212121" stroke-miterlimit="10"/>
<path d="M209.649 143.532V128.445" stroke="#212121" stroke-miterlimit="10"/>
<path d="M214.191 143.839V128.752" stroke="#212121" stroke-miterlimit="10"/>
<path d="M217.044 143.931V128.844" stroke="#212121" stroke-miterlimit="10"/>
<path d="M221.724 143.931V128.844" stroke="#212121" stroke-miterlimit="10"/>
<path d="M224.575 143.823V128.736" stroke="#212121" stroke-miterlimit="10"/>
<path d="M229.263 143.501V128.414" stroke="#212121" stroke-miterlimit="10"/>
<path d="M232.115 143.195V128.107" stroke="#212121" stroke-miterlimit="10"/>
<path d="M236.794 142.504V127.417" stroke="#212121" stroke-miterlimit="10"/>
<path d="M239.646 141.967V126.941" stroke="#212121" stroke-miterlimit="10"/>
<path d="M244.097 140.916V125.829" stroke="#212121" stroke-miterlimit="10"/>
<path d="M246.948 140.088V125.009" stroke="#212121" stroke-miterlimit="10"/>
<path d="M251.544 138.454V123.712V123.375" stroke="#212121" stroke-miterlimit="10"/>
<path d="M254.396 137.197V123.713V122.117" stroke="#212121" stroke-miterlimit="10"/>
<path d="M258.961 134.619V123.712V119.532" stroke="#212121" stroke-miterlimit="10"/>
<path d="M261.813 132.418V123.713V117.331" stroke="#212121" stroke-miterlimit="10"/>
<path d="M219.261 128.851C245.283 128.851 266.378 119.792 266.378 108.618C266.378 97.4428 245.283 88.3838 219.261 88.3838C193.239 88.3838 172.145 97.4428 172.145 108.618C172.145 119.792 193.239 128.851 219.261 128.851Z" stroke="#212121" stroke-miterlimit="10"/>
<path d="M227.84 115.774C226.464 116.257 224.155 116.74 221.219 116.74C217.617 116.74 214.421 116.027 212.204 114.7C210.514 113.734 209.405 112.407 209.008 110.758H206.255V109.638H208.786V109.293C208.786 108.925 208.832 108.579 208.878 108.257H206.255V107.114H209.183C209.719 105.511 211.049 104.177 212.823 103.241C215.086 102.029 217.977 101.339 221.616 101.339C224.239 101.339 226.281 101.73 227.519 102.075L226.632 103.586C225.524 103.241 223.658 102.942 221.655 102.942C219.254 102.942 217.304 103.379 215.79 104.2C214.459 104.867 213.572 105.895 213.129 107.114H225.524V108.257H212.731C212.685 108.556 212.64 108.902 212.64 109.224V109.638H225.524V110.758H212.953C213.305 112.085 214.199 113.074 215.4 113.764C217.044 114.662 219.261 115.091 221.662 115.091C224.063 115.091 226.059 114.631 227.083 114.332L227.84 115.774Z" fill="#D8B767"/>
<path d="M228.268 114.47C226.892 114.954 224.583 115.437 221.646 115.437C218.045 115.437 214.849 114.723 212.631 113.397C210.942 112.43 209.833 111.103 209.435 109.454H206.683V108.334H209.214V107.989C209.214 107.621 209.259 107.276 209.305 106.954H206.683V105.811H209.611C210.146 104.208 211.477 102.873 213.251 101.937C215.514 100.725 218.404 100.035 222.044 100.035C224.667 100.035 226.708 100.426 227.947 100.771L227.06 102.283C225.951 101.937 224.086 101.638 222.082 101.638C219.681 101.638 217.732 102.075 216.218 102.896C214.887 103.563 214 104.591 213.557 105.811H225.951V106.954H213.159C213.113 107.253 213.067 107.598 213.067 107.92V108.334H225.951V109.454H213.381C213.733 110.781 214.627 111.77 215.828 112.461C217.472 113.358 219.689 113.788 222.09 113.788C224.491 113.788 226.487 113.327 227.511 113.028L228.268 114.47Z" fill="#E5DD73"/>
</g>
</g>
<path d="M14.8 428L25 366.6L28 358H41.8L30 428H14.8ZM8 381.9L10.4 367.5C12.1333 367.633 14.0667 367.233 16.2 366.3C18.3333 365.367 20.4333 364.133 22.5 362.6C24.6333 361.067 26.4667 359.533 28 358L37 368C32.4667 372.267 27.7667 375.767 22.9 378.5C18.1 381.233 13.1333 382.367 8 381.9ZM70.1664 429.2C64.0997 429.2 59.1331 428.333 55.2664 426.6C51.3997 424.867 48.6664 422.467 47.0664 419.4C45.4664 416.333 44.9997 412.8 45.6664 408.8C46.3997 404.8 47.9664 401.3 50.3664 398.3C52.7664 395.233 55.9997 392.867 60.0664 391.2C64.1331 389.467 69.0664 388.6 74.8664 388.6C80.9331 388.6 85.8997 389.567 89.7664 391.5C93.6331 393.367 96.3664 395.967 97.9664 399.3C99.5664 402.567 99.9997 406.4 99.2664 410.8C98.6664 414.467 97.1331 417.7 94.6664 420.5C92.2664 423.233 88.9997 425.367 84.8664 426.9C80.7997 428.433 75.8997 429.2 70.1664 429.2ZM70.6664 415.9C73.1331 415.9 75.2997 415.467 77.1664 414.6C79.0331 413.667 80.5331 412.433 81.6664 410.9C82.8664 409.3 83.4997 407.5 83.5664 405.5C83.6997 403.3 82.9664 401.567 81.3664 400.3C79.7664 398.967 77.6331 398.3 74.9664 398.3C72.6331 398.3 70.4997 398.767 68.5664 399.7C66.6331 400.567 65.0997 401.8 63.9664 403.4C62.8331 405 62.2331 406.867 62.1664 409C62.0331 411 62.7331 412.667 64.2664 414C65.8664 415.267 67.9997 415.9 70.6664 415.9ZM76.0664 394.3C70.5997 394.3 66.0664 393.467 62.4664 391.8C58.9331 390.133 56.3997 387.867 54.8664 385C53.3331 382.067 52.8664 378.667 53.4664 374.8C54.0664 371.267 55.4997 368.133 57.7664 365.4C60.0331 362.667 63.0664 360.567 66.8664 359.1C70.6664 357.567 75.0997 356.8 80.1664 356.8C85.6331 356.8 90.1664 357.667 93.7664 359.4C97.3664 361.067 99.9331 363.4 101.466 366.4C103.066 369.4 103.533 372.867 102.866 376.8C102.266 380.267 100.833 383.333 98.5664 386C96.2997 388.6 93.2664 390.633 89.4664 392.1C85.6664 393.567 81.1997 394.3 76.0664 394.3ZM75.6664 386C77.8664 386 79.7997 385.567 81.4664 384.7C83.1997 383.833 84.5664 382.633 85.5664 381.1C86.5664 379.567 87.0997 377.833 87.1664 375.9C87.2997 374.033 86.6664 372.533 85.2664 371.4C83.8664 370.2 82.0331 369.6 79.7664 369.6C77.6331 369.6 75.7331 370.033 74.0664 370.9C72.3997 371.7 71.0664 372.867 70.0664 374.4C69.1331 375.933 68.5997 377.7 68.4664 379.7C68.3331 381.567 68.9331 383.1 70.2664 384.3C71.6664 385.433 73.4664 386 75.6664 386ZM135.099 429.2C130.299 429.2 126.066 428.233 122.399 426.3C118.799 424.3 115.866 421.567 113.599 418.1C111.333 414.633 109.799 410.567 108.999 405.9C108.266 401.233 108.333 396.233 109.199 390.9C110.333 384.1 112.466 378.167 115.599 373.1C118.799 367.967 122.699 363.967 127.299 361.1C131.899 358.233 136.899 356.8 142.299 356.8C147.033 356.8 151.166 357.8 154.699 359.8C158.299 361.733 161.233 364.467 163.499 368C165.766 371.467 167.266 375.533 167.999 380.2C168.799 384.8 168.766 389.767 167.899 395.1C166.833 401.633 164.699 407.467 161.499 412.6C158.366 417.733 154.499 421.8 149.899 424.8C145.299 427.733 140.366 429.2 135.099 429.2ZM134.899 414.5C138.033 414.433 140.799 413.5 143.199 411.7C145.599 409.833 147.566 407.333 149.099 404.2C150.633 401.067 151.733 397.567 152.399 393.7C153.066 389.767 153.099 386.1 152.499 382.7C151.899 379.3 150.666 376.533 148.799 374.4C146.999 372.267 144.566 371.2 141.499 371.2C138.966 371.2 136.533 372.1 134.199 373.9C131.866 375.7 129.866 378.167 128.199 381.3C126.533 384.433 125.366 388.1 124.699 392.3C124.033 396.433 123.999 400.167 124.599 403.5C125.266 406.767 126.466 409.4 128.199 411.4C129.999 413.333 132.233 414.367 134.899 414.5ZM172.131 428L183.831 358H201.331L215.531 385.6L238.631 358H256.531L244.831 428H228.731L236.131 383.5L211.531 412.6L195.831 382.6L188.231 428H172.131ZM291.859 428L292.659 418.7L302.759 358H318.359L306.659 428H291.859ZM278.359 429.2C273.626 429.2 269.626 428.1 266.359 425.9C263.093 423.7 260.759 420.633 259.359 416.7C258.026 412.7 257.759 408.033 258.559 402.7C259.093 398.833 260.026 395.333 261.359 392.2C262.759 389 264.526 386.267 266.659 384C268.859 381.667 271.359 379.9 274.159 378.7C277.026 377.433 280.159 376.8 283.559 376.8C288.293 376.8 291.959 377.933 294.559 380.2C297.226 382.467 298.993 385.567 299.859 389.5C300.726 393.433 300.793 398 300.059 403.2C299.526 407.333 298.626 411.033 297.359 414.3C296.159 417.5 294.626 420.233 292.759 422.5C290.893 424.7 288.726 426.367 286.259 427.5C283.859 428.633 281.226 429.2 278.359 429.2ZM283.659 414.8C285.259 414.8 286.726 414.5 288.059 413.9C289.393 413.233 290.559 412.333 291.559 411.2C292.626 410.067 293.459 408.767 294.059 407.3C294.726 405.767 295.159 404.167 295.359 402.5C295.759 399.167 295.093 396.467 293.359 394.4C291.693 392.267 289.426 391.2 286.559 391.2C284.959 391.2 283.459 391.533 282.059 392.2C280.726 392.867 279.526 393.767 278.459 394.9C277.393 395.967 276.526 397.233 275.859 398.7C275.259 400.167 274.859 401.733 274.659 403.4C274.326 406.733 274.993 409.467 276.659 411.6C278.393 413.733 280.726 414.8 283.659 414.8ZM376.655 429.2C370.189 429.2 364.722 427.6 360.255 424.4C355.789 421.2 352.589 416.833 350.655 411.3C348.789 405.7 348.455 399.267 349.655 392C350.789 385.133 353.089 379.067 356.555 373.8C360.089 368.467 364.455 364.3 369.655 361.3C374.855 358.3 380.489 356.8 386.555 356.8C391.222 356.8 395.322 357.7 398.855 359.5C402.389 361.3 405.289 363.767 407.555 366.9C409.822 370.033 411.355 373.6 412.155 377.6L397.655 381.9C396.922 378.633 395.555 376.1 393.555 374.3C391.622 372.5 389.189 371.6 386.255 371.6C383.055 371.6 380.022 372.567 377.155 374.5C374.355 376.367 371.922 379 369.855 382.4C367.855 385.733 366.489 389.6 365.755 394C365.089 398 365.122 401.533 365.855 404.6C366.589 407.667 367.922 410.067 369.855 411.8C371.789 413.533 374.222 414.4 377.155 414.4C379.622 414.4 381.855 413.933 383.855 413C385.922 412 387.789 410.633 389.455 408.9C391.122 407.167 392.555 405.167 393.755 402.9L407.555 409C405.422 413.067 402.755 416.633 399.555 419.7C396.355 422.7 392.822 425.033 388.955 426.7C385.089 428.367 380.989 429.2 376.655 429.2ZM340.655 402.5L341.855 394.9H388.455L387.255 402.5H340.655ZM342.555 391.1L343.855 383.5H390.455L389.155 391.1H342.555Z" fill="#212121"/>
<defs>
<clipPath id="clip0_114_7373">
<rect width="317" height="333" fill="white" transform="translate(52)"/>
</clipPath>
<clipPath id="clip1_114_7373">
<rect width="110" height="149" fill="white" transform="translate(168 88)"/>
</clipPath>
</defs>
</svg>
