<svg width="421" height="333" viewBox="0 0 421 333" fill="none" xmlns="http://www.w3.org/2000/svg">
<g clip-path="url(#clip0_114_8841)">
<path d="M354.453 76.2043C354.453 76.2043 361.033 81.5522 351.772 95.1567C351.772 95.1567 353.834 123.773 342.005 127.488C330.176 131.204 325.959 134.488 324.628 139.423C323.278 144.377 313.305 163.93 313.305 163.93C313.305 163.93 312.892 175.264 323.278 174.851C333.663 174.438 329.97 188.549 329.97 188.549C329.97 188.549 327.908 191.833 328.021 193.691C328.114 195.548 333.27 198.645 334.301 200.071C335.332 201.516 335.95 208.402 327.308 213.656C318.666 218.91 330.795 239.814 330.795 239.814L341.499 249.178C341.499 249.178 349.523 267.924 323.503 282.542C306.331 292.187 285.973 285.788 274.125 280.309V38.5996C287.454 47.344 301.288 52.2228 301.288 52.2228C301.288 52.2228 306.425 52.4293 312.499 53.8741L323.297 64.5888C323.297 64.5888 326.277 69.9368 354.472 76.223L354.453 76.2043Z" fill="#A44F3D"/>
<path d="M274.106 38.5994V280.309C267.995 277.494 264.133 274.923 264.133 274.923C264.133 274.923 229.771 276.668 229.152 300.969C228.534 325.269 196.14 312.19 196.14 312.19L172.276 290.873C172.276 290.873 171.976 290.667 171.451 290.442V47.0436C171.639 46.8559 171.807 46.6495 171.976 46.4431C180.299 36.7605 193.366 37.0795 193.366 37.0795C193.366 37.0795 204.576 34.3961 204.37 18.9527C204.163 3.50925 210.65 0.938477 210.65 0.938477C210.65 0.938477 241.9 1.44512 255.06 21.0168C259.709 27.9035 266.814 33.8332 274.087 38.5994H274.106Z" fill="#FAFAEE"/>
<path d="M171.451 47.0438V290.442C169.801 289.748 165.883 288.96 161.684 294.176C156.135 301.063 148.318 296.334 148.318 296.334C148.318 296.334 115.193 281.51 113.45 277.175C111.707 272.859 104.714 266.16 109.851 254.826C114.987 243.492 120.855 233.51 121.173 228.368C121.492 223.226 124.154 178.942 129.197 175.245C134.24 171.529 121.68 150.944 121.68 150.944C121.68 150.944 108.52 140.436 101.827 122.628C95.1348 104.821 65.3095 100.805 65.3095 100.805C65.3095 100.805 44.0137 84.3295 57.286 75.7727C70.5584 67.2348 85.8741 66.4654 85.8741 66.4654L112.85 74.9658C112.85 74.9658 129.834 81.4585 125.335 64.4576C120.836 47.4567 123.329 41.9586 123.329 41.9586C123.329 41.9586 129.815 30.4558 159.791 51.4536C159.791 51.4536 163.484 55.9008 171.451 47.0251V47.0438Z" fill="#3F5B7A"/>
<path d="M171.451 290.442C169.801 289.748 165.883 288.959 161.684 294.176C156.135 301.063 148.318 296.334 148.318 296.334C148.318 296.334 115.193 281.51 113.45 277.175C111.707 272.859 104.714 266.16 109.851 254.826C114.987 243.492 120.855 233.51 121.173 228.368C121.492 223.226 124.154 178.942 129.197 175.245C134.24 171.529 121.68 150.944 121.68 150.944C121.68 150.944 108.52 140.436 101.827 122.628C95.1348 104.821 65.3095 100.805 65.3095 100.805C65.3095 100.805 44.0137 84.3294 57.286 75.7727C70.5584 67.2347 85.8741 66.4653 85.8741 66.4653L112.85 74.9658C112.85 74.9658 129.834 81.4584 125.335 64.4575C120.836 47.4566 123.329 41.9585 123.329 41.9585C123.329 41.9585 129.815 30.4557 159.791 51.4535C159.791 51.4535 163.484 55.9008 171.451 47.025C171.638 46.8374 171.807 46.631 171.976 46.4245C180.299 36.7419 193.365 37.0609 193.365 37.0609C193.365 37.0609 204.576 34.3775 204.37 18.9341C204.163 3.4907 210.65 0.919922 210.65 0.919922C210.65 0.919922 241.9 1.42657 255.06 20.9982C259.709 27.8849 266.813 33.8146 274.087 38.5809C287.416 47.3253 301.25 52.2041 301.25 52.2041C301.25 52.2041 306.387 52.4105 312.461 53.8554L323.259 64.5701C323.259 64.5701 326.239 69.9181 354.434 76.2043C354.434 76.2043 361.014 81.5522 351.753 95.1567C351.753 95.1567 353.815 123.773 341.986 127.488C330.157 131.204 325.939 134.488 324.608 139.423C323.259 144.377 313.286 163.93 313.286 163.93C313.286 163.93 312.873 175.264 323.259 174.851C333.644 174.438 329.951 188.549 329.951 188.549C329.951 188.549 327.889 191.833 328.001 193.691C328.095 195.548 333.25 198.645 334.281 200.071C335.312 201.516 335.931 208.402 327.289 213.656C318.647 218.911 330.776 239.814 330.776 239.814L341.48 249.178C341.48 249.178 349.503 267.924 323.484 282.542C306.312 292.187 285.953 285.788 274.106 280.309C267.994 277.494 264.133 274.923 264.133 274.923C264.133 274.923 229.771 276.669 229.152 300.969C228.534 325.269 196.14 312.19 196.14 312.19L172.276 290.873C172.276 290.873 171.976 290.667 171.451 290.442Z" stroke="#212121" stroke-miterlimit="10"/>
<path d="M171.451 290.442V47.0439" stroke="#212121" stroke-miterlimit="10"/>
<path d="M274.105 280.309V38.5996" stroke="#212121" stroke-miterlimit="10"/>
<path d="M353.89 290.779C353.89 290.779 343.411 296.765 340.43 309.394C337.45 322.022 340.43 325.438 340.43 325.438C340.43 325.438 343.205 332.287 350.909 332.062C358.614 331.836 353.478 326.282 359.027 321.797C364.575 317.312 368.006 311.42 368.006 311.42C368.006 311.42 361.595 283.836 353.909 290.779H353.89Z" fill="#A44F3D" stroke="#212121" stroke-miterlimit="10"/>
<circle cx="148.982" cy="81.5098" r="11.0098" fill="#67879F" stroke="#202020"/>
<path d="M148.916 97.4424C155.741 97.4424 161.896 98.7214 166.325 100.768C170.797 102.833 173.332 105.586 173.332 108.452C173.332 111.318 170.797 114.071 166.325 116.137C161.896 118.183 155.741 119.462 148.916 119.462C142.091 119.462 135.937 118.183 131.508 116.137C127.036 114.071 124.5 111.318 124.5 108.452C124.5 105.586 127.036 102.833 131.508 100.768C135.937 98.7215 142.091 97.4424 148.916 97.4424Z" fill="#67879F" stroke="#212121"/>
<circle cx="170.982" cy="145.51" r="11.0098" fill="#67879F" stroke="#202020"/>
<path d="M170.916 161.442C177.741 161.442 183.896 162.721 188.325 164.768C192.797 166.833 195.332 169.586 195.332 172.452C195.332 175.318 192.797 178.071 188.325 180.137C183.896 182.183 177.741 183.462 170.916 183.462C164.091 183.462 157.937 182.183 153.508 180.137C149.036 178.071 146.5 175.318 146.5 172.452C146.5 169.586 149.036 166.833 153.508 164.768C157.937 162.721 164.091 161.442 170.916 161.442Z" fill="#67879F" stroke="#212121"/>
<circle cx="145.982" cy="222.51" r="11.0098" fill="#67879F" stroke="#202020"/>
<path d="M145.916 238.442C152.741 238.442 158.896 239.721 163.325 241.768C167.797 243.833 170.332 246.586 170.332 249.452C170.332 252.318 167.797 255.071 163.325 257.137C158.896 259.183 152.741 260.462 145.916 260.462C139.091 260.462 132.937 259.183 128.508 257.137C124.036 255.071 121.5 252.318 121.5 249.452C121.5 246.586 124.036 243.833 128.508 241.768C132.937 239.721 139.091 238.442 145.916 238.442Z" fill="#67879F" stroke="#212121"/>
<circle cx="214.982" cy="199.51" r="11.0098" fill="#67879F" stroke="#202020"/>
<path d="M214.916 215.442C221.741 215.442 227.896 216.721 232.325 218.768C236.797 220.833 239.332 223.586 239.332 226.452C239.332 229.318 236.797 232.071 232.325 234.137C227.896 236.183 221.741 237.462 214.916 237.462C208.091 237.462 201.937 236.183 197.508 234.137C193.036 232.071 190.5 229.318 190.5 226.452C190.5 223.586 193.036 220.833 197.508 218.768C201.937 216.721 208.091 215.442 214.916 215.442Z" fill="#67879F" stroke="#212121"/>
<circle cx="200.982" cy="266.51" r="11.0098" fill="#67879F" stroke="#202020"/>
<path d="M200.916 282.442C207.741 282.442 213.896 283.721 218.325 285.768C222.797 287.833 225.332 290.586 225.332 293.452C225.332 296.318 222.797 299.071 218.325 301.137C213.896 303.183 207.741 304.462 200.916 304.462C194.091 304.462 187.937 303.183 183.508 301.137C179.036 299.071 176.5 296.318 176.5 293.452C176.5 290.586 179.036 287.833 183.508 285.768C187.937 283.721 194.091 282.442 200.916 282.442Z" fill="#67879F" stroke="#212121"/>
<circle cx="302.982" cy="241.51" r="11.0098" fill="#67879F" stroke="#202020"/>
<path d="M302.916 257.442C309.741 257.442 315.896 258.721 320.325 260.768C324.797 262.833 327.332 265.586 327.332 268.452C327.332 271.318 324.797 274.071 320.325 276.137C315.896 278.183 309.741 279.462 302.916 279.462C296.091 279.462 289.937 278.183 285.508 276.137C281.036 274.071 278.5 271.318 278.5 268.452C278.5 265.586 281.036 262.833 285.508 260.768C289.937 258.721 296.091 257.442 302.916 257.442Z" fill="#67879F" stroke="#212121"/>
<circle cx="220.982" cy="54.5098" r="11.0098" fill="#67879F" stroke="#202020"/>
<path d="M220.916 70.4424C227.741 70.4424 233.896 71.7214 238.325 73.7676C242.797 75.8333 245.332 78.5862 245.332 81.4521C245.332 84.3181 242.797 87.071 238.325 89.1367C233.896 91.1829 227.741 92.4619 220.916 92.4619C214.091 92.4619 207.937 91.1828 203.508 89.1367C199.036 87.071 196.5 84.3181 196.5 81.4521C196.5 78.5862 199.036 75.8333 203.508 73.7676C207.937 71.7215 214.091 70.4424 220.916 70.4424Z" fill="#67879F" stroke="#212121"/>
<circle cx="242.982" cy="114.51" r="11.0098" fill="#67879F" stroke="#202020"/>
<path d="M242.916 130.442C249.741 130.442 255.896 131.721 260.325 133.768C264.797 135.833 267.332 138.586 267.332 141.452C267.332 144.318 264.797 147.071 260.325 149.137C255.896 151.183 249.741 152.462 242.916 152.462C236.091 152.462 229.937 151.183 225.508 149.137C221.036 147.071 218.5 144.318 218.5 141.452C218.5 138.586 221.036 135.833 225.508 133.768C229.937 131.721 236.091 130.442 242.916 130.442Z" fill="#67879F" stroke="#212121"/>
<circle cx="273.982" cy="178.51" r="11.0098" fill="#67879F" stroke="#202020"/>
<path d="M273.916 194.442C280.741 194.442 286.896 195.721 291.325 197.768C295.797 199.833 298.332 202.586 298.332 205.452C298.332 208.318 295.797 211.071 291.325 213.137C286.896 215.183 280.741 216.462 273.916 216.462C267.091 216.462 260.937 215.183 256.508 213.137C252.036 211.071 249.5 208.318 249.5 205.452C249.5 202.586 252.036 199.833 256.508 197.768C260.937 195.721 267.091 194.442 273.916 194.442Z" fill="#67879F" stroke="#212121"/>
<circle cx="302.982" cy="72.5098" r="11.0098" fill="#67879F" stroke="#202020"/>
<path d="M302.916 88.4424C309.741 88.4424 315.896 89.7214 320.325 91.7676C324.797 93.8333 327.332 96.5862 327.332 99.4521C327.332 102.318 324.797 105.071 320.325 107.137C315.896 109.183 309.741 110.462 302.916 110.462C296.091 110.462 289.937 109.183 285.508 107.137C281.036 105.071 278.5 102.318 278.5 99.4521C278.5 96.5862 281.036 93.8333 285.508 91.7676C289.937 89.7215 296.091 88.4424 302.916 88.4424Z" fill="#67879F" stroke="#212121"/>
</g>
<defs>
<clipPath id="clip0_114_8841">
<rect width="317" height="333" fill="white" transform="translate(52)"/>
</clipPath>
</defs>
</svg>
