<svg width="607" height="454" viewBox="0 0 607 454" fill="none" xmlns="http://www.w3.org/2000/svg">
<circle cx="207.916" cy="245.915" r="205.14" transform="rotate(-89.9238 207.916 245.915)" fill="#D8B767" stroke="#212121" stroke-width="5"/>
<mask id="path-2-inside-1_114_7147" fill="white">
<path d="M208.5 39C237.396 39 265.973 45.0352 292.401 56.719C318.83 68.4028 342.526 85.4777 361.973 106.85C381.421 128.222 396.19 153.421 405.335 180.831C414.479 208.242 417.798 237.26 415.079 266.027C412.36 294.795 403.662 322.677 389.543 347.889C375.424 373.1 356.195 395.085 333.087 412.435C309.98 429.784 283.503 442.116 255.354 448.641C227.204 455.166 198.002 455.739 169.618 450.325L208.5 246.5L208.5 39Z"/>
</mask>
<path d="M208.5 39C237.396 39 265.973 45.0352 292.401 56.719C318.83 68.4028 342.526 85.4777 361.973 106.85C381.421 128.222 396.19 153.421 405.335 180.831C414.479 208.242 417.798 237.26 415.079 266.027C412.36 294.795 403.662 322.677 389.543 347.889C375.424 373.1 356.195 395.085 333.087 412.435C309.98 429.784 283.503 442.116 255.354 448.641C227.204 455.166 198.002 455.739 169.618 450.325L208.5 246.5L208.5 39Z" fill="#C26A5A" stroke="#212121" stroke-width="10" mask="url(#path-2-inside-1_114_7147)"/>
<mask id="path-3-outside-2_114_7147" maskUnits="userSpaceOnUse" x="373" y="23" width="209" height="80" fill="black">
<rect fill="white" x="373" y="23" width="209" height="80"/>
<path d="M400.468 101.268C396.665 101.268 392.932 100.599 389.269 99.2605C385.607 97.9223 382.473 96.0207 379.867 93.5556C377.331 91.0201 375.747 88.0268 375.113 84.5757L391.382 81.6177C392.087 83.4489 393.214 84.7518 394.763 85.5266C396.312 86.2309 397.968 86.583 399.728 86.583C401.982 86.583 404.025 86.1252 405.856 85.2096C407.757 84.2236 409.342 82.8854 410.61 81.1951C411.948 79.4343 412.793 77.4623 413.145 75.2789C413.568 72.6026 413.075 70.384 411.666 68.6233C410.328 66.7921 408.215 65.8765 405.328 65.8765C403.074 65.8765 401.031 66.4399 399.2 67.5668C397.439 68.6233 396.066 69.7501 395.08 70.9475L380.078 67.1442L391.805 26.0481H434.697L432.162 41.4723H392.122L391.805 26.5763H408.708L395.08 69.0458L386.945 66.7216C387.65 65.5243 388.741 64.1509 390.22 62.6015C391.77 61.052 393.601 59.573 395.714 58.1643C397.897 56.6853 400.362 55.488 403.109 54.5724C405.926 53.5864 408.955 53.1286 412.195 53.199C416.209 53.2694 419.731 54.3259 422.759 56.3684C425.788 58.3404 428.041 61.052 429.52 64.5031C430.999 67.8837 431.352 71.8278 430.577 76.3354C429.732 81.2655 427.9 85.6322 425.083 89.4354C422.266 93.1683 418.745 96.0911 414.519 98.204C410.293 100.247 405.609 101.268 400.468 101.268ZM461.215 101.268C456.355 101.268 452.059 100.528 448.326 99.0492C444.664 97.4997 441.741 95.3516 439.558 92.6048C437.445 89.7876 436.318 86.4421 436.177 82.5685L452.552 79.6104C452.763 80.3851 453.08 81.3359 453.503 82.4628C453.925 83.5897 454.63 84.5757 455.616 85.4209C456.672 86.1956 458.257 86.583 460.37 86.583C462.835 86.583 464.948 86.1252 466.708 85.2096C468.54 84.294 469.983 83.0615 471.04 81.512C472.096 79.9626 472.66 78.237 472.73 76.3354C472.871 75.0676 472.589 73.9055 471.885 72.8491C471.181 71.7222 469.983 70.8066 468.293 70.1023C466.603 69.398 464.243 69.0458 461.215 69.0458H455.193L457.095 58.0587H461.321C465.406 58.0587 469.209 58.6221 472.73 59.749C476.322 60.8055 479.421 62.355 482.027 64.3974C484.703 66.4399 486.64 68.8698 487.838 71.687C489.105 74.5042 489.457 77.6736 488.894 81.1951C488.19 85.4913 486.429 89.1537 483.612 92.1822C480.865 95.1403 477.484 97.3941 473.47 98.9435C469.526 100.493 465.441 101.268 461.215 101.268ZM455.721 65.5595L457.517 55.3119H462.271C466.427 55.3119 469.807 54.5724 472.413 53.0934C475.09 51.6143 476.534 49.2197 476.745 45.9095C476.886 44.2191 476.252 42.7401 474.843 41.4723C473.505 40.1342 471.779 39.4651 469.667 39.4651C467.624 39.4651 465.582 40.0285 463.539 41.1554C461.567 42.2823 459.912 44.36 458.574 47.3885L443.361 42.6344C444.84 38.6199 447.058 35.3097 450.016 32.7038C452.975 30.0274 456.285 28.0554 459.947 26.7876C463.68 25.4494 467.378 24.7803 471.04 24.7803C475.9 24.7803 480.161 25.6959 483.823 27.5271C487.485 29.3583 490.197 31.8938 491.958 35.1336C493.719 38.303 494.247 42.0358 493.542 46.332C492.979 49.7127 491.676 52.6003 489.634 54.995C487.591 57.3896 485.02 59.3617 481.921 60.9111C478.893 62.4606 475.583 63.6227 471.991 64.3974C468.399 65.1722 464.772 65.5595 461.109 65.5595H455.721ZM498.249 100L563.115 26.0481H579.384L514.201 100H498.249ZM518.321 61.9676C514.8 61.9676 511.771 61.1576 509.236 59.5377C506.7 57.8474 504.869 55.5232 503.742 52.5651C502.686 49.5366 502.439 46.1207 503.003 42.3175C503.566 38.8664 504.763 35.8379 506.595 33.232C508.426 30.5556 510.715 28.4779 513.462 26.9989C516.208 25.4494 519.202 24.6747 522.441 24.6747C526.033 24.6747 529.062 25.5199 531.527 27.2102C534.062 28.9005 535.894 31.2247 537.021 34.1828C538.147 37.1409 538.394 40.5215 537.76 44.3248C537.197 47.7759 535.964 50.8396 534.062 53.5159C532.231 56.1923 529.978 58.27 527.301 59.749C524.625 61.2281 521.632 61.9676 518.321 61.9676ZM517.899 51.5087C520.082 51.5087 522.019 50.6283 523.709 48.8675C525.47 47.1068 526.562 44.9234 526.984 42.3175C527.336 40.275 527.16 38.5847 526.456 37.2465C525.752 35.9083 524.554 35.2392 522.864 35.2392C520.681 35.2392 518.709 36.1196 516.948 37.8804C515.187 39.5707 514.131 41.7188 513.779 44.3248C513.426 46.4377 513.602 48.1632 514.307 49.5014C515.081 50.8396 516.279 51.5087 517.899 51.5087ZM555.825 101.373C552.234 101.373 549.17 100.528 546.634 98.8379C544.099 97.1476 542.268 94.8234 541.141 91.8653C540.084 88.8368 539.873 85.4561 540.507 81.7233C541.07 78.2018 542.268 75.1381 544.099 72.5321C545.93 69.8558 548.219 67.7781 550.966 66.2991C553.713 64.82 556.671 64.0805 559.84 64.0805C563.502 64.0805 566.566 64.9257 569.031 66.616C571.567 68.2359 573.363 70.5249 574.419 73.483C575.546 76.441 575.792 79.8569 575.159 83.7306C574.595 87.1112 573.398 90.1397 571.567 92.8161C569.735 95.4925 567.446 97.6054 564.7 99.1548C562.023 100.634 559.065 101.373 555.825 101.373ZM555.403 90.8088C557.586 90.8088 559.523 89.9637 561.213 88.2733C562.974 86.5126 564.066 84.3292 564.488 81.7233C564.841 79.6104 564.629 77.8849 563.855 76.5467C563.15 75.2085 561.988 74.5394 560.368 74.5394C558.114 74.5394 556.107 75.4198 554.346 77.1806C552.656 78.9413 551.6 81.1247 551.177 83.7306C550.895 85.7731 551.107 87.4634 551.811 88.8016C552.586 90.1397 553.783 90.8088 555.403 90.8088Z"/>
</mask>
<path d="M400.468 101.268C396.665 101.268 392.932 100.599 389.269 99.2605C385.607 97.9223 382.473 96.0207 379.867 93.5556C377.331 91.0201 375.747 88.0268 375.113 84.5757L391.382 81.6177C392.087 83.4489 393.214 84.7518 394.763 85.5266C396.312 86.2309 397.968 86.583 399.728 86.583C401.982 86.583 404.025 86.1252 405.856 85.2096C407.757 84.2236 409.342 82.8854 410.61 81.1951C411.948 79.4343 412.793 77.4623 413.145 75.2789C413.568 72.6026 413.075 70.384 411.666 68.6233C410.328 66.7921 408.215 65.8765 405.328 65.8765C403.074 65.8765 401.031 66.4399 399.2 67.5668C397.439 68.6233 396.066 69.7501 395.08 70.9475L380.078 67.1442L391.805 26.0481H434.697L432.162 41.4723H392.122L391.805 26.5763H408.708L395.08 69.0458L386.945 66.7216C387.65 65.5243 388.741 64.1509 390.22 62.6015C391.77 61.052 393.601 59.573 395.714 58.1643C397.897 56.6853 400.362 55.488 403.109 54.5724C405.926 53.5864 408.955 53.1286 412.195 53.199C416.209 53.2694 419.731 54.3259 422.759 56.3684C425.788 58.3404 428.041 61.052 429.52 64.5031C430.999 67.8837 431.352 71.8278 430.577 76.3354C429.732 81.2655 427.9 85.6322 425.083 89.4354C422.266 93.1683 418.745 96.0911 414.519 98.204C410.293 100.247 405.609 101.268 400.468 101.268ZM461.215 101.268C456.355 101.268 452.059 100.528 448.326 99.0492C444.664 97.4997 441.741 95.3516 439.558 92.6048C437.445 89.7876 436.318 86.4421 436.177 82.5685L452.552 79.6104C452.763 80.3851 453.08 81.3359 453.503 82.4628C453.925 83.5897 454.63 84.5757 455.616 85.4209C456.672 86.1956 458.257 86.583 460.37 86.583C462.835 86.583 464.948 86.1252 466.708 85.2096C468.54 84.294 469.983 83.0615 471.04 81.512C472.096 79.9626 472.66 78.237 472.73 76.3354C472.871 75.0676 472.589 73.9055 471.885 72.8491C471.181 71.7222 469.983 70.8066 468.293 70.1023C466.603 69.398 464.243 69.0458 461.215 69.0458H455.193L457.095 58.0587H461.321C465.406 58.0587 469.209 58.6221 472.73 59.749C476.322 60.8055 479.421 62.355 482.027 64.3974C484.703 66.4399 486.64 68.8698 487.838 71.687C489.105 74.5042 489.457 77.6736 488.894 81.1951C488.19 85.4913 486.429 89.1537 483.612 92.1822C480.865 95.1403 477.484 97.3941 473.47 98.9435C469.526 100.493 465.441 101.268 461.215 101.268ZM455.721 65.5595L457.517 55.3119H462.271C466.427 55.3119 469.807 54.5724 472.413 53.0934C475.09 51.6143 476.534 49.2197 476.745 45.9095C476.886 44.2191 476.252 42.7401 474.843 41.4723C473.505 40.1342 471.779 39.4651 469.667 39.4651C467.624 39.4651 465.582 40.0285 463.539 41.1554C461.567 42.2823 459.912 44.36 458.574 47.3885L443.361 42.6344C444.84 38.6199 447.058 35.3097 450.016 32.7038C452.975 30.0274 456.285 28.0554 459.947 26.7876C463.68 25.4494 467.378 24.7803 471.04 24.7803C475.9 24.7803 480.161 25.6959 483.823 27.5271C487.485 29.3583 490.197 31.8938 491.958 35.1336C493.719 38.303 494.247 42.0358 493.542 46.332C492.979 49.7127 491.676 52.6003 489.634 54.995C487.591 57.3896 485.02 59.3617 481.921 60.9111C478.893 62.4606 475.583 63.6227 471.991 64.3974C468.399 65.1722 464.772 65.5595 461.109 65.5595H455.721ZM498.249 100L563.115 26.0481H579.384L514.201 100H498.249ZM518.321 61.9676C514.8 61.9676 511.771 61.1576 509.236 59.5377C506.7 57.8474 504.869 55.5232 503.742 52.5651C502.686 49.5366 502.439 46.1207 503.003 42.3175C503.566 38.8664 504.763 35.8379 506.595 33.232C508.426 30.5556 510.715 28.4779 513.462 26.9989C516.208 25.4494 519.202 24.6747 522.441 24.6747C526.033 24.6747 529.062 25.5199 531.527 27.2102C534.062 28.9005 535.894 31.2247 537.021 34.1828C538.147 37.1409 538.394 40.5215 537.76 44.3248C537.197 47.7759 535.964 50.8396 534.062 53.5159C532.231 56.1923 529.978 58.27 527.301 59.749C524.625 61.2281 521.632 61.9676 518.321 61.9676ZM517.899 51.5087C520.082 51.5087 522.019 50.6283 523.709 48.8675C525.47 47.1068 526.562 44.9234 526.984 42.3175C527.336 40.275 527.16 38.5847 526.456 37.2465C525.752 35.9083 524.554 35.2392 522.864 35.2392C520.681 35.2392 518.709 36.1196 516.948 37.8804C515.187 39.5707 514.131 41.7188 513.779 44.3248C513.426 46.4377 513.602 48.1632 514.307 49.5014C515.081 50.8396 516.279 51.5087 517.899 51.5087ZM555.825 101.373C552.234 101.373 549.17 100.528 546.634 98.8379C544.099 97.1476 542.268 94.8234 541.141 91.8653C540.084 88.8368 539.873 85.4561 540.507 81.7233C541.07 78.2018 542.268 75.1381 544.099 72.5321C545.93 69.8558 548.219 67.7781 550.966 66.2991C553.713 64.82 556.671 64.0805 559.84 64.0805C563.502 64.0805 566.566 64.9257 569.031 66.616C571.567 68.2359 573.363 70.5249 574.419 73.483C575.546 76.441 575.792 79.8569 575.159 83.7306C574.595 87.1112 573.398 90.1397 571.567 92.8161C569.735 95.4925 567.446 97.6054 564.7 99.1548C562.023 100.634 559.065 101.373 555.825 101.373ZM555.403 90.8088C557.586 90.8088 559.523 89.9637 561.213 88.2733C562.974 86.5126 564.066 84.3292 564.488 81.7233C564.841 79.6104 564.629 77.8849 563.855 76.5467C563.15 75.2085 561.988 74.5394 560.368 74.5394C558.114 74.5394 556.107 75.4198 554.346 77.1806C552.656 78.9413 551.6 81.1247 551.177 83.7306C550.895 85.7731 551.107 87.4634 551.811 88.8016C552.586 90.1397 553.783 90.8088 555.403 90.8088Z" fill="#212121"/>
<path d="M389.269 99.2605L389.632 98.2682L389.632 98.2682L389.269 99.2605ZM379.867 93.5556L379.12 94.3026L379.13 94.313L379.141 94.3231L379.867 93.5556ZM375.113 84.5757L374.924 83.5363L373.883 83.7257L374.074 84.7666L375.113 84.5757ZM391.382 81.6177L392.368 81.2384L392.054 80.4217L391.193 80.5783L391.382 81.6177ZM394.763 85.5266L394.291 86.4715L394.308 86.4802L394.326 86.4883L394.763 85.5266ZM405.856 85.2096L406.328 86.1545L406.335 86.1511L406.342 86.1475L405.856 85.2096ZM410.61 81.1951L409.769 80.5558L409.765 80.5612L410.61 81.1951ZM413.145 75.2789L414.188 75.4472L414.189 75.4437L413.145 75.2789ZM411.666 68.6233L410.813 69.2466L410.827 69.2652L410.841 69.2832L411.666 68.6233ZM399.2 67.5668L399.744 68.4728L399.754 68.4665L399.2 67.5668ZM395.08 70.9475L394.82 71.9715L395.47 72.1361L395.895 71.6191L395.08 70.9475ZM380.078 67.1442L379.062 66.8543L378.764 67.9008L379.819 68.1683L380.078 67.1442ZM391.805 26.0481V24.9916H391.008L390.789 25.7582L391.805 26.0481ZM434.697 26.0481L435.739 26.2194L435.941 24.9916H434.697V26.0481ZM432.162 41.4723V42.5288H433.059L433.204 41.6437L432.162 41.4723ZM392.122 41.4723L391.066 41.4948L391.088 42.5288H392.122V41.4723ZM391.805 26.5763V25.5199H390.726L390.749 26.5988L391.805 26.5763ZM408.708 26.5763L409.714 26.8991L410.157 25.5199H408.708V26.5763ZM395.08 69.0458L394.79 70.0616L395.773 70.3427L396.086 69.3686L395.08 69.0458ZM386.945 66.7216L386.035 66.186L385.343 67.3625L386.655 67.7374L386.945 66.7216ZM390.22 62.6015L389.473 61.8544L389.465 61.8631L389.456 61.872L390.22 62.6015ZM395.714 58.1643L396.3 59.0434L396.306 59.039L395.714 58.1643ZM403.109 54.5724L403.443 55.5746L403.451 55.5721L403.458 55.5695L403.109 54.5724ZM412.195 53.199L412.172 54.2552L412.176 54.2553L412.195 53.199ZM422.759 56.3684L422.168 57.2442L422.175 57.249L422.183 57.2537L422.759 56.3684ZM429.52 64.5031L428.549 64.9192L428.553 64.9265L429.52 64.5031ZM430.577 76.3354L429.536 76.1564L429.536 76.1569L430.577 76.3354ZM425.083 89.4354L425.927 90.0719L425.932 90.0643L425.083 89.4354ZM414.519 98.204L414.978 99.1552L414.985 99.1521L414.991 99.1489L414.519 98.204ZM400.468 101.268V100.211C396.791 100.211 393.181 99.565 389.632 98.2682L389.269 99.2605L388.907 100.253C392.682 101.632 396.538 102.324 400.468 102.324V101.268ZM389.269 99.2605L389.632 98.2682C386.093 96.9751 383.086 95.146 380.593 92.7881L379.867 93.5556L379.141 94.3231C381.86 96.8954 385.121 98.8695 388.907 100.253L389.269 99.2605ZM379.867 93.5556L380.614 92.8086C378.226 90.421 376.746 87.6204 376.152 84.3849L375.113 84.5757L374.074 84.7666C374.747 88.4333 376.436 91.6192 379.12 94.3026L379.867 93.5556ZM375.113 84.5757L375.302 85.6152L391.571 82.6571L391.382 81.6177L391.193 80.5783L374.924 83.5363L375.113 84.5757ZM391.382 81.6177L390.396 81.9969C391.182 84.0391 392.474 85.5631 394.291 86.4715L394.763 85.5266L395.235 84.5816C393.953 83.9406 392.992 82.8586 392.368 81.2384L391.382 81.6177ZM394.763 85.5266L394.326 86.4883C396.017 87.2572 397.822 87.6395 399.728 87.6395V86.583V85.5266C398.113 85.5266 396.608 85.2045 395.2 84.5648L394.763 85.5266ZM399.728 86.583V87.6395C402.129 87.6395 404.336 87.1506 406.328 86.1545L405.856 85.2096L405.383 84.2647C403.713 85.0998 401.835 85.5266 399.728 85.5266V86.583ZM405.856 85.2096L406.342 86.1475C408.383 85.0894 410.091 83.6481 411.455 81.829L410.61 81.1951L409.765 80.5612C408.594 82.1227 407.132 83.3578 405.369 84.2717L405.856 85.2096ZM410.61 81.1951L411.451 81.8343C412.894 79.9355 413.809 77.8017 414.188 75.4472L413.145 75.2789L412.102 75.1107C411.778 77.1229 411.002 78.9331 409.769 80.5558L410.61 81.1951ZM413.145 75.2789L414.189 75.4437C414.648 72.5382 414.122 70.0023 412.491 67.9633L411.666 68.6233L410.841 69.2832C412.027 70.7657 412.488 72.667 412.102 75.1142L413.145 75.2789ZM411.666 68.6233L412.519 67.9999C410.929 65.8235 408.45 64.82 405.328 64.82V65.8765V66.9329C407.98 66.9329 409.727 67.7606 410.813 69.2466L411.666 68.6233ZM405.328 65.8765V64.82C402.888 64.82 400.652 65.4327 398.646 66.6671L399.2 67.5668L399.754 68.4665C401.41 67.4472 403.259 66.9329 405.328 66.9329V65.8765ZM399.2 67.5668L398.657 66.6609C396.824 67.7605 395.347 68.9608 394.264 70.2759L395.08 70.9475L395.895 71.6191C396.785 70.5394 398.055 69.486 399.744 68.4727L399.2 67.5668ZM395.08 70.9475L395.34 69.9234L380.338 66.1202L380.078 67.1442L379.819 68.1683L394.82 71.9715L395.08 70.9475ZM380.078 67.1442L381.094 67.4341L392.821 26.338L391.805 26.0481L390.789 25.7582L379.062 66.8543L380.078 67.1442ZM391.805 26.0481V27.1045H434.697V26.0481V24.9916H391.805V26.0481ZM434.697 26.0481L433.655 25.8767L431.119 41.301L432.162 41.4723L433.204 41.6437L435.739 26.2194L434.697 26.0481ZM432.162 41.4723V40.4159H392.122V41.4723V42.5288H432.162V41.4723ZM392.122 41.4723L393.178 41.4499L392.861 26.5538L391.805 26.5763L390.749 26.5988L391.066 41.4948L392.122 41.4723ZM391.805 26.5763V27.6328H408.708V26.5763V25.5199H391.805V26.5763ZM408.708 26.5763L407.702 26.2535L394.074 68.723L395.08 69.0458L396.086 69.3686L409.714 26.8991L408.708 26.5763ZM395.08 69.0458L395.37 68.03L387.235 65.7058L386.945 66.7216L386.655 67.7374L394.79 70.0616L395.08 69.0458ZM386.945 66.7216L387.856 67.2573C388.503 66.1569 389.535 64.8496 390.984 63.3309L390.22 62.6015L389.456 61.872C387.948 63.4522 386.796 64.8917 386.035 66.186L386.945 66.7216ZM390.22 62.6015L390.967 63.3485C392.461 61.8552 394.236 60.4193 396.3 59.0434L395.714 58.1643L395.128 57.2853C392.966 58.7266 391.079 60.2487 389.473 61.8544L390.22 62.6015ZM395.714 58.1643L396.306 59.039C398.402 57.6191 400.779 56.4627 403.443 55.5746L403.109 54.5724L402.775 53.5702C399.945 54.5133 397.392 55.7515 395.121 57.2897L395.714 58.1643ZM403.109 54.5724L403.458 55.5695C406.146 54.6288 409.047 54.1873 412.172 54.2552L412.195 53.199L412.217 52.1428C408.862 52.0698 405.707 52.544 402.76 53.5753L403.109 54.5724ZM412.195 53.199L412.176 54.2553C416.007 54.3225 419.326 55.3272 422.168 57.2442L422.759 56.3684L423.35 55.4925C420.135 53.3246 416.411 52.2163 412.213 52.1427L412.195 53.199ZM422.759 56.3684L422.183 57.2537C425.029 59.1072 427.149 61.6522 428.549 64.9192L429.52 64.5031L430.491 64.0869C428.934 60.4518 426.546 57.5737 423.336 55.4831L422.759 56.3684ZM429.52 64.5031L428.553 64.9265C429.931 68.077 430.284 71.8036 429.536 76.1564L430.577 76.3354L431.618 76.5143C432.419 71.8521 432.068 67.6905 430.488 64.0796L429.52 64.5031ZM430.577 76.3354L429.536 76.1569C428.717 80.9334 426.947 85.1439 424.234 88.8066L425.083 89.4354L425.932 90.0643C428.854 86.1205 430.747 81.5976 431.618 76.5139L430.577 76.3354ZM425.083 89.4354L424.24 88.799C421.522 92.4004 418.128 95.2183 414.046 97.2591L414.519 98.204L414.991 99.1489C419.361 96.9639 423.01 93.9361 425.927 90.0719L425.083 89.4354ZM414.519 98.204L414.059 97.2528C409.99 99.2196 405.465 100.211 400.468 100.211V101.268V102.324C405.753 102.324 410.596 101.273 414.978 99.1552L414.519 98.204ZM448.326 99.0492L447.914 100.022L447.926 100.027L447.937 100.031L448.326 99.0492ZM439.558 92.6048L438.712 93.2387L438.721 93.2506L438.731 93.2622L439.558 92.6048ZM436.177 82.5685L435.989 81.5288L435.088 81.6917L435.121 82.6069L436.177 82.5685ZM452.552 79.6104L453.571 79.3324L453.317 78.3987L452.364 78.5708L452.552 79.6104ZM455.616 85.4209L454.928 86.223L454.959 86.2491L454.991 86.2728L455.616 85.4209ZM466.708 85.2096L466.236 84.2647L466.229 84.2684L466.221 84.2723L466.708 85.2096ZM471.04 81.512L471.913 82.1072L471.913 82.1072L471.04 81.512ZM472.73 76.3354L471.68 76.2187L471.676 76.2574L471.675 76.2963L472.73 76.3354ZM471.885 72.8491L470.989 73.409L470.997 73.4222L471.006 73.4351L471.885 72.8491ZM468.293 70.1023L468.699 69.1271L468.699 69.1271L468.293 70.1023ZM455.193 69.0458L454.152 68.8657L453.938 70.1023H455.193V69.0458ZM457.095 58.0587V57.0022H456.205L456.054 57.8785L457.095 58.0587ZM472.73 59.749L472.408 60.7552L472.42 60.759L472.432 60.7626L472.73 59.749ZM482.027 64.3974L481.375 65.229L481.386 65.2373L482.027 64.3974ZM487.838 71.687L486.865 72.1002L486.87 72.1104L486.874 72.1205L487.838 71.687ZM488.894 81.1951L489.937 81.366L489.937 81.362L488.894 81.1951ZM483.612 92.1822L482.838 91.4627L482.838 91.4634L483.612 92.1822ZM473.47 98.9435L473.089 97.9579L473.083 97.9602L473.47 98.9435ZM455.721 65.5595L454.681 65.3772L454.464 66.616H455.721V65.5595ZM457.517 55.3119V54.2555H456.63L456.477 55.1295L457.517 55.3119ZM472.413 53.0934L471.902 52.1686L471.892 52.1746L472.413 53.0934ZM476.745 45.9095L475.692 45.8217L475.691 45.8319L475.69 45.8422L476.745 45.9095ZM474.843 41.4723L474.096 42.2194L474.116 42.239L474.136 42.2576L474.843 41.4723ZM463.539 41.1554L463.029 40.2304L463.022 40.2342L463.015 40.2381L463.539 41.1554ZM458.574 47.3885L458.259 48.3969L459.159 48.6782L459.54 47.8155L458.574 47.3885ZM443.361 42.6344L442.369 42.2692L441.985 43.3115L443.046 43.6428L443.361 42.6344ZM450.016 32.7038L450.715 33.4965L450.725 33.4872L450.016 32.7038ZM459.947 26.7876L460.293 27.786L460.304 27.7821L459.947 26.7876ZM483.823 27.5271L484.296 26.5822L484.296 26.5822L483.823 27.5271ZM491.958 35.1336L491.029 35.6381L491.034 35.6467L491.958 35.1336ZM493.542 46.332L494.585 46.5057L494.585 46.5029L493.542 46.332ZM489.634 54.995L490.437 55.6806L490.437 55.6806L489.634 54.995ZM481.921 60.9111L481.449 59.9662L481.44 59.9706L481.921 60.9111ZM471.991 64.3974L471.768 63.3647L471.768 63.3647L471.991 64.3974ZM461.215 101.268V100.211C456.461 100.211 452.301 99.4878 448.715 98.067L448.326 99.0492L447.937 100.031C451.817 101.569 456.249 102.324 461.215 102.324V101.268ZM448.326 99.0492L448.738 98.0762C445.216 96.5863 442.444 94.5384 440.385 91.9474L439.558 92.6048L438.731 93.2622C441.038 96.1648 444.111 98.4132 447.914 100.022L448.326 99.0492ZM439.558 92.6048L440.403 91.9709C438.432 89.3434 437.367 86.2111 437.233 82.5301L436.177 82.5685L435.121 82.6069C435.269 86.6732 436.457 90.2318 438.712 93.2387L439.558 92.6048ZM436.177 82.5685L436.365 83.6081L452.74 80.65L452.552 79.6104L452.364 78.5708L435.989 81.5288L436.177 82.5685ZM452.552 79.6104L451.533 79.8884C451.756 80.7059 452.085 81.6898 452.514 82.8338L453.503 82.4628L454.492 82.0919C454.076 80.9821 453.771 80.0644 453.571 79.3324L452.552 79.6104ZM453.503 82.4628L452.514 82.8338C453.004 84.1406 453.818 85.2713 454.928 86.223L455.616 85.4209L456.303 84.6188C455.441 83.8802 454.847 83.0388 454.492 82.0919L453.503 82.4628ZM455.616 85.4209L454.991 86.2728C456.309 87.2397 458.159 87.6395 460.37 87.6395V86.583V85.5266C458.355 85.5266 457.035 85.1516 456.24 84.569L455.616 85.4209ZM460.37 86.583V87.6395C462.964 87.6395 465.252 87.1575 467.196 86.1469L466.708 85.2096L466.221 84.2723C464.643 85.0929 462.705 85.5266 460.37 85.5266V86.583ZM466.708 85.2096L467.181 86.1545C469.158 85.166 470.746 83.8189 471.913 82.1072L471.04 81.512L470.167 80.9169C469.221 82.3041 467.921 83.4221 466.236 84.2647L466.708 85.2096ZM471.04 81.512L471.913 82.1072C473.083 80.3907 473.708 78.4719 473.786 76.3745L472.73 76.3354L471.675 76.2963C471.611 78.0021 471.11 79.5344 470.167 80.9169L471.04 81.512ZM472.73 76.3354L473.78 76.4521C473.948 74.9385 473.607 73.5274 472.764 72.2631L471.885 72.8491L471.006 73.4351C471.572 74.2837 471.794 75.1968 471.68 76.2187L472.73 76.3354ZM471.885 72.8491L472.781 72.2892C471.924 70.918 470.518 69.8846 468.699 69.1271L468.293 70.1023L467.887 71.0775C469.449 71.7286 470.438 72.5264 470.989 73.409L471.885 72.8491ZM468.293 70.1023L468.699 69.1271C466.823 68.3453 464.303 67.9894 461.215 67.9894V69.0458V70.1023C464.183 70.1023 466.382 70.4507 467.887 71.0775L468.293 70.1023ZM461.215 69.0458V67.9894H455.193V69.0458V70.1023H461.215V69.0458ZM455.193 69.0458L456.234 69.226L458.136 58.2389L457.095 58.0587L456.054 57.8785L454.152 68.8657L455.193 69.0458ZM457.095 58.0587V59.1152H461.321V58.0587V57.0022H457.095V58.0587ZM461.321 58.0587V59.1152C465.308 59.1152 469.001 59.6649 472.408 60.7552L472.73 59.749L473.052 58.7428C469.416 57.5793 465.503 57.0022 461.321 57.0022V58.0587ZM472.73 59.749L472.432 60.7626C475.912 61.7862 478.888 63.2791 481.375 65.2289L482.027 64.3974L482.679 63.5659C479.955 61.4309 476.732 59.8248 473.028 58.7355L472.73 59.749ZM482.027 64.3974L481.386 65.2373C483.932 67.18 485.747 69.468 486.865 72.1002L487.838 71.687L488.81 71.2738C487.534 68.2716 485.475 65.6998 482.668 63.5576L482.027 64.3974ZM487.838 71.687L486.874 72.1205C488.045 74.7219 488.387 77.6781 487.851 81.0282L488.894 81.1951L489.937 81.362C490.528 77.6691 490.166 74.2865 488.801 71.2534L487.838 71.687ZM488.894 81.1951L487.851 81.0242C487.179 85.1264 485.506 88.5948 482.838 91.4627L483.612 92.1822L484.385 92.9018C487.352 89.7127 489.2 85.8563 489.937 81.366L488.894 81.1951ZM483.612 92.1822L482.838 91.4634C480.207 94.2961 476.964 96.4624 473.089 97.958L473.47 98.9435L473.85 99.9291C478.004 98.3257 481.523 95.9845 484.386 92.9011L483.612 92.1822ZM473.47 98.9435L473.083 97.9602C469.262 99.4615 465.308 100.211 461.215 100.211V101.268V102.324C465.573 102.324 469.789 101.525 473.856 99.9268L473.47 98.9435ZM455.721 65.5595L456.762 65.7419L458.558 55.4943L457.517 55.3119L456.477 55.1295L454.681 65.3772L455.721 65.5595ZM457.517 55.3119V56.3684H462.271V55.3119V54.2555H457.517V55.3119ZM462.271 55.3119V56.3684C466.542 56.3684 470.12 55.6097 472.935 54.0121L472.413 53.0934L471.892 52.1746C469.495 53.5351 466.311 54.2555 462.271 54.2555V55.3119ZM472.413 53.0934L472.924 54.018C475.947 52.3477 477.567 49.6103 477.799 45.9768L476.745 45.9095L475.69 45.8422C475.5 48.829 474.233 50.881 471.902 52.1687L472.413 53.0934ZM476.745 45.9095L477.798 45.9972C477.969 43.9359 477.171 42.146 475.55 40.6871L474.843 41.4723L474.136 42.2576C475.333 43.3341 475.802 44.5023 475.692 45.8217L476.745 45.9095ZM474.843 41.4723L475.59 40.7253C474.03 39.1651 472.024 38.4086 469.667 38.4086V39.4651V40.5215C471.535 40.5215 472.98 41.1032 474.096 42.2194L474.843 41.4723ZM469.667 39.4651V38.4086C467.422 38.4086 465.205 39.0297 463.029 40.2304L463.539 41.1554L464.049 42.0804C465.958 41.0273 467.827 40.5215 469.667 40.5215V39.4651ZM463.539 41.1554L463.015 40.2381C460.776 41.5178 458.997 43.8172 457.607 46.9615L458.574 47.3885L459.54 47.8155C460.827 44.9028 462.359 43.0468 464.063 42.0727L463.539 41.1554ZM458.574 47.3885L458.889 46.3801L443.676 41.6261L443.361 42.6344L443.046 43.6428L458.259 48.3969L458.574 47.3885ZM443.361 42.6344L444.352 42.9997C445.776 39.1354 447.899 35.9767 450.715 33.4965L450.016 32.7038L449.318 31.911C446.217 34.6427 443.904 38.1045 442.369 42.2692L443.361 42.6344ZM450.016 32.7038L450.725 33.4872C453.581 30.9033 456.769 29.0058 460.293 27.7859L459.947 26.7876L459.602 25.7893C455.801 27.1049 452.368 29.1515 449.308 31.9204L450.016 32.7038ZM459.947 26.7876L460.304 27.7821C463.932 26.4815 467.509 25.8368 471.04 25.8368V24.7803V23.7239C467.246 23.7239 463.428 24.4173 459.591 25.7931L459.947 26.7876ZM471.04 24.7803V25.8368C475.766 25.8368 479.86 26.7267 483.351 28.472L483.823 27.5271L484.296 26.5822C480.461 24.6652 476.033 23.7239 471.04 23.7239V24.7803ZM483.823 27.5271L483.351 28.472C486.842 30.2177 489.383 32.6091 491.03 35.6381L491.958 35.1336L492.886 34.6291C491.011 31.1785 488.129 28.4989 484.296 26.5822L483.823 27.5271ZM491.958 35.1336L491.034 35.6467C492.657 38.5685 493.174 42.0509 492.5 46.1611L493.542 46.332L494.585 46.5029C495.32 42.0206 494.78 38.0375 492.881 34.6205L491.958 35.1336ZM493.542 46.332L492.5 46.1584C491.966 49.3673 490.737 52.0735 488.83 54.3094L489.634 54.995L490.437 55.6806C492.615 53.1272 493.992 50.0581 494.585 46.5057L493.542 46.332ZM489.634 54.995L488.83 54.3094C486.888 56.5858 484.434 58.4737 481.449 59.9662L481.921 60.9111L482.394 61.8561C485.607 60.2496 488.294 58.1934 490.437 55.6806L489.634 54.995ZM481.921 60.9111L481.44 59.9706C478.5 61.475 475.277 62.6078 471.768 63.3647L471.991 64.3974L472.213 65.4301C475.888 64.6376 479.286 63.4461 482.403 61.8516L481.921 60.9111ZM471.991 64.3974L471.768 63.3647C468.249 64.1237 464.697 64.5031 461.109 64.5031V65.5595V66.616C464.847 66.616 468.549 66.2206 472.213 65.4301L471.991 64.3974ZM461.109 65.5595V64.5031H455.721V65.5595V66.616H461.109V65.5595ZM498.249 100L497.454 99.3034L495.917 101.056H498.249V100ZM563.115 26.0481V24.9916H562.636L562.321 25.3514L563.115 26.0481ZM579.384 26.0481L580.177 26.7466L581.724 24.9916H579.384V26.0481ZM514.201 100V101.056H514.678L514.994 100.699L514.201 100ZM509.236 59.5377L508.65 60.4168L508.658 60.4225L508.667 60.428L509.236 59.5377ZM503.742 52.5651L502.745 52.9131L502.75 52.9272L502.755 52.9412L503.742 52.5651ZM503.003 42.3175L501.96 42.1473L501.959 42.155L501.958 42.1627L503.003 42.3175ZM506.595 33.232L507.459 33.8394L507.467 33.8285L506.595 33.232ZM513.462 26.9989L513.962 27.9291L513.972 27.9241L513.981 27.919L513.462 26.9989ZM531.527 27.2102L530.929 28.0815L530.941 28.0892L531.527 27.2102ZM537.76 44.3248L536.718 44.1511L536.717 44.1545L537.76 44.3248ZM534.062 53.5159L533.201 52.904L533.196 52.9117L533.191 52.9194L534.062 53.5159ZM527.301 59.749L526.79 58.8244L526.79 58.8244L527.301 59.749ZM523.709 48.8675L522.962 48.1205L522.955 48.1281L522.947 48.1359L523.709 48.8675ZM526.984 42.3175L525.943 42.138L525.941 42.1484L526.984 42.3175ZM516.948 37.8804L517.68 38.6425L517.687 38.635L517.695 38.6274L516.948 37.8804ZM513.779 44.3248L514.821 44.4985L514.823 44.4824L514.825 44.4663L513.779 44.3248ZM514.307 49.5014L513.372 49.9934L513.382 50.0123L513.392 50.0307L514.307 49.5014ZM546.634 98.8379L546.048 99.7169L546.048 99.7169L546.634 98.8379ZM541.141 91.8653L540.143 92.2133L540.148 92.2274L540.153 92.2414L541.141 91.8653ZM540.507 81.7233L541.548 81.9002L541.55 81.8902L540.507 81.7233ZM544.099 72.5321L544.963 73.1396L544.971 73.1287L544.099 72.5321ZM550.966 66.2991L550.465 65.3689L550.465 65.3689L550.966 66.2991ZM569.031 66.616L568.434 67.4873L568.448 67.497L568.462 67.5063L569.031 66.616ZM574.419 73.483L573.424 73.8383L573.428 73.8487L573.432 73.859L574.419 73.483ZM575.159 83.7306L576.201 83.9043L576.201 83.9012L575.159 83.7306ZM571.567 92.8161L572.439 93.4127L572.439 93.4127L571.567 92.8161ZM564.7 99.1548L565.211 100.08L565.219 100.075L564.7 99.1548ZM561.213 88.2733L560.466 87.5263L560.466 87.5263L561.213 88.2733ZM564.488 81.7233L563.446 81.5496L563.446 81.5542L564.488 81.7233ZM563.855 76.5467L562.92 77.0387L562.93 77.0576L562.94 77.076L563.855 76.5467ZM554.346 77.1806L553.599 76.4335L553.592 76.4411L553.584 76.4489L554.346 77.1806ZM551.177 83.7306L550.134 83.5615L550.132 83.5738L550.131 83.5862L551.177 83.7306ZM551.811 88.8016L550.876 89.2936L550.886 89.3125L550.897 89.3309L551.811 88.8016ZM498.249 100L499.043 100.697L563.909 26.7447L563.115 26.0481L562.321 25.3514L497.454 99.3034L498.249 100ZM563.115 26.0481V27.1045H579.384V26.0481V24.9916H563.115V26.0481ZM579.384 26.0481L578.592 25.3495L513.409 99.3014L514.201 100L514.994 100.699L580.177 26.7466L579.384 26.0481ZM514.201 100V98.9435H498.249V100V101.056H514.201V100ZM518.321 61.9676V60.9111C514.966 60.9111 512.143 60.1414 509.805 58.6475L509.236 59.5377L508.667 60.428C511.4 62.1738 514.633 63.024 518.321 63.024V61.9676ZM509.236 59.5377L509.822 58.6587C507.476 57.0952 505.781 54.9503 504.729 52.189L503.742 52.5651L502.755 52.9412C503.957 56.0961 505.924 58.5996 508.65 60.4168L509.236 59.5377ZM503.742 52.5651L504.74 52.2172C503.75 49.379 503.504 46.1399 504.048 42.4723L503.003 42.3175L501.958 42.1627C501.374 46.1015 501.622 49.6942 502.745 52.9131L503.742 52.5651ZM503.003 42.3175L504.045 42.4877C504.586 39.1783 505.728 36.3025 507.459 33.8394L506.595 33.232L505.73 32.6246C503.799 35.3733 502.547 38.5545 501.96 42.1473L503.003 42.3175ZM506.595 33.232L507.467 33.8285C509.206 31.2857 511.37 29.3249 513.962 27.9291L513.462 26.9989L512.961 26.0687C510.059 27.6309 507.645 29.8255 505.723 32.6354L506.595 33.232ZM513.462 26.9989L513.981 27.919C516.565 26.4614 519.378 25.7311 522.441 25.7311V24.6747V23.6182C519.025 23.6182 515.852 24.4374 512.943 26.0787L513.462 26.9989ZM522.441 24.6747V25.7311C525.864 25.7311 528.673 26.5343 530.93 28.0815L531.527 27.2102L532.124 26.3389C529.451 24.5054 526.203 23.6182 522.441 23.6182V24.6747ZM531.527 27.2102L530.941 28.0892C533.286 29.6527 534.981 31.7976 536.033 34.5589L537.021 34.1828L538.008 33.8067C536.806 30.6518 534.839 28.1483 532.113 26.3312L531.527 27.2102ZM537.021 34.1828L536.033 34.5589C537.08 37.3073 537.328 40.4925 536.718 44.1511L537.76 44.3248L538.802 44.4985C539.46 40.5505 539.215 36.9745 538.008 33.8067L537.021 34.1828ZM537.76 44.3248L536.717 44.1545C536.178 47.4571 535.003 50.3676 533.201 52.904L534.062 53.5159L534.924 54.1278C536.925 51.3116 538.215 48.0946 538.803 44.495L537.76 44.3248ZM534.062 53.5159L533.191 52.9194C531.447 55.4682 529.314 57.4299 526.79 58.8244L527.301 59.749L527.812 60.6737C530.641 59.1101 533.016 56.9164 534.934 54.1125L534.062 53.5159ZM527.301 59.749L526.79 58.8244C524.283 60.2099 521.468 60.9111 518.321 60.9111V61.9676V63.024C521.795 63.024 524.967 62.2462 527.812 60.6737L527.301 59.749ZM517.899 51.5087V52.5651C520.405 52.5651 522.608 51.5405 524.471 49.5992L523.709 48.8675L522.947 48.1359C521.43 49.7161 519.759 50.4522 517.899 50.4522V51.5087ZM523.709 48.8675L524.456 49.6146C526.384 47.6873 527.571 45.2975 528.027 42.4866L526.984 42.3175L525.941 42.1484C525.552 44.5494 524.556 46.5263 522.962 48.1205L523.709 48.8675ZM526.984 42.3175L528.025 42.497C528.403 40.3089 528.238 38.3631 527.391 36.7545L526.456 37.2465L525.521 37.7386C526.083 38.8063 526.27 40.2411 525.943 42.138L526.984 42.3175ZM526.456 37.2465L527.391 36.7545C526.954 35.9237 526.34 35.2633 525.545 34.8188C524.756 34.378 523.848 34.1828 522.864 34.1828V35.2392V36.2957C523.57 36.2957 524.106 36.435 524.514 36.6633C524.916 36.888 525.254 37.2312 525.521 37.7386L526.456 37.2465ZM522.864 35.2392V34.1828C520.36 34.1828 518.129 35.2047 516.201 37.1334L516.948 37.8804L517.695 38.6274C519.288 37.0345 521.001 36.2957 522.864 36.2957V35.2392ZM516.948 37.8804L516.216 37.1183C514.27 38.9871 513.113 41.3604 512.732 44.1833L513.779 44.3248L514.825 44.4663C515.148 42.0773 516.105 40.1543 517.68 38.6425L516.948 37.8804ZM513.779 44.3248L512.736 44.1511C512.362 46.3994 512.523 48.3814 513.372 49.9934L514.307 49.5014L515.242 49.0094C514.681 47.9451 514.491 46.476 514.821 44.4985L513.779 44.3248ZM514.307 49.5014L513.392 50.0307C514.367 51.7138 515.924 52.5651 517.899 52.5651V51.5087V50.4522C516.634 50.4522 515.796 49.9654 515.221 48.9721L514.307 49.5014ZM555.825 101.373V100.317C552.404 100.317 549.553 99.5141 547.22 97.9589L546.634 98.8379L546.048 99.7169C548.786 101.542 552.063 102.43 555.825 102.43V101.373ZM546.634 98.8379L547.22 97.9589C544.875 96.3953 543.18 94.2505 542.128 91.4892L541.141 91.8653L540.153 92.2414C541.355 95.3963 543.323 97.8998 546.048 99.7169L546.634 98.8379ZM541.141 91.8653L542.138 91.5173C541.15 88.6853 540.939 85.4889 541.548 81.9002L540.507 81.7233L539.465 81.5464C538.807 85.4233 539.018 88.9883 540.143 92.2133L541.141 91.8653ZM540.507 81.7233L541.55 81.8902C542.091 78.5081 543.235 75.5991 544.963 73.1395L544.099 72.5321L543.234 71.9247C541.3 74.677 540.049 77.8955 539.464 81.5564L540.507 81.7233ZM544.099 72.5321L544.971 73.1287C546.711 70.5859 548.874 68.6251 551.467 67.2292L550.966 66.2991L550.465 65.3689C547.564 66.9311 545.149 69.1257 543.227 71.9356L544.099 72.5321ZM550.966 66.2991L551.467 67.2292C554.057 65.8345 556.843 65.137 559.84 65.137V64.0805V63.024C556.499 63.024 553.368 63.8056 550.465 65.3689L550.966 66.2991ZM559.84 64.0805V65.137C563.338 65.137 566.181 65.9424 568.434 67.4873L569.031 66.616L569.629 65.7447C566.951 63.9089 563.667 63.024 559.84 63.024V64.0805ZM569.031 66.616L568.462 67.5063C570.791 68.9942 572.443 71.0904 573.424 73.8383L574.419 73.483L575.414 73.1276C574.282 69.9593 572.342 67.4776 569.6 65.7257L569.031 66.616ZM574.419 73.483L573.432 73.859C574.478 76.6057 574.727 79.8265 574.116 83.56L575.159 83.7306L576.201 83.9012C576.858 79.8873 576.614 76.2763 575.406 73.1069L574.419 73.483ZM575.159 83.7306L574.117 83.5569C573.577 86.7947 572.434 89.6773 570.695 92.2195L571.567 92.8161L572.439 93.4127C574.361 90.6022 575.613 87.4278 576.201 83.9043L575.159 83.7306ZM571.567 92.8161L570.695 92.2195C568.952 94.7663 566.783 96.7669 564.181 98.2347L564.7 99.1548L565.219 100.075C568.11 98.4438 570.519 96.2186 572.439 93.4127L571.567 92.8161ZM564.7 99.1548L564.189 98.2302C561.678 99.6176 558.898 100.317 555.825 100.317V101.373V102.43C559.233 102.43 562.369 101.65 565.211 100.079L564.7 99.1548ZM555.403 90.8088V91.8653C557.894 91.8653 560.093 90.8881 561.96 89.0204L561.213 88.2733L560.466 87.5263C558.953 89.0392 557.278 89.7524 555.403 89.7524V90.8088ZM561.213 88.2733L561.96 89.0204C563.888 87.0931 565.075 84.7033 565.531 81.8924L564.488 81.7233L563.446 81.5542C563.056 83.9552 562.061 85.9321 560.466 87.5263L561.213 88.2733ZM564.488 81.7233L565.53 81.897C565.908 79.6345 565.706 77.6369 564.769 76.0174L563.855 76.5467L562.94 77.076C563.552 78.1328 563.774 79.5863 563.446 81.5496L564.488 81.7233ZM563.855 76.5467L564.789 76.0546C564.356 75.2319 563.758 74.5723 562.982 74.1257C562.21 73.6814 561.325 73.483 560.368 73.483V74.5394V75.5959C561.032 75.5959 561.537 75.732 561.928 75.9568C562.314 76.1792 562.648 76.5233 562.92 77.0387L563.855 76.5467ZM560.368 74.5394V73.483C557.804 73.483 555.535 74.4974 553.599 76.4335L554.346 77.1806L555.093 77.9276C556.679 76.3421 558.425 75.5959 560.368 75.5959V74.5394ZM554.346 77.1806L553.584 76.4489C551.733 78.3771 550.588 80.762 550.134 83.5615L551.177 83.7306L552.22 83.8997C552.611 81.4873 553.579 79.5055 555.109 77.9122L554.346 77.1806ZM551.177 83.7306L550.131 83.5862C549.829 85.7694 550.038 87.7005 550.876 89.2936L551.811 88.8016L552.746 88.3095C552.176 87.2262 551.961 85.7767 552.224 83.8749L551.177 83.7306ZM551.811 88.8016L550.897 89.3309C551.871 91.014 553.428 91.8653 555.403 91.8653V90.8088V89.7524C554.138 89.7524 553.3 89.2655 552.725 88.2722L551.811 88.8016Z" fill="#212121" mask="url(#path-3-outside-2_114_7147)"/>
</svg>
