<svg width="573" height="454" viewBox="0 0 573 454" fill="none" xmlns="http://www.w3.org/2000/svg">
<circle cx="207.916" cy="245.915" r="205.14" transform="rotate(-89.9238 207.916 245.915)" fill="#5A4386" stroke="#212121" stroke-width="5"/>
<mask id="path-2-inside-1_114_7075" fill="white">
<path d="M208.5 39C256.786 39 303.56 55.8398 340.765 86.6185L208.5 246.5L208.5 39Z"/>
</mask>
<path d="M208.5 39C256.786 39 303.56 55.8398 340.765 86.6185L208.5 246.5L208.5 39Z" fill="#C19BAA" stroke="#212121" stroke-width="10" mask="url(#path-2-inside-1_114_7075)"/>
<mask id="path-3-outside-2_114_7075" maskUnits="userSpaceOnUse" x="380" y="23" width="172" height="80" fill="black">
<rect fill="white" x="380" y="23" width="172" height="80"/>
<path d="M388.636 100L399.411 35.1336L402.581 26.0481H417.16L404.694 100H388.636ZM381.452 51.2974L383.987 36.0844C385.818 36.2253 387.861 35.8027 390.115 34.8167C392.368 33.8306 394.587 32.5277 396.77 30.9078C399.024 29.2879 400.961 27.668 402.581 26.0481L412.089 36.6126C407.3 41.1202 402.334 44.8178 397.193 47.7054C392.122 50.5931 386.875 51.7904 381.452 51.2974ZM434.133 100L444.909 35.1336L448.079 26.0481H462.658L450.191 100H434.133ZM426.949 51.2974L429.485 36.0844C431.316 36.2253 433.359 35.8027 435.612 34.8167C437.866 33.8306 440.085 32.5277 442.268 30.9078C444.522 29.2879 446.459 27.668 448.079 26.0481L457.587 36.6126C452.797 41.1202 447.832 44.8178 442.691 47.7054C437.62 50.5931 432.373 51.7904 426.949 51.2974ZM468.433 100L533.299 26.0481H549.568L484.385 100H468.433ZM488.505 61.9676C484.984 61.9676 481.955 61.1576 479.42 59.5377C476.884 57.8474 475.053 55.5232 473.926 52.5651C472.87 49.5366 472.623 46.1207 473.187 42.3175C473.75 38.8664 474.947 35.8379 476.779 33.232C478.61 30.5556 480.899 28.4779 483.646 26.9989C486.392 25.4494 489.386 24.6747 492.625 24.6747C496.217 24.6747 499.246 25.5199 501.711 27.2102C504.246 28.9005 506.078 31.2247 507.205 34.1828C508.331 37.1409 508.578 40.5215 507.944 44.3248C507.381 47.7759 506.148 50.8396 504.246 53.5159C502.415 56.1923 500.162 58.27 497.485 59.749C494.809 61.2281 491.816 61.9676 488.505 61.9676ZM488.083 51.5087C490.266 51.5087 492.203 50.6283 493.893 48.8675C495.654 47.1068 496.746 44.9234 497.168 42.3175C497.52 40.275 497.344 38.5847 496.64 37.2465C495.936 35.9083 494.738 35.2392 493.048 35.2392C490.865 35.2392 488.893 36.1196 487.132 37.8804C485.371 39.5707 484.315 41.7188 483.963 44.3248C483.61 46.4377 483.786 48.1632 484.491 49.5014C485.266 50.8396 486.463 51.5087 488.083 51.5087ZM526.009 101.373C522.418 101.373 519.354 100.528 516.818 98.8379C514.283 97.1476 512.452 94.8234 511.325 91.8653C510.268 88.8368 510.057 85.4561 510.691 81.7233C511.254 78.2018 512.452 75.1381 514.283 72.5321C516.114 69.8558 518.403 67.7781 521.15 66.2991C523.897 64.82 526.855 64.0805 530.024 64.0805C533.686 64.0805 536.75 64.9257 539.215 66.616C541.751 68.2359 543.547 70.5249 544.603 73.483C545.73 76.441 545.977 79.8569 545.343 83.7306C544.779 87.1112 543.582 90.1397 541.751 92.8161C539.919 95.4925 537.631 97.6054 534.884 99.1548C532.207 100.634 529.249 101.373 526.009 101.373ZM525.587 90.8088C527.77 90.8088 529.707 89.9637 531.397 88.2733C533.158 86.5126 534.25 84.3292 534.672 81.7233C535.025 79.6104 534.813 77.8849 534.039 76.5467C533.334 75.2085 532.172 74.5394 530.552 74.5394C528.298 74.5394 526.291 75.4198 524.53 77.1806C522.84 78.9413 521.784 81.1247 521.361 83.7306C521.079 85.7731 521.291 87.4634 521.995 88.8016C522.77 90.1397 523.967 90.8088 525.587 90.8088Z"/>
</mask>
<path d="M388.636 100L399.411 35.1336L402.581 26.0481H417.16L404.694 100H388.636ZM381.452 51.2974L383.987 36.0844C385.818 36.2253 387.861 35.8027 390.115 34.8167C392.368 33.8306 394.587 32.5277 396.77 30.9078C399.024 29.2879 400.961 27.668 402.581 26.0481L412.089 36.6126C407.3 41.1202 402.334 44.8178 397.193 47.7054C392.122 50.5931 386.875 51.7904 381.452 51.2974ZM434.133 100L444.909 35.1336L448.079 26.0481H462.658L450.191 100H434.133ZM426.949 51.2974L429.485 36.0844C431.316 36.2253 433.359 35.8027 435.612 34.8167C437.866 33.8306 440.085 32.5277 442.268 30.9078C444.522 29.2879 446.459 27.668 448.079 26.0481L457.587 36.6126C452.797 41.1202 447.832 44.8178 442.691 47.7054C437.62 50.5931 432.373 51.7904 426.949 51.2974ZM468.433 100L533.299 26.0481H549.568L484.385 100H468.433ZM488.505 61.9676C484.984 61.9676 481.955 61.1576 479.42 59.5377C476.884 57.8474 475.053 55.5232 473.926 52.5651C472.87 49.5366 472.623 46.1207 473.187 42.3175C473.75 38.8664 474.947 35.8379 476.779 33.232C478.61 30.5556 480.899 28.4779 483.646 26.9989C486.392 25.4494 489.386 24.6747 492.625 24.6747C496.217 24.6747 499.246 25.5199 501.711 27.2102C504.246 28.9005 506.078 31.2247 507.205 34.1828C508.331 37.1409 508.578 40.5215 507.944 44.3248C507.381 47.7759 506.148 50.8396 504.246 53.5159C502.415 56.1923 500.162 58.27 497.485 59.749C494.809 61.2281 491.816 61.9676 488.505 61.9676ZM488.083 51.5087C490.266 51.5087 492.203 50.6283 493.893 48.8675C495.654 47.1068 496.746 44.9234 497.168 42.3175C497.52 40.275 497.344 38.5847 496.64 37.2465C495.936 35.9083 494.738 35.2392 493.048 35.2392C490.865 35.2392 488.893 36.1196 487.132 37.8804C485.371 39.5707 484.315 41.7188 483.963 44.3248C483.61 46.4377 483.786 48.1632 484.491 49.5014C485.266 50.8396 486.463 51.5087 488.083 51.5087ZM526.009 101.373C522.418 101.373 519.354 100.528 516.818 98.8379C514.283 97.1476 512.452 94.8234 511.325 91.8653C510.268 88.8368 510.057 85.4561 510.691 81.7233C511.254 78.2018 512.452 75.1381 514.283 72.5321C516.114 69.8558 518.403 67.7781 521.15 66.2991C523.897 64.82 526.855 64.0805 530.024 64.0805C533.686 64.0805 536.75 64.9257 539.215 66.616C541.751 68.2359 543.547 70.5249 544.603 73.483C545.73 76.441 545.977 79.8569 545.343 83.7306C544.779 87.1112 543.582 90.1397 541.751 92.8161C539.919 95.4925 537.631 97.6054 534.884 99.1548C532.207 100.634 529.249 101.373 526.009 101.373ZM525.587 90.8088C527.77 90.8088 529.707 89.9637 531.397 88.2733C533.158 86.5126 534.25 84.3292 534.672 81.7233C535.025 79.6104 534.813 77.8849 534.039 76.5467C533.334 75.2085 532.172 74.5394 530.552 74.5394C528.298 74.5394 526.291 75.4198 524.53 77.1806C522.84 78.9413 521.784 81.1247 521.361 83.7306C521.079 85.7731 521.291 87.4634 521.995 88.8016C522.77 90.1397 523.967 90.8088 525.587 90.8088Z" fill="#212121"/>
<path d="M388.636 100L387.593 99.8269L387.389 101.056H388.636V100ZM399.411 35.1336L398.414 34.7856L398.384 34.8711L398.369 34.9605L399.411 35.1336ZM402.581 26.0481V24.9916H401.83L401.583 25.7001L402.581 26.0481ZM417.16 26.0481L418.202 26.2237L418.409 24.9916H417.16V26.0481ZM404.694 100V101.056H405.587L405.735 100.176L404.694 100ZM381.452 51.2974L380.41 51.1237L380.222 52.2464L381.356 52.3495L381.452 51.2974ZM383.987 36.0844L384.068 35.0311L383.104 34.9569L382.945 35.9107L383.987 36.0844ZM390.115 34.8167L389.691 33.8488L389.691 33.8488L390.115 34.8167ZM396.77 30.9078L396.154 30.0499L396.147 30.0546L396.141 30.0593L396.77 30.9078ZM402.581 26.0481L403.366 25.3413L402.621 24.5137L401.834 25.3011L402.581 26.0481ZM412.089 36.6126L412.813 37.382L413.565 36.6739L412.874 35.9059L412.089 36.6126ZM397.193 47.7054L396.675 46.7843L396.67 46.7874L397.193 47.7054ZM388.636 100L389.678 100.173L400.454 35.3067L399.411 35.1336L398.369 34.9605L387.593 99.8269L388.636 100ZM399.411 35.1336L400.409 35.4816L403.578 26.396L402.581 26.0481L401.583 25.7001L398.414 34.7856L399.411 35.1336ZM402.581 26.0481V27.1045H417.16V26.0481V24.9916H402.581V26.0481ZM417.16 26.0481L416.118 25.8725L403.652 99.8244L404.694 100L405.735 100.176L418.202 26.2237L417.16 26.0481ZM404.694 100V98.9435H388.636V100V101.056H404.694V100ZM381.452 51.2974L382.494 51.4711L385.029 36.2581L383.987 36.0844L382.945 35.9107L380.41 51.1237L381.452 51.2974ZM383.987 36.0844L383.906 37.1378C385.959 37.2956 388.177 36.8174 390.538 35.7845L390.115 34.8167L389.691 33.8488C387.544 34.788 385.678 35.1549 384.068 35.0311L383.987 36.0844ZM390.115 34.8167L390.538 35.7845C392.872 34.7635 395.159 33.4187 397.4 31.7562L396.77 30.9078L396.141 30.0593C394.015 31.6367 391.865 32.8978 389.691 33.8488L390.115 34.8167ZM396.77 30.9078L397.387 31.7656C399.678 30.1191 401.66 28.4628 403.328 26.7951L402.581 26.0481L401.834 25.3011C400.262 26.8731 398.37 28.4567 396.154 30.0499L396.77 30.9078ZM402.581 26.0481L401.796 26.7548L411.304 37.3194L412.089 36.6126L412.874 35.9059L403.366 25.3413L402.581 26.0481ZM412.089 36.6126L411.365 35.8433C406.631 40.2987 401.734 43.9432 396.676 46.7843L397.193 47.7054L397.71 48.6265C402.934 45.6924 407.968 41.9416 412.813 37.382L412.089 36.6126ZM397.193 47.7054L396.67 46.7874C391.773 49.5763 386.74 50.7173 381.547 50.2453L381.452 51.2974L381.356 52.3495C387.01 52.8635 392.471 51.6099 397.716 48.6235L397.193 47.7054ZM434.133 100L433.091 99.8269L432.887 101.056H434.133V100ZM444.909 35.1336L443.912 34.7856L443.882 34.8711L443.867 34.9605L444.909 35.1336ZM448.079 26.0481V24.9916H447.328L447.081 25.7001L448.079 26.0481ZM462.658 26.0481L463.699 26.2237L463.907 24.9916H462.658V26.0481ZM450.191 100V101.056H451.085L451.233 100.176L450.191 100ZM426.949 51.2974L425.907 51.1237L425.72 52.2464L426.854 52.3495L426.949 51.2974ZM429.485 36.0844L429.566 35.0311L428.602 34.9569L428.443 35.9107L429.485 36.0844ZM435.612 34.8167L435.189 33.8488L435.189 33.8488L435.612 34.8167ZM442.268 30.9078L441.651 30.0499L441.645 30.0546L441.639 30.0593L442.268 30.9078ZM448.079 26.0481L448.864 25.3413L448.119 24.5137L447.331 25.3011L448.079 26.0481ZM457.587 36.6126L458.311 37.382L459.063 36.6739L458.372 35.9059L457.587 36.6126ZM442.691 47.7054L442.173 46.7843L442.168 46.7874L442.691 47.7054ZM434.133 100L435.175 100.173L445.951 35.3067L444.909 35.1336L443.867 34.9605L433.091 99.8269L434.133 100ZM444.909 35.1336L445.907 35.4816L449.076 26.396L448.079 26.0481L447.081 25.7001L443.912 34.7856L444.909 35.1336ZM448.079 26.0481V27.1045H462.658V26.0481V24.9916H448.079V26.0481ZM462.658 26.0481L461.616 25.8725L449.15 99.8244L450.191 100L451.233 100.176L463.699 26.2237L462.658 26.0481ZM450.191 100V98.9435H434.133V100V101.056H450.191V100ZM426.949 51.2974L427.991 51.4711L430.527 36.2581L429.485 36.0844L428.443 35.9107L425.907 51.1237L426.949 51.2974ZM429.485 36.0844L429.404 37.1378C431.456 37.2956 433.675 36.8174 436.036 35.7845L435.612 34.8167L435.189 33.8488C433.042 34.788 431.176 35.1549 429.566 35.0311L429.485 36.0844ZM435.612 34.8167L436.036 35.7845C438.37 34.7635 440.657 33.4187 442.898 31.7562L442.268 30.9078L441.639 30.0593C439.513 31.6367 437.363 32.8978 435.189 33.8488L435.612 34.8167ZM442.268 30.9078L442.885 31.7656C445.175 30.1191 447.158 28.4628 448.826 26.7951L448.079 26.0481L447.331 25.3011C445.759 26.8731 443.868 28.4567 441.651 30.0499L442.268 30.9078ZM448.079 26.0481L447.293 26.7548L456.801 37.3194L457.587 36.6126L458.372 35.9059L448.864 25.3413L448.079 26.0481ZM457.587 36.6126L456.863 35.8433C452.129 40.2987 447.232 43.9432 442.173 46.7843L442.691 47.7054L443.208 48.6265C448.432 45.6924 453.466 41.9416 458.311 37.382L457.587 36.6126ZM442.691 47.7054L442.168 46.7874C437.27 49.5763 432.238 50.7173 427.045 50.2453L426.949 51.2974L426.854 52.3495C432.508 52.8635 437.969 51.6099 443.213 48.6235L442.691 47.7054ZM468.433 100L467.638 99.3034L466.101 101.056H468.433V100ZM533.299 26.0481V24.9916H532.82L532.505 25.3514L533.299 26.0481ZM549.568 26.0481L550.361 26.7466L551.908 24.9916H549.568V26.0481ZM484.385 100V101.056H484.862L485.178 100.699L484.385 100ZM479.42 59.5377L478.834 60.4168L478.842 60.4225L478.851 60.428L479.42 59.5377ZM473.926 52.5651L472.929 52.9131L472.934 52.9272L472.939 52.9412L473.926 52.5651ZM473.187 42.3175L472.144 42.1473L472.143 42.155L472.142 42.1627L473.187 42.3175ZM476.779 33.232L477.643 33.8394L477.651 33.8285L476.779 33.232ZM483.646 26.9989L484.146 27.9291L484.156 27.9241L484.165 27.919L483.646 26.9989ZM501.711 27.2102L501.113 28.0815L501.125 28.0892L501.711 27.2102ZM507.944 44.3248L506.902 44.1511L506.901 44.1545L507.944 44.3248ZM504.246 53.5159L503.385 52.904L503.38 52.9117L503.375 52.9194L504.246 53.5159ZM497.485 59.749L496.974 58.8244L496.974 58.8244L497.485 59.749ZM493.893 48.8675L493.146 48.1205L493.139 48.1281L493.131 48.1359L493.893 48.8675ZM497.168 42.3175L496.127 42.138L496.125 42.1484L497.168 42.3175ZM487.132 37.8804L487.864 38.6425L487.871 38.635L487.879 38.6274L487.132 37.8804ZM483.963 44.3248L485.005 44.4985L485.007 44.4824L485.009 44.4663L483.963 44.3248ZM484.491 49.5014L483.556 49.9934L483.566 50.0123L483.576 50.0307L484.491 49.5014ZM516.818 98.8379L516.232 99.7169L516.232 99.7169L516.818 98.8379ZM511.325 91.8653L510.327 92.2133L510.332 92.2274L510.338 92.2414L511.325 91.8653ZM510.691 81.7233L511.732 81.9002L511.734 81.8902L510.691 81.7233ZM514.283 72.5321L515.147 73.1396L515.155 73.1287L514.283 72.5321ZM521.15 66.2991L520.649 65.3689L520.649 65.3689L521.15 66.2991ZM539.215 66.616L538.618 67.4873L538.632 67.497L538.646 67.5063L539.215 66.616ZM544.603 73.483L543.608 73.8383L543.612 73.8487L543.616 73.859L544.603 73.483ZM545.343 83.7306L546.385 83.9043L546.385 83.9012L545.343 83.7306ZM541.751 92.8161L542.623 93.4127L542.623 93.4127L541.751 92.8161ZM534.884 99.1548L535.395 100.08L535.403 100.075L534.884 99.1548ZM531.397 88.2733L530.65 87.5263L530.65 87.5263L531.397 88.2733ZM534.672 81.7233L533.63 81.5496L533.63 81.5542L534.672 81.7233ZM534.039 76.5467L533.104 77.0387L533.114 77.0576L533.124 77.076L534.039 76.5467ZM524.53 77.1806L523.783 76.4335L523.776 76.4411L523.768 76.4489L524.53 77.1806ZM521.361 83.7306L520.318 83.5615L520.316 83.5738L520.315 83.5862L521.361 83.7306ZM521.995 88.8016L521.06 89.2936L521.07 89.3125L521.081 89.3309L521.995 88.8016ZM468.433 100L469.227 100.697L534.093 26.7447L533.299 26.0481L532.505 25.3514L467.638 99.3034L468.433 100ZM533.299 26.0481V27.1045H549.568V26.0481V24.9916H533.299V26.0481ZM549.568 26.0481L548.776 25.3495L483.593 99.3014L484.385 100L485.178 100.699L550.361 26.7466L549.568 26.0481ZM484.385 100V98.9435H468.433V100V101.056H484.385V100ZM488.505 61.9676V60.9111C485.15 60.9111 482.327 60.1414 479.989 58.6475L479.42 59.5377L478.851 60.428C481.584 62.1738 484.817 63.024 488.505 63.024V61.9676ZM479.42 59.5377L480.006 58.6587C477.66 57.0952 475.965 54.9503 474.913 52.189L473.926 52.5651L472.939 52.9412C474.141 56.0961 476.108 58.5996 478.834 60.4168L479.42 59.5377ZM473.926 52.5651L474.924 52.2172C473.934 49.379 473.688 46.1399 474.232 42.4723L473.187 42.3175L472.142 42.1627C471.558 46.1015 471.806 49.6942 472.929 52.9131L473.926 52.5651ZM473.187 42.3175L474.229 42.4877C474.77 39.1783 475.912 36.3025 477.643 33.8394L476.779 33.232L475.914 32.6246C473.983 35.3733 472.731 38.5545 472.144 42.1473L473.187 42.3175ZM476.779 33.232L477.651 33.8285C479.39 31.2857 481.554 29.3249 484.146 27.9291L483.646 26.9989L483.145 26.0687C480.243 27.6309 477.829 29.8255 475.907 32.6354L476.779 33.232ZM483.646 26.9989L484.165 27.919C486.749 26.4614 489.562 25.7311 492.625 25.7311V24.6747V23.6182C489.209 23.6182 486.036 24.4374 483.127 26.0787L483.646 26.9989ZM492.625 24.6747V25.7311C496.048 25.7311 498.857 26.5343 501.114 28.0815L501.711 27.2102L502.308 26.3389C499.635 24.5054 496.387 23.6182 492.625 23.6182V24.6747ZM501.711 27.2102L501.125 28.0892C503.47 29.6527 505.165 31.7976 506.217 34.5589L507.205 34.1828L508.192 33.8067C506.99 30.6518 505.023 28.1483 502.297 26.3312L501.711 27.2102ZM507.205 34.1828L506.217 34.5589C507.264 37.3073 507.512 40.4925 506.902 44.1511L507.944 44.3248L508.986 44.4985C509.644 40.5505 509.399 36.9745 508.192 33.8067L507.205 34.1828ZM507.944 44.3248L506.901 44.1545C506.362 47.4571 505.187 50.3676 503.385 52.904L504.246 53.5159L505.108 54.1278C507.109 51.3116 508.399 48.0946 508.987 44.495L507.944 44.3248ZM504.246 53.5159L503.375 52.9194C501.631 55.4682 499.498 57.4299 496.974 58.8244L497.485 59.749L497.996 60.6737C500.825 59.1101 503.2 56.9164 505.118 54.1125L504.246 53.5159ZM497.485 59.749L496.974 58.8244C494.467 60.2099 491.652 60.9111 488.505 60.9111V61.9676V63.024C491.979 63.024 495.151 62.2462 497.996 60.6737L497.485 59.749ZM488.083 51.5087V52.5651C490.589 52.5651 492.792 51.5405 494.655 49.5992L493.893 48.8675L493.131 48.1359C491.614 49.7161 489.943 50.4522 488.083 50.4522V51.5087ZM493.893 48.8675L494.64 49.6146C496.568 47.6873 497.755 45.2975 498.211 42.4866L497.168 42.3175L496.125 42.1484C495.736 44.5494 494.74 46.5263 493.146 48.1205L493.893 48.8675ZM497.168 42.3175L498.209 42.497C498.587 40.3089 498.422 38.3631 497.575 36.7545L496.64 37.2465L495.705 37.7386C496.267 38.8063 496.454 40.2411 496.127 42.138L497.168 42.3175ZM496.64 37.2465L497.575 36.7545C497.138 35.9237 496.524 35.2633 495.729 34.8188C494.94 34.378 494.032 34.1828 493.048 34.1828V35.2392V36.2957C493.754 36.2957 494.29 36.435 494.698 36.6633C495.1 36.888 495.438 37.2312 495.705 37.7386L496.64 37.2465ZM493.048 35.2392V34.1828C490.544 34.1828 488.314 35.2047 486.385 37.1334L487.132 37.8804L487.879 38.6274C489.472 37.0345 491.185 36.2957 493.048 36.2957V35.2392ZM487.132 37.8804L486.4 37.1183C484.454 38.9871 483.297 41.3604 482.916 44.1833L483.963 44.3248L485.009 44.4663C485.332 42.0773 486.289 40.1543 487.864 38.6425L487.132 37.8804ZM483.963 44.3248L482.92 44.1511C482.546 46.3994 482.707 48.3814 483.556 49.9934L484.491 49.5014L485.426 49.0094C484.865 47.9451 484.675 46.476 485.005 44.4985L483.963 44.3248ZM484.491 49.5014L483.576 50.0307C484.551 51.7138 486.108 52.5651 488.083 52.5651V51.5087V50.4522C486.818 50.4522 485.98 49.9654 485.405 48.9721L484.491 49.5014ZM526.009 101.373V100.317C522.588 100.317 519.737 99.5141 517.404 97.9589L516.818 98.8379L516.232 99.7169C518.97 101.542 522.247 102.43 526.009 102.43V101.373ZM516.818 98.8379L517.404 97.9589C515.059 96.3953 513.364 94.2505 512.312 91.4892L511.325 91.8653L510.338 92.2414C511.539 95.3963 513.507 97.8998 516.232 99.7169L516.818 98.8379ZM511.325 91.8653L512.322 91.5173C511.334 88.6853 511.123 85.4889 511.732 81.9002L510.691 81.7233L509.649 81.5464C508.991 85.4233 509.202 88.9883 510.327 92.2133L511.325 91.8653ZM510.691 81.7233L511.734 81.8902C512.275 78.5081 513.419 75.5991 515.147 73.1395L514.283 72.5321L513.418 71.9247C511.484 74.677 510.233 77.8955 509.648 81.5564L510.691 81.7233ZM514.283 72.5321L515.155 73.1287C516.895 70.5859 519.058 68.6251 521.651 67.2292L521.15 66.2991L520.649 65.3689C517.748 66.9311 515.333 69.1257 513.411 71.9356L514.283 72.5321ZM521.15 66.2991L521.651 67.2292C524.241 65.8345 527.027 65.137 530.024 65.137V64.0805V63.024C526.683 63.024 523.552 63.8056 520.649 65.3689L521.15 66.2991ZM530.024 64.0805V65.137C533.522 65.137 536.365 65.9424 538.618 67.4873L539.215 66.616L539.813 65.7447C537.135 63.9089 533.851 63.024 530.024 63.024V64.0805ZM539.215 66.616L538.646 67.5063C540.975 68.9942 542.627 71.0904 543.608 73.8383L544.603 73.483L545.598 73.1276C544.466 69.9593 542.526 67.4776 539.784 65.7257L539.215 66.616ZM544.603 73.483L543.616 73.859C544.662 76.6057 544.911 79.8265 544.3 83.56L545.343 83.7306L546.385 83.9012C547.042 79.8873 546.798 76.2763 545.59 73.1069L544.603 73.483ZM545.343 83.7306L544.301 83.5569C543.761 86.7947 542.618 89.6773 540.879 92.2195L541.751 92.8161L542.623 93.4127C544.546 90.6022 545.797 87.4278 546.385 83.9043L545.343 83.7306ZM541.751 92.8161L540.879 92.2195C539.136 94.7663 536.967 96.7669 534.365 98.2347L534.884 99.1548L535.403 100.075C538.294 98.4438 540.703 96.2186 542.623 93.4127L541.751 92.8161ZM534.884 99.1548L534.373 98.2302C531.862 99.6176 529.082 100.317 526.009 100.317V101.373V102.43C529.417 102.43 532.553 101.65 535.395 100.079L534.884 99.1548ZM525.587 90.8088V91.8653C528.078 91.8653 530.277 90.8881 532.144 89.0204L531.397 88.2733L530.65 87.5263C529.137 89.0392 527.462 89.7524 525.587 89.7524V90.8088ZM531.397 88.2733L532.144 89.0204C534.072 87.0931 535.259 84.7033 535.715 81.8924L534.672 81.7233L533.63 81.5542C533.24 83.9552 532.245 85.9321 530.65 87.5263L531.397 88.2733ZM534.672 81.7233L535.715 81.897C536.092 79.6345 535.89 77.6369 534.953 76.0174L534.039 76.5467L533.124 77.076C533.736 78.1328 533.958 79.5863 533.63 81.5496L534.672 81.7233ZM534.039 76.5467L534.973 76.0546C534.54 75.2319 533.942 74.5723 533.166 74.1257C532.394 73.6814 531.509 73.483 530.552 73.483V74.5394V75.5959C531.216 75.5959 531.721 75.732 532.112 75.9568C532.498 76.1792 532.832 76.5233 533.104 77.0387L534.039 76.5467ZM530.552 74.5394V73.483C527.988 73.483 525.72 74.4974 523.783 76.4335L524.53 77.1806L525.277 77.9276C526.863 76.3421 528.609 75.5959 530.552 75.5959V74.5394ZM524.53 77.1806L523.768 76.4489C521.917 78.3771 520.772 80.762 520.318 83.5615L521.361 83.7306L522.404 83.8997C522.795 81.4873 523.763 79.5055 525.293 77.9122L524.53 77.1806ZM521.361 83.7306L520.315 83.5862C520.013 85.7694 520.222 87.7005 521.06 89.2936L521.995 88.8016L522.93 88.3095C522.36 87.2262 522.145 85.7767 522.408 83.8749L521.361 83.7306ZM521.995 88.8016L521.081 89.3309C522.055 91.014 523.612 91.8653 525.587 91.8653V90.8088V89.7524C524.322 89.7524 523.484 89.2655 522.909 88.2722L521.995 88.8016Z" fill="#212121" mask="url(#path-3-outside-2_114_7075)"/>
</svg>
