<svg width="607" height="454" viewBox="0 0 607 454" fill="none" xmlns="http://www.w3.org/2000/svg">
<circle cx="207.916" cy="245.915" r="205.14" transform="rotate(-89.9238 207.916 245.915)" fill="#4F6E5A" stroke="#212121" stroke-width="5"/>
<mask id="path-2-inside-1_114_7223" fill="white">
<path d="M208.5 39C230.711 39 252.779 42.5662 273.86 49.5626L208.5 246.5L208.5 39Z"/>
</mask>
<path d="M208.5 39C230.711 39 252.779 42.5662 273.86 49.5626L208.5 246.5L208.5 39Z" fill="#7A9E79" stroke="#212121" stroke-width="10" mask="url(#path-2-inside-1_114_7223)"/>
<mask id="path-3-outside-2_114_7223" maskUnits="userSpaceOnUse" x="373" y="23" width="224" height="91" fill="black">
<rect fill="white" x="373" y="23" width="224" height="91"/>
<path d="M400.468 101.268C396.665 101.268 392.932 100.599 389.269 99.2605C385.607 97.9223 382.473 96.0207 379.867 93.5556C377.331 91.0201 375.747 88.0268 375.113 84.5757L391.382 81.6177C392.087 83.4489 393.214 84.7518 394.763 85.5266C396.312 86.2309 397.968 86.583 399.728 86.583C401.982 86.583 404.025 86.1252 405.856 85.2096C407.757 84.2236 409.342 82.8854 410.61 81.1951C411.948 79.4343 412.793 77.4623 413.145 75.2789C413.568 72.6026 413.075 70.384 411.666 68.6233C410.328 66.7921 408.215 65.8765 405.328 65.8765C403.074 65.8765 401.031 66.4399 399.2 67.5668C397.439 68.6233 396.066 69.7501 395.08 70.9475L380.078 67.1442L391.805 26.0481H434.697L432.162 41.4723H392.122L391.805 26.5763H408.708L395.08 69.0458L386.945 66.7216C387.65 65.5243 388.741 64.1509 390.22 62.6015C391.77 61.052 393.601 59.573 395.714 58.1643C397.897 56.6853 400.362 55.488 403.109 54.5724C405.926 53.5864 408.955 53.1286 412.195 53.199C416.209 53.2694 419.731 54.3259 422.759 56.3684C425.788 58.3404 428.041 61.052 429.52 64.5031C430.999 67.8837 431.352 71.8278 430.577 76.3354C429.732 81.2655 427.9 85.6322 425.083 89.4354C422.266 93.1683 418.745 96.0911 414.519 98.204C410.293 100.247 405.609 101.268 400.468 101.268ZM430.578 112.044L441.67 85.8435H458.785L443.044 112.044H430.578ZM479.218 100L489.994 35.1336L493.164 26.0481H507.743L495.277 100H479.218ZM472.034 51.2974L474.57 36.0844C476.401 36.2253 478.444 35.8027 480.697 34.8167C482.951 33.8306 485.17 32.5277 487.353 30.9078C489.607 29.2879 491.544 27.668 493.164 26.0481L502.672 36.6126C497.882 41.1202 492.917 44.8178 487.776 47.7054C482.705 50.5931 477.458 51.7904 472.034 51.2974ZM513.518 100L578.384 26.0481H594.654L529.47 100H513.518ZM533.59 61.9676C530.069 61.9676 527.04 61.1576 524.505 59.5377C521.969 57.8474 520.138 55.5232 519.011 52.5651C517.955 49.5366 517.708 46.1207 518.272 42.3175C518.835 38.8664 520.033 35.8379 521.864 33.232C523.695 30.5556 525.984 28.4779 528.731 26.9989C531.477 25.4494 534.471 24.6747 537.711 24.6747C541.303 24.6747 544.331 25.5199 546.796 27.2102C549.332 28.9005 551.163 31.2247 552.29 34.1828C553.417 37.1409 553.663 40.5215 553.029 44.3248C552.466 47.7759 551.233 50.8396 549.332 53.5159C547.5 56.1923 545.247 58.27 542.57 59.749C539.894 61.2281 536.901 61.9676 533.59 61.9676ZM533.168 51.5087C535.351 51.5087 537.288 50.6283 538.978 48.8675C540.739 47.1068 541.831 44.9234 542.253 42.3175C542.605 40.275 542.429 38.5847 541.725 37.2465C541.021 35.9083 539.823 35.2392 538.133 35.2392C535.95 35.2392 533.978 36.1196 532.217 37.8804C530.456 39.5707 529.4 41.7188 529.048 44.3248C528.695 46.4377 528.872 48.1632 529.576 49.5014C530.351 50.8396 531.548 51.5087 533.168 51.5087ZM571.095 101.373C567.503 101.373 564.439 100.528 561.903 98.8379C559.368 97.1476 557.537 94.8234 556.41 91.8653C555.353 88.8368 555.142 85.4561 555.776 81.7233C556.339 78.2018 557.537 75.1381 559.368 72.5321C561.199 69.8558 563.488 67.7781 566.235 66.2991C568.982 64.82 571.94 64.0805 575.109 64.0805C578.771 64.0805 581.835 64.9257 584.3 66.616C586.836 68.2359 588.632 70.5249 589.688 73.483C590.815 76.441 591.062 79.8569 590.428 83.7306C589.864 87.1112 588.667 90.1397 586.836 92.8161C585.005 95.4925 582.716 97.6054 579.969 99.1548C577.292 100.634 574.334 101.373 571.095 101.373ZM570.672 90.8088C572.855 90.8088 574.792 89.9637 576.482 88.2733C578.243 86.5126 579.335 84.3292 579.758 81.7233C580.11 79.6104 579.898 77.8849 579.124 76.5467C578.419 75.2085 577.257 74.5394 575.637 74.5394C573.384 74.5394 571.376 75.4198 569.616 77.1806C567.925 78.9413 566.869 81.1247 566.446 83.7306C566.164 85.7731 566.376 87.4634 567.08 88.8016C567.855 90.1397 569.052 90.8088 570.672 90.8088Z"/>
</mask>
<path d="M400.468 101.268C396.665 101.268 392.932 100.599 389.269 99.2605C385.607 97.9223 382.473 96.0207 379.867 93.5556C377.331 91.0201 375.747 88.0268 375.113 84.5757L391.382 81.6177C392.087 83.4489 393.214 84.7518 394.763 85.5266C396.312 86.2309 397.968 86.583 399.728 86.583C401.982 86.583 404.025 86.1252 405.856 85.2096C407.757 84.2236 409.342 82.8854 410.61 81.1951C411.948 79.4343 412.793 77.4623 413.145 75.2789C413.568 72.6026 413.075 70.384 411.666 68.6233C410.328 66.7921 408.215 65.8765 405.328 65.8765C403.074 65.8765 401.031 66.4399 399.2 67.5668C397.439 68.6233 396.066 69.7501 395.08 70.9475L380.078 67.1442L391.805 26.0481H434.697L432.162 41.4723H392.122L391.805 26.5763H408.708L395.08 69.0458L386.945 66.7216C387.65 65.5243 388.741 64.1509 390.22 62.6015C391.77 61.052 393.601 59.573 395.714 58.1643C397.897 56.6853 400.362 55.488 403.109 54.5724C405.926 53.5864 408.955 53.1286 412.195 53.199C416.209 53.2694 419.731 54.3259 422.759 56.3684C425.788 58.3404 428.041 61.052 429.52 64.5031C430.999 67.8837 431.352 71.8278 430.577 76.3354C429.732 81.2655 427.9 85.6322 425.083 89.4354C422.266 93.1683 418.745 96.0911 414.519 98.204C410.293 100.247 405.609 101.268 400.468 101.268ZM430.578 112.044L441.67 85.8435H458.785L443.044 112.044H430.578ZM479.218 100L489.994 35.1336L493.164 26.0481H507.743L495.277 100H479.218ZM472.034 51.2974L474.57 36.0844C476.401 36.2253 478.444 35.8027 480.697 34.8167C482.951 33.8306 485.17 32.5277 487.353 30.9078C489.607 29.2879 491.544 27.668 493.164 26.0481L502.672 36.6126C497.882 41.1202 492.917 44.8178 487.776 47.7054C482.705 50.5931 477.458 51.7904 472.034 51.2974ZM513.518 100L578.384 26.0481H594.654L529.47 100H513.518ZM533.59 61.9676C530.069 61.9676 527.04 61.1576 524.505 59.5377C521.969 57.8474 520.138 55.5232 519.011 52.5651C517.955 49.5366 517.708 46.1207 518.272 42.3175C518.835 38.8664 520.033 35.8379 521.864 33.232C523.695 30.5556 525.984 28.4779 528.731 26.9989C531.477 25.4494 534.471 24.6747 537.711 24.6747C541.303 24.6747 544.331 25.5199 546.796 27.2102C549.332 28.9005 551.163 31.2247 552.29 34.1828C553.417 37.1409 553.663 40.5215 553.029 44.3248C552.466 47.7759 551.233 50.8396 549.332 53.5159C547.5 56.1923 545.247 58.27 542.57 59.749C539.894 61.2281 536.901 61.9676 533.59 61.9676ZM533.168 51.5087C535.351 51.5087 537.288 50.6283 538.978 48.8675C540.739 47.1068 541.831 44.9234 542.253 42.3175C542.605 40.275 542.429 38.5847 541.725 37.2465C541.021 35.9083 539.823 35.2392 538.133 35.2392C535.95 35.2392 533.978 36.1196 532.217 37.8804C530.456 39.5707 529.4 41.7188 529.048 44.3248C528.695 46.4377 528.872 48.1632 529.576 49.5014C530.351 50.8396 531.548 51.5087 533.168 51.5087ZM571.095 101.373C567.503 101.373 564.439 100.528 561.903 98.8379C559.368 97.1476 557.537 94.8234 556.41 91.8653C555.353 88.8368 555.142 85.4561 555.776 81.7233C556.339 78.2018 557.537 75.1381 559.368 72.5321C561.199 69.8558 563.488 67.7781 566.235 66.2991C568.982 64.82 571.94 64.0805 575.109 64.0805C578.771 64.0805 581.835 64.9257 584.3 66.616C586.836 68.2359 588.632 70.5249 589.688 73.483C590.815 76.441 591.062 79.8569 590.428 83.7306C589.864 87.1112 588.667 90.1397 586.836 92.8161C585.005 95.4925 582.716 97.6054 579.969 99.1548C577.292 100.634 574.334 101.373 571.095 101.373ZM570.672 90.8088C572.855 90.8088 574.792 89.9637 576.482 88.2733C578.243 86.5126 579.335 84.3292 579.758 81.7233C580.11 79.6104 579.898 77.8849 579.124 76.5467C578.419 75.2085 577.257 74.5394 575.637 74.5394C573.384 74.5394 571.376 75.4198 569.616 77.1806C567.925 78.9413 566.869 81.1247 566.446 83.7306C566.164 85.7731 566.376 87.4634 567.08 88.8016C567.855 90.1397 569.052 90.8088 570.672 90.8088Z" fill="#212121"/>
<path d="M389.269 99.2605L389.632 98.2682L389.632 98.2682L389.269 99.2605ZM379.867 93.5556L379.12 94.3026L379.13 94.313L379.141 94.3231L379.867 93.5556ZM375.113 84.5757L374.924 83.5363L373.883 83.7257L374.074 84.7666L375.113 84.5757ZM391.382 81.6177L392.368 81.2384L392.054 80.4217L391.193 80.5783L391.382 81.6177ZM394.763 85.5266L394.291 86.4715L394.308 86.4802L394.326 86.4883L394.763 85.5266ZM405.856 85.2096L406.328 86.1545L406.335 86.1511L406.342 86.1475L405.856 85.2096ZM410.61 81.1951L409.769 80.5558L409.765 80.5612L410.61 81.1951ZM413.145 75.2789L414.188 75.4472L414.189 75.4437L413.145 75.2789ZM411.666 68.6233L410.813 69.2466L410.827 69.2652L410.841 69.2832L411.666 68.6233ZM399.2 67.5668L399.744 68.4728L399.754 68.4665L399.2 67.5668ZM395.08 70.9475L394.82 71.9715L395.47 72.1361L395.895 71.6191L395.08 70.9475ZM380.078 67.1442L379.062 66.8543L378.764 67.9008L379.819 68.1683L380.078 67.1442ZM391.805 26.0481V24.9916H391.008L390.789 25.7582L391.805 26.0481ZM434.697 26.0481L435.739 26.2194L435.941 24.9916H434.697V26.0481ZM432.162 41.4723V42.5288H433.059L433.204 41.6437L432.162 41.4723ZM392.122 41.4723L391.066 41.4948L391.088 42.5288H392.122V41.4723ZM391.805 26.5763V25.5199H390.726L390.749 26.5988L391.805 26.5763ZM408.708 26.5763L409.714 26.8991L410.157 25.5199H408.708V26.5763ZM395.08 69.0458L394.79 70.0616L395.773 70.3427L396.086 69.3686L395.08 69.0458ZM386.945 66.7216L386.035 66.186L385.343 67.3625L386.655 67.7374L386.945 66.7216ZM390.22 62.6015L389.473 61.8544L389.465 61.8631L389.456 61.872L390.22 62.6015ZM395.714 58.1643L396.3 59.0434L396.306 59.039L395.714 58.1643ZM403.109 54.5724L403.443 55.5746L403.451 55.5721L403.458 55.5695L403.109 54.5724ZM412.195 53.199L412.172 54.2552L412.176 54.2553L412.195 53.199ZM422.759 56.3684L422.168 57.2442L422.175 57.249L422.183 57.2537L422.759 56.3684ZM429.52 64.5031L428.549 64.9192L428.553 64.9265L429.52 64.5031ZM430.577 76.3354L429.536 76.1564L429.536 76.1569L430.577 76.3354ZM425.083 89.4354L425.927 90.0719L425.932 90.0643L425.083 89.4354ZM414.519 98.204L414.978 99.1552L414.985 99.1521L414.991 99.1489L414.519 98.204ZM400.468 101.268V100.211C396.791 100.211 393.181 99.565 389.632 98.2682L389.269 99.2605L388.907 100.253C392.682 101.632 396.538 102.324 400.468 102.324V101.268ZM389.269 99.2605L389.632 98.2682C386.093 96.9751 383.086 95.146 380.593 92.7881L379.867 93.5556L379.141 94.3231C381.86 96.8954 385.121 98.8695 388.907 100.253L389.269 99.2605ZM379.867 93.5556L380.614 92.8086C378.226 90.421 376.746 87.6204 376.152 84.3849L375.113 84.5757L374.074 84.7666C374.747 88.4333 376.436 91.6192 379.12 94.3026L379.867 93.5556ZM375.113 84.5757L375.302 85.6152L391.571 82.6571L391.382 81.6177L391.193 80.5783L374.924 83.5363L375.113 84.5757ZM391.382 81.6177L390.396 81.9969C391.182 84.0391 392.474 85.5631 394.291 86.4715L394.763 85.5266L395.235 84.5816C393.953 83.9406 392.992 82.8586 392.368 81.2384L391.382 81.6177ZM394.763 85.5266L394.326 86.4883C396.017 87.2572 397.822 87.6395 399.728 87.6395V86.583V85.5266C398.113 85.5266 396.608 85.2045 395.2 84.5648L394.763 85.5266ZM399.728 86.583V87.6395C402.129 87.6395 404.336 87.1506 406.328 86.1545L405.856 85.2096L405.383 84.2647C403.713 85.0998 401.835 85.5266 399.728 85.5266V86.583ZM405.856 85.2096L406.342 86.1475C408.383 85.0894 410.091 83.6481 411.455 81.829L410.61 81.1951L409.765 80.5612C408.594 82.1227 407.132 83.3578 405.369 84.2717L405.856 85.2096ZM410.61 81.1951L411.451 81.8343C412.894 79.9355 413.809 77.8017 414.188 75.4472L413.145 75.2789L412.102 75.1107C411.778 77.1229 411.002 78.9331 409.769 80.5558L410.61 81.1951ZM413.145 75.2789L414.189 75.4437C414.648 72.5382 414.122 70.0023 412.491 67.9633L411.666 68.6233L410.841 69.2832C412.027 70.7657 412.488 72.667 412.102 75.1142L413.145 75.2789ZM411.666 68.6233L412.519 67.9999C410.929 65.8235 408.45 64.82 405.328 64.82V65.8765V66.9329C407.98 66.9329 409.727 67.7606 410.813 69.2466L411.666 68.6233ZM405.328 65.8765V64.82C402.888 64.82 400.652 65.4327 398.646 66.6671L399.2 67.5668L399.754 68.4665C401.41 67.4472 403.259 66.9329 405.328 66.9329V65.8765ZM399.2 67.5668L398.657 66.6609C396.824 67.7605 395.347 68.9608 394.264 70.2759L395.08 70.9475L395.895 71.6191C396.785 70.5394 398.055 69.486 399.744 68.4727L399.2 67.5668ZM395.08 70.9475L395.34 69.9234L380.338 66.1202L380.078 67.1442L379.819 68.1683L394.82 71.9715L395.08 70.9475ZM380.078 67.1442L381.094 67.4341L392.821 26.338L391.805 26.0481L390.789 25.7582L379.062 66.8543L380.078 67.1442ZM391.805 26.0481V27.1045H434.697V26.0481V24.9916H391.805V26.0481ZM434.697 26.0481L433.655 25.8767L431.119 41.301L432.162 41.4723L433.204 41.6437L435.739 26.2194L434.697 26.0481ZM432.162 41.4723V40.4159H392.122V41.4723V42.5288H432.162V41.4723ZM392.122 41.4723L393.178 41.4499L392.861 26.5538L391.805 26.5763L390.749 26.5988L391.066 41.4948L392.122 41.4723ZM391.805 26.5763V27.6328H408.708V26.5763V25.5199H391.805V26.5763ZM408.708 26.5763L407.702 26.2535L394.074 68.723L395.08 69.0458L396.086 69.3686L409.714 26.8991L408.708 26.5763ZM395.08 69.0458L395.37 68.03L387.235 65.7058L386.945 66.7216L386.655 67.7374L394.79 70.0616L395.08 69.0458ZM386.945 66.7216L387.856 67.2573C388.503 66.1569 389.535 64.8496 390.984 63.3309L390.22 62.6015L389.456 61.872C387.948 63.4522 386.796 64.8917 386.035 66.186L386.945 66.7216ZM390.22 62.6015L390.967 63.3485C392.461 61.8552 394.236 60.4193 396.3 59.0434L395.714 58.1643L395.128 57.2853C392.966 58.7266 391.079 60.2487 389.473 61.8544L390.22 62.6015ZM395.714 58.1643L396.306 59.039C398.402 57.6191 400.779 56.4627 403.443 55.5746L403.109 54.5724L402.775 53.5702C399.945 54.5133 397.392 55.7515 395.121 57.2897L395.714 58.1643ZM403.109 54.5724L403.458 55.5695C406.146 54.6288 409.047 54.1873 412.172 54.2552L412.195 53.199L412.217 52.1428C408.862 52.0698 405.707 52.544 402.76 53.5753L403.109 54.5724ZM412.195 53.199L412.176 54.2553C416.007 54.3225 419.326 55.3272 422.168 57.2442L422.759 56.3684L423.35 55.4925C420.135 53.3246 416.411 52.2163 412.213 52.1427L412.195 53.199ZM422.759 56.3684L422.183 57.2537C425.029 59.1072 427.149 61.6522 428.549 64.9192L429.52 64.5031L430.491 64.0869C428.934 60.4518 426.546 57.5737 423.336 55.4831L422.759 56.3684ZM429.52 64.5031L428.553 64.9265C429.931 68.077 430.284 71.8036 429.536 76.1564L430.577 76.3354L431.618 76.5143C432.419 71.8521 432.068 67.6905 430.488 64.0796L429.52 64.5031ZM430.577 76.3354L429.536 76.1569C428.717 80.9334 426.947 85.1439 424.234 88.8066L425.083 89.4354L425.932 90.0643C428.854 86.1205 430.747 81.5976 431.618 76.5139L430.577 76.3354ZM425.083 89.4354L424.24 88.799C421.522 92.4004 418.128 95.2183 414.046 97.2591L414.519 98.204L414.991 99.1489C419.361 96.9639 423.01 93.9361 425.927 90.0719L425.083 89.4354ZM414.519 98.204L414.059 97.2528C409.99 99.2196 405.465 100.211 400.468 100.211V101.268V102.324C405.753 102.324 410.596 101.273 414.978 99.1552L414.519 98.204ZM430.578 112.044L429.605 111.632L428.983 113.1H430.578V112.044ZM441.67 85.8435V84.787H440.971L440.698 85.4316L441.67 85.8435ZM458.785 85.8435L459.691 86.3876L460.652 84.787H458.785V85.8435ZM443.044 112.044V113.1H443.642L443.949 112.588L443.044 112.044ZM430.578 112.044L431.551 112.455L442.643 86.2554L441.67 85.8435L440.698 85.4316L429.605 111.632L430.578 112.044ZM441.67 85.8435V86.8999H458.785V85.8435V84.787H441.67V85.8435ZM458.785 85.8435L457.879 85.2994L442.138 111.5L443.044 112.044L443.949 112.588L459.691 86.3876L458.785 85.8435ZM443.044 112.044V110.987H430.578V112.044V113.1H443.044V112.044ZM479.218 100L478.176 99.8269L477.972 101.056H479.218V100ZM489.994 35.1336L488.997 34.7856L488.967 34.8711L488.952 34.9605L489.994 35.1336ZM493.164 26.0481V24.9916H492.413L492.166 25.7001L493.164 26.0481ZM507.743 26.0481L508.784 26.2237L508.992 24.9916H507.743V26.0481ZM495.277 100V101.056H496.17L496.318 100.176L495.277 100ZM472.034 51.2974L470.992 51.1237L470.805 52.2464L471.939 52.3495L472.034 51.2974ZM474.57 36.0844L474.651 35.0311L473.687 34.9569L473.528 35.9107L474.57 36.0844ZM480.697 34.8167L480.274 33.8488L480.274 33.8488L480.697 34.8167ZM487.353 30.9078L486.737 30.0499L486.73 30.0546L486.724 30.0593L487.353 30.9078ZM493.164 26.0481L493.949 25.3413L493.204 24.5137L492.417 25.3011L493.164 26.0481ZM502.672 36.6126L503.396 37.382L504.148 36.6739L503.457 35.9059L502.672 36.6126ZM487.776 47.7054L487.258 46.7843L487.253 46.7874L487.776 47.7054ZM479.218 100L480.261 100.173L491.036 35.3067L489.994 35.1336L488.952 34.9605L478.176 99.8269L479.218 100ZM489.994 35.1336L490.992 35.4816L494.161 26.396L493.164 26.0481L492.166 25.7001L488.997 34.7856L489.994 35.1336ZM493.164 26.0481V27.1045H507.743V26.0481V24.9916H493.164V26.0481ZM507.743 26.0481L506.701 25.8725L494.235 99.8244L495.277 100L496.318 100.176L508.784 26.2237L507.743 26.0481ZM495.277 100V98.9435H479.218V100V101.056H495.277V100ZM472.034 51.2974L473.077 51.4711L475.612 36.2581L474.57 36.0844L473.528 35.9107L470.992 51.1237L472.034 51.2974ZM474.57 36.0844L474.489 37.1378C476.541 37.2956 478.76 36.8174 481.121 35.7845L480.697 34.8167L480.274 33.8488C478.127 34.788 476.261 35.1549 474.651 35.0311L474.57 36.0844ZM480.697 34.8167L481.121 35.7845C483.455 34.7635 485.742 33.4187 487.983 31.7562L487.353 30.9078L486.724 30.0593C484.598 31.6367 482.448 32.8978 480.274 33.8488L480.697 34.8167ZM487.353 30.9078L487.97 31.7656C490.261 30.1191 492.243 28.4628 493.911 26.7951L493.164 26.0481L492.417 25.3011C490.844 26.8731 488.953 28.4567 486.737 30.0499L487.353 30.9078ZM493.164 26.0481L492.378 26.7548L501.886 37.3194L502.672 36.6126L503.457 35.9059L493.949 25.3413L493.164 26.0481ZM502.672 36.6126L501.948 35.8433C497.214 40.2987 492.317 43.9432 487.258 46.7843L487.776 47.7054L488.293 48.6265C493.517 45.6924 498.551 41.9416 503.396 37.382L502.672 36.6126ZM487.776 47.7054L487.253 46.7874C482.355 49.5763 477.323 50.7173 472.13 50.2453L472.034 51.2974L471.939 52.3495C477.593 52.8635 483.054 51.6099 488.298 48.6235L487.776 47.7054ZM513.518 100L512.723 99.3034L511.186 101.056H513.518V100ZM578.384 26.0481V24.9916H577.905L577.59 25.3514L578.384 26.0481ZM594.654 26.0481L595.446 26.7466L596.993 24.9916H594.654V26.0481ZM529.47 100V101.056H529.947L530.263 100.699L529.47 100ZM524.505 59.5377L523.919 60.4168L523.927 60.4225L523.936 60.428L524.505 59.5377ZM519.011 52.5651L518.014 52.9131L518.019 52.9272L518.024 52.9412L519.011 52.5651ZM518.272 42.3175L517.229 42.1473L517.228 42.155L517.227 42.1627L518.272 42.3175ZM521.864 33.232L522.728 33.8394L522.736 33.8285L521.864 33.232ZM528.731 26.9989L529.232 27.9291L529.241 27.9241L529.25 27.919L528.731 26.9989ZM546.796 27.2102L546.199 28.0815L546.21 28.0892L546.796 27.2102ZM553.029 44.3248L551.987 44.1511L551.987 44.1545L553.029 44.3248ZM549.332 53.5159L548.47 52.904L548.465 52.9117L548.46 52.9194L549.332 53.5159ZM542.57 59.749L542.059 58.8244L542.059 58.8244L542.57 59.749ZM538.978 48.8675L538.231 48.1205L538.224 48.1281L538.216 48.1359L538.978 48.8675ZM542.253 42.3175L541.212 42.138L541.21 42.1484L542.253 42.3175ZM532.217 37.8804L532.949 38.6425L532.956 38.635L532.964 38.6274L532.217 37.8804ZM529.048 44.3248L530.09 44.4985L530.092 44.4824L530.095 44.4663L529.048 44.3248ZM529.576 49.5014L528.641 49.9934L528.651 50.0123L528.662 50.0307L529.576 49.5014ZM561.903 98.8379L561.317 99.7169L561.317 99.7169L561.903 98.8379ZM556.41 91.8653L555.412 92.2133L555.417 92.2274L555.423 92.2414L556.41 91.8653ZM555.776 81.7233L556.818 81.9002L556.819 81.8902L555.776 81.7233ZM559.368 72.5321L560.232 73.1396L560.24 73.1287L559.368 72.5321ZM566.235 66.2991L565.734 65.3689L565.734 65.3689L566.235 66.2991ZM584.3 66.616L583.703 67.4873L583.717 67.497L583.731 67.5063L584.3 66.616ZM589.688 73.483L588.693 73.8383L588.697 73.8487L588.701 73.859L589.688 73.483ZM590.428 83.7306L591.47 83.9043L591.47 83.9012L590.428 83.7306ZM586.836 92.8161L587.708 93.4127L587.708 93.4127L586.836 92.8161ZM579.969 99.1548L580.48 100.08L580.488 100.075L579.969 99.1548ZM576.482 88.2733L575.735 87.5263L575.735 87.5263L576.482 88.2733ZM579.758 81.7233L578.715 81.5496L578.715 81.5542L579.758 81.7233ZM579.124 76.5467L578.189 77.0387L578.199 77.0576L578.209 77.076L579.124 76.5467ZM569.616 77.1806L568.868 76.4335L568.861 76.4411L568.853 76.4489L569.616 77.1806ZM566.446 83.7306L565.403 83.5615L565.401 83.5738L565.4 83.5862L566.446 83.7306ZM567.08 88.8016L566.145 89.2936L566.155 89.3125L566.166 89.3309L567.08 88.8016ZM513.518 100L514.312 100.697L579.178 26.7447L578.384 26.0481L577.59 25.3514L512.723 99.3034L513.518 100ZM578.384 26.0481V27.1045H594.654V26.0481V24.9916H578.384V26.0481ZM594.654 26.0481L593.861 25.3495L528.678 99.3014L529.47 100L530.263 100.699L595.446 26.7466L594.654 26.0481ZM529.47 100V98.9435H513.518V100V101.056H529.47V100ZM533.59 61.9676V60.9111C530.235 60.9111 527.412 60.1414 525.074 58.6475L524.505 59.5377L523.936 60.428C526.669 62.1738 529.902 63.024 533.59 63.024V61.9676ZM524.505 59.5377L525.091 58.6587C522.746 57.0952 521.05 54.9503 519.999 52.189L519.011 52.5651L518.024 52.9412C519.226 56.0961 521.193 58.5996 523.919 60.4168L524.505 59.5377ZM519.011 52.5651L520.009 52.2172C519.019 49.379 518.773 46.1399 519.317 42.4723L518.272 42.3175L517.227 42.1627C516.643 46.1015 516.891 49.6942 518.014 52.9131L519.011 52.5651ZM518.272 42.3175L519.314 42.4877C519.855 39.1783 520.997 36.3025 522.728 33.8394L521.864 33.232L520.999 32.6246C519.068 35.3733 517.816 38.5545 517.229 42.1473L518.272 42.3175ZM521.864 33.232L522.736 33.8285C524.475 31.2857 526.639 29.3249 529.232 27.9291L528.731 26.9989L528.23 26.0687C525.329 27.6309 522.914 29.8255 520.992 32.6354L521.864 33.232ZM528.731 26.9989L529.25 27.919C531.834 26.4614 534.647 25.7311 537.711 25.7311V24.6747V23.6182C534.294 23.6182 531.121 24.4374 528.212 26.0787L528.731 26.9989ZM537.711 24.6747V25.7311C541.133 25.7311 543.942 26.5343 546.199 28.0815L546.796 27.2102L547.394 26.3389C544.72 24.5054 541.472 23.6182 537.711 23.6182V24.6747ZM546.796 27.2102L546.21 28.0892C548.555 29.6527 550.25 31.7976 551.302 34.5589L552.29 34.1828L553.277 33.8067C552.075 30.6518 550.108 28.1483 547.382 26.3312L546.796 27.2102ZM552.29 34.1828L551.302 34.5589C552.349 37.3073 552.597 40.4925 551.987 44.1511L553.029 44.3248L554.071 44.4985C554.729 40.5505 554.484 36.9745 553.277 33.8067L552.29 34.1828ZM553.029 44.3248L551.987 44.1545C551.447 47.4571 550.273 50.3676 548.47 52.904L549.332 53.5159L550.193 54.1278C552.194 51.3116 553.484 48.0946 554.072 44.495L553.029 44.3248ZM549.332 53.5159L548.46 52.9194C546.716 55.4682 544.583 57.4299 542.059 58.8244L542.57 59.749L543.081 60.6737C545.911 59.1101 548.285 56.9164 550.203 54.1125L549.332 53.5159ZM542.57 59.749L542.059 58.8244C539.552 60.2099 536.737 60.9111 533.59 60.9111V61.9676V63.024C537.064 63.024 540.236 62.2462 543.081 60.6737L542.57 59.749ZM533.168 51.5087V52.5651C535.674 52.5651 537.877 51.5405 539.74 49.5992L538.978 48.8675L538.216 48.1359C536.699 49.7161 535.028 50.4522 533.168 50.4522V51.5087ZM538.978 48.8675L539.725 49.6146C541.653 47.6873 542.84 45.2975 543.296 42.4866L542.253 42.3175L541.21 42.1484C540.821 44.5494 539.825 46.5263 538.231 48.1205L538.978 48.8675ZM542.253 42.3175L543.294 42.497C543.672 40.3089 543.507 38.3631 542.66 36.7545L541.725 37.2465L540.79 37.7386C541.352 38.8063 541.539 40.2411 541.212 42.138L542.253 42.3175ZM541.725 37.2465L542.66 36.7545C542.223 35.9237 541.61 35.2633 540.814 34.8188C540.025 34.378 539.117 34.1828 538.133 34.1828V35.2392V36.2957C538.839 36.2957 539.375 36.435 539.784 36.6633C540.186 36.888 540.523 37.2312 540.79 37.7386L541.725 37.2465ZM538.133 35.2392V34.1828C535.63 34.1828 533.399 35.2047 531.47 37.1334L532.217 37.8804L532.964 38.6274C534.557 37.0345 536.27 36.2957 538.133 36.2957V35.2392ZM532.217 37.8804L531.485 37.1183C529.539 38.9871 528.382 41.3604 528.001 44.1833L529.048 44.3248L530.095 44.4663C530.417 42.0773 531.374 40.1543 532.949 38.6425L532.217 37.8804ZM529.048 44.3248L528.006 44.1511C527.631 46.3994 527.793 48.3814 528.641 49.9934L529.576 49.5014L530.511 49.0094C529.951 47.9451 529.76 46.476 530.09 44.4985L529.048 44.3248ZM529.576 49.5014L528.662 50.0307C529.636 51.7138 531.193 52.5651 533.168 52.5651V51.5087V50.4522C531.903 50.4522 531.065 49.9654 530.49 48.9721L529.576 49.5014ZM571.095 101.373V100.317C567.673 100.317 564.822 99.5141 562.489 97.9589L561.903 98.8379L561.317 99.7169C564.056 101.542 567.332 102.43 571.095 102.43V101.373ZM561.903 98.8379L562.489 97.9589C560.144 96.3953 558.449 94.2505 557.397 91.4892L556.41 91.8653L555.423 92.2414C556.624 95.3963 558.592 97.8998 561.317 99.7169L561.903 98.8379ZM556.41 91.8653L557.407 91.5173C556.419 88.6853 556.208 85.4889 556.817 81.9002L555.776 81.7233L554.734 81.5464C554.076 85.4233 554.287 88.9883 555.412 92.2133L556.41 91.8653ZM555.776 81.7233L556.819 81.8902C557.36 78.5081 558.504 75.5991 560.232 73.1395L559.368 72.5321L558.504 71.9247C556.569 74.677 555.319 77.8955 554.733 81.5564L555.776 81.7233ZM559.368 72.5321L560.24 73.1287C561.98 70.5859 564.143 68.6251 566.736 67.2292L566.235 66.2991L565.734 65.3689C562.833 66.9311 560.419 69.1257 558.496 71.9356L559.368 72.5321ZM566.235 66.2991L566.736 67.2292C569.326 65.8345 572.112 65.137 575.109 65.137V64.0805V63.024C571.768 63.024 568.637 63.8056 565.734 65.3689L566.235 66.2991ZM575.109 64.0805V65.137C578.607 65.137 581.45 65.9424 583.703 67.4873L584.3 66.616L584.898 65.7447C582.221 63.9089 578.936 63.024 575.109 63.024V64.0805ZM584.3 66.616L583.731 67.5063C586.06 68.9942 587.712 71.0904 588.693 73.8383L589.688 73.483L590.683 73.1276C589.552 69.9593 587.611 67.4776 584.869 65.7257L584.3 66.616ZM589.688 73.483L588.701 73.859C589.747 76.6057 589.996 79.8265 589.385 83.56L590.428 83.7306L591.47 83.9012C592.127 79.8873 591.883 76.2763 590.675 73.1069L589.688 73.483ZM590.428 83.7306L589.386 83.5569C588.846 86.7947 587.703 89.6773 585.964 92.2195L586.836 92.8161L587.708 93.4127C589.631 90.6022 590.883 87.4278 591.47 83.9043L590.428 83.7306ZM586.836 92.8161L585.964 92.2195C584.221 94.7663 582.052 96.7669 579.45 98.2347L579.969 99.1548L580.488 100.075C583.38 98.4438 585.788 96.2186 587.708 93.4127L586.836 92.8161ZM579.969 99.1548L579.458 98.2302C576.947 99.6176 574.167 100.317 571.095 100.317V101.373V102.43C574.502 102.43 577.638 101.65 580.48 100.079L579.969 99.1548ZM570.672 90.8088V91.8653C573.163 91.8653 575.362 90.8881 577.23 89.0204L576.482 88.2733L575.735 87.5263C574.223 89.0392 572.547 89.7524 570.672 89.7524V90.8088ZM576.482 88.2733L577.23 89.0204C579.157 87.0931 580.345 84.7033 580.8 81.8924L579.758 81.7233L578.715 81.5542C578.325 83.9552 577.33 85.9321 575.735 87.5263L576.482 88.2733ZM579.758 81.7233L580.8 81.897C581.177 79.6345 580.976 77.6369 580.038 76.0174L579.124 76.5467L578.209 77.076C578.821 78.1328 579.043 79.5863 578.715 81.5496L579.758 81.7233ZM579.124 76.5467L580.059 76.0546C579.625 75.2319 579.027 74.5723 578.251 74.1257C577.479 73.6814 576.594 73.483 575.637 73.483V74.5394V75.5959C576.301 75.5959 576.806 75.732 577.197 75.9568C577.583 76.1792 577.917 76.5233 578.189 77.0387L579.124 76.5467ZM575.637 74.5394V73.483C573.073 73.483 570.805 74.4974 568.868 76.4335L569.616 77.1806L570.363 77.9276C571.948 76.3421 573.694 75.5959 575.637 75.5959V74.5394ZM569.616 77.1806L568.853 76.4489C567.002 78.3771 565.857 80.762 565.403 83.5615L566.446 83.7306L567.489 83.8997C567.88 81.4873 568.848 79.5055 570.378 77.9122L569.616 77.1806ZM566.446 83.7306L565.4 83.5862C565.098 85.7694 565.307 87.7005 566.145 89.2936L567.08 88.8016L568.015 88.3095C567.445 87.2262 567.23 85.7767 567.493 83.8749L566.446 83.7306ZM567.08 88.8016L566.166 89.3309C567.14 91.014 568.697 91.8653 570.672 91.8653V90.8088V89.7524C569.407 89.7524 568.569 89.2655 567.994 88.2722L567.08 88.8016Z" fill="#212121" mask="url(#path-3-outside-2_114_7223)"/>
</svg>
