<svg width="489" height="481" viewBox="0 0 489 481" fill="none" xmlns="http://www.w3.org/2000/svg">
<rect x="38.8242" y="380.645" width="22.1676" height="65.3966" rx="11.0838" fill="#C19BAA" stroke="#212121" stroke-width="3"/>
<rect x="483.327" y="462.846" width="16.7654" height="458.827" transform="rotate(90 483.327 462.846)" fill="#212121" stroke="#212121"/>
<rect x="260.891" y="226.087" width="22.1676" height="219.955" rx="11.0838" fill="#C19BAA" stroke="#212121" stroke-width="3"/>
<rect x="149.857" y="264.578" width="22.1676" height="181.464" rx="11.0838" fill="#C19BAA" stroke="#212121" stroke-width="3"/>
<rect x="371.925" y="155.024" width="22.1676" height="291.017" rx="11.0838" fill="#C19BAA" stroke="#212121" stroke-width="3"/>
<rect x="75.835" y="342.746" width="22.1676" height="103.296" rx="11.0838" fill="#C19BAA" stroke="#212121" stroke-width="3"/>
<rect x="297.902" y="250.661" width="22.1676" height="195.38" rx="11.0838" fill="#C19BAA" stroke="#212121" stroke-width="3"/>
<rect x="186.869" y="304.253" width="22.1676" height="141.788" rx="11.0838" fill="#C19BAA" stroke="#212121" stroke-width="3"/>
<rect x="408.936" y="144.662" width="22.1676" height="301.38" rx="11.0838" fill="#C19BAA" stroke="#212121" stroke-width="3"/>
<rect x="112.847" y="315.801" width="22.1676" height="130.24" rx="11.0838" fill="#C19BAA" stroke="#212121" stroke-width="3"/>
<rect x="334.913" y="264.578" width="22.1676" height="181.464" rx="11.0838" fill="#C19BAA" stroke="#212121" stroke-width="3"/>
<rect x="223.88" y="334.455" width="22.1676" height="111.587" rx="11.0838" fill="#C19BAA" stroke="#212121" stroke-width="3"/>
<rect x="445.947" y="106.762" width="22.1676" height="339.279" rx="11.0838" fill="#C19BAA" stroke="#212121" stroke-width="3"/>
<path d="M158.128 231.101L160.128 227.637L157.47 226.102L155.3 228.272L158.128 231.101ZM211.128 261.7L209.128 265.164L211.786 266.699L213.957 264.529L211.128 261.7ZM274.343 198.485L275.379 194.622L273.148 194.024L271.515 195.657L274.343 198.485ZM314.611 209.275L313.576 213.139L316.086 213.811L317.721 211.791L314.611 209.275ZM484.695 3.5807C484.464 1.38375 482.495 -0.209401 480.298 0.0223071L444.497 3.7982C442.3 4.02991 440.706 5.99873 440.938 8.19569C441.17 10.3926 443.139 11.9858 445.336 11.7541L477.159 8.39773L480.516 40.2212C480.747 42.4182 482.716 44.0113 484.913 43.7796C487.11 43.5479 488.703 41.5791 488.471 39.3821L484.695 3.5807ZM36.4355 352.793L39.264 355.622L160.957 233.929L158.128 231.101L155.3 228.272L33.6071 349.965L36.4355 352.793ZM158.128 231.101L156.128 234.565L209.128 265.164L211.128 261.7L213.128 258.236L160.128 227.637L158.128 231.101ZM211.128 261.7L213.957 264.529L277.172 201.314L274.343 198.485L271.515 195.657L208.3 258.872L211.128 261.7ZM274.343 198.485L273.308 202.349L313.576 213.139L314.611 209.275L315.647 205.411L275.379 194.622L274.343 198.485ZM314.611 209.275L317.721 211.791L483.827 6.51641L480.718 4.00024L477.608 1.48408L311.502 206.759L314.611 209.275Z" fill="#212121"/>
<path d="M22.6 121.614L30.3 75.0135H42.7L34.9 121.614H22.6ZM8.2 104.514L10.4 92.1135H57L54.8 104.514H8.2ZM78.3742 128.114L88.5742 66.7135L91.5742 58.1135H105.374L93.5742 128.114H78.3742ZM71.5742 82.0135L73.9742 67.6135C75.7076 67.7469 77.6409 67.3469 79.7742 66.4135C81.9076 65.4802 84.0076 64.2469 86.0742 62.7135C88.2076 61.1802 90.0409 59.6469 91.5742 58.1135L100.574 68.1135C96.0409 72.3802 91.3409 75.8802 86.4742 78.6135C81.6742 81.3469 76.7076 82.4802 71.5742 82.0135ZM133.741 129.314C127.674 129.314 122.707 128.447 118.841 126.714C114.974 124.98 112.241 122.58 110.641 119.514C109.041 116.447 108.574 112.914 109.241 108.914C109.974 104.914 111.541 101.414 113.941 98.4135C116.341 95.3469 119.574 92.9802 123.641 91.3135C127.707 89.5802 132.641 88.7135 138.441 88.7135C144.507 88.7135 149.474 89.6802 153.341 91.6135C157.207 93.4802 159.941 96.0802 161.541 99.4135C163.141 102.68 163.574 106.514 162.841 110.914C162.241 114.58 160.707 117.814 158.241 120.614C155.841 123.347 152.574 125.48 148.441 127.014C144.374 128.547 139.474 129.314 133.741 129.314ZM134.241 116.014C136.707 116.014 138.874 115.58 140.741 114.714C142.607 113.78 144.107 112.547 145.241 111.014C146.441 109.414 147.074 107.614 147.141 105.614C147.274 103.414 146.541 101.68 144.941 100.414C143.341 99.0802 141.207 98.4135 138.541 98.4135C136.207 98.4135 134.074 98.8802 132.141 99.8135C130.207 100.68 128.674 101.914 127.541 103.514C126.407 105.114 125.807 106.98 125.741 109.114C125.607 111.114 126.307 112.78 127.841 114.114C129.441 115.38 131.574 116.014 134.241 116.014ZM139.641 94.4135C134.174 94.4135 129.641 93.5802 126.041 91.9135C122.507 90.2469 119.974 87.9802 118.441 85.1135C116.907 82.1802 116.441 78.7802 117.041 74.9135C117.641 71.3802 119.074 68.2469 121.341 65.5135C123.607 62.7802 126.641 60.6802 130.441 59.2135C134.241 57.6802 138.674 56.9135 143.741 56.9135C149.207 56.9135 153.741 57.7802 157.341 59.5135C160.941 61.1802 163.507 63.5135 165.041 66.5135C166.641 69.5135 167.107 72.9802 166.441 76.9135C165.841 80.3802 164.407 83.4469 162.141 86.1135C159.874 88.7135 156.841 90.7469 153.041 92.2135C149.241 93.6802 144.774 94.4135 139.641 94.4135ZM139.241 86.1135C141.441 86.1135 143.374 85.6802 145.041 84.8135C146.774 83.9469 148.141 82.7469 149.141 81.2135C150.141 79.6802 150.674 77.9469 150.741 76.0135C150.874 74.1469 150.241 72.6469 148.841 71.5135C147.441 70.3135 145.607 69.7135 143.341 69.7135C141.207 69.7135 139.307 70.1469 137.641 71.0135C135.974 71.8135 134.641 72.9802 133.641 74.5135C132.707 76.0469 132.174 77.8135 132.041 79.8135C131.907 81.6802 132.507 83.2135 133.841 84.4135C135.241 85.5469 137.041 86.1135 139.241 86.1135ZM198.673 129.314C193.873 129.314 189.64 128.347 185.973 126.414C182.373 124.414 179.44 121.68 177.173 118.214C174.907 114.747 173.373 110.68 172.573 106.014C171.84 101.347 171.907 96.3469 172.773 91.0135C173.907 84.2135 176.04 78.2802 179.173 73.2135C182.373 68.0802 186.273 64.0802 190.873 61.2135C195.473 58.3469 200.473 56.9135 205.873 56.9135C210.607 56.9135 214.74 57.9135 218.273 59.9135C221.873 61.8469 224.807 64.5802 227.073 68.1135C229.34 71.5802 230.84 75.6469 231.573 80.3135C232.373 84.9135 232.34 89.8802 231.473 95.2135C230.407 101.747 228.273 107.58 225.073 112.714C221.94 117.847 218.073 121.914 213.473 124.914C208.873 127.847 203.94 129.314 198.673 129.314ZM198.473 114.614C201.607 114.547 204.373 113.614 206.773 111.814C209.173 109.947 211.14 107.447 212.673 104.314C214.207 101.18 215.307 97.6802 215.973 93.8135C216.64 89.8802 216.673 86.2135 216.073 82.8135C215.473 79.4135 214.24 76.6469 212.373 74.5135C210.573 72.3802 208.14 71.3135 205.073 71.3135C202.54 71.3135 200.107 72.2135 197.773 74.0135C195.44 75.8135 193.44 78.2802 191.773 81.4135C190.107 84.5469 188.94 88.2135 188.273 92.4135C187.607 96.5469 187.573 100.28 188.173 103.614C188.84 106.88 190.04 109.514 191.773 111.514C193.573 113.447 195.807 114.48 198.473 114.614ZM237.305 128.114L298.705 58.1135H314.105L252.405 128.114H237.305ZM256.305 92.1135C252.972 92.1135 250.105 91.3469 247.705 89.8135C245.305 88.2135 243.572 86.0135 242.505 83.2135C241.505 80.3469 241.272 77.1135 241.805 73.5135C242.339 70.2469 243.472 67.3802 245.205 64.9135C246.939 62.3802 249.105 60.4135 251.705 59.0135C254.305 57.5469 257.139 56.8135 260.205 56.8135C263.605 56.8135 266.472 57.6135 268.805 59.2135C271.205 60.8135 272.939 63.0135 274.005 65.8135C275.072 68.6135 275.305 71.8135 274.705 75.4135C274.172 78.6802 273.005 81.5802 271.205 84.1135C269.472 86.6469 267.339 88.6135 264.805 90.0135C262.272 91.4135 259.439 92.1135 256.305 92.1135ZM255.905 82.2135C257.972 82.2135 259.805 81.3802 261.405 79.7135C263.072 78.0469 264.105 75.9802 264.505 73.5135C264.839 71.5802 264.672 69.9802 264.005 68.7135C263.339 67.4469 262.205 66.8135 260.605 66.8135C258.539 66.8135 256.672 67.6469 255.005 69.3135C253.339 70.9135 252.339 72.9469 252.005 75.4135C251.672 77.4135 251.839 79.0469 252.505 80.3135C253.239 81.5802 254.372 82.2135 255.905 82.2135ZM291.805 129.414C288.405 129.414 285.505 128.614 283.105 127.014C280.705 125.414 278.972 123.214 277.905 120.414C276.905 117.547 276.705 114.347 277.305 110.814C277.839 107.48 278.972 104.58 280.705 102.114C282.439 99.5802 284.605 97.6135 287.205 96.2135C289.805 94.8135 292.605 94.1135 295.605 94.1135C299.072 94.1135 301.972 94.9135 304.305 96.5135C306.705 98.0469 308.405 100.214 309.405 103.014C310.472 105.814 310.705 109.047 310.105 112.714C309.572 115.914 308.439 118.78 306.705 121.314C304.972 123.847 302.805 125.847 300.205 127.314C297.672 128.714 294.872 129.414 291.805 129.414ZM291.405 119.414C293.472 119.414 295.305 118.614 296.905 117.014C298.572 115.347 299.605 113.28 300.005 110.814C300.339 108.814 300.139 107.18 299.405 105.914C298.739 104.647 297.639 104.014 296.105 104.014C293.972 104.014 292.072 104.847 290.405 106.514C288.805 108.18 287.805 110.247 287.405 112.714C287.139 114.647 287.339 116.247 288.005 117.514C288.739 118.78 289.872 119.414 291.405 119.414Z" fill="#212121"/>
</svg>
