<svg width="213" height="201" viewBox="0 0 213 201" fill="none" xmlns="http://www.w3.org/2000/svg">
<g clip-path="url(#clip0_134_405)">
<path d="M18.4001 159.307C12.0137 159.613 14.1164 153.989 12.7778 153.444C10.7698 152.625 11.2495 157.196 7.48459 157.553C4.75711 157.809 3.57465 157.213 2.93321 154.568C1.34916 148.02 2.3364 130.002 10.7866 128.198C12.0137 127.937 15.4718 128.41 15.7451 127.435C16.3196 125.375 10.6694 126.205 10.3571 125.837C10.3627 120.358 18.0152 121.478 21.8415 122.112C23.6152 122.407 28.9196 123.838 27.3355 126.227L20.6758 126.004C18.1714 129.612 21.8415 128.059 23.4702 128.182C32.1881 128.85 43.494 140.765 38.6972 149.574C35.1721 150.559 35.6128 145.409 34.7427 142.653C34.051 140.442 33.0861 138.287 31.6582 136.45L30.1355 136.623C30.9052 140.181 33.0805 143.137 33.7219 146.818C34.2909 150.081 34.7315 155.727 31.753 157.965C26.7945 161.69 24.7196 154.268 24.2288 154.206L23.0296 154.713C22.7451 157.358 21.0662 159.184 18.4001 159.307Z" fill="#FAFAEE"/>
<path d="M34.743 142.653C35.6131 145.409 35.1725 150.559 38.6976 149.574C43.4944 140.765 32.1884 128.85 23.4705 128.182C21.8418 128.059 18.1717 129.612 20.6761 126.004L27.3359 126.227C28.9199 123.838 23.6155 122.407 21.8418 122.112C18.0156 121.478 10.363 120.358 10.3574 125.837C10.6698 126.205 16.32 125.375 15.7455 127.435C15.4721 128.41 12.014 127.937 10.7869 128.198C2.33674 130.002 1.34949 148.02 2.93355 154.568C3.57498 157.213 4.75745 157.809 7.48493 157.553C11.2499 157.196 10.7702 152.625 12.7781 153.444C14.1168 153.989 12.014 159.613 18.4004 159.307C21.0666 159.184 22.7454 157.358 23.0299 154.713L24.2291 154.206C24.7199 154.268 26.7948 161.69 31.7534 157.965C34.7318 155.727 34.2912 150.081 33.7223 146.818C33.0808 143.137 30.9056 140.181 30.1358 136.623L31.6585 136.45C33.0864 138.287 34.0514 140.442 34.743 142.653ZM36.3884 132.786C41.0792 137.664 46.8242 151.189 36.1318 152.001C36.1263 155.186 35.4402 158.199 32.5565 159.947C27.4307 163.048 25.261 158.588 24.0004 158.717C23.4928 158.772 21.9478 160.582 20.8713 161.055C16.9447 162.787 13.8769 161.016 11.4897 157.926C7.16142 161.423 1.92957 160.404 0.685751 154.657C-0.625001 148.605 0.412445 136.283 3.9208 131.06C4.82996 129.702 8.12078 127.135 8.23234 126.851C8.50006 126.188 8.06501 125.286 8.21003 124.624C9.24189 120.041 13.2522 120.364 13.7208 119.262C14.5295 112.023 15.4443 104.746 16.7271 97.5797C17.7199 92.045 18.9861 84.8178 20.5701 79.5226C20.7709 78.8488 21.0442 76.9223 21.814 76.8276L30.4036 79.2831C27.7765 93.025 24.6084 106.7 23.6881 120.731C26.092 120.47 29.5056 122.508 29.8235 124.997C29.9518 125.971 29.2992 127.285 29.4609 127.625C29.6506 128.014 35.1111 131.461 36.3884 132.786Z" fill="#212121"/>
<path d="M186.21 144.746C190.762 162.609 181.988 192.698 160.821 195.555C155.488 196.284 145.688 194.614 141.823 190.599C138.755 187.409 139.319 183.015 138.438 181.701C138.136 181.245 134.282 180.877 132.709 178.5C131.092 176.061 131.744 173.232 130.824 171.167C130.4 170.209 125.062 165.103 123.785 163.466C116.746 154.413 110.761 144.251 107.771 133.087L117.019 131.489C121.141 141.99 126.267 153.449 135.141 160.721C136.865 156.651 139.776 155.482 144.065 157.03C144.941 148.689 144.445 136.979 152.108 131.589C163.978 123.237 182.752 131.133 186.216 144.752L186.21 144.746ZM177.81 180.304C183.232 170.844 186.193 155.225 183.131 144.741C180.471 135.665 167.854 127.77 159.755 135.537C151.411 143.549 159.672 163.032 152.722 172.62C153.313 175.159 174.358 179.975 177.805 180.298L177.81 180.304ZM166.443 190.722C167.804 190.092 176.566 184.33 175.44 182.821C171.329 181.985 167.168 181.245 163.135 180.053C160.386 179.235 152.142 175.538 150.469 175.437C148.215 175.309 145.549 179.023 145.281 181.267C143.876 193.222 158.015 194.669 166.437 190.722H166.443ZM155.756 135.843C157.502 133.51 159.956 132.553 161.908 130.626C146.536 135.092 153.386 151.779 151.908 162.703C150.842 170.549 144.478 172.241 141.924 178.522C141.076 180.599 140.033 184.274 142.219 185.883C139.704 176.885 152.075 171.556 153.146 165.164C154.735 155.754 149.347 144.401 155.756 135.843ZM148.968 146.255C149.069 143.638 150.011 140.654 150.212 137.998C149.286 137.998 149.057 139.858 148.829 140.593C146.503 147.954 147.44 155.799 144.98 163.154L142.838 163.784C143.257 160.905 142.866 157.341 139.14 159.173C136.915 160.265 133.596 170.755 133.613 173.31C133.63 176.206 137.143 180.822 139.603 178.361C140.273 177.692 141.466 174.474 142.582 173.049C144.222 170.955 146.347 169.602 147.786 167.191C151.573 160.821 148.712 153.165 148.968 146.261V146.255Z" fill="#212121"/>
<path d="M183.137 144.746C186.199 155.231 183.238 170.849 177.816 180.309C174.369 179.981 153.325 175.17 152.733 172.631C159.683 163.043 151.417 143.56 159.767 135.548C167.86 127.775 180.482 135.676 183.143 144.752L183.137 144.746Z" fill="#D8B767"/>
<path d="M175.44 182.821C176.566 184.329 167.798 190.092 166.443 190.722C158.021 194.669 143.881 193.222 145.287 181.267C145.555 179.023 148.221 175.309 150.474 175.437C152.147 175.538 160.391 179.235 163.141 180.053C167.174 181.245 171.335 181.985 175.445 182.821H175.44Z" fill="#D8B767"/>
<path d="M161.908 130.631C159.956 132.558 157.502 133.51 155.756 135.849C149.347 144.407 154.73 155.765 153.146 165.17C152.075 171.562 139.704 176.89 142.219 185.888C140.033 184.279 141.07 180.604 141.923 178.527C144.484 172.241 150.848 170.554 151.907 162.709C153.386 151.784 146.536 135.097 161.908 130.631Z" fill="#D8B767"/>
<path d="M150.217 137.998C150.011 140.654 149.068 143.639 148.974 146.256C148.717 153.16 151.578 160.816 147.791 167.186C146.358 169.597 144.227 170.955 142.587 173.043C141.472 174.469 140.278 177.693 139.609 178.355C137.149 180.816 133.629 176.2 133.618 173.305C133.601 170.749 136.92 160.259 139.146 159.168C142.872 157.336 143.262 160.894 142.844 163.778L144.986 163.149C147.445 155.794 146.514 147.948 148.834 140.587C149.063 139.852 149.291 137.993 150.217 137.993V137.998Z" fill="#D8B767"/>
<path d="M96.739 196.257C97.096 197.353 96.7167 198.523 94.4466 199.447C75.4714 200.811 56.1782 201.697 37.2197 199.62L37.454 197.437C37.9392 197.493 38.3576 197.52 38.5639 197.543C56.775 199.297 75.9399 198.178 94.151 197.003C94.508 196.735 94.5916 196.502 94.508 196.312L96.739 196.251V196.257Z" fill="#212121"/>
<path d="M96.739 196.256L94.508 196.317C94.3685 196.005 93.794 195.811 93.2251 195.755C90.3917 195.476 84.6969 196.863 81.5399 196.997C69.8826 197.498 57.5057 197.464 45.8484 197.024C44.4596 196.969 34.6484 195.538 34.4867 196.083C34.2301 196.941 36.1209 197.281 37.454 197.431L37.2197 199.614C35.8978 199.474 34.5759 199.318 33.2652 199.146C29.4054 195.727 32.8803 195.226 33.7337 193.801C33.9847 193.383 33.1202 186.445 33.5273 184.068C34.7042 177.314 41.693 172.152 48.4253 172.057C54.0308 171.979 58.9894 176.061 64.6228 175.498C61.583 169.106 66.0786 166.478 71.383 164.151L57.2436 133.454L58.5097 132.758L69.1407 133.087L83.6538 164.652C87.6307 166.122 92.5669 167.024 93.8665 171.807C94.9932 175.961 92.3104 176.657 92.3104 178.266C92.3104 179.062 94.8761 182.458 95.2331 184.552C95.908 188.5 93.9948 191.423 94.1175 192.954C94.1399 193.205 96.2147 194.647 96.739 196.25V196.256ZM90.9383 193.177C93.359 190.749 92.5335 180.448 88.9359 179.803C87.7646 179.597 80.9375 179.841 80.6196 178.266C79.9335 174.93 84.4849 176.868 86.4817 176.79C92.896 176.517 92.3271 171.194 86.9502 168.889C82.6052 167.024 68.3431 165.348 66.72 171.194C65.4427 175.782 73.4188 174.402 74.183 175.493C76.7821 179.162 68.7001 177.492 68.0866 177.547C67.0603 177.637 66.034 178.422 64.8794 178.533C56.2842 179.39 48.5926 170.432 39.9918 178.255C36.8237 181.128 34.2803 190.694 37.811 193.377C38.4245 193.845 44.9281 194.491 46.4508 194.574C57.6898 195.22 69.7487 194.597 80.9264 193.945C83.1797 193.806 89.5996 194.497 90.9271 193.177H90.9383Z" fill="#212121"/>
<path d="M94.5078 196.317C94.5915 196.506 94.5078 196.74 94.1508 197.007C75.9397 198.182 56.7749 199.296 38.5638 197.548C38.3574 197.525 37.9391 197.492 37.4538 197.442C36.1152 197.291 34.2244 196.952 34.4865 196.094C34.6483 195.549 44.4594 196.98 45.8482 197.035C57.5055 197.475 69.8824 197.503 81.5397 197.007C84.6967 196.868 90.397 195.482 93.2249 195.766C93.7938 195.821 94.3739 196.016 94.5078 196.328V196.317Z" fill="#D8B767"/>
<path d="M88.9303 179.808C92.5279 180.454 93.359 190.755 90.9327 193.183C89.6052 194.502 83.1853 193.812 80.9319 193.951C69.7543 194.603 57.6954 195.226 46.4564 194.58C44.9281 194.497 38.4301 193.851 37.8166 193.383C34.2859 190.699 36.8293 181.134 39.9974 178.26C48.5926 170.437 56.2842 179.396 64.885 178.539C66.0396 178.428 67.0658 177.642 68.0921 177.553C68.7057 177.498 76.7877 179.168 74.1885 175.499C73.4188 174.407 65.4483 175.788 66.7256 171.2C68.3487 165.354 82.6108 167.03 86.9558 168.895C92.3327 171.2 92.9016 176.523 86.4873 176.796C84.4905 176.88 79.9391 174.936 80.6252 178.272C80.9431 179.847 87.7702 179.608 88.9415 179.808H88.9303Z" fill="#D8B767"/>
<path d="M96.3707 147.797C137.905 147.797 171.574 114.836 171.574 74.177C171.574 33.5176 137.905 0.556641 96.3707 0.556641C54.8368 0.556641 21.167 33.5176 21.167 74.177C21.167 114.836 54.8368 147.797 96.3707 147.797Z" fill="#3F5B7A" stroke="#212121" stroke-width="2" stroke-miterlimit="10"/>
<path d="M166.61 47.8237C169.817 56.0032 171.568 64.8897 171.568 74.1772C171.568 91.4603 165.489 107.346 155.304 119.907" fill="#7A9E79"/>
<path d="M166.61 47.8237C169.817 56.0032 171.568 64.8897 171.568 74.1772C171.568 91.4603 165.489 107.346 155.304 119.907" stroke="#212121" stroke-miterlimit="10"/>
<path d="M24.2959 53.0966C32.7014 25.5349 57.1428 4.74392 87.0279 1.11914L24.2959 53.0966Z" fill="#7A9E79"/>
<path d="M24.2959 53.0966C32.7014 25.5349 57.1428 4.74392 87.0279 1.11914" stroke="#212121" stroke-miterlimit="10"/>
<path d="M100.71 0.673828C127.578 2.17163 150.675 17.4837 162.7 39.4607L100.71 0.673828Z" fill="#7A9E79"/>
<path d="M100.71 0.673828C127.578 2.17163 150.675 17.4837 162.7 39.4607" stroke="#212121" stroke-miterlimit="10"/>
<path d="M88.1709 147.369C90.8649 147.658 93.598 147.803 96.3701 147.803C108.73 147.803 120.393 144.886 130.684 139.713" fill="#7A9E79"/>
<path d="M88.1709 147.369C90.8649 147.658 93.598 147.803 96.3701 147.803C108.73 147.803 120.393 144.886 130.684 139.713" stroke="#212121" stroke-miterlimit="10"/>
<path d="M91.6179 9.79969C91.1717 11.2251 86.3638 14.5214 86.3638 14.5214C86.3638 14.5214 86.7375 19.1651 83.5136 19.9168C80.2841 20.6685 81.0371 15.9468 81.0371 15.9468C81.0371 15.9468 81.2602 13.4022 77.5845 13.8476C73.9033 14.2986 73.6802 19.0927 73.6802 19.0927C73.6802 19.0927 70.077 20.6685 69.0284 22.3166C67.9742 23.9647 69.179 31.309 69.179 31.309C68.9559 40.0786 59.4236 41.3537 59.4236 41.3537C59.4236 41.3537 56.8691 42.7011 55.5193 45.1009C54.1695 47.5008 54.995 51.9997 54.995 51.9997C54.3926 59.0433 50.8675 55.4463 50.8675 55.4463C49.8914 46.6767 42.0102 49.7502 42.0102 49.7502C42.0102 49.7502 36.3823 52.9741 35.3281 60.0177C34.2795 67.0612 39.2325 64.589 39.2325 64.589C39.2325 64.589 42.2388 61.2204 44.0349 61.8941C45.8364 62.5678 43.4325 69.3107 43.4325 69.3107C48.9153 69.3107 46.489 72.6348 46.489 72.6348C44.7376 78.5759 51.9161 78.5759 51.9161 78.5759C55.9432 76.126 61.1973 75.0792 61.1973 75.0792C61.1973 75.0792 69.7758 77.8743 70.4786 82.0726C71.1758 86.2653 77.8299 85.7419 86.5869 92.9135C95.3438 100.08 85.014 113.187 85.014 113.187C85.014 113.187 79.9383 117.379 78.3598 121.227C76.7813 125.069 72.7598 127.346 72.7598 127.346C70.83 129.618 72.7598 138.705 72.7598 138.705C60.1487 139.056 60.1487 117.207 60.1487 117.207C60.1487 117.207 61.0244 110.392 53.1432 104.796C45.2619 99.2054 46.6619 92.212 46.6619 92.212C52.6133 81.0258 47.889 81.0258 47.889 81.0258C41.2349 81.0258 40.1863 76.7607 40.1863 76.7607C36.6835 69.5223 35.6349 70.1849 32.6564 70.1849C29.6779 70.1849 27.9321 67.9131 26.0023 58.1245C25.5616 55.8695 24.9648 54.2548 24.3066 53.1078C32.701 25.5349 57.1424 4.74392 87.0275 1.11914C91.7741 3.76952 91.9693 8.70279 91.6179 9.79969Z" fill="#7A9E79" stroke="#212121" stroke-miterlimit="10"/>
<path d="M49.0388 60.8978C49.4013 61.6773 50.1208 62.919 51.4818 63.8878C54.767 66.2319 58.7551 64.8622 59.2069 64.7007C58.8332 63.9657 58.2698 63.1361 57.4276 62.4067C54.2037 59.6283 49.6579 60.7363 49.0332 60.8978H49.0388Z" fill="#7A9E79" stroke="#212121" stroke-miterlimit="10"/>
<path d="M61.9173 66.0032C61.9173 66.0032 66.1452 64.9732 67.6177 66.3485C69.0902 67.7238 66.4854 70.0289 66.4854 70.0289C66.4854 70.0289 61.7165 71.0089 61.9173 66.0032Z" fill="#7A9E79" stroke="#212121" stroke-miterlimit="10"/>
<path d="M130.684 139.707C120.393 144.88 108.73 147.798 96.3701 147.798C93.598 147.798 90.8649 147.653 88.1709 147.363C92.304 146.356 96.1358 145.376 97.0673 144.991C99.2816 144.078 101.423 144.991 101.423 144.991C101.423 144.991 102.031 146.01 106.309 143.972C110.588 141.94 113.644 142.447 113.644 142.447C113.644 142.447 117.816 143.16 123.21 140.214C127.064 138.109 129.568 139.011 130.684 139.702V139.707Z" fill="#7A9E79" stroke="#212121" stroke-miterlimit="10"/>
<path d="M171.574 74.1775C171.574 91.4606 165.494 107.346 155.31 119.908C154.713 101.483 160.14 92.3125 160.14 92.3125C162.226 75.408 157.937 78.5929 157.937 78.5929C156.509 79.6898 151.89 79.6898 151.89 79.6898C142.542 78.3757 143.424 63.008 143.424 63.008C143.424 63.008 143.647 58.6148 146.614 54.1159C149.581 49.6169 146.72 46.7605 146.72 46.7605C147.055 43.7983 150.792 44.344 150.792 44.344C156.18 43.687 157.825 47.089 157.825 47.089C159.906 47.8352 164.496 47.8574 166.61 47.824C169.817 56.0034 171.568 64.89 171.568 74.1775H171.574Z" fill="#7A9E79" stroke="#212121" stroke-miterlimit="10"/>
<path d="M100.71 0.673828C114.007 10.5348 114.637 12.8789 114.637 12.8789C114.637 17.1719 118.475 19.4715 118.475 19.4715C125.692 19.1652 131.22 21.6152 131.22 21.6152C140.891 26.8268 139.664 36.9439 139.664 36.9439C139.664 36.9439 141.198 39.0876 145.192 39.7001C149.185 40.3181 148.416 31.8826 148.416 31.8826C153.335 34.5385 160.787 38.4529 162.7 39.4551" fill="#7A9E79"/>
<path d="M100.71 0.673828C114.007 10.5348 114.637 12.8789 114.637 12.8789C114.637 17.1719 118.475 19.4715 118.475 19.4715C125.692 19.1652 131.22 21.6152 131.22 21.6152C140.891 26.8268 139.664 36.9439 139.664 36.9439C139.664 36.9439 141.198 39.0876 145.192 39.7001C149.185 40.3181 148.416 31.8826 148.416 31.8826C153.335 34.5385 160.787 38.4529 162.7 39.4551" stroke="#212121" stroke-miterlimit="10"/>
<path d="M112.239 23.564C119.635 23.564 125.637 34.4662 125.637 47.9129C125.637 61.3597 119.641 72.2563 112.239 72.2563C104.838 72.2563 98.8418 61.3541 98.8418 47.9129C98.8418 34.4717 104.838 23.564 112.239 23.564ZM119.652 47.9129C119.652 40.4685 116.333 34.4383 112.239 34.4383C109.59 34.4383 107.264 36.9662 105.953 40.7692C105.602 40.6411 105.223 40.5743 104.827 40.5743C102.975 40.5743 101.474 42.0721 101.474 43.9207C101.474 45.7692 102.975 47.267 104.827 47.267H104.832C104.827 47.4786 104.827 47.6958 104.827 47.9129C104.827 55.3518 108.145 61.3875 112.239 61.3875C116.333 61.3875 119.652 55.3574 119.652 47.9129Z" fill="#FAFAEE"/>
<path d="M112.239 34.4385C116.333 34.4385 119.652 40.4686 119.652 47.9131C119.652 55.3575 116.333 61.3877 112.239 61.3877C108.145 61.3877 104.826 55.3575 104.826 47.9131C104.826 47.6959 104.826 47.4844 104.832 47.2672C106.678 47.2672 108.178 45.7638 108.178 43.9208C108.178 42.4676 107.252 41.2315 105.953 40.7693C107.264 36.9664 109.589 34.4385 112.239 34.4385Z" fill="#212121"/>
<path d="M105.953 40.769C107.253 41.2312 108.179 42.4673 108.179 43.9205C108.179 45.7636 106.678 47.2614 104.832 47.2669C104.893 44.8838 105.295 42.6677 105.953 40.769Z" fill="#FAFAEE"/>
<path d="M104.827 40.5742C105.223 40.5742 105.602 40.641 105.953 40.7691C105.301 42.6678 104.894 44.8894 104.832 47.267H104.827C102.975 47.267 101.475 45.7692 101.475 43.9206C101.475 42.072 102.975 40.5742 104.827 40.5742Z" fill="#FAFAEE"/>
<path d="M125.637 47.9129C125.637 61.3597 119.641 72.2563 112.239 72.2563C104.838 72.2563 98.8418 61.3541 98.8418 47.9129C98.8418 34.4717 104.838 23.564 112.239 23.564C119.641 23.564 125.637 34.4662 125.637 47.9129Z" stroke="#212121" stroke-miterlimit="10"/>
<path d="M80.4132 23.564C87.8092 23.564 93.8107 34.4662 93.8107 47.9129C93.8107 61.3597 87.8147 72.2563 80.4132 72.2563C73.0116 72.2563 67.0156 61.3541 67.0156 47.9129C67.0156 34.4717 73.0116 23.564 80.4132 23.564ZM87.8259 47.9129C87.8259 40.4685 84.5072 34.4383 80.4132 34.4383C77.7638 34.4383 75.4379 36.9662 74.1271 40.7692C73.7758 40.6411 73.3965 40.5743 73.0005 40.5743C71.1487 40.5743 69.6483 42.0721 69.6483 43.9207C69.6483 45.7692 71.1487 47.267 73.0005 47.267H73.006C73.0005 47.4786 73.0005 47.6958 73.0005 47.9129C73.0005 55.3518 76.3192 61.3875 80.4132 61.3875C84.5072 61.3875 87.8259 55.3574 87.8259 47.9129Z" fill="#FAFAEE"/>
<path d="M80.4127 34.4385C84.5067 34.4385 87.8254 40.4686 87.8254 47.9131C87.8254 55.3575 84.5067 61.3877 80.4127 61.3877C76.3187 61.3877 73 55.3575 73 47.9131C73 47.6959 73 47.4844 73.0056 47.2672C74.8518 47.2672 76.3522 45.7638 76.3522 43.9208C76.3522 42.4676 75.4263 41.2315 74.1267 40.7693C75.4374 36.9664 77.7633 34.4385 80.4127 34.4385Z" fill="#212121"/>
<path d="M74.127 40.769C75.4266 41.2312 76.3525 42.4673 76.3525 43.9205C76.3525 45.7636 74.8521 47.2614 73.0059 47.2669C73.0672 44.8838 73.4688 42.6677 74.127 40.769Z" fill="#FAFAEE"/>
<path d="M73.0006 40.5742C73.3966 40.5742 73.7759 40.641 74.1273 40.7691C73.4747 42.6678 73.0675 44.8894 73.0062 47.267H73.0006C71.1488 47.267 69.6484 45.7692 69.6484 43.9206C69.6484 42.072 71.1488 40.5742 73.0006 40.5742Z" fill="#FAFAEE"/>
<path d="M93.8107 47.9129C93.8107 61.3597 87.8147 72.2563 80.4132 72.2563C73.0116 72.2563 67.0156 61.3541 67.0156 47.9129C67.0156 34.4717 73.0116 23.564 80.4132 23.564C87.8147 23.564 93.8107 34.4662 93.8107 47.9129Z" stroke="#212121" stroke-miterlimit="10"/>
<path d="M96.5661 108.482C101.834 108.482 106.104 103.516 106.104 97.3903C106.104 91.2647 101.834 86.2988 96.5661 86.2988C91.2985 86.2988 87.0283 91.2647 87.0283 97.3903C87.0283 103.516 91.2985 108.482 96.5661 108.482Z" fill="#212121" stroke="#212121" stroke-miterlimit="10"/>
<path d="M166.109 38.1408C167.576 31.6151 177.588 33.7253 181.827 36.0082C182.245 29.3656 177.939 24.037 178.196 17.2774C178.519 8.71935 186.88 6.98213 189.836 15.1616C190.595 17.2607 190.98 19.8053 190.868 22.0325C192.686 20.9467 194.231 20.3008 196.412 20.7797C197.277 20.969 198.197 21.8933 198.85 21.949C199.536 22.0102 200.244 20.9801 201.12 20.7686C207.406 19.2819 210.145 24.5994 211.427 29.6941C213.262 36.9938 213.982 44.8391 209.576 51.3091C209.118 51.9829 208.047 52.6343 207.813 53.1577C207.043 54.8782 208.153 56.8048 206.073 58.8594C204.974 59.9507 202.81 60.6467 201.287 60.8527C202.698 70.6692 200.043 81.382 190.266 85.7028C183.812 88.5592 177.342 87.5681 170.532 87.4289L171.475 79.7951C179.451 80.7027 189.847 81.5658 193.205 72.4064C194.583 68.648 193.863 64.7504 194.025 60.8193C192.474 61.1033 190.255 60.1846 189.485 58.8148C188.726 57.4674 189.334 56.0308 188.988 55.474C188.888 55.3126 187.745 55.1065 187.276 54.7168C183.857 51.8604 184.041 48.4806 179.361 46.8213C175 45.2734 164.357 45.9193 166.109 38.1408ZM208.254 40.0673C206.876 40.6185 206.87 38.7477 206.452 38.7254C204.991 40.3123 202.994 41.4983 200.78 40.7745C199.904 40.4849 199.162 39.2989 198.705 39.221C198.024 39.0985 196.736 40.7355 195.587 40.9526C191.827 41.6598 190.02 39.6497 188.961 36.3312C186.88 29.8054 190.433 23.831 188.291 16.7095C186.01 9.13696 179.863 11.0022 179.986 18.1961C180.098 24.5826 185.374 31.526 183.623 38.2521C179.512 38.1575 172.177 32.7175 168.714 37.2499C164.296 43.0295 174.899 43.6253 177.783 44.338C184.755 46.0585 183.216 47.5062 187.008 51.8158C190.628 55.9195 195.531 53.0352 196.747 53.8036C199.859 55.7747 191.906 56.2814 190.863 55.8582C189.797 60.1679 197.807 59.2937 200.596 59.032C203.351 58.7759 205.599 57.4952 205.772 54.5052L200.807 54.9562L201.254 53.3749C210.228 52.8292 211.288 43.9983 210.736 36.6987C210.39 32.0828 208.393 20.5514 201.577 22.5782C197.182 23.8811 197.215 39.2934 202.386 39.1486C206.67 39.0261 204.74 30.6351 206.452 30.6072C208.198 31.7208 207.333 33.5472 207.696 35.2231C207.964 36.4592 209.643 39.5161 208.254 40.0673ZM192.988 39.0873C199.156 40.9693 196.184 32.9792 196.256 30.3734C196.301 28.8477 197.796 24.3042 197.606 23.6639C197.249 22.4724 194.627 22.4779 193.657 22.773C188.983 24.1929 189.591 38.0517 192.988 39.0873Z" fill="#212121"/>
<path d="M193.657 22.7729C194.628 22.4778 197.249 22.4722 197.606 23.6638C197.796 24.3041 196.301 28.8476 196.256 30.3732C196.184 32.9791 199.157 40.9692 192.988 39.0872C189.591 38.0515 188.983 24.1927 193.657 22.7729Z" fill="#FAFAEE"/>
<path d="M201.577 22.5781C208.393 20.5513 210.39 32.0827 210.736 36.6986C211.288 43.9983 210.228 52.8291 201.254 53.3748L200.808 54.9561L205.772 54.5051C205.599 57.4951 203.351 58.7758 200.596 59.0319C197.807 59.2936 189.797 60.1678 190.863 55.8581C191.906 56.2813 199.859 55.7746 196.747 53.8035C195.531 53.0352 190.628 55.9194 187.009 51.8158C183.216 47.5061 184.755 46.0584 177.783 44.3379C174.899 43.6252 164.296 43.0294 168.714 37.2498C172.178 32.7175 179.512 38.1574 183.623 38.2521C185.374 31.5259 180.098 24.5826 179.986 18.1961C179.864 11.0022 186.01 9.13688 188.291 16.7094C190.433 23.8309 186.88 29.8054 188.961 36.3311C190.02 39.6496 191.828 41.6597 195.587 40.9526C196.736 40.7354 198.024 39.0984 198.705 39.2209C199.162 39.2989 199.904 40.4848 200.78 40.7744C202.994 41.4982 204.991 40.3122 206.452 38.7253C206.871 38.7476 206.876 40.6185 208.254 40.0672C209.643 39.516 207.964 36.4592 207.696 35.2231C207.334 33.5471 208.198 31.7208 206.452 30.6072C204.74 30.635 206.67 39.026 202.386 39.1485C197.216 39.2933 197.182 23.881 201.577 22.5781Z" fill="#FAFAEE"/>
</g>
<defs>
<clipPath id="clip0_134_405">
<rect width="213" height="201" fill="white"/>
</clipPath>
</defs>
</svg>
