<svg width="173" height="184" viewBox="0 0 173 184" fill="none" xmlns="http://www.w3.org/2000/svg">
<g clip-path="url(#clip0_134_451)">
<path d="M132.72 164.479C125.311 157.77 118.671 165.463 111.261 164.727C110.266 164.632 109.381 163.953 108.497 163.882C107.973 163.834 101.005 165.263 103.241 162.113C103.91 161.177 110.776 162.362 109.675 158.429C108.275 153.411 95.9808 154.845 92.2352 156.446C87.6001 158.424 87.1096 162.993 92.6487 163.227C94.3653 163.303 98.284 161.64 97.6974 164.503C97.4233 165.85 91.538 165.64 90.5283 165.817C87.4318 166.376 86.7106 175.217 88.8069 177.295C89.9465 178.428 95.476 177.84 97.4233 177.955C107.059 178.514 117.454 179.049 127.153 178.5C128.46 178.423 134.067 177.869 134.6 177.472C137.639 175.169 135.447 166.95 132.72 164.484V164.479Z" fill="#D8B767"/>
<path d="M85.7781 182.667C102.097 183.842 118.676 184.597 134.976 182.834L134.774 180.961C134.413 180.994 134.11 181.018 133.957 181.032C118.258 182.538 101.741 181.577 86.0378 180.569C85.7348 180.34 85.6579 180.139 85.73 179.976L83.8067 179.924C83.499 180.865 83.826 181.869 85.7829 182.662L85.7781 182.667Z" fill="#212121"/>
<path d="M103.241 162.108C101.01 165.258 107.973 163.834 108.497 163.877C109.381 163.948 110.266 164.627 111.261 164.722C118.671 165.458 125.311 157.769 132.721 164.474C135.442 166.94 137.635 175.159 134.601 177.462C134.062 177.859 128.461 178.413 127.153 178.49C117.459 179.035 107.064 178.504 97.4234 177.945C95.4809 177.835 89.9466 178.418 88.807 177.286C86.7107 175.212 87.4319 166.366 90.5284 165.807C91.5381 165.63 97.4234 165.841 97.6975 164.493C98.2889 161.631 94.3654 163.294 92.6488 163.217C87.1097 162.983 87.6002 158.414 92.2353 156.436C95.9809 154.835 108.276 153.406 109.675 158.419C110.776 162.347 103.91 161.167 103.241 162.104V162.108ZM85.0951 169.898C84.5181 173.281 86.1625 175.785 86.0567 177.099C86.0423 177.314 84.2488 178.552 83.7969 179.928L85.7202 179.981C85.8404 179.713 86.3356 179.546 86.8309 179.498C89.2638 179.259 94.1778 180.454 96.8993 180.564C106.948 180.994 117.618 180.965 127.672 180.597C128.864 180.55 137.322 179.321 137.457 179.79C137.687 180.559 135.918 180.846 134.759 180.961L134.961 182.834C136.144 182.71 137.332 182.576 138.51 182.418C141.837 179.479 138.841 179.054 138.106 177.826C137.889 177.467 138.635 171.513 138.284 169.477C137.269 163.681 131.244 159.251 125.441 159.165C120.609 159.098 116.334 162.605 111.478 162.123C114.098 156.637 110.223 154.372 105.66 152.374C105.77 143.395 105.881 134.416 106.001 125.437H95.4136C95.303 134.559 95.1924 143.682 95.0818 152.8C91.6439 154.066 87.3982 154.835 86.2779 158.94C85.3019 162.505 87.6146 163.112 87.6146 164.488C87.6146 165.167 85.4028 168.082 85.0951 169.883V169.898Z" fill="#212121"/>
<path d="M127.682 180.602C117.628 180.975 106.954 180.999 96.9094 180.569C94.1879 180.459 89.2739 179.26 86.841 179.503C86.3457 179.551 85.8457 179.718 85.7303 179.986C85.6581 180.148 85.7351 180.349 86.038 180.579C101.742 181.587 118.258 182.543 133.957 181.042C134.115 181.028 134.414 181.004 134.774 180.97C135.933 180.851 137.702 180.569 137.472 179.8C137.332 179.331 128.874 180.559 127.687 180.607L127.682 180.602Z" fill="#D8B767"/>
<path d="M75.8875 165.812C78.9888 166.367 79.7052 175.207 77.6137 177.291C76.4693 178.424 70.935 177.831 68.9925 177.95C59.3568 178.51 48.9614 179.045 39.2729 178.49C37.9554 178.419 32.3538 177.864 31.8249 177.463C28.7813 175.16 30.9739 166.95 33.7049 164.484C41.1144 157.77 47.745 165.459 55.1592 164.723C56.1545 164.627 57.0393 163.954 57.924 163.877C58.4529 163.829 65.42 165.263 63.1794 162.114C62.5158 161.177 55.6449 162.362 56.746 158.425C58.1451 153.407 70.4398 154.845 74.1854 156.446C78.8205 158.425 79.311 162.993 73.7815 163.227C72.0602 163.299 68.1366 161.631 68.7281 164.494C69.0021 165.846 74.8874 165.64 75.8971 165.812H75.8875Z" fill="#D8B767"/>
<path d="M80.643 182.672C64.2854 183.842 47.6537 184.602 31.3105 182.82L31.5125 180.947C31.9308 180.994 32.2914 181.018 32.4693 181.037C48.1682 182.543 64.6893 181.582 80.3881 180.574C80.6958 180.344 80.768 180.144 80.6958 179.981L82.6191 179.929C82.9269 180.87 82.5999 181.874 80.643 182.667V182.672Z" fill="#212121"/>
<path d="M80.6912 179.986C80.571 179.718 80.0758 179.551 79.5853 179.503C77.1428 179.264 72.2336 180.454 69.5121 180.569C59.4629 180.999 48.7935 180.97 38.7443 180.593C37.547 180.545 29.0893 179.317 28.9499 179.785C28.7287 180.521 30.3587 180.812 31.5079 180.941L31.3059 182.815C30.1664 182.695 29.0268 182.561 27.8969 182.413C24.5696 179.479 27.5651 179.049 28.3008 177.826C28.5172 177.467 27.7719 171.513 28.1229 169.472C29.1374 163.676 35.1621 159.246 40.9657 159.165C45.7979 159.098 50.0724 162.601 54.9288 162.118C52.3083 156.632 56.1837 154.376 60.7563 152.379C60.8236 143.4 60.8958 134.416 60.9679 125.437H71.5316C71.4643 134.564 71.4017 143.686 71.3344 152.809C74.7627 154.071 79.018 154.845 80.1383 158.95C81.1096 162.515 78.7968 163.112 78.7968 164.493C78.7968 165.176 81.0086 168.091 81.3163 169.888C81.8981 173.276 80.2489 175.785 80.3547 177.099C80.3691 177.314 82.1626 178.552 82.6145 179.928L80.6912 179.981V179.986ZM31.8252 177.458C32.3541 177.859 37.9605 178.413 39.2732 178.485C48.9617 179.039 59.3571 178.504 68.9928 177.945C70.9353 177.826 76.4696 178.418 77.614 177.286C79.7007 175.202 78.9891 166.362 75.8878 165.807C74.8781 165.63 68.9928 165.841 68.7188 164.488C68.1273 161.626 72.0508 163.289 73.7722 163.222C79.3017 162.988 78.8112 158.419 74.1761 156.441C70.4305 154.84 58.1358 153.402 56.7366 158.419C55.6356 162.357 62.5113 161.172 63.1701 162.108C65.4107 165.258 58.4436 163.824 57.9147 163.872C57.03 163.948 56.1452 164.622 55.1499 164.718C47.7405 165.454 41.1099 157.765 33.6956 164.479C30.9646 166.945 28.772 175.154 31.8156 177.458H31.8252Z" fill="#212121"/>
<path d="M28.9499 179.789C29.0893 179.321 37.547 180.549 38.7443 180.597C48.7935 180.974 59.4629 180.998 69.5121 180.573C72.2336 180.454 77.1476 179.264 79.5853 179.507C80.0758 179.555 80.5758 179.722 80.6912 179.99C80.7634 180.153 80.6912 180.353 80.3835 180.583C64.6846 181.591 48.1636 182.547 32.4647 181.046C32.2868 181.027 31.9262 180.998 31.5079 180.955C30.3539 180.826 28.7239 180.535 28.9499 179.799V179.789Z" fill="#D8B767"/>
<path d="M85.8987 129.948C121.703 129.948 150.728 101.659 150.728 66.7634C150.728 31.8677 121.703 3.5791 85.8987 3.5791C50.0944 3.5791 21.0693 31.8677 21.0693 66.7634C21.0693 101.659 50.0944 129.948 85.8987 129.948Z" fill="#3F5B7A" stroke="#212121" stroke-width="2" stroke-miterlimit="10"/>
<path d="M146.448 44.1455C149.213 51.1655 150.723 58.7923 150.723 66.7632C150.723 81.5964 145.482 95.2301 136.702 106.011" fill="#7A9E79"/>
<path d="M146.448 44.1455C149.213 51.1655 150.723 58.7923 150.723 66.7632C150.723 81.5964 145.482 95.2301 136.702 106.011" stroke="#212121" stroke-miterlimit="10"/>
<path d="M23.7666 48.6718C31.0126 25.0123 52.0822 7.16857 77.8447 4.05762L23.7666 48.6718Z" fill="#7A9E79"/>
<path d="M23.7666 48.6718C31.0126 25.0123 52.0822 7.16857 77.8447 4.05762" stroke="#212121" stroke-miterlimit="10"/>
<path d="M89.6445 3.67969C112.806 4.96516 132.717 18.1067 143.083 36.9683L89.6445 3.67969Z" fill="#7A9E79"/>
<path d="M89.6445 3.67969C112.806 4.96516 132.717 18.1067 143.083 36.9683" stroke="#212121" stroke-miterlimit="10"/>
<path d="M78.8301 129.576C81.1525 129.824 83.5085 129.948 85.8982 129.948C96.5532 129.948 106.607 127.444 115.478 123.005" fill="#7A9E79"/>
<path d="M78.8301 129.576C81.1525 129.824 83.5085 129.948 85.8982 129.948C96.5532 129.948 106.607 127.444 115.478 123.005" stroke="#212121" stroke-miterlimit="10"/>
<path d="M81.8021 11.5076C81.4174 12.731 77.2727 15.56 77.2727 15.56C77.2727 15.56 77.5949 19.5455 74.8157 20.1906C72.0317 20.8357 72.6808 16.7834 72.6808 16.7834C72.6808 16.7834 72.8732 14.5995 69.7046 14.9818C66.5311 15.3689 66.3388 19.4833 66.3388 19.4833C66.3388 19.4833 63.2327 20.8357 62.3287 22.2502C61.42 23.6647 62.4585 29.9679 62.4585 29.9679C62.2662 37.4944 54.049 38.5887 54.049 38.5887C54.049 38.5887 51.8468 39.7451 50.6832 41.8048C49.5196 43.8644 50.2312 47.7256 50.2312 47.7256C49.7119 53.7707 46.6731 50.6836 46.6731 50.6836C45.8317 43.1571 39.0377 45.795 39.0377 45.795C39.0377 45.795 34.1862 48.5619 33.2774 54.607C32.3735 60.6521 36.6432 58.5303 36.6432 58.5303C36.6432 58.5303 39.2348 55.6392 40.7831 56.2174C42.3361 56.7956 40.2638 62.5827 40.2638 62.5827C44.9903 62.5827 42.8987 65.4355 42.8987 65.4355C41.3889 70.5344 47.5771 70.5345 47.5771 70.5345C51.0486 68.4318 55.578 67.5334 55.578 67.5334C55.578 67.5334 62.973 69.9323 63.5789 73.5355C64.1799 77.1339 69.9161 76.6847 77.465 82.8397C85.0139 88.9899 76.1091 100.239 76.1091 100.239C76.1091 100.239 71.7336 103.837 70.3729 107.139C69.0122 110.437 65.5454 112.391 65.5454 112.391C63.8818 114.341 65.5454 122.14 65.5454 122.14C54.674 122.441 54.674 103.689 54.674 103.689C54.674 103.689 55.4289 97.8401 48.6349 93.0375C41.8409 88.2396 43.0477 82.2375 43.0477 82.2375C48.1781 72.6371 44.1056 72.6371 44.1056 72.6371C38.3693 72.6371 37.4654 68.9766 37.4654 68.9766C34.4458 62.7642 33.5419 63.3329 30.9743 63.3329C28.4067 63.3329 26.9017 61.3832 25.2381 52.9822C24.8582 51.0468 24.3437 49.661 23.7764 48.6766C31.0127 25.0123 52.0824 7.16857 77.8449 4.05762C81.9367 6.33229 82.105 10.5662 81.8021 11.5076Z" fill="#7A9E79" stroke="#212121" stroke-miterlimit="10"/>
<path d="M45.0956 55.3667C45.4082 56.0357 46.0284 57.1014 47.2016 57.9329C50.0337 59.9447 53.4716 58.7692 53.861 58.6306C53.5389 57.9998 53.0532 57.2878 52.3272 56.6618C49.548 54.2772 45.6293 55.2281 45.0908 55.3667H45.0956Z" fill="#7A9E79" stroke="#212121" stroke-miterlimit="10"/>
<path d="M56.1977 59.7437C56.1977 59.7437 59.8423 58.8596 61.1117 60.04C62.3811 61.2203 60.1356 63.1987 60.1356 63.1987C60.1356 63.1987 56.0246 64.0398 56.1977 59.7437Z" fill="#7A9E79" stroke="#212121" stroke-miterlimit="10"/>
<path d="M115.478 122.999C106.607 127.439 96.5532 129.943 85.8982 129.943C83.5085 129.943 81.1525 129.819 78.8301 129.57C82.393 128.705 85.6962 127.864 86.4992 127.534C88.4081 126.751 90.2544 127.534 90.2544 127.534C90.2544 127.534 90.7785 128.409 94.4664 126.66C98.1543 124.916 100.789 125.35 100.789 125.35C100.789 125.35 104.386 125.962 109.035 123.434C112.358 121.628 114.517 122.402 115.478 122.995V122.999Z" fill="#7A9E79" stroke="#212121" stroke-miterlimit="10"/>
<path d="M150.728 66.7587C150.728 81.5919 145.487 95.2256 136.707 106.006C136.192 90.1936 140.871 82.323 140.871 82.323C142.669 67.8148 138.972 70.5483 138.972 70.5483C137.741 71.4897 133.759 71.4897 133.759 71.4897C125.701 70.3619 126.461 57.1726 126.461 57.1726C126.461 57.1726 126.653 53.4022 129.211 49.541C131.769 45.6798 129.302 43.2283 129.302 43.2283C129.591 40.686 132.812 41.1543 132.812 41.1543C137.457 40.5904 138.875 43.5102 138.875 43.5102C140.669 44.1506 144.626 44.1697 146.448 44.141C149.213 51.161 150.723 58.7878 150.723 66.7587H150.728Z" fill="#7A9E79" stroke="#212121" stroke-miterlimit="10"/>
<path d="M89.6445 3.67969C101.107 12.1428 101.651 14.1547 101.651 14.1547C101.651 17.839 104.959 19.8127 104.959 19.8127C111.181 19.5498 115.946 21.6525 115.946 21.6525C124.283 26.1254 123.225 34.8083 123.225 34.8083C123.225 34.8083 124.547 36.6481 127.99 37.1738C131.433 37.7042 130.769 30.4644 130.769 30.4644C135.01 32.7439 141.434 36.1033 143.083 36.9635" fill="#7A9E79"/>
<path d="M89.6445 3.67969C101.107 12.1428 101.651 14.1547 101.651 14.1547C101.651 17.839 104.959 19.8127 104.959 19.8127C111.181 19.5498 115.946 21.6525 115.946 21.6525C124.283 26.1254 123.225 34.8083 123.225 34.8083C123.225 34.8083 124.547 36.6481 127.99 37.1738C131.433 37.7042 130.769 30.4644 130.769 30.4644C135.01 32.7439 141.434 36.1033 143.083 36.9635" stroke="#212121" stroke-miterlimit="10"/>
<path d="M72.2433 23.502C78.5661 23.502 83.6917 32.7775 83.6917 44.2177C83.6917 55.658 78.5661 64.9335 72.2433 64.9335C65.9205 64.9335 60.7949 55.658 60.7949 44.2177C60.7949 32.7775 65.9205 23.502 72.2433 23.502ZM81.4463 44.2177C81.4463 37.8859 78.6094 32.7536 75.109 32.7536C71.6086 32.7536 68.7718 37.8859 68.7718 44.2177C68.7718 50.5495 71.6086 55.6819 75.109 55.6819C78.6094 55.6819 81.4463 50.5495 81.4463 44.2177Z" fill="#FAFAEE"/>
<path d="M75.1087 32.7539C78.6091 32.7539 81.446 37.8863 81.446 44.2181C81.446 50.5499 78.6091 55.6822 75.1087 55.6822C71.6083 55.6822 68.7715 50.5499 68.7715 44.2181C68.7715 37.8863 71.6083 32.7539 75.1087 32.7539Z" fill="#212121"/>
<path d="M72.2433 64.9335C78.5661 64.9335 83.6917 55.6587 83.6917 44.2177C83.6917 32.7767 78.5661 23.502 72.2433 23.502C65.9205 23.502 60.7949 32.7767 60.7949 44.2177C60.7949 55.6587 65.9205 64.9335 72.2433 64.9335Z" stroke="#212121" stroke-miterlimit="10"/>
<path d="M65.9057 43.6728C67.4884 43.6728 68.7714 42.3977 68.7714 40.8247C68.7714 39.2517 67.4884 37.9766 65.9057 37.9766C64.3231 37.9766 63.04 39.2517 63.04 40.8247C63.04 42.3977 64.3231 43.6728 65.9057 43.6728Z" fill="#FAFAEE"/>
<path d="M99.5783 23.502C105.901 23.502 111.027 32.7775 111.027 44.2177C111.027 55.658 105.901 64.9335 99.5783 64.9335C93.2555 64.9335 88.1299 55.658 88.1299 44.2177C88.1299 32.7775 93.2555 23.502 99.5783 23.502ZM108.781 44.2177C108.781 37.8859 105.944 32.7536 102.444 32.7536C98.9436 32.7536 96.1067 37.8859 96.1067 44.2177C96.1067 50.5495 98.9436 55.6819 102.444 55.6819C105.944 55.6819 108.781 50.5495 108.781 44.2177Z" fill="#FAFAEE"/>
<path d="M102.444 32.7539C105.944 32.7539 108.781 37.8863 108.781 44.2181C108.781 50.5499 105.944 55.6822 102.444 55.6822C98.9433 55.6822 96.1064 50.5499 96.1064 44.2181C96.1064 37.8863 98.9433 32.7539 102.444 32.7539Z" fill="#212121"/>
<path d="M99.5783 64.9335C105.901 64.9335 111.027 55.6587 111.027 44.2177C111.027 32.7767 105.901 23.502 99.5783 23.502C93.2555 23.502 88.1299 32.7767 88.1299 44.2177C88.1299 55.6587 93.2555 64.9335 99.5783 64.9335Z" stroke="#212121" stroke-miterlimit="10"/>
<path d="M93.2407 43.6728C94.8234 43.6728 96.1064 42.3977 96.1064 40.8247C96.1064 39.2517 94.8234 37.9766 93.2407 37.9766C91.658 37.9766 90.375 39.2517 90.375 40.8247C90.375 42.3977 91.658 43.6728 93.2407 43.6728Z" fill="#FAFAEE"/>
<path d="M102.127 107.388C102.127 107.388 100.16 108.128 93.5152 104.468C93.3228 104.363 93.1257 104.253 92.9286 104.143C86.3942 100.449 79.278 103.612 78.1433 104.167C78.0375 104.215 77.9894 104.243 77.9894 104.243C77.9894 104.243 72.4455 108.487 69.123 107.455C65.7957 106.418 66.4641 99.7704 66.4641 99.7704C66.5362 98.504 66.6901 97.0848 66.9689 95.5556C67.2286 94.1172 67.5555 92.8126 67.9017 91.6561C67.9017 91.6561 72.3542 77.4968 81.8552 75.5279C91.3515 73.5591 95.6067 78.6771 95.6067 78.6771C95.6067 78.6771 102.531 84.2826 104.81 96.2772C107.084 108.272 102.136 107.388 102.136 107.388H102.127Z" fill="#212121" stroke="#212121" stroke-miterlimit="10"/>
<path d="M93.8662 103.154C93.8662 103.608 93.746 104.052 93.5152 104.468C93.3229 104.363 93.1257 104.253 92.9286 104.143C86.3942 100.449 79.278 103.613 78.1433 104.167C78.0087 103.842 77.9365 103.508 77.9365 103.159C77.9365 100.693 81.5042 98.7002 85.9038 98.7002C90.3033 98.7002 93.871 100.693 93.871 103.159L93.8662 103.154Z" fill="#A44F3D" stroke="#212121" stroke-miterlimit="10"/>
<path d="M6.68791 136.409L6.63502 136.433C6.43789 138.268 3.68758 137.36 3.68758 137.36C3.68758 137.36 -0.437878 135.339 0.341054 122.68C0.903617 113.472 5.2214 109.41 7.53416 107.88C6.92352 107.317 6.16382 106.036 7.82746 103.785C8.6689 102.648 10.4479 102.351 12.3953 102.452C15.16 102.59 18.2661 103.522 19.5115 103.928C19.8673 104.043 20.074 104.12 20.074 104.12C20.074 104.12 25.3871 106.786 21.4492 109.916C22.3435 110.609 23.4205 111.68 24.6995 113.304C29.3635 119.235 30.5656 119.225 30.5656 119.225C30.5656 119.225 35.6286 118.986 33.9506 123.526C32.2677 128.066 26.4593 124.367 26.4593 124.367C26.4593 124.367 21.8194 117.333 20.2327 122.408C18.646 127.483 21.1318 134.106 21.1318 134.106C21.1318 134.106 22.7234 141.188 16.7371 139.21C15.6072 138.837 14.7609 137.986 14.131 136.854C13.9916 138.593 13.1886 141.833 8.95259 139.186C7.97171 138.574 7.23605 137.595 6.69753 136.405L6.68791 136.409Z" fill="#FAFAEE"/>
<path d="M24.6371 72.0348C24.6371 72.0348 29.8348 70.4912 28.4741 75.7048C27.3489 80.0296 21.4733 97.9546 19.5019 103.933C18.2566 103.527 15.1505 102.595 12.3857 102.456C13.4724 96.7886 17.2949 79.4896 24.6371 72.0348Z" fill="#212121"/>
<path d="M6.63502 136.433C6.43789 138.268 3.68758 137.36 3.68758 137.36C3.68758 137.36 -0.437878 135.339 0.341054 122.68C0.903617 113.471 5.22141 109.409 7.53416 107.88C8.39964 107.307 8.98625 107.087 8.98625 107.087" stroke="#212121" stroke-miterlimit="10"/>
<path d="M14.1218 136.858C13.9824 138.598 13.1794 141.838 8.94338 139.19C7.96251 138.579 7.22685 137.599 6.68833 136.409C4.14958 130.808 5.86612 120.443 5.86612 120.443" stroke="#212121" stroke-miterlimit="10"/>
<path d="M12.6931 121.848C12.6931 121.848 11.4045 131.984 14.1211 136.863C14.751 137.996 15.5973 138.846 16.7272 139.219C22.7134 141.197 21.1219 134.115 21.1219 134.115C21.1219 134.115 18.6409 127.492 20.2228 122.417C21.8047 117.342 26.4494 124.376 26.4494 124.376C26.4494 124.376 32.2578 128.08 33.9407 123.535C35.6235 118.995 30.5557 119.234 30.5557 119.234C30.5557 119.234 29.3536 119.244 24.6896 113.314C23.4106 111.689 22.3336 110.618 21.4393 109.925C19.0736 108.076 18.0158 108.85 18.0158 108.85" stroke="#212121" stroke-miterlimit="10"/>
<path d="M7.52931 107.884C6.91866 107.32 6.15896 106.04 7.82261 103.789C8.66405 102.652 10.4431 102.355 12.3904 102.456C15.1552 102.594 18.2613 103.526 19.5066 103.932C19.8624 104.047 20.0692 104.124 20.0692 104.124C20.0692 104.124 25.3823 106.79 21.4443 109.92" stroke="#212121" stroke-miterlimit="10"/>
<path d="M12.3857 102.456C13.4724 96.7886 17.2949 79.4896 24.6371 72.0348C24.6371 72.0348 29.8348 70.4912 28.4741 75.7048C27.3489 80.0296 21.4733 97.9546 19.5019 103.933" stroke="#212121" stroke-miterlimit="10"/>
<path d="M172.75 56.0454C173.25 68.7663 151.084 70.3911 151.084 70.3911V64.1788C151.084 64.1788 161.585 61.0726 163.585 55.1565C165.028 50.8939 159.364 45.5513 156.094 42.9039C157.263 42.4021 158.037 41.9959 158.037 41.9959C158.037 41.9959 161.104 40.3616 163.22 38.3115C166.629 41.1071 172.399 47.1187 172.75 56.0454Z" fill="#212121"/>
<path d="M141.698 14.6996L135.832 7.83259C135.832 7.83259 131.822 1.26185 135.832 0.411233C139.838 -0.43938 140.535 1.80184 146.194 7.75613C151.786 13.634 158.571 30.9091 158.739 31.3248C160.311 31.1289 162.701 31.2866 164.571 33.4179C165.893 34.928 164.84 36.7391 163.22 38.3161C161.109 40.3661 158.037 42.0005 158.037 42.0005C158.037 42.0005 157.263 42.4067 156.094 42.9084C153.777 43.9024 149.896 45.2691 147.411 44.5475C144.756 43.7829 145.079 40.6863 145.492 38.9469C143.021 38.4499 139.679 36.6196 136.799 31.0237C131.467 20.6635 134.924 23.6024 126.129 19.1295C117.34 14.6518 124.831 10.3032 124.831 10.3032L125.139 10.0881C124.028 8.67365 123.595 7.31171 124.331 6.16482C127.577 1.08981 140.641 13.5432 140.641 13.5432L141.698 14.6996Z" fill="#FAFAEE"/>
<path d="M163.22 38.3115C166.629 41.1071 172.399 47.1187 172.75 56.0454C173.25 68.7663 151.084 70.3911 151.084 70.3911V64.1788C151.084 64.1788 161.585 61.0726 163.585 55.1565C165.028 50.8939 159.364 45.5513 156.094 42.9039" stroke="#212121" stroke-miterlimit="10"/>
<path d="M125.139 10.084L124.831 10.299C124.831 10.299 117.335 14.6477 126.13 19.1253C134.924 23.5982 131.467 20.6593 136.799 31.0196C139.679 36.6202 143.021 38.4457 145.492 38.9427C147.589 39.3632 149.05 38.8232 149.05 38.8232" stroke="#212121" stroke-miterlimit="10"/>
<path d="M141.699 14.6999L140.641 13.5434C140.641 13.5434 127.582 1.09008 124.331 6.16508C123.596 7.31198 124.028 8.67391 125.139 10.0884C128.933 14.9197 140.641 20.4057 140.641 20.4057" stroke="#212121" stroke-miterlimit="10"/>
<path d="M143.492 24.6016C143.492 24.6016 143.752 32.8735 148.195 35.196" stroke="#212121" stroke-miterlimit="10"/>
<path d="M154.383 36.5246C154.383 36.5246 158.302 35.0384 158.739 31.3301C158.571 30.9096 151.787 13.6345 146.195 7.75663C140.535 1.80234 139.838 -0.4341 135.833 0.411734C131.823 1.26235 135.833 7.83309 135.833 7.83309L141.699 14.7001L141.752 14.7622L144.103 18.7334" stroke="#212121" stroke-miterlimit="10"/>
<path d="M145.493 38.947C145.084 40.6817 144.757 43.7783 147.411 44.5477C149.902 45.2693 153.782 43.9026 156.095 42.9086C157.263 42.4068 158.037 42.0006 158.037 42.0006C158.037 42.0006 161.105 40.3663 163.22 38.3162C164.836 36.744 165.894 34.9281 164.572 33.4181C162.701 31.2867 160.312 31.129 158.739 31.325" stroke="#212121" stroke-miterlimit="10"/>
</g>
<defs>
<clipPath id="clip0_134_451">
<rect width="173" height="184" fill="white"/>
</clipPath>
</defs>
</svg>
