<svg width="198" height="220" viewBox="0 0 198 220" fill="none" xmlns="http://www.w3.org/2000/svg">
<g clip-path="url(#clip0_128_144)">
<path d="M22.8321 148.897C31.3632 149.55 42.4268 161.208 37.7328 169.825C34.2887 170.789 34.7145 165.751 33.8685 163.054C33.1862 160.892 32.2474 158.784 30.8446 156.986L29.3546 157.155C30.1133 160.636 32.2365 163.528 32.8696 167.134C33.4264 170.321 33.8521 175.844 30.9429 178.034C26.0906 181.679 24.0602 174.417 23.5744 174.363L22.4009 174.859C22.1225 177.441 20.4851 179.227 17.8706 179.353C11.621 179.647 13.6788 174.15 12.3688 173.611C10.4039 172.81 10.8733 177.288 7.18901 177.631C4.52543 177.882 3.36284 177.304 2.73515 174.711C1.18504 168.305 2.15113 150.683 10.4202 148.918C11.621 148.662 15.0105 149.12 15.2725 148.167C15.8347 146.157 10.3056 146.963 9.99996 146.609C10.0054 141.243 17.494 142.338 21.2383 142.959C22.974 143.248 28.1647 144.648 26.62 146.985L20.103 146.767C17.6468 150.297 21.2383 148.777 22.8321 148.897Z" fill="#FAFAEE"/>
<path d="M35.4785 153.407C40.0633 158.179 45.6852 171.41 35.2274 172.2C35.2165 175.322 34.5451 178.263 31.7233 179.974C26.7127 183.008 24.584 178.644 23.3505 178.775C22.8538 178.824 21.3419 180.6 20.2939 181.063C16.4459 182.752 13.4439 181.019 11.1078 178.002C6.87229 181.417 1.758 180.426 0.535377 174.804C-0.747289 168.883 0.267928 156.822 3.70111 151.713C4.59079 150.389 7.8111 147.873 7.92026 147.595C8.18225 146.947 7.75652 146.07 7.90389 145.416C8.90819 140.933 12.8326 141.254 13.2965 140.17C14.0825 133.089 14.9777 125.969 16.233 118.958C16.9535 114.938 16.8607 108.69 19.9937 101.293C20.4686 100.176 20.9052 99.2718 21.2109 98.6562C24.0109 99.457 26.8164 100.263 29.6164 101.064C27.0456 114.502 23.9509 127.886 23.0503 141.608C25.4027 141.352 28.7377 143.351 29.0542 145.781C29.1743 146.74 28.5357 148.02 28.694 148.357C28.8796 148.739 34.2286 152.105 35.4785 153.407ZM37.7327 169.825C42.4267 161.208 31.363 149.55 22.8319 148.897C21.2382 148.777 17.6467 150.297 20.1029 146.767L26.6199 146.985C28.1646 144.648 22.9739 143.248 21.2382 142.959C17.4939 142.338 10.0053 141.243 9.99982 146.609C10.3055 146.963 15.8346 146.157 15.2724 148.167C15.0104 149.12 11.6209 148.662 10.4201 148.918C2.15099 150.683 1.1849 168.305 2.73501 174.711C3.3627 177.304 4.52529 177.882 7.18887 177.631C10.8731 177.288 10.4037 172.81 12.3687 173.611C13.6786 174.15 11.6209 179.647 17.8705 179.353C20.4849 179.227 22.1224 177.441 22.4007 174.858L23.5742 174.363C24.06 174.417 26.0905 181.679 30.9428 178.034C33.852 175.844 33.4262 170.321 32.8695 167.134C32.2363 163.528 30.1131 160.636 29.3544 157.155L30.8445 156.986C32.2473 158.784 33.1861 160.892 33.8683 163.054C34.7143 165.751 34.2886 170.789 37.7327 169.825Z" fill="#212121"/>
<path d="M182.084 165.102C186.538 182.577 177.952 212.014 157.239 214.809C152.021 215.522 142.431 213.888 138.648 209.961C135.646 206.839 136.197 202.542 135.335 201.256C135.04 200.809 131.269 200.45 129.73 198.124C128.147 195.738 128.785 192.971 127.885 190.95C127.47 190.013 122.246 185.018 120.997 183.416C114.108 174.559 108.252 164.617 105.326 153.696L114.376 152.132C118.409 162.406 123.425 173.616 132.109 180.731C133.796 176.749 136.645 175.605 140.842 177.119C141.699 168.959 141.214 157.503 148.713 152.23C160.328 144.059 178.7 151.784 182.09 165.108L182.084 165.102ZM173.864 199.894C179.17 190.639 182.068 175.36 179.071 165.102C176.468 156.223 164.121 148.499 156.196 156.098C148.031 163.937 156.114 182.997 149.313 192.377C149.892 194.861 170.486 199.573 173.859 199.889L173.864 199.894ZM162.74 210.086C164.072 209.471 172.647 203.833 171.545 202.356C167.522 201.539 163.45 200.815 159.504 199.649C156.813 198.848 148.746 195.231 147.108 195.133C144.903 195.008 142.294 198.641 142.032 200.837C140.657 212.532 154.493 213.948 162.735 210.086H162.74ZM152.288 156.397C153.997 154.115 156.398 153.178 158.308 151.293C143.266 155.662 149.968 171.988 148.522 182.675C147.479 190.35 141.252 192.006 138.752 198.151C137.922 200.183 136.902 203.778 139.041 205.352C136.58 196.55 148.686 191.336 149.734 185.083C151.289 175.877 146.017 164.77 152.288 156.397ZM145.64 166.578C145.738 164.018 146.661 161.098 146.857 158.5C145.951 158.5 145.727 160.32 145.504 161.039C143.228 168.24 144.145 175.915 141.738 183.111L139.642 183.727C140.051 180.91 139.669 177.424 136.023 179.216C133.845 180.284 130.597 190.547 130.614 193.047C130.63 195.88 134.069 200.395 136.476 197.988C137.131 197.334 138.299 194.185 139.391 192.791C140.995 190.743 143.075 189.419 144.483 187.06C148.189 180.829 145.389 173.339 145.64 166.584V166.578Z" fill="#212121"/>
<path d="M179.077 165.102C182.073 175.36 179.175 190.639 173.87 199.894C170.496 199.573 149.903 194.866 149.324 192.382C156.125 183.002 148.036 163.942 156.207 156.103C164.127 148.499 176.479 156.229 179.082 165.108L179.077 165.102Z" fill="#D8B767"/>
<path d="M171.55 202.356C172.653 203.832 164.073 209.47 162.746 210.086C154.505 213.948 140.668 212.532 142.044 200.836C142.306 198.641 144.915 195.008 147.12 195.133C148.757 195.231 156.824 198.848 159.515 199.649C163.461 200.815 167.533 201.539 171.556 202.356H171.55Z" fill="#D8B767"/>
<path d="M158.303 151.293C156.393 153.178 153.991 154.11 152.283 156.398C146.011 164.77 151.278 175.883 149.728 185.083C148.68 191.337 136.574 196.55 139.036 205.352C136.896 203.778 137.911 200.183 138.747 198.151C141.252 192.001 147.48 190.351 148.517 182.675C149.963 171.988 143.26 155.662 158.303 151.293Z" fill="#D8B767"/>
<path d="M146.863 158.505C146.661 161.104 145.738 164.024 145.645 166.584C145.394 173.338 148.194 180.828 144.488 187.06C143.086 189.419 141.001 190.748 139.396 192.791C138.304 194.185 137.136 197.339 136.481 197.987C134.074 200.395 130.63 195.879 130.619 193.047C130.603 190.546 133.85 180.284 136.028 179.216C139.674 177.424 140.056 180.905 139.647 183.726L141.743 183.111C144.15 175.915 143.238 168.24 145.509 161.038C145.733 160.319 145.957 158.5 146.863 158.5V158.505Z" fill="#D8B767"/>
<path d="M94.5301 215.501C94.8794 216.574 94.5083 217.718 92.2868 218.622C73.7182 219.956 54.8384 220.823 36.2861 218.791L36.5154 216.655C36.9902 216.71 37.3996 216.737 37.6015 216.759C55.4224 218.475 74.1766 217.38 91.9975 216.231C92.3468 215.969 92.4287 215.74 92.3468 215.555L94.5301 215.495V215.501Z" fill="#212121"/>
<path d="M94.5302 215.501L92.3469 215.561C92.2105 215.256 91.6483 215.065 91.0915 215.011C88.3188 214.738 82.746 216.095 79.6567 216.225C68.2492 216.716 56.1375 216.683 44.73 216.253C43.3709 216.198 33.77 214.798 33.6117 215.332C33.3607 216.171 35.211 216.503 36.5155 216.65L36.2862 218.786C34.9926 218.649 33.6991 218.497 32.4164 218.328C28.6393 214.983 32.0398 214.493 32.8749 213.099C33.1205 212.69 32.2745 205.903 32.6729 203.577C33.8246 196.969 40.6637 191.92 47.2517 191.827C52.7371 191.751 57.5894 195.744 63.1021 195.193C60.1274 188.94 64.5267 186.369 69.7174 184.092L55.881 154.061L57.12 153.38L67.5232 153.701L81.7253 184.582C85.617 186.02 90.4475 186.903 91.7192 191.582C92.8218 195.645 90.1964 196.326 90.1964 197.901C90.1964 198.68 92.7072 202.002 93.0565 204.051C93.7169 207.913 91.8448 210.773 91.9649 212.271C91.9867 212.516 94.0171 213.927 94.5302 215.495V215.501ZM88.8537 212.488C91.2225 210.113 90.4147 200.036 86.8942 199.404C85.748 199.203 79.0672 199.442 78.7561 197.901C78.0848 194.638 82.5386 196.533 84.4926 196.457C90.7695 196.19 90.2128 190.983 84.9511 188.727C80.6992 186.903 66.7427 185.263 65.1544 190.983C63.9045 195.471 71.7096 194.12 72.4574 195.188C75.0009 198.778 67.092 197.143 66.4916 197.198C65.4873 197.285 64.483 198.053 63.3532 198.162C54.9422 199.001 47.4154 190.236 38.9989 197.89C35.8987 200.701 33.4098 210.059 36.8648 212.685C37.4652 213.142 43.8294 213.774 45.3195 213.856C56.3176 214.488 68.1182 213.878 79.0563 213.24C81.2614 213.104 87.5437 213.78 88.8428 212.488H88.8537Z" fill="#212121"/>
<path d="M92.3471 215.561C92.429 215.746 92.3471 215.975 91.9978 216.236C74.177 217.385 55.4227 218.475 37.6019 216.764C37.3999 216.743 36.9905 216.71 36.5157 216.661C35.2057 216.514 33.3554 216.182 33.612 215.343C33.7702 214.809 43.3711 216.209 44.7302 216.263C56.1378 216.694 68.2494 216.721 79.6569 216.236C82.7463 216.1 88.3245 214.743 91.0918 215.021C91.6485 215.076 92.2162 215.266 92.3471 215.571V215.561Z" fill="#D8B767"/>
<path d="M86.8883 199.404C90.4088 200.036 91.2221 210.113 88.8478 212.488C87.5487 213.779 81.2664 213.104 79.0613 213.24C68.1232 213.878 56.3226 214.488 45.3245 213.856C43.8289 213.774 37.4702 213.142 36.8698 212.685C33.4148 210.059 35.9037 200.701 39.0039 197.89C47.4149 190.236 54.9417 199.001 63.3582 198.162C64.488 198.053 65.4923 197.285 66.4966 197.198C67.097 197.143 75.0059 198.778 72.4624 195.188C71.7092 194.12 63.9095 195.471 65.1594 190.983C66.7477 185.263 80.7042 186.903 84.9561 188.727C90.2178 190.983 90.7745 196.19 84.4976 196.457C82.5436 196.539 78.0898 194.638 78.7611 197.901C79.0722 199.442 85.753 199.208 86.8992 199.404H86.8883Z" fill="#D8B767"/>
<path d="M94.1694 168.093C134.813 168.093 167.762 135.846 167.762 96.0686C167.762 56.2908 134.813 24.0444 94.1694 24.0444C53.5255 24.0444 20.5771 56.2908 20.5771 96.0686C20.5771 135.846 53.5255 168.093 94.1694 168.093Z" fill="#3F5B7A" stroke="#212121" stroke-width="2" stroke-miterlimit="10"/>
<path d="M162.904 70.2866C166.042 78.2887 167.756 86.9826 167.756 96.0687C167.756 112.977 161.806 128.518 151.84 140.807" fill="#7A9E79"/>
<path d="M162.904 70.2866C166.042 78.2887 167.756 86.9826 167.756 96.0687C167.756 112.977 161.806 128.518 151.84 140.807" stroke="#212121" stroke-miterlimit="10"/>
<path d="M23.6445 75.4448C31.8645 48.4807 55.7876 28.1405 85.0324 24.5889L23.6445 75.4448Z" fill="#7A9E79"/>
<path d="M23.6445 75.4448C31.8645 48.4807 55.7876 28.1405 85.0324 24.5889" stroke="#212121" stroke-miterlimit="10"/>
<path d="M98.4209 24.1587C124.713 25.624 147.315 40.6041 159.083 62.1046L98.4209 24.1587Z" fill="#7A9E79"/>
<path d="M98.4209 24.1587C124.713 25.624 147.315 40.6041 159.083 62.1046" stroke="#212121" stroke-miterlimit="10"/>
<path d="M86.1455 167.668C88.7818 167.951 91.4563 168.093 94.169 168.093C106.264 168.093 117.677 165.238 127.748 160.178" fill="#7A9E79"/>
<path d="M86.1455 167.668C88.7818 167.951 91.4563 168.093 94.169 168.093C106.264 168.093 117.677 165.238 127.748 160.178" stroke="#212121" stroke-miterlimit="10"/>
<path d="M89.5194 33.087C89.0827 34.4815 84.3778 37.7063 84.3778 37.7063C84.3778 37.7063 84.7435 42.2493 81.5887 42.9847C78.4284 43.7201 79.1653 39.1008 79.1653 39.1008C79.1653 39.1008 79.3836 36.6114 75.7867 37.0472C72.1843 37.4884 71.966 42.1785 71.966 42.1785C71.966 42.1785 68.44 43.7201 67.4139 45.3325C66.3823 46.9449 67.5612 54.1299 67.5612 54.1299C67.3429 62.7094 58.0149 63.9568 58.0149 63.9568C58.0149 63.9568 55.5151 65.2751 54.1942 67.6229C52.8733 69.9706 53.6812 74.3721 53.6812 74.3721C53.0917 81.2629 49.6421 77.7439 49.6421 77.7439C48.6869 69.1644 40.9746 72.1713 40.9746 72.1713C40.9746 72.1713 35.4673 75.3253 34.4357 82.2162C33.4096 89.107 38.2564 86.6884 38.2564 86.6884C38.2564 86.6884 41.1984 83.3928 42.9559 84.0519C44.7189 84.711 42.3664 91.3077 42.3664 91.3077C47.7318 91.3077 45.3575 94.5597 45.3575 94.5597C43.6436 100.372 50.6683 100.372 50.6683 100.372C54.609 97.9752 59.7506 96.9511 59.7506 96.9511C59.7506 96.9511 68.1453 99.6856 68.833 103.793C69.5153 107.895 76.0268 107.383 84.5961 114.399C93.1654 121.409 83.0569 134.232 83.0569 134.232C83.0569 134.232 78.09 138.334 76.5454 142.098C75.0007 145.857 71.0654 148.085 71.0654 148.085C69.1768 150.307 71.0654 159.197 71.0654 159.197C58.7245 159.541 58.7245 138.165 58.7245 138.165C58.7245 138.165 59.5814 131.498 51.869 126.023C44.1567 120.554 45.5267 113.712 45.5267 113.712C51.3505 102.769 46.7275 102.769 46.7275 102.769C40.2159 102.769 39.1898 98.5962 39.1898 98.5962C35.762 91.5147 34.7359 92.1629 31.8212 92.1629C28.9066 92.1629 27.1982 89.9404 25.3097 80.3641C24.8785 78.1579 24.2945 76.5782 23.6504 75.4561C31.8704 48.4919 55.7935 28.1517 85.0382 24.6001C89.6831 27.193 89.8742 32.0193 89.5303 33.0924L89.5194 33.087Z" fill="#7A9E79" stroke="#212121" stroke-miterlimit="10"/>
<path d="M47.8512 83.0766C48.2059 83.8393 48.91 85.054 50.2418 86.0018C53.4567 88.2951 57.3593 86.9551 57.8014 86.7971C57.4357 86.0781 56.8844 85.2664 56.0602 84.5529C52.9054 81.8347 48.457 82.9187 47.8457 83.0766H47.8512Z" fill="#7A9E79" stroke="#212121" stroke-miterlimit="10"/>
<path d="M60.4543 88.0665C60.4543 88.0665 64.5916 87.0587 66.0325 88.4042C67.4735 89.7497 64.9245 92.0049 64.9245 92.0049C64.9245 92.0049 60.2578 92.9636 60.4543 88.0665Z" fill="#7A9E79" stroke="#212121" stroke-miterlimit="10"/>
<path d="M127.748 160.172C117.677 165.233 106.264 168.087 94.169 168.087C91.4563 168.087 88.7818 167.946 86.1455 167.662C90.19 166.676 93.9398 165.718 94.8513 165.342C97.0181 164.449 99.1141 165.342 99.1141 165.342C99.1141 165.342 99.709 166.339 103.895 164.345C108.082 162.357 111.073 162.852 111.073 162.852C111.073 162.852 115.156 163.55 120.434 160.668C124.205 158.609 126.656 159.491 127.748 160.167V160.172Z" fill="#7A9E79" stroke="#212121" stroke-miterlimit="10"/>
<path d="M167.761 96.0684C167.761 112.977 161.812 128.518 151.845 140.807C151.261 122.782 156.572 113.81 156.572 113.81C158.614 97.2722 154.416 100.388 154.416 100.388C153.019 101.461 148.5 101.461 148.5 101.461C139.352 100.176 140.214 85.1411 140.214 85.1411C140.214 85.1411 140.432 80.8432 143.336 76.4417C146.24 72.0403 143.44 69.2459 143.44 69.2459C143.767 66.3479 147.424 66.8817 147.424 66.8817C152.697 66.2389 154.307 69.5672 154.307 69.5672C156.343 70.2972 160.835 70.319 162.904 70.2863C166.042 78.2884 167.756 86.9823 167.756 96.0684H167.761Z" fill="#7A9E79" stroke="#212121" stroke-miterlimit="10"/>
<path d="M98.4209 24.1587C111.433 33.8059 112.05 36.0992 112.05 36.0992C112.05 40.299 115.805 42.5488 115.805 42.5488C122.868 42.2492 128.277 44.646 128.277 44.646C137.741 49.7446 136.541 59.6424 136.541 59.6424C136.541 59.6424 138.042 61.7396 141.95 62.3388C145.858 62.9435 145.104 54.6908 145.104 54.6908C149.919 57.2892 157.211 61.1186 159.083 62.0991" fill="#7A9E79"/>
<path d="M98.4209 24.1587C111.433 33.8059 112.05 36.0992 112.05 36.0992C112.05 40.299 115.805 42.5488 115.805 42.5488C122.868 42.2492 128.277 44.646 128.277 44.646C137.741 49.7446 136.541 59.6424 136.541 59.6424C136.541 59.6424 138.042 61.7396 141.95 62.3388C145.858 62.9435 145.104 54.6908 145.104 54.6908C149.919 57.2892 157.211 61.1186 159.083 62.0991" stroke="#212121" stroke-miterlimit="10"/>
<path d="M88.2588 64.6325C88.2588 71.8502 85.0385 77.7006 81.0649 77.7006C77.0914 77.7006 73.8711 71.8502 73.8711 64.6325C73.8711 57.4148 77.0914 51.5645 81.0649 51.5645C85.0385 51.5645 88.2588 57.4148 88.2588 64.6325Z" fill="#212121"/>
<path d="M81.0648 77.7005C85.0384 77.7005 88.2587 71.8501 88.2587 64.6324C88.2587 57.4148 85.0384 51.5644 81.0648 51.5644C77.0913 51.5644 73.871 57.4148 73.871 64.6324C73.871 71.8501 77.0913 77.7005 81.0648 77.7005ZM78.6687 46.7544C85.8462 46.7544 91.6646 57.3276 91.6646 70.3684C91.6646 83.4093 85.8462 93.9825 78.6687 93.9825C71.4912 93.9825 65.6729 83.4093 65.6729 70.3684C65.6729 57.3276 71.4912 46.7544 78.6687 46.7544Z" fill="#FAFAEE"/>
<path d="M78.6687 93.9825C85.8461 93.9825 91.6646 83.4101 91.6646 70.3684C91.6646 57.3268 85.8461 46.7544 78.6687 46.7544C71.4913 46.7544 65.6729 57.3268 65.6729 70.3684C65.6729 83.4101 71.4913 93.9825 78.6687 93.9825Z" stroke="#212121" stroke-miterlimit="10"/>
<path d="M73.8702 61.1348C75.6669 61.1348 77.1233 59.6812 77.1233 57.8882C77.1233 56.0951 75.6669 54.6416 73.8702 54.6416C72.0736 54.6416 70.6172 56.0951 70.6172 57.8882C70.6172 59.6812 72.0736 61.1348 73.8702 61.1348Z" fill="#FAFAEE"/>
<path d="M118.818 64.6325C118.818 71.8502 115.598 77.7006 111.625 77.7006C107.651 77.7006 104.431 71.8502 104.431 64.6325C104.431 57.4148 107.651 51.5645 111.625 51.5645C115.598 51.5645 118.818 57.4148 118.818 64.6325Z" fill="#212121"/>
<path d="M111.625 77.7005C115.598 77.7005 118.819 71.8501 118.819 64.6324C118.819 57.4148 115.598 51.5644 111.625 51.5644C107.651 51.5644 104.431 57.4148 104.431 64.6324C104.431 71.8501 107.651 77.7005 111.625 77.7005ZM109.698 46.7544C116.875 46.7544 122.694 57.3276 122.694 70.3684C122.694 83.4093 116.875 93.9825 109.698 93.9825C102.521 93.9825 96.7021 83.4093 96.7021 70.3684C96.7021 57.3276 102.521 46.7544 109.698 46.7544Z" fill="#FAFAEE"/>
<path d="M109.698 93.9825C116.875 93.9825 122.694 83.4101 122.694 70.3684C122.694 57.3268 116.875 46.7544 109.698 46.7544C102.521 46.7544 96.7021 57.3268 96.7021 70.3684C96.7021 83.4101 102.521 93.9825 109.698 93.9825Z" stroke="#212121" stroke-miterlimit="10"/>
<path d="M104.78 61.1348C106.577 61.1348 108.033 59.6812 108.033 57.8882C108.033 56.0951 106.577 54.6416 104.78 54.6416C102.984 54.6416 101.527 56.0951 101.527 57.8882C101.527 59.6812 102.984 61.1348 104.78 61.1348Z" fill="#FAFAEE"/>
<path d="M196.598 6.71107C201.041 12.2455 192.575 20.2966 189.589 24.8233C192.313 25.5151 194.649 27.7431 193.437 30.6519C193.006 31.6869 191.991 32.3079 191.549 33.234C189.649 37.205 189.578 39.8742 185.878 43.001C184.47 44.1885 180.305 45.7083 179.928 46.1441C179.574 46.5581 179.748 47.4405 179.426 48.0125C178.122 50.3112 175.453 50.6326 173.095 50.077L161.916 79.6449C160.77 80.9196 158.947 81.2846 157.484 80.5764C156.229 79.9663 155.427 78.6481 155.427 77.1991L166.6 47.6312C164.979 46.4219 162.386 45.327 162.277 43.0337C162.2 41.3831 162.959 40.8275 163.117 39.7054C163.172 39.3186 162.293 38.6758 162.069 38.093C161.534 36.7093 160.759 24.6654 160.923 22.8133C161.469 16.7668 166.403 15.1816 171.168 18.3519C173.559 13.6891 173.471 -0.631889 181.277 0.174311C187.488 0.817092 186.909 7.10872 184.895 11.4938L189.235 5.86129C191.729 4.42865 194.715 4.37418 196.598 6.71652V6.71107ZM195.948 11.7062C197.062 7.29393 192.209 4.7337 189.109 8.53591C187.684 10.2954 181.44 22.1977 181.751 23.6522C182.925 24.5019 183.771 25.9509 185.387 25.586C188.045 24.9759 195.249 14.4517 195.948 11.7062ZM191.838 29.7041C193.268 23.0148 176.67 29.5026 180.523 33.8114C182.98 36.5623 191.189 32.7165 191.838 29.7041ZM183.902 9.08064C186.342 2.13534 179.879 -0.751729 176.577 5.38738C175.131 8.07834 175.131 11.728 174.394 14.7077C173.832 16.9901 171.594 19.3651 173.559 21.4896L177.565 22.0561C179.901 18.7823 181.2 15.0291 182.619 11.3031C182.93 10.4752 183.618 9.8705 183.896 9.0752L183.902 9.08064ZM188.902 35.2059C185.9 36.6058 178.722 38.0112 178.149 33.1795C177.669 29.1648 182.898 27.3618 182.532 26.3322L175.791 23.3253C175.202 24.3276 176.211 24.4148 176.452 25.5369C177.15 28.7563 174.77 30.8263 171.845 31.3274C173.335 33.8658 173.133 36.8401 171.998 39.482L170.415 38.8556C170.764 37.6354 171.015 36.3444 170.977 35.0751C170.841 30.6519 168.051 30.9406 165.492 28.4839C164.989 28.0046 163.789 26.2941 163.789 25.3572C163.789 24.905 164.067 24.6327 164.831 24.7525C165.721 24.8941 167.757 29.6551 171.637 29.4045C173.198 29.3065 175.136 27.803 174.781 26.0544C174.705 25.6622 170.311 20.1114 169.831 19.8064C166.518 17.7092 163.15 18.341 162.812 22.639C163.019 23.4234 163.128 24.3603 163.172 25.3899C163.352 29.2302 162.692 34.2363 163.548 36.7529C164.526 39.6236 168.237 40.5333 170.83 41.3668L169.962 42.941L164.864 41.1816C164.045 41.3831 163.881 42.7558 164.165 43.3714C165.055 45.327 177.298 51.7003 178.018 46.3565L174.749 44.4663L174.891 42.892C180.878 46.4981 187.144 40.7621 188.913 35.2168L188.902 35.2059Z" fill="#212121"/>
<path d="M189.109 8.54142C192.209 4.73921 197.062 7.29944 195.948 11.7117C195.249 14.4626 188.045 24.9814 185.387 25.5915C183.766 25.9619 182.925 24.5129 181.751 23.6577C181.44 22.1978 187.679 10.2955 189.109 8.54142Z" fill="#FAFAEE"/>
<path d="M180.518 33.8115C176.67 29.5027 193.263 23.015 191.833 29.7043C191.183 32.7166 182.969 36.5624 180.518 33.8115Z" fill="#FAFAEE"/>
<path d="M176.577 5.39273C179.874 -0.751824 186.342 2.14069 183.902 9.086C183.624 9.8813 182.936 10.486 182.625 11.3139C181.206 15.0399 179.907 18.7931 177.57 22.0669L173.564 21.5004C171.599 19.3759 173.837 17.0009 174.399 14.7185C175.142 11.7334 175.142 8.08914 176.582 5.39817L176.577 5.39273Z" fill="#FAFAEE"/>
<path d="M178.149 33.1794C178.723 38.0112 185.9 36.6058 188.902 35.2058C187.134 40.7512 180.868 46.4872 174.88 42.8811L174.738 44.4553L178.008 46.3456C177.287 51.6839 165.044 45.3106 164.155 43.3604C163.871 42.7449 164.035 41.3776 164.853 41.1706L169.951 42.9301L170.819 41.3558C168.232 40.5278 164.515 39.6127 163.538 36.742C162.687 34.2253 163.341 29.2192 163.161 25.3789L163.773 25.3517C163.773 26.2886 164.979 27.9936 165.476 28.4784C168.036 30.9351 170.825 30.6464 170.961 35.0696C170.999 36.3443 170.748 37.6299 170.399 38.8501L171.982 39.4765C173.117 36.8346 173.319 33.8603 171.829 31.3219C174.754 30.8208 177.134 28.7562 176.436 25.5314C176.19 24.4093 175.186 24.3221 175.775 23.3198L182.516 26.3267C182.882 27.3563 177.658 29.1648 178.133 33.174L178.149 33.1794Z" fill="#FAFAEE"/>
<path d="M174.776 26.049C175.131 27.7976 173.193 29.301 171.632 29.3991C167.751 29.6496 165.715 24.8887 164.826 24.7471C164.061 24.6272 163.783 24.8996 163.783 25.3517L163.172 25.379C163.128 24.3549 163.019 23.4179 162.812 22.6281C163.144 18.3302 166.518 17.6983 169.831 19.7955C170.311 20.1005 174.705 25.6513 174.781 26.0435L174.776 26.049Z" fill="#FAFAEE"/>
<path d="M89.6342 127.249C94.7889 127.249 98.9677 122.391 98.9677 116.398C98.9677 110.405 94.7889 105.547 89.6342 105.547C84.4795 105.547 80.3008 110.405 80.3008 116.398C80.3008 122.391 84.4795 127.249 89.6342 127.249Z" fill="#212121" stroke="#212121" stroke-miterlimit="10"/>
</g>
<defs>
<clipPath id="clip0_128_144">
<rect width="198" height="220" fill="white"/>
</clipPath>
</defs>
</svg>
