<svg width="354" height="372" viewBox="0 0 354 372" fill="none" xmlns="http://www.w3.org/2000/svg">
<g clip-path="url(#clip0_114_6913)">
<path d="M40.2099 246.42C55.1399 247.56 74.4999 268.01 66.2799 283.12C60.2499 284.82 60.9999 275.98 59.5199 271.24C58.3299 267.45 56.6799 263.76 54.2299 260.6L51.6199 260.89C52.9399 267 56.6599 272.07 57.7599 278.39C58.7399 283.98 59.4899 293.66 54.3999 297.5C45.9099 303.89 42.3499 291.17 41.4999 291.06L39.4499 291.94C38.9699 296.47 36.0999 299.6 31.5199 299.82C20.5799 300.34 24.1899 290.7 21.8799 289.76C18.4499 288.35 19.2599 296.2 12.8199 296.81C8.14994 297.24 6.11994 296.22 5.01994 291.68C2.30994 280.45 3.99994 249.54 18.4699 246.45C20.5699 246 26.4999 246.8 26.9599 245.14C27.9399 241.6 18.2599 243.03 17.7299 242.4C17.7399 233 30.8499 234.92 37.4099 236.01C40.4399 236.52 49.5299 238.97 46.8199 243.07L35.4099 242.69C31.1199 248.88 37.4099 246.22 40.1999 246.43L40.2099 246.42Z" fill="#FAFAEE"/>
<path d="M62.3299 254.32C70.3599 262.69 80.1999 285.9 61.8999 287.29C61.8899 292.75 60.7099 297.92 55.7699 300.92C46.9999 306.24 43.2799 298.59 41.1099 298.81C40.2499 298.9 37.5899 302.02 35.7599 302.83C29.0299 305.79 23.7799 302.76 19.6899 297.46C12.2799 303.46 3.32993 301.71 1.18993 291.85C-1.05007 281.47 0.729927 260.33 6.73993 251.36C8.29993 249.04 13.9299 244.63 14.1199 244.15C14.5699 243.01 13.8299 241.46 14.0899 240.33C15.8499 232.46 22.7199 233.02 23.5199 231.13C24.8899 218.71 26.4699 206.22 28.6599 193.93C30.3599 184.44 32.5299 172.03 35.2499 162.95C35.5899 161.79 36.0699 158.49 37.3799 158.32L52.0899 162.53C47.5999 186.11 42.1699 209.58 40.5999 233.64C44.7199 233.2 50.5599 236.69 51.0999 240.96C51.3199 242.64 50.1999 244.89 50.4799 245.46C50.7899 246.14 60.1599 252.05 62.3399 254.32H62.3299ZM66.2799 283.12C74.4999 268.01 55.1399 247.56 40.2099 246.42C37.4199 246.21 31.1299 248.87 35.4199 242.68L46.8299 243.06C49.5399 238.96 40.4499 236.5 37.4199 236C30.8599 234.91 17.7499 232.99 17.7399 242.39C18.2799 243.02 27.9499 241.59 26.9699 245.13C26.5099 246.8 20.5799 245.99 18.4799 246.44C4.00993 249.53 2.31993 280.44 5.02993 291.67C6.12993 296.22 8.15993 297.24 12.8299 296.8C19.2699 296.19 18.4599 288.34 21.8899 289.75C24.1899 290.69 20.5899 300.33 31.5299 299.81C36.1099 299.59 38.9699 296.46 39.4599 291.93L41.5099 291.05C42.3599 291.16 45.9099 303.89 54.4099 297.49C59.4999 293.65 58.7499 283.96 57.7699 278.38C56.6699 272.06 52.9499 266.99 51.6299 260.88L54.2399 260.59C56.6899 263.74 58.3399 267.44 59.5299 271.23C60.9999 275.97 60.2599 284.81 66.2899 283.11L66.2799 283.12Z" fill="#212121"/>
<path d="M347.13 9.12994C357.66 11.5799 350.42 38.4199 350.18 46.3599C349.81 59.0399 353.53 69.9999 346.46 82.1999C344.63 85.3499 340.05 88.5699 339.13 90.5299C338.43 92.0099 338.72 93.7899 338.13 95.2899C336.18 100.17 333.12 101.93 328.06 102.94C327.3 118.75 325.31 138.58 310.41 147.51C299 154.35 286.72 153.01 274.13 151.34L272.76 150.23V137.46C302.01 145.04 316.61 131.63 313.93 102.06C310.06 102.36 305.15 99.5399 304.24 95.6799C303.87 94.09 304.47 91.6899 303.91 90.66C303.77 90.42 300.84 88.6399 299.62 87.1199C296.95 83.77 296.14 78.7899 293.37 76.0699C288.43 71.2199 278.12 71.0999 272.18 67.5899C261.84 61.4899 265.31 49.0699 276.7 47.8299C283.74 47.0699 289.73 51.5099 295.83 54.2299C295.25 41.0999 280.24 23.1599 290.19 11.0899C296.61 3.30994 305.93 8.40995 307.98 16.9399C308.44 18.8499 308.77 20.9099 308.99 23.0699C309.68 29.5199 309.53 36.7499 309.84 42.6899L313.02 41.7599C312.88 37.1499 311.37 29.9999 310.71 22.9199C309.86 13.9099 310.38 4.98994 316.82 1.47994C322.71 -1.74006 330.06 1.76994 331.7 8.06994C334.13 17.3899 330.84 32.9199 330.45 42.6999C331.86 42.3299 332.54 39.2999 332.82 38.0799C334.81 29.2699 331.61 5.52994 347.13 9.14994V9.12994ZM346.89 43.8899C347.25 37.4699 352.2 17.4399 347.54 13.2399C345.58 11.4599 342.51 12.1799 340.72 13.8199C335.75 18.3699 338.53 37.2599 334.55 43.8999C334.63 44.5699 340.96 44.7499 339.51 48.4499C326.8 45.0499 314.67 43.2299 302.07 48.4199L301.14 45.1099L306.6 43.0099C305.56 36.6299 307.74 6.35994 295.4 11.2899C282.96 16.2599 297.46 40.9599 298.76 49.2399C301.57 66.9299 290.2 53.3699 282.04 51.9499C276.46 50.9799 267.46 52.7599 269.82 60.0399C272.51 68.3699 290.94 66.3499 297.34 75.3799C299.15 77.9299 300.15 82.35 302.04 84.6899C306.41 90.1099 312.75 88.7899 318.91 88.8399L318.42 92.2199C315.31 94.4399 306.13 89.8099 307.49 94.8799C308.9 100.17 336.61 103.53 334.56 92.1499C334.18 91.77 327.46 93.7899 326.32 92.1299C323.55 88.0499 333.44 88.9799 334.8 88.6799C336.96 88.2099 341.39 83.6299 342.66 81.6999C350.25 70.2599 346.16 56.5999 346.89 43.8999V43.8899ZM327.14 41.8599C328.23 40.7199 329.19 13.5499 328.6 10.3299C327.82 6.01994 324.75 3.30994 320.2 3.98994C313.07 5.04994 313.71 16.2499 313.97 21.6599C314.16 25.5099 315.47 37.1799 316.57 40.4899C317.44 43.0899 324.77 41.4199 327.14 41.8599Z" fill="#212121"/>
<path d="M347.54 13.2499C352.2 17.4499 347.25 37.4799 346.89 43.8999C346.17 56.5999 350.25 70.2599 342.66 81.6999C341.38 83.6299 336.96 88.1999 334.8 88.6799C333.45 88.9799 323.55 88.0499 326.32 92.1299C327.46 93.7999 334.18 91.7699 334.56 92.1499C336.61 103.53 308.9 100.18 307.49 94.8799C306.14 89.8099 315.32 94.4399 318.42 92.2199L318.91 88.8399C312.75 88.7899 306.41 90.1099 302.04 84.6899C300.16 82.3499 299.15 77.9299 297.34 75.3799C290.94 66.3599 272.51 68.3699 269.82 60.0399C267.46 52.7599 276.45 50.9799 282.04 51.9499C290.2 53.3699 301.57 66.9299 298.76 49.2399C297.45 40.9599 282.95 16.2599 295.4 11.2899C307.75 6.35994 305.57 36.6299 306.6 43.0099L301.14 45.1099L302.07 48.4199C314.67 43.2299 326.8 45.0499 339.51 48.4499C340.96 44.7499 334.63 44.5699 334.55 43.8999C338.54 37.2699 335.76 18.3699 340.72 13.8199C342.51 12.1799 345.58 11.4599 347.54 13.2399V13.2499Z" fill="#FAFAEE"/>
<path d="M328.59 10.34C329.18 13.56 328.22 40.72 327.13 41.87C324.76 41.43 317.43 43.1 316.56 40.5C315.46 37.19 314.15 25.52 313.96 21.67C313.7 16.26 313.06 5.05999 320.19 3.99999C324.74 3.30999 327.81 6.02999 328.59 10.34Z" fill="#FAFAEE"/>
<path d="M318.94 274.84C326.73 305.48 311.71 357.11 275.46 362.01C266.33 363.26 249.54 360.4 242.92 353.5C237.67 348.02 238.63 340.49 237.12 338.23C236.6 337.45 230.01 336.81 227.31 332.74C224.54 328.55 225.66 323.7 224.08 320.16C223.35 318.52 214.21 309.75 212.02 306.95C199.96 291.42 189.71 273.98 184.59 254.83L200.43 252.09C207.49 270.1 216.27 289.77 231.46 302.24C234.41 295.26 239.39 293.25 246.74 295.91C248.24 281.6 247.39 261.51 260.51 252.26C280.84 237.93 312.99 251.48 318.92 274.84H318.94ZM304.55 335.85C313.84 319.62 318.91 292.83 313.67 274.84C309.12 259.27 287.5 245.72 273.64 259.05C259.35 272.8 273.5 306.22 261.6 322.68C262.61 327.04 298.66 335.3 304.56 335.86L304.55 335.85ZM285.08 353.72C287.41 352.64 302.42 342.76 300.49 340.17C293.45 338.74 286.33 337.46 279.42 335.42C274.71 334.02 260.59 327.67 257.73 327.5C253.87 327.28 249.3 333.65 248.85 337.5C246.44 358.01 270.66 360.5 285.09 353.72H285.08ZM266.78 259.57C269.77 255.56 273.97 253.93 277.32 250.62C251 258.28 262.73 286.91 260.19 305.65C258.37 319.11 247.47 322.01 243.09 332.79C241.63 336.35 239.85 342.66 243.6 345.42C239.29 329.98 260.48 320.84 262.32 309.87C265.04 293.73 255.82 274.25 266.79 259.56L266.78 259.57ZM255.15 277.43C255.32 272.94 256.93 267.82 257.28 263.27C255.69 263.27 255.3 266.46 254.91 267.72C250.93 280.35 252.53 293.81 248.32 306.43L244.65 307.51C245.37 302.57 244.7 296.45 238.32 299.6C234.51 301.47 228.83 319.47 228.85 323.86C228.88 328.83 234.9 336.75 239.11 332.52C240.25 331.38 242.3 325.85 244.21 323.4C247.02 319.81 250.66 317.48 253.12 313.35C259.61 302.42 254.71 289.29 255.15 277.44V277.43Z" fill="#212121"/>
<path d="M313.67 274.84C318.91 292.83 313.84 319.62 304.55 335.85C298.65 335.29 262.6 327.03 261.59 322.67C273.49 306.22 259.34 272.79 273.63 259.04C287.49 245.71 309.11 259.26 313.66 274.83L313.67 274.84Z" fill="#D8B767"/>
<path d="M300.49 340.17C302.41 342.76 287.41 352.64 285.08 353.72C270.66 360.5 246.44 358.01 248.84 337.5C249.3 333.65 253.86 327.28 257.72 327.5C260.58 327.67 274.71 334.02 279.41 335.42C286.32 337.46 293.44 338.74 300.48 340.17H300.49Z" fill="#D8B767"/>
<path d="M277.32 250.62C273.98 253.92 269.78 255.56 266.78 259.57C255.8 274.25 265.02 293.74 262.31 309.88C260.48 320.84 239.29 329.99 243.59 345.43C239.84 342.67 241.63 336.36 243.08 332.8C247.46 322.02 258.36 319.12 260.18 305.66C262.72 286.92 250.98 258.29 277.31 250.63L277.32 250.62Z" fill="#D8B767"/>
<path d="M257.29 263.26C256.94 267.81 255.33 272.94 255.16 277.42C254.72 289.27 259.62 302.41 253.13 313.33C250.67 317.47 247.03 319.79 244.22 323.38C242.31 325.83 240.27 331.35 239.12 332.5C234.91 336.73 228.88 328.81 228.86 323.84C228.83 319.46 234.52 301.46 238.33 299.58C244.72 296.43 245.38 302.55 244.66 307.49L248.33 306.41C252.54 293.79 250.94 280.33 254.92 267.7C255.31 266.44 255.7 263.25 257.29 263.25V263.26Z" fill="#D8B767"/>
<path d="M165.7 363.22C166.31 365.11 165.66 367.11 161.77 368.7C129.27 371.04 96.23 372.56 63.75 369L64.15 365.25C64.98 365.34 65.7 365.39 66.05 365.43C97.24 368.43 130.07 366.52 161.26 364.51C161.87 364.05 162.01 363.65 161.87 363.33L165.69 363.23L165.7 363.22Z" fill="#212121"/>
<path d="M165.7 363.22L161.88 363.32C161.65 362.79 160.66 362.45 159.68 362.36C154.83 361.88 145.07 364.26 139.66 364.49C119.7 365.35 98.4901 365.3 78.5301 364.54C76.1501 364.45 59.3501 361.99 59.0701 362.93C58.6301 364.4 61.8701 364.99 64.1601 365.25L63.7601 369C61.5001 368.77 59.2301 368.49 56.9801 368.19C50.3701 362.32 56.3201 361.47 57.7901 359.02C58.2201 358.3 56.7401 346.4 57.4401 342.32C59.4601 330.73 71.4201 321.87 82.9601 321.72C92.5601 321.59 101.05 328.59 110.7 327.62C105.5 316.66 113.2 312.14 122.28 308.15L98.0601 255.49L100.23 254.29L118.44 254.85L143.3 309.01C150.12 311.53 158.57 313.08 160.79 321.29C162.71 328.42 158.12 329.61 158.12 332.37C158.12 333.74 162.52 339.56 163.13 343.15C164.29 349.93 161.01 354.93 161.22 357.56C161.26 357.99 164.81 360.46 165.71 363.22H165.7ZM155.76 357.94C159.91 353.78 158.49 336.1 152.33 335C150.33 334.65 138.63 335.07 138.09 332.36C136.92 326.64 144.71 329.97 148.13 329.82C159.12 329.35 158.14 320.22 148.94 316.27C141.5 313.07 117.07 310.2 114.29 320.22C112.1 328.09 125.76 325.72 127.08 327.59C131.53 333.89 117.69 331.02 116.64 331.11C114.88 331.27 113.13 332.61 111.15 332.8C96.4301 334.27 83.2501 318.9 68.5301 332.32C63.1101 337.25 58.7501 353.66 64.8001 358.27C65.8501 359.08 76.9901 360.18 79.6001 360.33C98.8501 361.44 119.5 360.37 138.65 359.25C142.51 359.02 153.5 360.2 155.78 357.94H155.76Z" fill="#212121"/>
<path d="M161.87 363.32C162.01 363.65 161.87 364.05 161.26 364.5C130.07 366.52 97.24 368.43 66.05 365.42C65.7 365.38 64.98 365.33 64.15 365.24C61.86 364.98 58.62 364.39 59.06 362.92C59.33 361.98 76.14 364.44 78.52 364.53C98.48 365.28 119.69 365.34 139.65 364.48C145.06 364.25 154.82 361.87 159.67 362.35C160.65 362.44 161.63 362.78 161.87 363.31V363.32Z" fill="#D8B767"/>
<path d="M152.33 334.99C158.5 336.1 159.91 353.77 155.76 357.93C153.48 360.19 142.49 359.01 138.63 359.24C119.48 360.36 98.8302 361.43 79.5802 360.32C76.9702 360.18 65.8301 359.07 64.7801 358.26C58.7301 353.66 63.0902 337.24 68.5102 332.31C83.2302 318.89 96.4101 334.26 111.13 332.79C113.11 332.59 114.86 331.26 116.62 331.1C117.67 331.01 131.51 333.87 127.06 327.58C125.75 325.71 112.09 328.07 114.27 320.21C117.05 310.18 141.48 313.06 148.92 316.26C158.13 320.21 159.1 329.34 148.11 329.81C144.69 329.95 136.9 326.62 138.07 332.35C138.62 335.06 150.31 334.64 152.31 334.99H152.33Z" fill="#D8B767"/>
<path d="M165.07 280.08C236.204 280.08 293.87 223.529 293.87 153.77C293.87 84.0109 236.204 27.46 165.07 27.46C93.9357 27.46 36.27 84.0109 36.27 153.77C36.27 223.529 93.9357 280.08 165.07 280.08Z" fill="#3F5B7A" stroke="#212121" stroke-width="2" stroke-miterlimit="10"/>
<path d="M285.37 108.56C290.86 122.6 293.87 137.84 293.87 153.77C293.87 183.42 283.46 210.68 266.01 232.23" fill="#7A9E79"/>
<path d="M285.37 108.56C290.86 122.6 293.87 137.84 293.87 153.77C293.87 183.42 283.46 210.68 266.01 232.23" stroke="#212121" stroke-width="2" stroke-miterlimit="10"/>
<path d="M41.6299 117.61C56.0199 70.3199 97.8799 34.6499 149.07 28.4299L41.6299 117.61Z" fill="#7A9E79"/>
<path d="M41.6299 117.61C56.0199 70.3199 97.8799 34.6499 149.07 28.4299" stroke="#212121" stroke-width="2" stroke-miterlimit="10"/>
<path d="M172.5 27.6599C218.52 30.2299 258.07 56.4999 278.67 94.2099L172.5 27.6599Z" fill="#7A9E79"/>
<path d="M172.5 27.6599C218.52 30.2299 258.07 56.4999 278.67 94.2099" stroke="#212121" stroke-width="2" stroke-miterlimit="10"/>
<path d="M151.03 279.34C155.64 279.83 160.33 280.08 165.07 280.08C186.24 280.08 206.22 275.07 223.84 266.2" fill="#7A9E79"/>
<path d="M151.03 279.34C155.64 279.83 160.33 280.08 165.07 280.08C186.24 280.08 206.22 275.07 223.84 266.2" stroke="#212121" stroke-width="2" stroke-miterlimit="10"/>
<path d="M156.93 43.3199C156.16 45.7599 147.93 51.4199 147.93 51.4199C147.93 51.4199 148.57 59.3899 143.05 60.6699C137.52 61.9599 138.81 53.8599 138.81 53.8599C138.81 53.8599 139.19 49.4899 132.9 50.2599C126.6 51.0299 126.21 59.2599 126.21 59.2599C126.21 59.2599 120.04 61.9599 118.24 64.7899C116.44 67.6199 118.49 80.2199 118.49 80.2199C118.11 95.2599 101.78 97.4499 101.78 97.4499C101.78 97.4499 97.3996 99.7599 95.0896 103.88C92.7796 108 94.1897 115.71 94.1897 115.71C93.1597 127.79 87.1197 121.62 87.1197 121.62C85.4497 106.58 71.9496 111.85 71.9496 111.85C71.9496 111.85 62.3096 117.38 60.5096 129.47C58.7096 141.56 67.1996 137.31 67.1996 137.31C67.1996 137.31 72.3396 131.53 75.4296 132.69C78.5196 133.84 74.3997 145.42 74.3997 145.42C83.7896 145.42 79.6296 151.12 79.6296 151.12C76.6296 161.32 88.9296 161.32 88.9296 161.32C95.8196 157.12 104.82 155.32 104.82 155.32C104.82 155.32 119.51 160.12 120.71 167.31C121.91 174.51 133.3 173.61 148.3 185.91C163.29 198.2 145.6 220.69 145.6 220.69C145.6 220.69 136.9 227.89 134.21 234.49C131.51 241.09 124.61 244.98 124.61 244.98C121.31 248.88 124.61 264.47 124.61 264.47C103.01 265.07 103.01 227.59 103.01 227.59C103.01 227.59 104.51 215.89 91.0196 206.3C77.5296 196.7 79.9196 184.71 79.9196 184.71C90.1196 165.52 82.0196 165.52 82.0196 165.52C70.6296 165.52 68.8196 158.2 68.8196 158.2C62.8296 145.78 61.0296 146.92 55.9296 146.92C50.8296 146.92 47.8296 143.03 44.5396 126.23C43.7796 122.36 42.7596 119.59 41.6396 117.62C56.0296 70.3299 97.8897 34.6599 149.08 28.4399C157.21 32.9899 157.54 41.4499 156.94 43.3399L156.93 43.3199Z" fill="#7A9E79" stroke="#212121" stroke-width="2" stroke-miterlimit="10"/>
<path d="M84 130.99C84.62 132.33 85.86 134.46 88.19 136.12C93.81 140.14 100.65 137.79 101.42 137.51C100.78 136.25 99.82 134.82 98.37 133.58C92.85 128.81 85.07 130.71 84 130.99Z" fill="#7A9E79" stroke="#212121" stroke-width="2" stroke-miterlimit="10"/>
<path d="M106.06 139.74C106.06 139.74 113.3 137.97 115.82 140.33C118.34 142.69 113.88 146.64 113.88 146.64C113.88 146.64 105.71 148.32 106.05 139.74H106.06Z" fill="#7A9E79" stroke="#212121" stroke-width="2" stroke-miterlimit="10"/>
<path d="M223.83 266.2C206.21 275.08 186.23 280.08 165.06 280.08C160.32 280.08 155.63 279.83 151.02 279.34C158.1 277.61 164.66 275.93 166.26 275.27C170.06 273.7 173.72 275.27 173.72 275.27C173.72 275.27 174.77 277.01 182.09 273.53C189.42 270.04 194.65 270.91 194.65 270.91C194.65 270.91 201.8 272.13 211.04 267.08C217.64 263.47 221.835 265.063 223.745 266.243L223.83 266.2Z" fill="#7A9E79" stroke="#212121" stroke-width="2" stroke-miterlimit="10"/>
<path d="M293.86 153.77C293.86 183.42 283.45 210.68 266 232.23C264.98 200.62 274.27 184.88 274.27 184.88C277.84 155.88 270.5 161.34 270.5 161.34C268.05 163.22 260.15 163.22 260.15 163.22C244.14 160.96 245.65 134.6 245.65 134.6C245.65 134.6 246.03 127.07 251.11 119.35C256.19 111.63 251.29 106.73 251.29 106.73C251.86 101.65 258.26 102.59 258.26 102.59C267.49 101.46 270.31 107.3 270.31 107.3C273.87 108.58 281.74 108.62 285.35 108.56C290.84 122.6 293.85 137.84 293.85 153.77H293.86Z" fill="#7A9E79" stroke="#212121" stroke-width="2" stroke-miterlimit="10"/>
<path d="M172.5 27.6599C195.27 44.5799 196.35 48.5999 196.35 48.5999C196.35 55.9599 202.92 59.9099 202.92 59.9099C215.28 59.3799 224.75 63.5899 224.75 63.5899C241.32 72.5299 239.21 89.8899 239.21 89.8899C239.21 89.8899 241.84 93.5699 248.68 94.6199C255.52 95.6799 254.2 81.2099 254.2 81.2099C262.63 85.7599 275.39 92.4799 278.66 94.1999" fill="#7A9E79"/>
<path d="M172.5 27.6599C195.27 44.5799 196.35 48.5999 196.35 48.5999C196.35 55.9599 202.92 59.9099 202.92 59.9099C215.28 59.3799 224.75 63.5899 224.75 63.5899C241.32 72.5299 239.21 89.8899 239.21 89.8899C239.21 89.8899 241.84 93.5699 248.68 94.6199C255.52 95.6799 254.2 81.2099 254.2 81.2099C262.63 85.7599 275.39 92.4799 278.66 94.1999" stroke="#212121" stroke-width="2" stroke-miterlimit="10"/>
<path d="M192.24 66.9399C204.91 66.9399 215.18 85.6399 215.18 108.71C215.18 131.78 204.91 150.48 192.24 150.48C179.57 150.48 169.3 131.78 169.3 108.71C169.3 85.6399 179.57 66.9399 192.24 66.9399ZM204.94 108.71C204.94 95.9399 199.25 85.5899 192.24 85.5899C187.7 85.5899 183.72 89.9299 181.47 96.4499C180.87 96.2299 180.22 96.1199 179.54 96.1199C176.37 96.1199 173.8 98.6899 173.8 101.86C173.8 105.03 176.37 107.6 179.54 107.6H179.55C179.55 107.97 179.54 108.34 179.54 108.7C179.54 121.47 185.22 131.82 192.24 131.82C199.26 131.82 204.94 121.47 204.94 108.7V108.71Z" fill="#FAFAEE"/>
<path d="M192.24 85.5898C199.25 85.5898 204.94 95.9398 204.94 108.71C204.94 121.48 199.25 131.83 192.24 131.83C185.23 131.83 179.54 121.48 179.54 108.71C179.54 108.34 179.54 107.97 179.55 107.61C182.71 107.61 185.28 105.03 185.28 101.87C185.28 99.3699 183.69 97.2498 181.47 96.4598C183.71 89.9398 187.7 85.5998 192.24 85.5998V85.5898Z" fill="#212121"/>
<path d="M181.48 96.45C183.7 97.24 185.29 99.37 185.29 101.86C185.29 105.03 182.72 107.59 179.56 107.6C179.67 103.52 180.36 99.71 181.48 96.45Z" fill="#FAFAEE"/>
<path d="M179.55 96.1199C180.23 96.1199 180.88 96.2399 181.48 96.4499C180.36 99.7099 179.67 103.52 179.56 107.6H179.55C176.38 107.6 173.81 105.03 173.81 101.86C173.81 98.6899 176.38 96.1199 179.55 96.1199Z" fill="#FAFAEE"/>
<path d="M215.19 108.71C215.19 131.78 204.92 150.48 192.25 150.48C179.58 150.48 169.31 131.78 169.31 108.71C169.31 85.6399 179.58 66.9399 192.25 66.9399C204.92 66.9399 215.19 85.6399 215.19 108.71Z" stroke="#212121" stroke-miterlimit="10"/>
<path d="M137.74 66.9399C150.41 66.9399 160.68 85.6399 160.68 108.71C160.68 131.78 150.41 150.48 137.74 150.48C125.07 150.48 114.8 131.78 114.8 108.71C114.8 85.6399 125.07 66.9399 137.74 66.9399ZM150.44 108.71C150.44 95.9399 144.75 85.5899 137.74 85.5899C133.2 85.5899 129.22 89.9299 126.97 96.4499C126.37 96.2299 125.72 96.1199 125.04 96.1199C121.87 96.1199 119.3 98.6899 119.3 101.86C119.3 105.03 121.87 107.6 125.04 107.6H125.05C125.05 107.97 125.04 108.34 125.04 108.7C125.04 121.47 130.72 131.82 137.74 131.82C144.76 131.82 150.44 121.47 150.44 108.7V108.71Z" fill="#FAFAEE"/>
<path d="M137.74 85.5898C144.75 85.5898 150.44 95.9398 150.44 108.71C150.44 121.48 144.75 131.83 137.74 131.83C130.73 131.83 125.04 121.48 125.04 108.71C125.04 108.34 125.04 107.97 125.05 107.61C128.21 107.61 130.78 105.03 130.78 101.87C130.78 99.3699 129.19 97.2498 126.97 96.4598C129.21 89.9398 133.2 85.5998 137.74 85.5998V85.5898Z" fill="#212121"/>
<path d="M126.97 96.45C129.19 97.24 130.78 99.37 130.78 101.86C130.78 105.03 128.21 107.59 125.05 107.6C125.16 103.52 125.85 99.71 126.97 96.45Z" fill="#FAFAEE"/>
<path d="M125.04 96.1199C125.72 96.1199 126.37 96.2399 126.97 96.4499C125.85 99.7099 125.16 103.52 125.05 107.6H125.04C121.87 107.6 119.3 105.03 119.3 101.86C119.3 98.6899 121.87 96.1199 125.04 96.1199Z" fill="#FAFAEE"/>
<path d="M160.68 108.71C160.68 131.78 150.41 150.48 137.74 150.48C125.07 150.48 114.8 131.78 114.8 108.71C114.8 85.6399 125.07 66.9399 137.74 66.9399C150.41 66.9399 160.68 85.6399 160.68 108.71Z" stroke="#212121" stroke-miterlimit="10"/>
<path d="M207.51 180.57C207.51 180.57 199.33 216.16 168.62 217.76C137.91 219.37 131.08 183.74 131.08 183.74C131.08 183.74 169.04 199.34 207.5 180.57H207.51ZM185.02 196.77C185.02 196.77 197.97 194.56 195.24 186.35L184.94 189.24L185.01 196.76L185.02 196.77ZM183.63 197.37L183.52 189.35C183.52 189.35 178.69 190.63 168.33 191.15L168.58 199.28C168.58 199.28 179.88 199.15 183.63 197.37ZM186.13 210.84C185.36 209.99 180.46 204.76 172.61 204.82C170.83 204.83 169.22 205.12 167.85 205.5C171.2 209.04 169.99 210.62 169.99 210.62C162.18 198.9 143.15 204.91 143.15 204.91C143.15 204.91 162.52 226.36 186.12 210.83L186.13 210.84ZM167.16 199.39L166.51 191.19C166.51 191.19 156.9 190.97 150.81 189.85L151.4 197.33C151.4 197.33 156.16 199.99 167.15 199.38L167.16 199.39ZM149.59 197.48L148.97 189.6C148.97 189.6 137.99 187.49 134.67 186.17C134.67 186.17 134.61 195.29 149.59 197.47V197.48Z" fill="#212121"/>
<path d="M195.24 186.35C197.97 194.55 185.02 196.77 185.02 196.77L184.95 189.25L195.25 186.36L195.24 186.35Z" fill="#FAFAEE"/>
<path d="M183.52 189.36L183.63 197.38C179.87 199.16 168.58 199.29 168.58 199.29L168.33 191.16C178.69 190.64 183.52 189.36 183.52 189.36Z" fill="#FAFAEE"/>
<path d="M172.599 204.82C180.449 204.76 185.349 209.99 186.119 210.84C162.519 226.37 143.149 204.92 143.149 204.92C143.149 204.92 162.169 198.91 169.989 210.63C169.989 210.63 171.199 209.05 167.849 205.51C169.219 205.13 170.819 204.84 172.609 204.83L172.599 204.82Z" fill="#FE564C"/>
<path d="M166.51 191.2L167.16 199.4C156.17 200 151.41 197.35 151.41 197.35L150.82 189.87C156.9 190.99 166.52 191.21 166.52 191.21L166.51 191.2Z" fill="#FAFAEE"/>
<path d="M148.969 189.61L149.589 197.49C134.599 195.3 134.669 186.19 134.669 186.19C137.989 187.5 148.969 189.62 148.969 189.62V189.61Z" fill="#FAFAEE"/>
<path d="M207.509 180.57C169.049 199.34 131.089 183.74 131.089 183.74C131.089 183.74 137.919 219.37 168.629 217.76C199.329 216.16 207.519 180.57 207.519 180.57H207.509Z" stroke="#212121" stroke-miterlimit="10"/>
<path d="M134.669 186.18C134.669 186.18 134.609 195.3 149.589 197.48L148.969 189.6C148.969 189.6 137.989 187.49 134.669 186.17V186.18Z" stroke="#212121" stroke-miterlimit="10"/>
<path d="M150.809 189.86L151.399 197.34C151.399 197.34 156.159 200 167.149 199.39L166.499 191.19C166.499 191.19 156.889 190.97 150.799 189.85L150.809 189.86Z" stroke="#212121" stroke-miterlimit="10"/>
<path d="M168.33 191.15L168.58 199.28C168.58 199.28 179.88 199.15 183.63 197.37L183.52 189.35C183.52 189.35 178.69 190.63 168.33 191.15Z" stroke="#212121" stroke-miterlimit="10"/>
<path d="M195.239 186.35C197.969 194.55 185.019 196.77 185.019 196.77L184.949 189.25L195.239 186.35Z" stroke="#212121" stroke-miterlimit="10"/>
<path d="M186.129 210.84C162.529 226.37 143.159 204.92 143.159 204.92C143.159 204.92 162.179 198.91 169.999 210.63C169.999 210.63 171.209 209.05 167.859 205.51C169.229 205.13 170.829 204.84 172.619 204.83C180.469 204.77 185.369 210 186.139 210.85L186.129 210.84Z" stroke="#212121" stroke-miterlimit="10"/>
</g>
<defs>
<clipPath id="clip0_114_6913">
<rect width="353.08" height="371.37" fill="white"/>
</clipPath>
</defs>
</svg>
