<svg width="176" height="215" viewBox="0 0 176 215" fill="none" xmlns="http://www.w3.org/2000/svg">
<g clip-path="url(#clip0_127_67)">
<path d="M20.3973 137.595C5.96625 135.636 7.49302 102.462 7.49302 102.462C6.0945 99.9182 4.69597 97.3686 3.29745 94.8252C1.12944 102.042 0.549266 108.096 0.408803 112.124C0.133984 119.858 -0.0125862 128.717 5.52043 136.366C14.5894 148.901 25.1608 141.027 25.1608 141.027L20.3973 137.589V137.595Z" fill="#212121" stroke="#212121" stroke-miterlimit="10"/>
<path d="M72.1676 203.22C73.9081 206.001 72.6134 208.052 72.6134 208.052C67.8987 210.114 26.0774 213.467 18.9932 209.701C14.3702 207.242 15.7809 205.587 17.3199 204.735C17.4176 204.778 17.5214 204.821 17.6313 204.857C23.6957 206.962 64.8574 206.743 72.1676 203.22Z" fill="#D8B767"/>
<path d="M44.9485 187.369C46.0356 183.389 49.3395 180.767 51.5625 179.659C53.0404 178.923 54.4817 179.465 55.4588 180.091L55.6481 185.264C55.6481 185.264 61.7857 188.081 65.1691 185.264L65.1019 180.377C67.9478 180.298 68.7722 181.74 68.7722 181.74C68.7722 181.74 70.3051 183.548 70.3723 186.882C70.4089 188.598 69.0226 190.022 67.673 190.995C73.0594 193.381 72.6014 202.982 72.6014 202.982C72.4731 203.062 72.3327 203.141 72.1678 203.22C64.8576 206.743 23.6959 206.962 17.6315 204.857C17.5216 204.82 17.4178 204.777 17.3201 204.735C11.5916 202.344 16.1231 192.018 16.1231 192.018C23.0241 181.144 36.0261 183.779 44.9485 187.369Z" fill="#D8B767"/>
<path d="M65.1019 180.378L65.1691 185.264C61.7858 188.081 55.6482 185.264 55.6482 185.264L55.4589 180.092L54.4023 151.019H64.7111L65.1019 180.378Z" fill="#212121"/>
<path d="M65.1019 180.378L64.7111 151.019H54.4023L55.4589 180.092L55.6482 185.264C55.6482 185.264 61.7858 188.081 65.1691 185.264L65.1019 180.378Z" stroke="#212121" stroke-miterlimit="10"/>
<path d="M67.673 190.996C73.0594 193.381 72.6014 202.983 72.6014 202.983C72.4731 203.062 72.3327 203.141 72.1678 203.22C64.8576 206.743 23.6959 206.962 17.6315 204.857C17.5216 204.82 17.4178 204.778 17.3201 204.735C11.5916 202.344 16.1231 192.018 16.1231 192.018C23.0241 181.144 36.0261 183.779 44.9485 187.369C50.451 189.59 54.4023 192.17 54.4023 192.17" stroke="#212121" stroke-miterlimit="10"/>
<path d="M65.1016 180.378C67.9475 180.299 68.7719 181.741 68.7719 181.741C68.7719 181.741 70.3048 183.548 70.372 186.882C70.4086 188.598 69.0223 190.022 67.6726 190.996C66.4024 191.908 65.1687 192.432 65.1687 192.432" stroke="#212121" stroke-miterlimit="10"/>
<path d="M44.9482 187.369C46.0353 183.389 49.3392 180.767 51.5622 179.659C53.0401 178.923 54.4814 179.465 55.4585 180.091" stroke="#212121" stroke-miterlimit="10"/>
<path d="M72.1676 203.22C73.9081 206.001 72.6134 208.052 72.6134 208.052C67.8987 210.114 26.0774 213.467 18.9932 209.701C14.3702 207.242 15.7809 205.587 17.3199 204.735" stroke="#212121" stroke-miterlimit="10"/>
<path d="M123.443 205.24C123.443 205.24 127.15 207.163 119.809 211.599C112.469 216.029 95.5581 214.404 95.5581 214.404C95.5581 214.404 83.9851 213.297 81.3163 209.305C79.5392 206.646 81.7438 205.429 83.4111 204.912C83.4416 205.064 83.4599 205.143 83.4599 205.143C84.9073 205.691 86.9776 206.384 89.5243 206.944C90.6907 207.2 93.5794 207.784 101.934 207.93C111.479 208.094 113.946 207.443 114.918 207.163C116.359 206.749 117.635 206.238 118.734 205.727C119.834 205.216 120.756 204.693 121.489 204.242V203.975C122.826 204.516 123.443 205.24 123.443 205.24Z" fill="#D8B767"/>
<path d="M121.488 203.975V204.243C120.756 204.693 119.833 205.216 118.734 205.727C117.635 206.238 116.358 206.75 114.917 207.163C113.946 207.443 111.479 208.094 101.933 207.93C93.579 207.784 90.6903 207.2 89.5239 206.944C86.9772 206.384 84.9069 205.691 83.4596 205.143C83.4596 205.143 83.4412 205.064 83.4107 204.912C83.2336 203.957 82.7206 200.166 84.7787 196.308C87.2826 191.635 91.8629 189.414 95.5821 188.361C99.167 188.708 104.132 188.958 108.725 188.386C110.85 188.988 113.201 189.962 115.448 191.513C116.951 192.542 118.374 193.552 119.473 195.42C121.323 198.572 121.482 202.874 121.488 203.975Z" fill="#D8B767"/>
<path d="M110.624 180.463C110.624 180.463 121.489 185.398 112.432 187.704C111.247 188.002 110.001 188.227 108.725 188.386C104.132 188.958 99.1672 188.708 95.5823 188.361C92.5471 188.069 90.5013 187.704 90.5013 187.704C90.5013 187.704 87.7836 185.495 91.4051 182.088C92.8403 180.737 94.5564 180.396 96.1076 180.475V184.37C96.1076 184.37 102.66 187.029 106.306 184.37V180.001C108.554 179.952 110.624 180.463 110.624 180.463Z" fill="#D8B767"/>
<path d="M106.306 180.001V184.37C102.66 187.029 96.1074 184.37 96.1074 184.37V154.858L106.306 153.161V180.001Z" fill="#212121"/>
<path d="M106.306 180.001V153.161L96.1074 154.858V184.37C96.1074 184.37 102.66 187.029 106.306 184.37V180.001Z" stroke="#212121" stroke-miterlimit="10"/>
<path d="M96.1076 180.475C94.5564 180.396 92.8403 180.737 91.4051 182.088C87.7836 185.495 90.5013 187.704 90.5013 187.704C90.5013 187.704 92.5471 188.069 95.5823 188.361C99.1672 188.708 104.132 188.958 108.725 188.386C110.001 188.227 111.247 188.002 112.432 187.704C121.489 185.398 110.624 180.463 110.624 180.463C110.624 180.463 108.554 179.952 106.306 180.001" stroke="#212121" stroke-miterlimit="10"/>
<path d="M108.725 188.386C110.85 188.988 113.201 189.962 115.448 191.513C116.951 192.542 118.374 193.552 119.473 195.42C121.323 198.572 121.482 202.874 121.488 203.975V204.243C120.756 204.693 119.833 205.216 118.734 205.727C117.635 206.238 116.358 206.75 114.917 207.163C113.946 207.443 111.479 208.094 101.933 207.93C93.579 207.784 90.6903 207.2 89.5239 206.944C86.9772 206.384 84.9069 205.691 83.4596 205.143C83.4596 205.143 83.4412 205.064 83.4107 204.912C83.2336 203.957 82.7206 200.166 84.7787 196.308C87.2826 191.635 91.8629 189.414 95.5821 188.361" stroke="#212121" stroke-miterlimit="10"/>
<path d="M121.489 203.975C122.826 204.516 123.443 205.24 123.443 205.24C123.443 205.24 127.15 207.163 119.809 211.599C112.469 216.029 95.5581 214.404 95.5581 214.404C95.5581 214.404 83.9851 213.297 81.3163 209.305C79.5392 206.646 81.7438 205.429 83.4111 204.912" stroke="#212121" stroke-miterlimit="10"/>
<path d="M84.4365 161.515C129.913 161.515 166.778 125.495 166.778 81.0615C166.778 36.6285 129.913 0.608398 84.4365 0.608398C38.9604 0.608398 2.09473 36.6285 2.09473 81.0615C2.09473 125.495 38.9604 161.515 84.4365 161.515Z" fill="#3F5B7A" stroke="#212121" stroke-width="2" stroke-miterlimit="10"/>
<path d="M161.343 52.2622C164.854 61.2008 166.772 70.9121 166.772 81.0615C166.772 99.9487 160.115 117.309 148.964 131.036" fill="#7A9E79"/>
<path d="M161.343 52.2622C164.854 61.2008 166.772 70.9121 166.772 81.0615C166.772 99.9487 160.115 117.309 148.964 131.036" stroke="#212121" stroke-miterlimit="10"/>
<path d="M5.52051 58.0247C14.7239 27.905 41.4851 5.18434 74.2069 1.22314L5.52051 58.0247Z" fill="#7A9E79"/>
<path d="M5.52051 58.0247C14.7239 27.905 41.4851 5.18434 74.2069 1.22314" stroke="#212121" stroke-miterlimit="10"/>
<path d="M89.1934 0.736328C118.611 2.37314 143.901 19.1063 157.067 43.123L89.1934 0.736328Z" fill="#7A9E79"/>
<path d="M89.1934 0.736328C118.611 2.37314 143.901 19.1063 157.067 43.123" stroke="#212121" stroke-miterlimit="10"/>
<path d="M75.459 161.046C78.4087 161.363 81.4012 161.521 84.4364 161.521C97.9697 161.521 110.74 158.332 122.007 152.68" fill="#7A9E79"/>
<path d="M75.459 161.046C78.4087 161.363 81.4012 161.521 84.4364 161.521C97.9697 161.521 110.74 158.332 122.007 152.68" stroke="#212121" stroke-miterlimit="10"/>
<path d="M79.2335 10.7093C78.7449 12.267 73.4806 15.8692 73.4806 15.8692C73.4806 15.8692 73.8898 20.944 70.3599 21.7654C66.8239 22.5868 67.6483 17.4269 67.6483 17.4269C67.6483 17.4269 67.8926 14.6462 63.868 15.133C59.8374 15.6258 59.5931 20.8649 59.5931 20.8649C59.5931 20.8649 55.6479 22.5868 54.4998 24.3879C53.3455 26.189 54.6647 34.2149 54.6647 34.2149C54.4204 43.7984 43.9834 45.1918 43.9834 45.1918C43.9834 45.1918 41.1863 46.6644 39.7084 49.2869C38.2305 51.9095 39.1344 56.826 39.1344 56.826C38.4748 64.5232 34.6151 60.5924 34.6151 60.5924C33.5464 51.0089 24.9171 54.3677 24.9171 54.3677C24.9171 54.3677 18.755 57.8908 17.6008 65.5881C16.4527 73.2853 21.8758 70.5837 21.8758 70.5837C21.8758 70.5837 25.1675 66.9024 27.134 67.6386C29.1065 68.3749 26.4744 75.7436 26.4744 75.7436C32.4776 75.7436 29.8211 79.3762 29.8211 79.3762C27.9034 85.8687 35.7633 85.8687 35.7633 85.8687C40.1726 83.1914 45.9254 82.0474 45.9254 82.0474C45.9254 82.0474 55.3181 85.102 56.0876 89.6899C56.851 94.2718 64.1368 93.6998 73.7249 101.537C83.313 109.368 72.0027 123.692 72.0027 123.692C72.0027 123.692 66.4452 128.274 64.7169 132.478C62.9886 136.677 58.5854 139.165 58.5854 139.165C56.4724 141.648 58.5854 151.578 58.5854 151.578C44.7773 151.962 44.7773 128.085 44.7773 128.085C44.7773 128.085 45.7361 120.637 37.1068 114.522C28.4775 108.413 30.0104 100.77 30.0104 100.77C36.5266 88.546 31.3539 88.546 31.3539 88.546C24.0682 88.546 22.9201 83.885 22.9201 83.885C19.0848 75.9748 17.9367 76.6989 14.6755 76.6989C11.4143 76.6989 9.50281 74.2163 7.38976 63.5192C6.9073 61.0549 6.25384 59.2903 5.5332 58.0368C14.7244 27.9049 41.4856 5.18434 74.2073 1.22314C79.4045 4.11951 79.6182 9.51063 79.2335 10.7093Z" fill="#7A9E79" stroke="#212121" stroke-miterlimit="10"/>
<path d="M32.6116 66.5492C33.0085 67.4011 33.7963 68.758 35.2865 69.8167C38.8835 72.3784 43.2501 70.8816 43.7448 70.7051C43.3356 69.9019 42.7188 68.9953 41.7966 68.1982C38.2667 65.1619 33.2895 66.3728 32.6055 66.5492H32.6116Z" fill="#7A9E79" stroke="#212121" stroke-miterlimit="10"/>
<path d="M46.7128 72.1294C46.7128 72.1294 51.342 71.0037 52.9542 72.5067C54.5665 74.0096 51.7145 76.5287 51.7145 76.5287C51.7145 76.5287 46.493 77.5996 46.7128 72.1294Z" fill="#7A9E79" stroke="#212121" stroke-miterlimit="10"/>
<path d="M122.007 152.673C110.74 158.326 97.9697 161.515 84.4364 161.515C81.4012 161.515 78.4087 161.356 75.459 161.04C79.9843 159.939 84.1799 158.868 85.1998 158.448C87.6243 157.45 89.9694 158.448 89.9694 158.448C89.9694 158.448 90.6351 159.561 95.3192 157.334C100.003 155.113 103.35 155.667 103.35 155.667C103.35 155.667 107.918 156.446 113.824 153.227C118.044 150.927 120.786 151.913 122.007 152.667V152.673Z" fill="#7A9E79" stroke="#212121" stroke-miterlimit="10"/>
<path d="M166.778 81.0616C166.778 99.9488 160.122 117.309 148.97 131.036C148.317 110.901 154.259 100.88 154.259 100.88C156.543 82.4063 151.847 85.8868 151.847 85.8868C150.283 87.0855 145.226 87.0855 145.226 87.0855C134.991 85.6495 135.956 68.8555 135.956 68.8555C135.956 68.8555 136.2 64.0546 139.449 59.1381C142.698 54.2215 139.565 51.1 139.565 51.1C139.932 47.8629 144.023 48.4592 144.023 48.4592C149.923 47.7412 151.724 51.459 151.724 51.459C154.002 52.2744 159.028 52.2987 161.343 52.2622C164.855 61.2008 166.772 70.9121 166.772 81.0616H166.778Z" fill="#7A9E79" stroke="#212121" stroke-miterlimit="10"/>
<path d="M89.1934 0.736328C103.753 11.5125 104.443 14.0742 104.443 14.0742C104.443 18.7656 108.644 21.2786 108.644 21.2786C116.547 20.9439 122.599 23.6212 122.599 23.6212C133.189 29.3166 131.845 40.3727 131.845 40.3727C131.845 40.3727 133.525 42.7153 137.897 43.3846C142.27 44.06 141.427 34.8416 141.427 34.8416C146.814 37.744 154.973 42.0216 157.067 43.1169" fill="#7A9E79"/>
<path d="M89.1934 0.736328C103.753 11.5125 104.443 14.0742 104.443 14.0742C104.443 18.7656 108.644 21.2786 108.644 21.2786C116.547 20.9439 122.599 23.6212 122.599 23.6212C133.189 29.3166 131.845 40.3727 131.845 40.3727C131.845 40.3727 133.525 42.7153 137.897 43.3846C142.27 44.06 141.427 34.8416 141.427 34.8416C146.814 37.744 154.973 42.0216 157.067 43.1169" stroke="#212121" stroke-miterlimit="10"/>
<path d="M50.4022 62.01C54.8481 62.01 58.4513 55.4749 58.4513 47.4125C58.4513 39.3502 54.8481 32.8151 50.4022 32.8151C45.9562 32.8151 42.353 39.3502 42.353 47.4125C42.353 55.4749 45.9562 62.01 50.4022 62.01ZM54.8115 25.0205C62.8423 25.0205 69.3524 36.8311 69.3524 51.3981C69.3524 65.9651 62.8423 77.7756 54.8115 77.7756C46.7807 77.7756 40.2705 65.9651 40.2705 51.3981C40.2705 36.8311 46.7807 25.0205 54.8115 25.0205Z" fill="#FAFAEE"/>
<path d="M50.4017 32.8091C54.8476 32.8091 58.4508 39.3442 58.4508 47.4065C58.4508 55.4688 54.8476 62.0039 50.4017 62.0039C45.9557 62.0039 42.3525 55.4688 42.3525 47.4065C42.3525 39.3442 45.9557 32.8091 50.4017 32.8091Z" fill="#212121"/>
<path d="M54.8115 77.7756C62.8422 77.7756 69.3524 65.966 69.3524 51.3981C69.3524 36.8301 62.8422 25.0205 54.8115 25.0205C46.7807 25.0205 40.2705 36.8301 40.2705 51.3981C40.2705 65.966 46.7807 77.7756 54.8115 77.7756Z" stroke="#212121" stroke-miterlimit="10"/>
<path d="M56.2531 41.194C58.2633 41.194 59.8929 39.5703 59.8929 37.5675C59.8929 35.5646 58.2633 33.9409 56.2531 33.9409C54.2429 33.9409 52.6133 35.5646 52.6133 37.5675C52.6133 39.5703 54.2429 41.194 56.2531 41.194Z" fill="#FAFAEE"/>
<path d="M93.17 47.4065C93.17 39.3441 89.5669 32.809 85.1209 32.809C80.675 32.809 77.0718 39.3441 77.0718 47.4065C77.0718 55.4688 80.675 62.0039 85.1209 62.0039C89.5669 62.0039 93.17 55.4688 93.17 47.4065ZM89.5302 25.0205C97.561 25.0205 104.071 36.8311 104.071 51.3981C104.071 65.9651 97.561 77.7756 89.5302 77.7756C81.4994 77.7756 74.9893 65.9651 74.9893 51.3981C74.9893 36.8311 81.4994 25.0205 89.5302 25.0205Z" fill="#FAFAEE"/>
<path d="M85.1204 32.8091C89.5664 32.8091 93.1696 39.3442 93.1696 47.4065C93.1696 55.4688 89.5664 62.0039 85.1204 62.0039C80.6745 62.0039 77.0713 55.4688 77.0713 47.4065C77.0713 39.3442 80.6745 32.8091 85.1204 32.8091Z" fill="#212121"/>
<path d="M89.5302 77.7756C97.561 77.7756 104.071 65.966 104.071 51.3981C104.071 36.8301 97.561 25.0205 89.5302 25.0205C81.4995 25.0205 74.9893 36.8301 74.9893 51.3981C74.9893 65.966 81.4995 77.7756 89.5302 77.7756Z" stroke="#212121" stroke-miterlimit="10"/>
<path d="M91.5695 42.1676C93.5797 42.1676 95.2093 40.544 95.2093 38.5411C95.2093 36.5382 93.5797 34.9146 91.5695 34.9146C89.5593 34.9146 87.9297 36.5382 87.9297 38.5411C87.9297 40.544 89.5593 42.1676 91.5695 42.1676Z" fill="#FAFAEE"/>
<path d="M81.6268 109.83C82.439 117.199 79.7824 123.527 75.6785 123.978C71.7699 124.403 67.9713 119.329 66.9209 112.459C69.8645 113.694 76.1304 114.607 79.5015 102.468C80.5519 104.512 81.3092 107.044 81.6206 109.824L81.6268 109.83Z" fill="#A44F3D"/>
<path d="M79.5074 102.462V102.474C76.1362 114.613 69.8704 113.701 66.9268 112.465L79.5074 102.468V102.462Z" fill="#212121"/>
<path d="M79.5075 102.462L66.9269 112.459C66.878 112.131 66.8292 111.79 66.7925 111.449C65.9803 104.093 68.6369 97.7522 72.7408 97.308C75.2875 97.022 77.7975 99.0909 79.5075 102.456V102.462Z" fill="#212121"/>
<path d="M79.5077 102.474C80.5582 104.519 81.3154 107.05 81.6269 109.831C82.4391 117.199 79.7826 123.527 75.6786 123.978C71.7701 124.404 67.9715 119.329 66.921 112.459C66.8722 112.131 66.8233 111.79 66.7867 111.449C65.9744 104.093 68.631 97.7522 72.735 97.308C75.2816 97.022 77.7916 99.0909 79.5016 102.456V102.468L79.5077 102.474Z" stroke="#212121" stroke-miterlimit="10"/>
<path d="M42.8416 130.16C41.95 132.886 40.3743 135.861 37.5773 138.161C35.5925 139.792 33.3084 140.017 31.061 139.506C25.4975 138.246 20.1599 132.49 20.1599 132.49C20.1599 132.49 19.6835 132.058 18.9934 131.255C16.4834 128.346 11.1031 120.576 15.1582 111.011C20.3309 98.8047 25.6807 99.8391 25.6807 99.8391C25.6807 99.8391 31.0244 100.009 30.6824 105.851C30.6702 106.015 30.6641 106.173 30.658 106.325C32.2153 105.553 34.2001 105.157 36.7162 105.51C41.6568 106.204 42.2858 109.885 41.6874 113.384C43.2202 113.244 44.9546 113.463 46.8906 114.272C55.5138 117.881 49.48 126.989 49.48 126.989C49.48 126.989 46.1211 129.776 42.8416 130.16Z" fill="#FAFAEE"/>
<path d="M31.061 139.506C31.5068 144.538 29.7358 143.948 27.0792 143.948C24.105 143.948 18.8346 138.514 18.8346 138.514C18.8346 138.514 15.0543 135.551 15.7994 132.709C16.1597 131.328 17.601 131.115 18.9934 131.255C19.6835 132.058 20.1599 132.49 20.1599 132.49C20.1599 132.49 25.4975 138.246 31.061 139.506Z" fill="#FAFAEE"/>
<path d="M170.283 151.031C170.283 151.031 171.389 153.233 169.783 155.047C168.824 156.13 166.894 157.079 163.175 157.328C155.993 157.815 152.2 156.191 150.655 155.254C150.063 154.895 149.8 154.633 149.8 154.633C149.8 154.633 147.486 151.481 149.8 149.004C151.113 147.599 153.428 147.538 155.174 147.745C154.881 150.221 154.545 151.645 154.545 151.645C161.068 153.617 163.834 151.645 163.834 151.645C164.134 150.489 164.378 149.321 164.573 148.14C168.964 148.293 170.289 151.031 170.289 151.031H170.283Z" fill="#FAFAEE"/>
<path d="M154.735 105.961C157.348 105.589 167.889 128.207 164.567 148.14C164.372 149.321 164.127 150.489 163.828 151.645C163.828 151.645 161.062 153.617 154.539 151.645C154.539 151.645 154.875 150.221 155.168 147.745C155.919 141.331 156.353 127.841 149.794 113.64C149.794 113.64 151.968 106.35 154.735 105.961Z" fill="#212121"/>
<path d="M150.655 155.253C152.201 156.19 155.993 157.815 163.175 157.328C166.894 157.079 168.824 156.129 169.783 155.046C172.562 157 174.913 160.705 174.913 160.705C174.913 160.705 177.172 172.857 174.009 178.929C172.116 182.568 169.856 182.495 168.348 181.856C167.664 183.341 166.668 184.716 165.209 185.568C162.589 187.095 160.463 186.675 159.114 186.024C156.03 189.45 153.013 188.829 153.013 188.829C153.013 188.829 146.014 187.138 148.762 181.515C149.593 179.818 150.075 177.651 150.338 175.443H149.794C149.794 175.443 142.851 176.002 142.515 166.102C142.277 159.196 147.48 156.342 150.649 155.253H150.655Z" fill="#FAFAEE"/>
<path d="M155.168 147.745C155.919 141.331 156.353 127.841 149.794 113.64C149.794 113.64 151.968 106.35 154.735 105.961C157.348 105.589 167.889 128.207 164.567 148.14C164.372 149.321 164.127 150.489 163.828 151.645C163.828 151.645 161.062 153.617 154.539 151.645C154.539 151.645 154.875 150.221 155.168 147.745Z" stroke="#212121" stroke-miterlimit="10"/>
<path d="M150.655 155.253C152.2 156.19 155.993 157.815 163.175 157.328C166.894 157.079 168.824 156.129 169.783 155.046C171.389 153.233 170.283 151.03 170.283 151.03C170.283 151.03 168.958 148.292 164.567 148.14" stroke="#212121" stroke-miterlimit="10"/>
<path d="M155.169 147.745C153.422 147.538 151.107 147.599 149.794 149.004C147.48 151.481 149.794 154.633 149.794 154.633C149.794 154.633 150.057 154.895 150.649 155.254" stroke="#212121" stroke-miterlimit="10"/>
<path d="M150.655 155.253C147.486 156.343 142.282 159.196 142.521 166.103C142.856 176.003 149.8 175.443 149.8 175.443H150.344" stroke="#212121" stroke-miterlimit="10"/>
<path d="M150.418 165.038C150.418 165.038 150.955 170.337 150.338 175.443C150.076 177.651 149.593 179.818 148.763 181.515C146.014 187.138 153.013 188.829 153.013 188.829C153.013 188.829 156.03 189.45 159.114 186.024C160.378 184.625 161.642 182.556 162.723 179.489" stroke="#212121" stroke-miterlimit="10"/>
<path d="M169.832 174.877C169.832 174.877 169.832 178.625 168.348 181.856C167.664 183.341 166.669 184.716 165.209 185.568C162.589 187.095 160.464 186.675 159.114 186.024" stroke="#212121" stroke-miterlimit="10"/>
<path d="M169.783 155.046C172.562 157 174.913 160.705 174.913 160.705C174.913 160.705 177.172 172.857 174.009 178.929C172.116 182.568 169.856 182.495 168.348 181.856" stroke="#212121" stroke-miterlimit="10"/>
<path d="M30.6514 106.326C26.1138 108.589 25.1611 114.102 25.1611 114.102" stroke="#212121" stroke-miterlimit="10"/>
<path d="M41.6866 113.384C42.2851 109.885 41.6561 106.204 36.7155 105.51C34.1993 105.157 32.2145 105.553 30.6572 106.325" stroke="#212121" stroke-miterlimit="10"/>
<path d="M42.8411 130.16C46.1206 129.777 49.4795 126.99 49.4795 126.99C49.4795 126.99 55.5133 117.881 46.8901 114.272C44.9542 113.463 43.2198 113.244 41.6869 113.384C36.3737 113.877 33.5156 118.739 33.5156 118.739" stroke="#212121" stroke-miterlimit="10"/>
<path d="M30.6519 106.325H30.658C30.6641 106.173 30.6702 106.015 30.6824 105.851C31.0244 100.009 25.6807 99.8391 25.6807 99.8391C25.6807 99.8391 20.3309 98.8047 15.1582 111.011C11.1031 120.576 16.4834 128.346 18.9934 131.255C19.6835 132.058 20.1599 132.49 20.1599 132.49C20.1599 132.49 25.4975 138.246 31.061 139.506C33.3084 140.017 35.5925 139.792 37.5773 138.161C40.3743 135.861 41.95 132.886 42.8416 130.16C44.1424 126.156 43.9592 122.694 43.9592 122.694" stroke="#212121" stroke-miterlimit="10"/>
<path d="M31.061 139.506C31.5068 144.538 29.7358 143.948 27.0792 143.948C24.105 143.948 18.8346 138.514 18.8346 138.514C18.8346 138.514 15.0543 135.551 15.7994 132.709C16.1597 131.328 17.601 131.115 18.9934 131.255" stroke="#212121" stroke-miterlimit="10"/>
</g>
<defs>
<clipPath id="clip0_127_67">
<rect width="176" height="215" fill="white"/>
</clipPath>
</defs>
</svg>
