<svg width="366" height="385" viewBox="0 0 366 385" fill="none" xmlns="http://www.w3.org/2000/svg">
<g clip-path="url(#clip0_139_198)">
<path d="M41.6718 255.472C57.1504 256.66 77.2241 277.855 68.7074 293.524C62.4585 295.277 63.231 286.115 61.696 281.213C60.4581 277.281 58.7547 273.448 56.2096 270.179L53.5061 270.487C54.8826 276.815 58.7349 282.075 59.8837 288.631C60.8938 294.425 61.6663 304.468 56.3879 308.45C47.584 315.076 43.9 301.873 43.0187 301.774L40.8895 302.675C40.3844 307.37 37.4135 310.619 32.6699 310.847C21.3308 311.381 25.0643 301.388 22.6875 300.407C19.1224 298.951 19.9741 307.093 13.2895 307.717C8.45673 308.172 6.34736 307.123 5.2085 302.408C2.39601 290.761 4.14887 258.72 19.1521 255.511C21.3308 255.046 27.4806 255.878 27.956 254.144C28.976 250.49 18.9441 251.956 18.3896 251.312C18.3995 241.556 31.9866 243.547 38.7801 244.676C41.9293 245.201 51.3472 247.746 48.5446 251.995L36.7203 251.599C32.2639 258.017 38.7801 255.254 41.6718 255.472Z" fill="#FAFAEE"/>
<path d="M64.6175 263.672C72.9361 272.348 83.1364 296.406 64.162 297.842C64.1422 303.517 62.9241 308.865 57.8042 311.975C48.7131 317.492 44.8509 309.559 42.6127 309.796C41.7116 309.886 38.9684 313.114 37.067 313.956C30.0853 317.027 24.6386 313.877 20.4 308.39C12.7152 314.6 3.43595 312.797 1.21765 302.576C-1.10959 291.81 0.732396 269.882 6.96147 260.592C8.57568 258.185 14.4185 253.609 14.6166 253.104C15.0919 251.926 14.3195 250.331 14.5869 249.143C16.4091 240.991 23.5294 241.576 24.3712 239.605C25.7972 226.729 27.4213 213.784 29.6991 201.037C31.4618 191.192 33.7098 178.337 36.5223 168.918C36.8788 167.719 37.374 164.302 38.7307 164.124L53.9815 168.502C49.3172 192.936 43.7021 217.27 42.0681 242.219C46.3363 241.754 52.3871 245.389 52.9615 249.806C53.1794 251.549 52.0207 253.877 52.3079 254.491C52.6446 255.184 62.3497 261.305 64.6175 263.672ZM68.7075 293.524C77.2242 277.855 57.1506 256.66 41.672 255.471C38.7802 255.254 32.264 258.017 36.7204 251.599L48.5447 251.995C51.3473 247.746 41.9294 245.201 38.7802 244.676C31.9867 243.547 18.3996 241.556 18.3897 251.312C18.9443 251.955 28.9761 250.49 27.9561 254.144C27.4808 255.877 21.3309 255.046 19.1522 255.511C4.14898 258.72 2.39612 290.76 5.20861 302.408C6.34747 307.122 8.45684 308.172 13.2896 307.717C19.9742 307.093 19.1225 298.951 22.6876 300.407C25.0644 301.388 21.3309 311.381 32.67 310.846C37.4136 310.619 40.3845 307.37 40.8896 302.675L43.0188 301.774C43.9002 301.873 47.5841 315.075 56.388 308.449C61.6664 304.468 60.8939 294.425 59.8838 288.631C58.7351 282.074 54.8827 276.815 53.5062 270.486L56.2098 270.179C58.7549 273.448 60.4582 277.281 61.6961 281.213C63.2311 286.115 62.4586 295.277 68.7075 293.524Z" fill="#212121"/>
<path d="M359.85 9.44863C370.773 11.994 363.256 39.8152 363.019 48.0556C362.642 61.2085 366.485 72.5687 359.156 85.2165C357.255 88.4751 352.511 91.8227 351.551 93.8531C350.828 95.3883 351.125 97.2404 350.511 98.7854C348.491 103.847 345.312 105.669 340.073 106.719C339.281 123.11 337.221 143.672 321.772 152.922C309.948 160.014 297.222 158.627 284.16 156.894L282.744 155.745V142.503C313.067 150.367 328.199 136.461 325.416 105.798C321.406 106.115 316.315 103.183 315.375 99.1816C314.998 97.5375 315.612 95.0416 315.028 93.9719C314.879 93.7243 311.849 91.8821 310.582 90.2974C307.809 86.8309 306.977 81.6609 304.105 78.8382C298.975 73.8068 288.299 73.6879 282.14 70.0431C271.425 63.7143 275.019 50.8387 286.834 49.5511C294.132 48.7588 300.342 53.3742 306.67 56.187C306.066 42.5785 290.508 23.9683 300.827 11.4691C307.482 3.40701 317.137 8.6959 319.267 17.5305C319.742 19.5114 320.079 21.6507 320.316 23.8792C321.029 30.5745 320.871 38.0622 321.198 44.2226L324.495 43.252C324.347 38.4682 322.782 31.0598 322.099 23.7207C321.217 14.381 321.762 5.13035 328.437 1.48557C334.547 -1.85218 342.163 1.7827 343.866 8.31954C346.381 17.9861 342.975 34.0806 342.569 44.2226C344.034 43.8463 344.737 40.6967 345.035 39.429C347.104 30.2873 343.777 5.67509 359.869 9.42882L359.85 9.44863ZM359.592 45.5003C359.959 38.8446 365.098 18.0753 360.266 13.7273C358.235 11.8851 355.047 12.6279 353.195 14.3315C348.045 19.0459 350.927 38.6366 346.797 45.5201C346.877 46.2134 353.442 46.4016 351.937 50.2345C338.766 46.7086 326.189 44.8268 313.127 50.2048L312.156 46.7779L317.811 44.599C316.741 37.9829 318.999 6.6061 306.194 11.7068C293.301 16.857 308.324 42.4597 309.68 51.0566C312.592 69.3994 300.807 55.3353 292.35 53.8694C286.566 52.8691 277.238 54.7113 279.684 62.2584C282.476 70.8949 301.58 68.8051 308.215 78.1647C310.086 80.8091 311.126 85.3849 313.077 87.8214C317.603 93.4371 324.188 92.0703 330.566 92.1198L330.061 95.626C326.842 97.9238 317.326 93.1202 318.732 98.3794C320.197 103.866 348.917 107.353 346.797 95.5467C346.401 95.1506 339.439 97.2503 338.261 95.5269C335.389 91.2978 345.649 92.2585 347.055 91.9515C349.303 91.4562 353.888 86.722 355.205 84.7213C363.078 72.8659 358.839 58.6928 359.592 45.53V45.5003ZM339.122 43.3907C340.251 42.2022 341.242 14.0343 340.628 10.7065C339.816 6.23964 336.637 3.42681 331.923 4.13992C324.525 5.2393 325.189 16.8471 325.466 22.453C325.664 26.4444 327.021 38.5376 328.16 41.9744C329.061 44.6683 336.656 42.945 339.122 43.3907Z" fill="#212121"/>
<path d="M360.266 13.7272C365.098 18.0752 359.969 38.8445 359.592 45.5002C358.84 58.663 363.078 72.8361 355.205 84.6916C353.878 86.6922 349.293 91.4364 347.055 91.9217C345.649 92.2287 335.389 91.268 338.261 95.4971C339.439 97.2205 346.401 95.1307 346.797 95.517C348.917 107.323 320.198 103.837 318.732 98.3496C317.326 93.0904 326.843 97.894 330.061 95.5962L330.566 92.0901C324.179 92.0306 317.603 93.4073 313.077 87.7916C311.126 85.365 310.086 80.7893 308.215 78.1349C301.58 68.7753 282.477 70.8651 279.684 62.2286C277.238 54.6815 286.557 52.8393 292.35 53.8396C300.807 55.3055 312.592 69.3696 309.68 51.0268C308.324 42.4398 293.291 16.8273 306.195 11.677C318.999 6.56642 316.731 37.9531 317.811 44.5692L312.156 46.7482L313.127 50.1751C326.189 44.797 338.766 46.6788 351.937 50.2048C353.442 46.3718 346.877 46.1836 346.797 45.4903C350.927 38.6167 348.045 19.0161 353.195 14.3017C355.047 12.5981 358.235 11.8553 360.266 13.6975V13.7272Z" fill="#FAFAEE"/>
<path d="M340.628 10.7067C341.242 14.0445 340.252 42.2024 339.123 43.3909C336.657 42.9353 329.061 44.6686 328.16 41.9746C327.021 38.5477 325.654 26.4447 325.466 22.4532C325.189 16.8474 324.525 5.22965 331.923 4.14017C336.637 3.42706 339.826 6.24979 340.628 10.7067Z" fill="#FAFAEE"/>
<path d="M330.616 284.937C338.697 316.71 323.12 370.233 285.537 375.314C276.07 376.611 258.67 373.64 251.807 366.499C246.361 360.824 247.361 353.009 245.796 350.672C245.261 349.86 238.418 349.206 235.626 344.977C232.754 340.639 233.912 335.607 232.278 331.933C231.526 330.229 222.048 321.147 219.781 318.235C207.283 302.131 196.657 284.055 191.349 264.197L207.768 261.355C215.086 280.034 224.187 300.417 239.943 313.352C243.003 306.112 248.173 304.032 255.788 306.786C257.343 291.949 256.462 271.12 270.069 261.533C291.142 246.677 324.476 260.721 330.626 284.947L330.616 284.937ZM315.702 348.196C325.328 331.368 330.587 303.587 325.15 284.937C320.426 268.793 298.025 254.749 283.646 268.565C268.831 282.817 283.497 317.472 271.158 334.528C272.208 339.044 309.572 347.611 315.692 348.186L315.702 348.196ZM295.52 366.727C297.936 365.607 313.494 355.356 311.493 352.672C304.195 351.187 296.807 349.869 289.647 347.75C284.765 346.294 270.128 339.718 267.157 339.539C263.156 339.311 258.423 345.918 257.947 349.909C255.452 371.174 280.556 373.749 295.51 366.727H295.52ZM276.545 269.11C279.645 264.96 284.002 263.256 287.468 259.829C260.175 267.773 272.336 297.456 269.712 316.888C267.821 330.843 256.521 333.854 251.986 345.026C250.48 348.721 248.628 355.257 252.51 358.12C248.044 342.114 270.009 332.636 271.911 321.266C274.733 304.528 265.167 284.333 276.545 269.11ZM264.493 287.621C264.671 282.966 266.345 277.657 266.702 272.933C265.058 272.933 264.652 276.241 264.246 277.548C260.116 290.642 261.78 304.597 257.412 317.68L253.61 318.8C254.352 313.679 253.659 307.34 247.044 310.599C243.093 312.54 237.2 331.2 237.23 335.746C237.26 340.896 243.499 349.107 247.866 344.729C249.054 343.541 251.173 337.816 253.154 335.28C256.066 331.556 259.839 329.15 262.394 324.861C269.118 313.531 264.038 299.912 264.493 287.631V287.621Z" fill="#212121"/>
<path d="M325.16 284.937C330.597 303.587 325.338 331.368 315.712 348.196C309.592 347.611 272.227 339.054 271.178 334.538C283.517 317.482 268.841 282.827 283.666 268.575C298.035 254.749 320.446 268.803 325.17 284.947L325.16 284.937Z" fill="#D8B767"/>
<path d="M311.493 352.672C313.494 355.356 297.926 365.607 295.52 366.726C280.566 373.748 255.461 371.173 257.957 349.909C258.432 345.917 263.166 339.311 267.167 339.539C270.138 339.717 284.775 346.294 289.657 347.75C296.817 349.869 304.205 351.186 311.503 352.672H311.493Z" fill="#D8B767"/>
<path d="M287.469 259.829C284.003 263.256 279.645 264.95 276.545 269.109C265.167 284.332 274.723 304.537 271.911 321.265C270.009 332.636 248.044 342.114 252.511 358.119C248.629 355.257 250.471 348.72 251.986 345.026C256.531 333.844 267.831 330.843 269.712 316.888C272.337 297.456 260.176 267.772 287.469 259.829Z" fill="#D8B767"/>
<path d="M266.711 272.933C266.345 277.657 264.671 282.966 264.503 287.621C264.047 299.902 269.127 313.521 262.403 324.851C259.858 329.14 256.075 331.556 253.164 335.27C251.183 337.806 249.064 343.541 247.875 344.719C243.508 349.097 237.259 340.886 237.239 335.736C237.21 331.19 243.102 312.53 247.053 310.589C253.669 307.33 254.362 313.659 253.619 318.79L257.422 317.67C261.789 304.587 260.135 290.632 264.255 277.538C264.661 276.231 265.067 272.923 266.711 272.923V272.933Z" fill="#D8B767"/>
<path d="M171.76 376.571C172.394 378.523 171.721 380.602 167.69 382.247C134 384.673 99.7447 386.248 66.084 382.554L66.4999 378.671C67.3615 378.77 68.1042 378.82 68.4706 378.859C100.804 381.979 134.832 379.988 167.165 377.899C167.799 377.423 167.948 377.007 167.799 376.67L171.76 376.562V376.571Z" fill="#212121"/>
<path d="M171.76 376.572L167.799 376.681C167.551 376.126 166.531 375.779 165.521 375.68C160.49 375.185 150.379 377.651 144.774 377.889C124.076 378.78 102.101 378.721 81.4038 377.938C78.9379 377.839 61.5183 375.294 61.2311 376.265C60.7755 377.79 64.1327 378.394 66.4996 378.661L66.0836 382.544C63.7366 382.296 61.3895 382.019 59.0623 381.712C52.2093 375.631 58.379 374.739 59.8942 372.204C60.3398 371.461 58.8048 359.12 59.5277 354.891C61.6173 342.877 74.0259 333.696 85.979 333.528C95.9317 333.389 104.736 340.649 114.738 339.648C109.341 328.278 117.322 323.603 126.74 319.463L101.636 264.861L103.884 263.623L122.759 264.207L148.527 320.355C155.588 322.97 164.352 324.574 166.66 333.082C168.66 340.47 163.897 341.709 163.897 344.571C163.897 345.987 168.452 352.029 169.086 355.753C170.284 362.775 166.888 367.975 167.105 370.698C167.145 371.144 170.829 373.709 171.76 376.562V376.572ZM161.461 371.095C165.759 366.776 164.293 348.453 157.905 347.304C155.826 346.938 143.704 347.374 143.14 344.571C141.922 338.638 150.003 342.085 153.548 341.946C164.937 341.461 163.927 331.992 154.38 327.892C146.665 324.574 121.343 321.593 118.461 331.992C116.193 340.154 130.355 337.697 131.712 339.639C136.327 346.165 121.977 343.194 120.888 343.293C119.065 343.452 117.243 344.848 115.193 345.046C99.9325 346.572 86.2761 330.636 71.0055 344.551C65.3805 349.662 60.8647 366.677 67.1334 371.451C68.2227 372.283 79.7698 373.432 82.4733 373.581C102.428 374.729 123.839 373.62 143.685 372.461C147.685 372.214 159.084 373.442 161.441 371.095H161.461Z" fill="#212121"/>
<path d="M167.799 376.671C167.947 377.007 167.799 377.423 167.165 377.899C134.831 379.989 100.804 381.969 68.4703 378.859C68.1039 378.82 67.3612 378.76 66.4996 378.671C64.1229 378.404 60.7657 377.8 61.2312 376.274C61.5183 375.304 78.938 377.849 81.4038 377.948C102.101 378.731 124.076 378.78 144.774 377.899C150.379 377.651 160.5 375.185 165.521 375.69C166.531 375.789 167.561 376.136 167.799 376.69V376.671Z" fill="#D8B767"/>
<path d="M157.895 347.304C164.283 348.453 165.758 366.776 161.45 371.094C159.094 373.441 147.695 372.213 143.694 372.461C123.848 373.62 102.438 374.729 82.4829 373.58C79.7695 373.432 68.2323 372.283 67.143 371.451C60.8743 366.677 65.3901 349.661 71.0151 344.551C86.2758 330.635 99.9322 346.571 115.203 345.046C117.253 344.848 119.075 343.451 120.897 343.293C121.987 343.194 136.336 346.165 131.721 339.638C130.355 337.697 116.203 340.153 118.471 331.992C121.353 321.592 146.675 324.574 154.39 327.892C163.936 331.992 164.946 341.46 153.558 341.946C150.012 342.094 141.931 338.638 143.15 344.57C143.714 347.373 155.835 346.947 157.915 347.304H157.895Z" fill="#D8B767"/>
<path d="M171.106 290.374C244.849 290.374 304.63 231.744 304.63 159.42C304.63 87.0952 244.849 28.4648 171.106 28.4648C97.3627 28.4648 37.582 87.0952 37.582 159.42C37.582 231.744 97.3627 290.374 171.106 290.374Z" fill="#3F5B7A" stroke="#212121" stroke-width="2" stroke-miterlimit="10"/>
<path d="M295.816 112.542C301.51 127.091 304.62 142.899 304.62 159.419C304.62 190.162 293.825 218.419 275.742 240.763" fill="#7A9E79"/>
<path d="M295.816 112.542C301.51 127.091 304.62 142.899 304.62 159.419C304.62 190.162 293.825 218.419 275.742 240.763" stroke="#212121" stroke-width="2" stroke-miterlimit="10"/>
<path d="M43.1377 121.922C58.0518 72.8953 101.457 35.9127 154.518 29.4551L43.1377 121.922Z" fill="#7A9E79"/>
<path d="M43.1377 121.922C58.0518 72.8953 101.457 35.9127 154.518 29.4551" stroke="#212121" stroke-width="2" stroke-miterlimit="10"/>
<path d="M178.811 28.6729C226.514 31.3371 267.523 58.5739 288.874 97.6662L178.811 28.6729Z" fill="#7A9E79"/>
<path d="M178.811 28.6729C226.514 31.3371 267.523 58.5739 288.874 97.6662" stroke="#212121" stroke-width="2" stroke-miterlimit="10"/>
<path d="M156.549 289.602C161.332 290.117 166.185 290.374 171.106 290.374C193.052 290.374 213.759 285.184 232.031 275.983" fill="#7A9E79"/>
<path d="M156.549 289.602C161.332 290.117 166.185 290.374 171.106 290.374C193.052 290.374 213.759 285.184 232.031 275.983" stroke="#212121" stroke-width="2" stroke-miterlimit="10"/>
<path d="M162.668 44.9065C161.876 47.442 153.339 53.3053 153.339 53.3053C153.339 53.3053 154.003 61.5655 148.279 62.9026C142.545 64.2397 143.882 55.8408 143.882 55.8408C143.882 55.8408 144.278 51.3146 137.752 52.1069C131.216 52.9092 130.82 61.4368 130.82 61.4368C130.82 61.4368 124.422 64.2397 122.561 67.1714C120.689 70.103 122.828 83.1668 122.828 83.1668C122.432 98.7661 105.507 101.034 105.507 101.034C105.507 101.034 100.972 103.431 98.5752 107.7C96.1786 111.969 97.6443 119.971 97.6443 119.971C96.5747 132.5 90.3159 126.102 90.3159 126.102C88.5829 110.503 74.5898 115.97 74.5898 115.97C74.5898 115.97 64.5975 121.704 62.7258 134.233C60.864 146.762 69.658 142.365 69.658 142.365C69.658 142.365 74.9958 136.373 78.1846 137.571C81.3833 138.77 77.1151 150.764 77.1151 150.764C86.8499 150.764 82.542 156.677 82.542 156.677C79.4324 167.244 92.1777 167.244 92.1777 167.244C99.3278 162.887 108.657 161.025 108.657 161.025C108.657 161.025 123.888 165.996 125.135 173.464C126.373 180.922 138.188 179.991 153.736 192.748C169.284 205.495 150.943 228.81 150.943 228.81C150.943 228.81 141.931 236.268 139.128 243.111C136.326 249.945 129.186 253.996 129.186 253.996C125.759 258.037 129.186 274.201 129.186 274.201C106.795 274.825 106.795 235.96 106.795 235.96C106.795 235.96 108.35 223.838 94.3564 213.884C80.3633 203.94 82.849 191.5 82.849 191.5C93.4156 171.602 85.0277 171.602 85.0277 171.602C73.2132 171.602 71.3514 164.016 71.3514 164.016C65.1323 151.14 63.2705 152.319 57.9822 152.319C52.6939 152.319 49.5943 148.278 46.1678 130.866C45.3854 126.855 44.3258 123.982 43.1572 121.942C58.0713 72.9159 101.477 35.9332 154.538 29.4756C162.965 34.19 163.312 42.9652 162.688 44.9164L162.668 44.9065Z" fill="#7A9E79" stroke="#212121" stroke-width="2" stroke-miterlimit="10"/>
<path d="M87.0675 135.797C87.7112 137.184 88.9887 139.393 91.4051 141.116C97.238 145.286 104.319 142.849 105.121 142.562C104.457 141.255 103.457 139.779 101.962 138.482C96.2378 133.539 88.1668 135.51 87.0576 135.797H87.0675Z" fill="#7A9E79" stroke="#212121" stroke-width="2" stroke-miterlimit="10"/>
<path d="M109.935 144.87C109.935 144.87 117.441 143.038 120.056 145.484C122.67 147.93 118.045 152.031 118.045 152.031C118.045 152.031 109.578 153.774 109.935 144.87Z" fill="#7A9E79" stroke="#212121" stroke-width="2" stroke-miterlimit="10"/>
<path d="M232.031 275.974C213.759 285.175 193.052 290.364 171.106 290.364C166.185 290.364 161.332 290.107 156.549 289.592C163.887 287.799 170.691 286.056 172.344 285.373C176.276 283.748 180.079 285.373 180.079 285.373C180.079 285.373 181.158 287.185 188.754 283.56C196.35 279.945 201.776 280.846 201.776 280.846C201.776 280.846 209.184 282.114 218.76 276.875C225.603 273.131 230.05 274.735 232.031 275.964V275.974Z" fill="#7A9E79" stroke="#212121" stroke-width="2" stroke-miterlimit="10"/>
<path d="M304.63 159.409C304.63 190.152 293.835 218.409 275.752 240.753C274.693 207.98 284.328 191.668 284.328 191.668C288.032 161.598 280.417 167.264 280.417 167.264C277.881 169.215 269.682 169.215 269.682 169.215C253.084 166.877 254.649 139.541 254.649 139.541C254.649 139.541 255.045 131.727 260.313 123.724C265.582 115.722 260.501 110.641 260.501 110.641C261.096 105.372 267.731 106.342 267.731 106.342C277.297 105.174 280.219 111.225 280.219 111.225C283.912 112.552 292.063 112.592 295.816 112.532C301.51 127.082 304.62 142.889 304.62 159.409H304.63Z" fill="#7A9E79" stroke="#212121" stroke-width="2" stroke-miterlimit="10"/>
<path d="M178.811 28.6729C202.42 46.2134 203.539 50.3831 203.539 50.3831C203.539 58.0193 210.352 62.1098 210.352 62.1098C223.167 61.565 232.981 65.9229 232.981 65.9229C250.153 75.1934 247.974 93.1895 247.974 93.1895C247.974 93.1895 250.697 97.0026 257.788 98.0921C264.879 99.1915 263.512 84.1865 263.512 84.1865C272.247 88.9108 285.477 95.8735 288.874 97.6563" fill="#7A9E79"/>
<path d="M178.811 28.6729C202.42 46.2134 203.539 50.3831 203.539 50.3831C203.539 58.0193 210.352 62.1098 210.352 62.1098C223.167 61.565 232.981 65.9229 232.981 65.9229C250.153 75.1934 247.974 93.1895 247.974 93.1895C247.974 93.1895 250.697 97.0026 257.788 98.0921C264.879 99.1915 263.512 84.1865 263.512 84.1865C272.247 88.9108 285.477 95.8735 288.874 97.6563" stroke="#212121" stroke-width="2" stroke-miterlimit="10"/>
<path d="M215.106 187.201C215.106 187.201 206.619 224.095 174.79 225.759C142.962 227.423 135.881 190.489 135.881 190.489C135.881 190.489 175.226 206.663 215.106 187.201ZM191.784 203.989C191.784 203.989 205.203 201.691 202.38 193.193L191.705 196.194L191.784 203.999V203.989ZM190.348 204.623L190.229 196.313C190.229 196.313 185.218 197.63 174.483 198.175L174.741 206.604C174.741 206.604 186.456 206.475 190.348 204.623ZM192.943 218.588C192.141 217.706 187.06 212.279 178.93 212.348C177.078 212.368 175.414 212.665 173.998 213.051C177.474 216.726 176.226 218.36 176.226 218.36C168.125 206.217 148.408 212.447 148.408 212.447C148.408 212.447 168.492 234.682 192.953 218.588H192.943ZM173.275 206.713L172.602 198.215C172.602 198.215 162.639 197.987 156.331 196.828L156.945 204.583C156.945 204.583 161.877 207.337 173.275 206.713ZM155.063 204.732L154.42 196.561C154.42 196.561 143.031 194.372 139.595 193.005C139.595 193.005 139.525 202.454 155.063 204.722V204.732Z" fill="#212121"/>
<path d="M202.381 193.193C205.213 201.701 191.784 203.989 191.784 203.989L191.705 196.185L202.381 193.184V193.193Z" fill="#FAFAEE"/>
<path d="M190.239 196.313L190.358 204.623C186.466 206.475 174.751 206.604 174.751 206.604L174.493 198.175C185.228 197.631 190.239 196.313 190.239 196.313Z" fill="#FAFAEE"/>
<path d="M178.92 212.348C187.06 212.279 192.141 217.707 192.933 218.588C168.472 234.693 148.389 212.447 148.389 212.447C148.389 212.447 168.106 206.218 176.207 218.36C176.207 218.36 177.454 216.716 173.978 213.052C175.395 212.655 177.058 212.358 178.91 212.348H178.92Z" fill="#FE564C"/>
<path d="M172.602 198.215L173.275 206.713C161.877 207.337 156.945 204.583 156.945 204.583L156.331 196.828C162.639 197.987 172.602 198.215 172.602 198.215Z" fill="#FAFAEE"/>
<path d="M154.42 196.57L155.063 204.741C139.525 202.473 139.595 193.024 139.595 193.024C143.041 194.381 154.42 196.58 154.42 196.58V196.57Z" fill="#FAFAEE"/>
<path d="M215.106 187.201C175.236 206.663 135.881 190.489 135.881 190.489C135.881 190.489 142.962 227.432 174.79 225.759C206.619 224.095 215.106 187.201 215.106 187.201Z" stroke="#212121" stroke-miterlimit="10"/>
<path d="M139.595 193.015C139.595 193.015 139.525 202.464 155.063 204.732L154.42 196.561C154.42 196.561 143.031 194.372 139.595 193.005V193.015Z" stroke="#212121" stroke-miterlimit="10"/>
<path d="M156.331 196.828L156.945 204.583C156.945 204.583 161.877 207.337 173.275 206.713L172.602 198.215C172.602 198.215 162.639 197.987 156.331 196.828Z" stroke="#212121" stroke-miterlimit="10"/>
<path d="M174.483 198.175L174.741 206.604C174.741 206.604 186.456 206.475 190.348 204.623L190.229 196.313C190.229 196.313 185.218 197.631 174.483 198.175Z" stroke="#212121" stroke-miterlimit="10"/>
<path d="M202.381 193.193C205.213 201.701 191.784 203.989 191.784 203.989L191.705 196.185L202.381 193.184V193.193Z" stroke="#212121" stroke-miterlimit="10"/>
<path d="M192.943 218.588C168.482 234.693 148.398 212.447 148.398 212.447C148.398 212.447 168.116 206.218 176.216 218.36C176.216 218.36 177.464 216.716 173.988 213.052C175.404 212.655 177.068 212.358 178.92 212.348C187.06 212.279 192.141 217.707 192.933 218.588H192.943Z" stroke="#212121" stroke-miterlimit="10"/>
<path d="M142.982 155.626C156.004 155.626 166.561 136.403 166.561 112.691C166.561 88.9786 156.004 69.7559 142.982 69.7559C129.959 69.7559 119.402 88.9786 119.402 112.691C119.402 136.403 129.959 155.626 142.982 155.626Z" fill="#FAFAEE"/>
<path d="M142.982 155.626C156.004 155.626 166.561 136.403 166.561 112.691C166.561 88.9786 156.004 69.7559 142.982 69.7559C129.959 69.7559 119.402 88.9786 119.402 112.691C119.402 136.403 129.959 155.626 142.982 155.626Z" stroke="#212121" stroke-miterlimit="10"/>
<path d="M199.281 155.626C212.303 155.626 222.86 136.403 222.86 112.691C222.86 88.9786 212.303 69.7559 199.281 69.7559C186.258 69.7559 175.701 88.9786 175.701 112.691C175.701 136.403 186.258 155.626 199.281 155.626Z" fill="#FAFAEE"/>
<path d="M199.281 155.626C212.303 155.626 222.86 136.403 222.86 112.691C222.86 88.9786 212.303 69.7559 199.281 69.7559C186.258 69.7559 175.701 88.9786 175.701 112.691C175.701 136.403 186.258 155.626 199.281 155.626Z" stroke="#212121" stroke-miterlimit="10"/>
<path d="M210.525 107.044L208.565 111.305H180.781L182.315 107.044H210.525ZM206.861 115.566L204.9 119.828H180.781L182.315 115.566H206.861ZM215.554 95.538L213.508 99.9698C212.599 99.146 211.641 98.4357 210.632 97.8391C209.623 97.2425 208.565 96.7809 207.457 96.4542C206.349 96.1275 205.185 95.9641 203.963 95.9641C201.548 95.9641 199.375 96.6317 197.443 97.967C195.511 99.3022 193.984 101.27 192.862 103.869C191.74 106.468 191.179 109.657 191.179 113.436C191.179 117.214 191.74 120.403 192.862 123.002C193.984 125.602 195.511 127.569 197.443 128.904C199.375 130.24 201.548 130.907 203.963 130.907C205.213 130.907 206.392 130.744 207.5 130.417C208.622 130.091 209.666 129.643 210.632 129.075C211.612 128.507 212.514 127.868 213.338 127.157L215.469 131.589C213.977 132.995 212.23 134.061 210.227 134.785C208.224 135.495 206.136 135.85 203.963 135.85C200.469 135.85 197.372 134.941 194.673 133.123C191.989 131.305 189.879 128.72 188.345 125.368C186.825 122.015 186.065 118.038 186.065 113.436C186.065 108.833 186.825 104.856 188.345 101.504C189.879 98.1516 191.989 95.5664 194.673 93.7482C197.372 91.93 200.469 91.021 203.963 91.021C206.222 91.021 208.331 91.4116 210.291 92.1928C212.266 92.9741 214.02 94.0891 215.554 95.538Z" fill="#7A9E79"/>
<path d="M210.525 107.044L210.98 107.253L211.306 106.544H210.525V107.044ZM208.565 111.305V111.805H208.886L209.019 111.514L208.565 111.305ZM180.781 111.305L180.311 111.136L180.07 111.805H180.781V111.305ZM182.315 107.044V106.544H181.964L181.845 106.874L182.315 107.044ZM206.861 115.566L207.315 115.775L207.641 115.066H206.861V115.566ZM204.9 119.828V120.328H205.221L205.355 120.037L204.9 119.828ZM180.781 119.828L180.311 119.658L180.07 120.328H180.781V119.828ZM182.315 115.566V115.066H181.964L181.845 115.397L182.315 115.566ZM215.554 95.538L216.008 95.7475L216.158 95.4212L215.897 95.1745L215.554 95.538ZM213.508 99.9698L213.173 100.34L213.677 100.797L213.962 100.179L213.508 99.9698ZM210.632 97.8391L210.377 98.2695H210.377L210.632 97.8391ZM197.443 97.967L197.727 98.3783L197.443 97.967ZM192.862 103.869L193.321 104.067L192.862 103.869ZM192.862 123.002L193.321 122.804L192.862 123.002ZM197.443 128.904L197.727 128.493L197.443 128.904ZM207.5 130.417L207.36 129.937L207.358 129.938L207.5 130.417ZM210.632 129.075L210.381 128.642L210.379 128.644L210.632 129.075ZM213.338 127.157L213.789 126.941L213.506 126.352L213.012 126.779L213.338 127.157ZM215.469 131.589L215.812 131.953L216.078 131.702L215.919 131.372L215.469 131.589ZM210.227 134.785L210.394 135.256L210.397 135.255L210.227 134.785ZM194.673 133.123L194.393 133.537L194.394 133.538L194.673 133.123ZM188.345 125.368L187.89 125.574L187.89 125.576L188.345 125.368ZM188.345 101.504L187.89 101.296L187.89 101.297L188.345 101.504ZM194.673 93.7482L194.394 93.3335L194.393 93.3342L194.673 93.7482ZM210.291 92.1928L210.106 92.6573L210.107 92.6578L210.291 92.1928ZM210.525 107.044L210.071 106.835L208.111 111.096L208.565 111.305L209.019 111.514L210.98 107.253L210.525 107.044ZM208.565 111.305V110.805H180.781V111.305V111.805H208.565V111.305ZM180.781 111.305L181.252 111.474L182.786 107.213L182.315 107.044L181.845 106.874L180.311 111.136L180.781 111.305ZM182.315 107.044V107.544H210.525V107.044V106.544H182.315V107.044ZM206.861 115.566L206.406 115.357L204.446 119.619L204.9 119.828L205.355 120.037L207.315 115.775L206.861 115.566ZM204.9 119.828V119.328H180.781V119.828V120.328H204.9V119.828ZM180.781 119.828L181.252 119.997L182.786 115.736L182.315 115.566L181.845 115.397L180.311 119.658L180.781 119.828ZM182.315 115.566V116.066H206.861V115.566V115.066H182.315V115.566ZM215.554 95.538L215.1 95.3285L213.054 99.7603L213.508 99.9698L213.962 100.179L216.008 95.7475L215.554 95.538ZM213.508 99.9698L213.844 99.5993C212.911 98.7539 211.925 98.0233 210.887 97.4088L210.632 97.8391L210.377 98.2695C211.356 98.8481 212.287 99.538 213.173 100.34L213.508 99.9698ZM210.632 97.8391L210.887 97.4088C209.843 96.7915 208.747 96.3132 207.599 95.9746L207.457 96.4542L207.316 96.9338C208.384 97.2486 209.404 97.6936 210.377 98.2695L210.632 97.8391ZM207.457 96.4542L207.599 95.9746C206.442 95.6336 205.23 95.4641 203.963 95.4641V95.9641V96.4641C205.139 96.4641 206.256 96.6214 207.316 96.9338L207.457 96.4542ZM203.963 95.9641V95.4641C201.45 95.4641 199.177 96.161 197.159 97.5557L197.443 97.967L197.727 98.3783C199.573 97.1025 201.647 96.4641 203.963 96.4641V95.9641ZM197.443 97.967L197.159 97.5557C195.135 98.9542 193.555 101.003 192.403 103.671L192.862 103.869L193.321 104.067C194.414 101.536 195.887 99.6502 197.727 98.3783L197.443 97.967ZM192.862 103.869L192.403 103.671C191.246 106.35 190.679 109.611 190.679 113.436H191.179H191.679C191.679 109.704 192.233 106.587 193.321 104.067L192.862 103.869ZM191.179 113.436H190.679C190.679 117.261 191.246 120.521 192.403 123.201L192.862 123.002L193.321 122.804C192.233 120.285 191.679 117.168 191.679 113.436H191.179ZM192.862 123.002L192.403 123.201C193.555 125.868 195.135 127.917 197.159 129.316L197.443 128.904L197.727 128.493C195.887 127.221 194.414 125.336 193.321 122.804L192.862 123.002ZM197.443 128.904L197.159 129.316C199.177 130.71 201.45 131.407 203.963 131.407V130.907V130.407C201.647 130.407 199.573 129.769 197.727 128.493L197.443 128.904ZM203.963 130.907V131.407C205.257 131.407 206.484 131.238 207.641 130.897L207.5 130.417L207.358 129.938C206.3 130.25 205.169 130.407 203.963 130.407V130.907ZM207.5 130.417L207.64 130.897C208.8 130.56 209.882 130.096 210.886 129.506L210.632 129.075L210.379 128.644C209.45 129.19 208.444 129.622 207.36 129.937L207.5 130.417ZM210.632 129.075L210.883 129.507C211.889 128.924 212.816 128.267 213.664 127.536L213.338 127.157L213.012 126.779C212.212 127.468 211.336 128.089 210.381 128.642L210.632 129.075ZM213.338 127.157L212.887 127.374L215.018 131.806L215.469 131.589L215.919 131.372L213.789 126.941L213.338 127.157ZM215.469 131.589L215.126 131.225C213.686 132.583 211.998 133.613 210.057 134.315L210.227 134.785L210.397 135.255C212.462 134.509 214.268 133.408 215.812 131.953L215.469 131.589ZM210.227 134.785L210.06 134.314C208.112 135.005 206.081 135.35 203.963 135.35V135.85V136.35C206.192 136.35 208.337 135.986 210.394 135.256L210.227 134.785ZM203.963 135.85V135.35C200.56 135.35 197.563 134.467 194.953 132.709L194.673 133.123L194.394 133.538C197.181 135.416 200.377 136.35 203.963 136.35V135.85ZM194.673 133.123L194.954 132.709C192.355 130.949 190.301 128.44 188.8 125.159L188.345 125.368L187.89 125.576C189.457 129 191.622 131.661 194.393 133.537L194.673 133.123ZM188.345 125.368L188.8 125.161C187.316 121.888 186.565 117.984 186.565 113.436H186.065H185.565C185.565 118.092 186.334 122.143 187.89 125.574L188.345 125.368ZM186.065 113.436H186.565C186.565 108.887 187.316 104.984 188.8 101.71L188.345 101.504L187.89 101.297C186.334 104.729 185.565 108.78 185.565 113.436H186.065ZM188.345 101.504L188.8 101.712C190.301 98.4313 192.355 95.9223 194.954 94.1622L194.673 93.7482L194.393 93.3342C191.622 95.2105 189.457 97.8719 187.89 101.296L188.345 101.504ZM194.673 93.7482L194.953 94.1629C197.563 92.4045 200.56 91.521 203.963 91.521V91.021V90.521C200.377 90.521 197.181 91.4556 194.394 93.3335L194.673 93.7482ZM203.963 91.021V91.521C206.163 91.521 208.209 91.9011 210.106 92.6573L210.291 92.1928L210.476 91.7284C208.453 90.922 206.28 90.521 203.963 90.521V91.021ZM210.291 92.1928L210.107 92.6578C212.023 93.4158 213.723 94.4965 215.211 95.9015L215.554 95.538L215.897 95.1745C214.317 93.6817 212.508 92.5324 210.475 91.7279L210.291 92.1928Z" fill="#212121"/>
<path d="M152.097 107.044L150.137 111.305H122.352L123.887 107.044H152.097ZM148.432 115.566L146.472 119.828H122.352L123.887 115.566H148.432ZM157.125 95.538L155.08 99.9698C154.171 99.146 153.212 98.4357 152.203 97.8391C151.195 97.2425 150.137 96.7809 149.029 96.4542C147.921 96.1275 146.756 95.9641 145.534 95.9641C143.119 95.9641 140.946 96.6317 139.014 97.967C137.083 99.3022 135.556 101.27 134.433 103.869C133.311 106.468 132.75 109.657 132.75 113.436C132.75 117.214 133.311 120.403 134.433 123.002C135.556 125.602 137.083 127.569 139.014 128.904C140.946 130.24 143.119 130.907 145.534 130.907C146.784 130.907 147.963 130.744 149.071 130.417C150.193 130.091 151.237 129.643 152.203 129.075C153.183 128.507 154.085 127.868 154.909 127.157L157.04 131.589C155.548 132.995 153.801 134.061 151.798 134.785C149.796 135.495 147.708 135.85 145.534 135.85C142.04 135.85 138.943 134.941 136.244 133.123C133.56 131.305 131.45 128.72 129.916 125.368C128.396 122.015 127.637 118.038 127.637 113.436C127.637 108.833 128.396 104.856 129.916 101.504C131.45 98.1516 133.56 95.5664 136.244 93.7482C138.943 91.93 142.04 91.021 145.534 91.021C147.793 91.021 149.902 91.4116 151.862 92.1928C153.837 92.9741 155.591 94.0891 157.125 95.538Z" fill="#7A9E79"/>
<path d="M152.097 107.044L152.551 107.253L152.877 106.544H152.097V107.044ZM150.137 111.305V111.805H150.457L150.591 111.514L150.137 111.305ZM122.352 111.305L121.882 111.136L121.641 111.805H122.352V111.305ZM123.887 107.044V106.544H123.535L123.416 106.874L123.887 107.044ZM148.432 115.566L148.886 115.775L149.212 115.066H148.432V115.566ZM146.472 119.828V120.328H146.792L146.926 120.037L146.472 119.828ZM122.352 119.828L121.882 119.658L121.641 120.328H122.352V119.828ZM123.887 115.566V115.066H123.535L123.416 115.397L123.887 115.566ZM157.125 95.538L157.579 95.7475L157.73 95.4212L157.468 95.1745L157.125 95.538ZM155.08 99.9698L154.744 100.34L155.248 100.797L155.534 100.179L155.08 99.9698ZM152.203 97.8391L151.949 98.2695H151.949L152.203 97.8391ZM139.014 97.967L139.299 98.3783L139.014 97.967ZM134.433 103.869L134.892 104.067L134.433 103.869ZM134.433 123.002L134.892 122.804L134.433 123.002ZM139.014 128.904L139.299 128.493L139.014 128.904ZM149.071 130.417L148.931 129.937L148.93 129.938L149.071 130.417ZM152.203 129.075L151.953 128.642L151.95 128.644L152.203 129.075ZM154.909 127.157L155.36 126.941L155.077 126.352L154.583 126.779L154.909 127.157ZM157.04 131.589L157.383 131.953L157.649 131.702L157.491 131.372L157.04 131.589ZM151.798 134.785L151.966 135.256L151.969 135.255L151.798 134.785ZM136.244 133.123L135.964 133.537L135.965 133.538L136.244 133.123ZM129.916 125.368L129.461 125.574L129.462 125.576L129.916 125.368ZM129.916 101.504L129.462 101.296L129.461 101.297L129.916 101.504ZM136.244 93.7482L135.965 93.3335L135.964 93.3342L136.244 93.7482ZM151.862 92.1928L151.677 92.6573L151.678 92.6578L151.862 92.1928ZM152.097 107.044L151.643 106.835L149.682 111.096L150.137 111.305L150.591 111.514L152.551 107.253L152.097 107.044ZM150.137 111.305V110.805H122.352V111.305V111.805H150.137V111.305ZM122.352 111.305L122.823 111.474L124.357 107.213L123.887 107.044L123.416 106.874L121.882 111.136L122.352 111.305ZM123.887 107.044V107.544H152.097V107.044V106.544H123.887V107.044ZM148.432 115.566L147.978 115.357L146.018 119.619L146.472 119.828L146.926 120.037L148.886 115.775L148.432 115.566ZM146.472 119.828V119.328H122.352V119.828V120.328H146.472V119.828ZM122.352 119.828L122.823 119.997L124.357 115.736L123.887 115.566L123.416 115.397L121.882 119.658L122.352 119.828ZM123.887 115.566V116.066H148.432V115.566V115.066H123.887V115.566ZM157.125 95.538L156.671 95.3285L154.626 99.7603L155.08 99.9698L155.534 100.179L157.579 95.7475L157.125 95.538ZM155.08 99.9698L155.415 99.5993C154.483 98.7539 153.497 98.0233 152.458 97.4088L152.203 97.8391L151.949 98.2695C152.927 98.8481 153.859 99.538 154.744 100.34L155.08 99.9698ZM152.203 97.8391L152.458 97.4088C151.414 96.7915 150.318 96.3132 149.17 95.9746L149.029 96.4542L148.887 96.9338C149.955 97.2486 150.975 97.6936 151.949 98.2695L152.203 97.8391ZM149.029 96.4542L149.17 95.9746C148.014 95.6336 146.801 95.4641 145.534 95.4641V95.9641V96.4641C146.711 96.4641 147.828 96.6214 148.887 96.9338L149.029 96.4542ZM145.534 95.9641V95.4641C143.021 95.4641 140.748 96.161 138.73 97.5557L139.014 97.967L139.299 98.3783C141.144 97.1025 143.218 96.4641 145.534 96.4641V95.9641ZM139.014 97.967L138.73 97.5557C136.707 98.9542 135.126 101.003 133.974 103.671L134.433 103.869L134.892 104.067C135.985 101.536 137.458 99.6502 139.299 98.3783L139.014 97.967ZM134.433 103.869L133.974 103.671C132.818 106.35 132.25 109.611 132.25 113.436H132.75H133.25C133.25 109.704 133.805 106.587 134.892 104.067L134.433 103.869ZM132.75 113.436H132.25C132.25 117.261 132.818 120.521 133.974 123.201L134.433 123.002L134.892 122.804C133.805 120.285 133.25 117.168 133.25 113.436H132.75ZM134.433 123.002L133.974 123.201C135.126 125.868 136.707 127.917 138.73 129.316L139.014 128.904L139.299 128.493C137.458 127.221 135.985 125.336 134.892 122.804L134.433 123.002ZM139.014 128.904L138.73 129.316C140.748 130.71 143.021 131.407 145.534 131.407V130.907V130.407C143.218 130.407 141.144 129.769 139.299 128.493L139.014 128.904ZM145.534 130.907V131.407C146.828 131.407 148.055 131.238 149.213 130.897L149.071 130.417L148.93 129.938C147.871 130.25 146.74 130.407 145.534 130.407V130.907ZM149.071 130.417L149.211 130.897C150.371 130.56 151.454 130.096 152.457 129.506L152.203 129.075L151.95 128.644C151.021 129.19 150.016 129.622 148.931 129.937L149.071 130.417ZM152.203 129.075L152.454 129.507C153.46 128.924 154.387 128.267 155.236 127.536L154.909 127.157L154.583 126.779C153.783 127.468 152.907 128.089 151.953 128.642L152.203 129.075ZM154.909 127.157L154.459 127.374L156.589 131.806L157.04 131.589L157.491 131.372L155.36 126.941L154.909 127.157ZM157.04 131.589L156.697 131.225C155.257 132.583 153.569 133.613 151.628 134.315L151.798 134.785L151.969 135.255C154.033 134.509 155.84 133.408 157.383 131.953L157.04 131.589ZM151.798 134.785L151.631 134.314C149.683 135.005 147.652 135.35 145.534 135.35V135.85V136.35C147.763 136.35 149.908 135.986 151.966 135.256L151.798 134.785ZM145.534 135.85V135.35C142.132 135.35 139.134 134.467 136.524 132.709L136.244 133.123L135.965 133.538C138.753 135.416 141.948 136.35 145.534 136.35V135.85ZM136.244 133.123L136.525 132.709C133.926 130.949 131.872 128.44 130.371 125.159L129.916 125.368L129.462 125.576C131.029 129 133.194 131.661 135.964 133.537L136.244 133.123ZM129.916 125.368L130.372 125.161C128.888 121.888 128.137 117.984 128.137 113.436H127.637H127.137C127.137 118.092 127.905 122.143 129.461 125.574L129.916 125.368ZM127.637 113.436H128.137C128.137 108.887 128.888 104.984 130.372 101.71L129.916 101.504L129.461 101.297C127.905 104.729 127.137 108.78 127.137 113.436H127.637ZM129.916 101.504L130.371 101.712C131.872 98.4313 133.926 95.9223 136.525 94.1622L136.244 93.7482L135.964 93.3342C133.194 95.2105 131.029 97.8719 129.462 101.296L129.916 101.504ZM136.244 93.7482L136.524 94.1629C139.134 92.4045 142.132 91.521 145.534 91.521V91.021V90.521C141.948 90.521 138.753 91.4556 135.965 93.3335L136.244 93.7482ZM145.534 91.021V91.521C147.734 91.521 149.78 91.9011 151.677 92.6573L151.862 92.1928L152.048 91.7284C150.024 90.922 147.852 90.521 145.534 90.521V91.021ZM151.862 92.1928L151.678 92.6578C153.594 93.4158 155.294 94.4965 156.782 95.9015L157.125 95.538L157.468 95.1745C155.888 93.6817 154.079 92.5324 152.046 91.7279L151.862 92.1928Z" fill="#212121"/>
</g>
<defs>
<clipPath id="clip0_139_198">
<rect width="366" height="385" fill="white"/>
</clipPath>
</defs>
</svg>
