<svg width="185" height="194" viewBox="0 0 185 194" fill="none" xmlns="http://www.w3.org/2000/svg">
<g clip-path="url(#clip0_138_515)">
<path d="M89.68 189.634C89.3507 190.644 89.7006 191.72 91.7949 192.57C109.26 193.831 127.002 194.641 144.446 192.75L144.23 190.741C143.844 190.777 143.52 190.802 143.355 190.818C126.554 192.432 108.879 191.402 92.0728 190.321C91.7486 190.075 91.6663 189.86 91.7435 189.685L89.6852 189.629L89.68 189.634Z" fill="#212121"/>
<path d="M89.6797 189.634L91.738 189.69C91.8666 189.403 92.3966 189.224 92.9267 189.173C95.5304 188.917 100.789 190.198 103.702 190.316C114.456 190.777 125.875 190.746 136.635 190.351C137.911 190.3 146.962 188.983 147.106 189.485C147.353 190.31 145.46 190.618 144.219 190.741L144.436 192.75C145.701 192.617 146.972 192.473 148.233 192.304C151.794 189.152 148.588 188.696 147.801 187.379C147.569 186.995 148.367 180.609 147.991 178.426C146.906 172.21 140.458 167.46 134.247 167.367C129.076 167.296 124.501 171.057 119.304 170.539C122.108 164.656 117.961 162.227 113.077 160.085C113.196 150.456 113.314 140.827 113.443 131.197H102.112C101.993 140.98 101.875 150.763 101.757 160.541C98.0776 161.899 93.5339 162.724 92.3349 167.126C91.2903 170.949 93.7654 171.6 93.7654 173.076C93.7654 173.804 91.3984 176.93 91.069 178.862C90.4515 182.49 92.2114 185.176 92.0982 186.585C92.0776 186.815 90.1634 188.143 89.6797 189.619V189.634ZM95.0416 186.8C92.798 184.576 93.5699 175.09 96.8837 174.491C97.9643 174.301 104.263 174.526 104.556 173.081C105.189 170.012 100.99 171.795 99.153 171.713C93.2251 171.462 93.75 166.563 98.7105 164.441C102.719 162.724 115.877 161.192 117.374 166.568C118.552 170.78 111.204 169.515 110.489 170.519C108.101 173.896 115.553 172.369 116.113 172.415C117.06 172.492 118.007 173.22 119.072 173.322C127.002 174.111 134.108 165.866 142.038 173.056C144.95 175.7 147.297 184.514 144.05 186.985C143.473 187.41 137.479 188.004 136.079 188.086C125.705 188.671 114.58 188.102 104.263 187.502C102.184 187.384 96.2611 188.01 95.0416 186.795V186.8Z" fill="#212121"/>
<path d="M91.7437 189.69C91.6666 189.864 91.7489 190.079 92.0731 190.325C108.879 191.407 126.555 192.432 143.356 190.823C143.525 190.807 143.844 190.782 144.23 190.746C145.471 190.618 147.364 190.315 147.117 189.49C146.968 188.988 137.917 190.305 136.646 190.356C125.886 190.756 114.462 190.782 103.713 190.32C100.8 190.202 95.5413 188.916 92.9376 189.178C92.4075 189.229 91.8724 189.408 91.7489 189.695L91.7437 189.69Z" fill="#D8B767"/>
<path d="M96.8843 174.496C93.5704 175.096 92.7986 184.576 95.0421 186.805C96.2616 188.02 102.179 187.39 104.263 187.513C114.575 188.112 125.7 188.686 136.079 188.097C137.479 188.015 143.479 187.42 144.05 186.995C147.302 184.525 144.956 175.71 142.038 173.066C134.109 165.871 127.002 174.122 119.073 173.333C118.008 173.23 117.061 172.502 116.114 172.426C115.553 172.374 108.097 173.907 110.49 170.529C111.205 169.525 118.553 170.796 117.375 166.578C115.877 161.197 102.72 162.735 98.711 164.452C93.7505 166.573 93.2257 171.472 99.1536 171.723C100.991 171.805 105.184 170.022 104.557 173.092C104.263 174.537 97.9649 174.311 96.8843 174.501V174.496Z" fill="#D8B767"/>
<path d="M88.4201 189.634C88.7494 190.644 88.3995 191.72 86.3052 192.57C68.7993 193.826 51.0002 194.641 33.5098 192.729L33.7259 190.72C34.1736 190.772 34.5595 190.797 34.7499 190.818C51.5508 192.432 69.2316 191.402 86.0324 190.321C86.3618 190.075 86.4389 189.86 86.3618 189.685L88.4201 189.629V189.634Z" fill="#212121"/>
<path d="M88.42 189.634L86.3617 189.691C86.233 189.404 85.703 189.224 85.1782 189.173C82.5641 188.917 77.3103 190.193 74.3978 190.316C63.6432 190.777 52.2248 190.746 41.4702 190.341C40.1889 190.29 31.1375 188.973 30.9883 189.475C30.7516 190.265 32.496 190.577 33.7258 190.716L33.5097 192.724C32.2901 192.596 31.0706 192.453 29.8613 192.294C26.3005 189.147 29.5063 188.686 30.2936 187.374C30.5252 186.99 29.7276 180.605 30.1032 178.416C31.189 172.2 37.6366 167.45 43.8475 167.362C49.019 167.291 53.5935 171.047 58.7908 170.529C55.9863 164.646 60.1338 162.227 65.0274 160.085C65.0994 150.456 65.1766 140.822 65.2538 131.192H76.559C76.487 140.981 76.4201 150.764 76.3481 160.547C80.017 161.899 84.571 162.73 85.7699 167.132C86.8094 170.955 84.3343 171.595 84.3343 173.076C84.3343 173.809 86.7013 176.935 87.0306 178.862C87.6533 182.496 85.8883 185.186 86.0015 186.595C86.0221 186.826 87.9363 188.153 88.42 189.629V189.634ZM83.0684 186.805C85.3017 184.571 84.5401 175.09 81.2211 174.496C80.1405 174.306 73.8421 174.532 73.5488 173.082C72.9158 170.012 77.1148 171.795 78.957 171.724C84.8746 171.472 84.3497 166.573 79.3892 164.452C75.3807 162.735 62.223 161.192 60.7256 166.573C59.5472 170.796 66.9056 169.525 67.6106 170.529C70.0085 173.907 62.5523 172.369 61.9863 172.42C61.0394 172.502 60.0926 173.225 59.0275 173.328C51.0979 174.117 44.0019 165.871 36.0671 173.071C33.1443 175.716 30.7979 184.52 34.0551 186.99C34.6212 187.42 40.6211 188.015 42.0259 188.092C52.3946 188.686 63.5197 188.112 73.8318 187.513C75.9107 187.385 81.8334 188.02 83.0581 186.805H83.0684Z" fill="#212121"/>
<path d="M86.3561 189.691C86.4332 189.865 86.3561 190.08 86.0267 190.326C69.2258 191.408 51.5451 192.433 34.7442 190.824C34.5538 190.803 34.1679 190.772 33.7202 190.726C32.4852 190.588 30.7408 190.275 30.9826 189.486C31.1319 188.984 40.1832 190.301 41.4645 190.352C52.2192 190.757 63.6376 190.783 74.3922 190.326C77.3047 190.198 82.5636 188.922 85.1725 189.184C85.6974 189.235 86.2326 189.414 86.3561 189.701V189.691Z" fill="#D8B767"/>
<path d="M81.2158 174.496C84.5348 175.091 85.3016 184.571 83.0631 186.806C81.8385 188.02 75.9157 187.385 73.8368 187.513C63.5247 188.113 52.3996 188.687 42.0309 188.092C40.621 188.015 34.6262 187.421 34.0602 186.99C30.8029 184.52 33.1494 175.716 36.0722 173.072C44.0018 165.872 51.0978 174.117 59.0325 173.328C60.0977 173.225 61.0445 172.503 61.9913 172.421C62.5573 172.37 70.0135 173.907 67.6156 170.53C66.9055 169.525 59.5522 170.796 60.7306 166.574C62.228 161.193 75.3857 162.735 79.3942 164.452C84.3547 166.574 84.8796 171.473 78.962 171.724C77.1198 171.801 72.9209 170.012 73.5538 173.082C73.8471 174.532 80.1455 174.312 81.2261 174.496H81.2158Z" fill="#D8B767"/>
<path d="M91.929 136.03C130.247 136.03 161.309 105.693 161.309 68.2713C161.309 30.8492 130.247 0.512695 91.929 0.512695C53.6114 0.512695 22.5488 30.8492 22.5488 68.2713C22.5488 105.693 53.6114 136.03 91.929 136.03Z" fill="#3F5B7A" stroke="#212121" stroke-width="2" stroke-miterlimit="10"/>
<path d="M156.729 44.0156C159.688 51.5438 161.304 59.7228 161.304 68.2708C161.304 84.1778 155.695 98.7985 146.299 110.36" fill="#7A9E79"/>
<path d="M156.729 44.0156C159.688 51.5438 161.304 59.7228 161.304 68.2708C161.304 84.1778 155.695 98.7985 146.299 110.36" stroke="#212121" stroke-miterlimit="10"/>
<path d="M25.4355 48.8692C33.1902 23.502 55.7389 4.36644 83.3098 1.03027L25.4355 48.8692Z" fill="#7A9E79"/>
<path d="M25.4355 48.8692C33.1902 23.502 55.7389 4.36644 83.3098 1.03027" stroke="#212121" stroke-miterlimit="10"/>
<path d="M95.9375 0.620117C120.725 1.99866 142.033 16.0915 153.127 36.3187L95.9375 0.620117Z" fill="#7A9E79"/>
<path d="M95.9375 0.620117C120.725 1.99866 142.033 16.0915 153.127 36.3187" stroke="#212121" stroke-miterlimit="10"/>
<path d="M84.3643 135.635C86.8497 135.902 89.3711 136.035 91.9285 136.035C103.331 136.035 114.091 133.35 123.585 128.589" fill="#7A9E79"/>
<path d="M84.3643 135.635C86.8497 135.902 89.3711 136.035 91.9285 136.035C103.331 136.035 114.091 133.35 123.585 128.589" stroke="#212121" stroke-miterlimit="10"/>
<path d="M87.5452 9.01965C87.1335 10.3316 82.6979 13.3654 82.6979 13.3654C82.6979 13.3654 83.0427 17.6394 80.0684 18.3312C77.089 19.023 77.7837 14.6773 77.7837 14.6773C77.7837 14.6773 77.9895 12.3353 74.5985 12.7453C71.2023 13.1604 70.9965 17.5728 70.9965 17.5728C70.9965 17.5728 67.6723 19.023 66.7049 20.5399C65.7324 22.0569 66.8438 28.8163 66.8438 28.8163C66.638 36.8877 57.8439 38.0612 57.8439 38.0612C57.8439 38.0612 55.4872 39.3014 54.2419 41.5101C52.9966 43.7189 53.7582 47.8596 53.7582 47.8596C53.2025 54.3424 49.9503 51.0318 49.9503 51.0318C49.0498 42.9604 41.7789 45.7893 41.7789 45.7893C41.7789 45.7893 36.5868 48.7565 35.6143 55.2392C34.6469 61.7219 39.2163 59.4465 39.2163 59.4465C39.2163 59.4465 41.9899 56.3461 43.6468 56.9662C45.3089 57.5863 43.0911 63.7923 43.0911 63.7923C48.1493 63.7923 45.9109 66.8517 45.9109 66.8517C44.2952 72.3197 50.9177 72.3197 50.9177 72.3197C54.633 70.0649 59.4803 69.1014 59.4803 69.1014C59.4803 69.1014 67.3944 71.674 68.0428 75.538C68.686 79.3969 74.8249 78.9152 82.9037 85.5158C90.9826 92.1113 81.4526 104.175 81.4526 104.175C81.4526 104.175 76.77 108.034 75.3138 111.575C73.8575 115.111 70.1474 117.207 70.1474 117.207C68.367 119.298 70.1474 127.661 70.1474 127.661C58.5129 127.984 58.5129 107.875 58.5129 107.875C58.5129 107.875 59.3208 101.602 52.0498 96.4519C44.7789 91.3067 46.0705 84.8701 46.0705 84.8701C51.561 74.5746 47.2025 74.5746 47.2025 74.5746C41.0636 74.5746 40.0962 70.6491 40.0962 70.6491C36.8647 63.987 35.8973 64.5968 33.1495 64.5968C30.4016 64.5968 28.791 62.506 27.0106 53.4968C26.6041 51.4213 26.0535 49.9351 25.4463 48.8794C33.1906 23.502 55.7393 4.36644 83.3102 1.03027C87.6893 3.46962 87.8694 8.01009 87.5452 9.01965Z" fill="#7A9E79" stroke="#212121" stroke-miterlimit="10"/>
<path d="M48.262 56.0488C48.5965 56.7663 49.2603 57.9091 50.5158 58.8008C53.5467 60.9583 57.2259 59.6976 57.6427 59.549C57.2979 58.8725 56.7782 58.109 56.0012 57.4376C53.0269 54.8804 48.8332 55.9002 48.2568 56.0488H48.262Z" fill="#7A9E79" stroke="#212121" stroke-miterlimit="10"/>
<path d="M60.1434 60.7482C60.1434 60.7482 64.0439 59.8001 65.4023 61.0659C66.7608 62.3317 64.3578 64.4533 64.3578 64.4533C64.3578 64.4533 59.9581 65.3553 60.1434 60.7482Z" fill="#7A9E79" stroke="#212121" stroke-miterlimit="10"/>
<path d="M123.585 128.583C114.091 133.344 103.331 136.03 91.9285 136.03C89.3711 136.03 86.8497 135.896 84.3643 135.63C88.1773 134.702 91.7124 133.8 92.5717 133.447C94.6146 132.606 96.5906 133.447 96.5906 133.447C96.5906 133.447 97.1514 134.385 101.098 132.509C105.045 130.638 107.865 131.105 107.865 131.105C107.865 131.105 111.714 131.761 116.69 129.05C120.246 127.113 122.556 127.943 123.585 128.578V128.583Z" fill="#7A9E79" stroke="#212121" stroke-miterlimit="10"/>
<path d="M161.309 68.2709C161.309 84.178 155.701 98.7987 146.304 110.36C145.754 93.4024 150.761 84.962 150.761 84.962C152.685 69.4035 148.728 72.3348 148.728 72.3348C147.411 73.3444 143.15 73.3444 143.15 73.3444C134.526 72.1349 135.339 57.9908 135.339 57.9908C135.339 57.9908 135.545 53.9474 138.282 49.8067C141.02 45.666 138.38 43.037 138.38 43.037C138.689 40.3107 142.136 40.8129 142.136 40.8129C147.107 40.2082 148.625 43.3394 148.625 43.3394C150.544 44.0261 154.779 44.0466 156.73 44.0158C159.688 51.544 161.304 59.723 161.304 68.2709H161.309Z" fill="#7A9E79" stroke="#212121" stroke-miterlimit="10"/>
<path d="M95.9375 0.620117C108.205 9.69593 108.786 11.8534 108.786 11.8534C108.786 15.8046 112.327 17.921 112.327 17.921C118.985 17.6392 124.085 19.8941 124.085 19.8941C133.007 24.6908 131.875 34.0023 131.875 34.0023C131.875 34.0023 133.291 35.9753 136.975 36.539C140.659 37.1079 139.949 29.344 139.949 29.344C144.488 31.7884 151.362 35.3911 153.127 36.3135" fill="#7A9E79"/>
<path d="M95.9375 0.620117C108.205 9.69593 108.786 11.8534 108.786 11.8534C108.786 15.8046 112.327 17.921 112.327 17.921C118.985 17.6392 124.085 19.8941 124.085 19.8941C133.007 24.6908 131.875 34.0023 131.875 34.0023C131.875 34.0023 133.29 35.9753 136.975 36.539C140.659 37.1079 139.949 29.344 139.949 29.344C144.488 31.7884 151.362 35.3911 153.127 36.3135" stroke="#212121" stroke-miterlimit="10"/>
<path d="M77.3155 56.3924C81.0616 56.3924 84.0976 50.8885 84.0976 44.0983C84.0976 37.3081 81.0616 31.8042 77.3155 31.8042C73.5694 31.8042 70.5334 37.3081 70.5334 44.0983C70.5334 50.8885 73.5694 56.3924 77.3155 56.3924ZM77.3155 21.8828C84.0822 21.8828 89.5675 31.8298 89.5675 44.0983C89.5675 56.3668 84.0822 66.3138 77.3155 66.3138C70.5488 66.3138 65.0635 56.3668 65.0635 44.0983C65.0635 31.8298 70.5488 21.8828 77.3155 21.8828Z" fill="#FAFAEE"/>
<path d="M77.3153 31.7988C81.0614 31.7988 84.0974 37.3027 84.0974 44.0929C84.0974 50.8831 81.0614 56.3871 77.3153 56.3871C73.5692 56.3871 70.5332 50.8831 70.5332 44.0929C70.5332 37.3027 73.5692 31.7988 77.3153 31.7988Z" fill="#212121"/>
<path d="M77.3155 66.3138C84.0821 66.3138 89.5675 56.3676 89.5675 44.0983C89.5675 31.829 84.0821 21.8828 77.3155 21.8828C70.5489 21.8828 65.0635 31.829 65.0635 44.0983C65.0635 56.3676 70.5489 66.3138 77.3155 66.3138Z" stroke="#212121" stroke-miterlimit="10"/>
<path d="M70.5337 43.509C72.2275 43.509 73.6005 42.1416 73.6005 40.4547C73.6005 38.7679 72.2275 37.4004 70.5337 37.4004C68.8399 37.4004 67.4668 38.7679 67.4668 40.4547C67.4668 42.1416 68.8399 43.509 70.5337 43.509Z" fill="#FAFAEE"/>
<path d="M113.351 44.0983C113.351 37.3081 110.315 31.8042 106.568 31.8042C102.822 31.8042 99.7863 37.3081 99.7863 44.0983C99.7863 50.8885 102.822 56.3924 106.568 56.3924C110.315 56.3924 113.351 50.8885 113.351 44.0983ZM106.568 21.8828C113.335 21.8828 118.82 31.8298 118.82 44.0983C118.82 56.3668 113.335 66.3138 106.568 66.3138C99.8018 66.3138 94.3164 56.3668 94.3164 44.0983C94.3164 31.8298 99.8018 21.8828 106.568 21.8828Z" fill="#FAFAEE"/>
<path d="M113.35 44.0988C113.35 50.889 110.314 56.3929 106.568 56.3929C102.822 56.3929 99.7861 50.889 99.7861 44.0988C99.7861 37.3086 102.822 31.8047 106.568 31.8047C110.314 31.8047 113.35 37.3086 113.35 44.0988Z" fill="#212121"/>
<path d="M106.568 66.3138C113.335 66.3138 118.82 56.3676 118.82 44.0983C118.82 31.829 113.335 21.8828 106.568 21.8828C99.8018 21.8828 94.3164 31.829 94.3164 44.0983C94.3164 56.3676 99.8018 66.3138 106.568 66.3138Z" stroke="#212121" stroke-miterlimit="10"/>
<path d="M99.7866 43.509C101.48 43.509 102.853 42.1416 102.853 40.4547C102.853 38.7679 101.48 37.4004 99.7866 37.4004C98.0928 37.4004 96.7197 38.7679 96.7197 40.4547C96.7197 42.1416 98.0928 43.509 99.7866 43.509Z" fill="#FAFAEE"/>
<path d="M7.15789 142.964L7.10129 142.989C6.89032 144.957 3.94695 143.984 3.94695 143.984C3.94695 143.984 -0.468107 141.816 0.365504 128.241C0.967557 118.365 5.58844 114.009 8.06355 112.37C7.41004 111.765 6.59701 110.391 8.37744 107.978C9.27794 106.758 11.1819 106.44 13.2659 106.548C16.2247 106.696 19.5489 107.696 20.8816 108.131C21.2624 108.254 21.4837 108.336 21.4837 108.336C21.4837 108.336 27.1697 111.196 22.9553 114.553C23.9125 115.296 25.0651 116.444 26.4339 118.186C31.4252 124.546 32.7117 124.536 32.7117 124.536C32.7117 124.536 38.1302 124.279 36.3343 129.148C34.5333 134.016 28.3172 130.05 28.3172 130.05C28.3172 130.05 23.3516 122.506 21.6535 127.949C19.9605 133.391 22.6157 140.494 22.6157 140.494C22.6157 140.494 24.319 148.089 17.9125 145.967C16.7033 145.567 15.7976 144.655 15.1235 143.44C14.9743 145.306 14.1149 148.78 9.58154 145.941C8.53181 145.285 7.74451 144.235 7.16819 142.959L7.15789 142.964Z" fill="#FAFAEE"/>
<path d="M26.3672 73.9291C26.3672 73.9291 31.9298 72.2739 30.4735 77.8649C29.2694 82.5027 22.9813 101.725 20.8716 108.136C19.5388 107.701 16.2147 106.701 13.2559 106.553C14.4188 100.475 18.5097 81.9236 26.3672 73.9291Z" fill="#212121"/>
<path d="M7.10129 142.988C6.89031 144.956 3.94695 143.982 3.94695 143.982C3.94695 143.982 -0.468107 141.815 0.365504 128.239C0.967557 118.364 5.58844 114.008 8.06355 112.368C8.98978 111.753 9.61756 111.518 9.61756 111.518" stroke="#212121" stroke-miterlimit="10"/>
<path d="M15.1133 143.445C14.964 145.31 14.1047 148.785 9.57129 145.946C8.52156 145.29 7.73426 144.239 7.15794 142.963C4.44098 136.957 6.27801 125.842 6.27801 125.842" stroke="#212121" stroke-miterlimit="10"/>
<path d="M13.5847 127.343C13.5847 127.343 12.2056 138.212 15.1129 143.445C15.787 144.659 16.6927 145.571 17.9019 145.971C24.3084 148.093 22.6052 140.498 22.6052 140.498C22.6052 140.498 19.9499 133.395 21.6429 127.953C23.3359 122.51 28.3066 130.054 28.3066 130.054C28.3066 130.054 34.5227 134.026 36.3237 129.152C38.1247 124.284 32.7011 124.54 32.7011 124.54C32.7011 124.54 31.4147 124.55 26.4233 118.19C25.0545 116.448 23.9019 115.3 22.9448 114.557C20.4131 112.574 19.281 113.404 19.281 113.404" stroke="#212121" stroke-miterlimit="10"/>
<path d="M8.058 112.369C7.40449 111.764 6.59147 110.39 8.3719 107.977C9.2724 106.757 11.1763 106.439 13.2604 106.547C16.2192 106.696 19.5433 107.695 20.8761 108.13C21.2569 108.253 21.4781 108.335 21.4781 108.335C21.4781 108.335 27.1642 111.195 22.9498 114.552" stroke="#212121" stroke-miterlimit="10"/>
<path d="M13.2559 106.547C14.4188 100.469 18.5097 81.9178 26.3672 73.9233C26.3672 73.9233 31.9298 72.268 30.4735 77.859C29.2694 82.4969 22.9813 101.72 20.8716 108.131" stroke="#212121" stroke-miterlimit="10"/>
<path d="M163.527 108.52C163.527 108.52 157.841 111.38 162.056 114.736C161.099 115.48 159.946 116.627 158.582 118.37C153.586 124.73 152.304 124.719 152.304 124.719C152.304 124.719 146.881 124.463 148.682 129.332C150.483 134.2 156.699 130.234 156.699 130.234C156.699 130.234 161.67 122.69 163.363 128.132C165.056 133.575 162.406 140.678 162.406 140.678C162.406 140.678 160.697 148.272 167.109 146.151C168.318 145.751 169.219 144.839 169.893 143.629C170.042 145.495 170.901 148.964 175.435 146.125C176.484 145.469 177.272 144.424 177.848 143.143L177.91 143.168C178.116 145.136 181.059 144.162 181.059 144.162C181.059 144.162 185.474 141.995 184.64 128.419C184.038 118.544 179.417 114.188 176.942 112.548C177.596 111.944 178.409 110.57 176.628 108.156C175.728 106.937 173.824 106.619 171.74 106.727C168.781 106.875 165.457 107.875 164.124 108.31C163.743 108.433 163.522 108.515 163.522 108.515L163.527 108.52Z" fill="#FAFAEE"/>
<path d="M154.527 78.0436C155.731 82.6814 162.019 101.904 164.129 108.315C165.462 107.88 168.786 106.88 171.745 106.732C170.582 100.654 166.491 82.1024 158.634 74.1079C158.634 74.1079 153.071 72.4526 154.527 78.0436Z" fill="#212121"/>
<path d="M177.904 143.173C178.11 145.141 181.053 144.167 181.053 144.167C181.053 144.167 185.468 141.999 184.635 128.424C184.033 118.549 179.412 114.193 176.937 112.553C176.011 111.938 175.383 111.702 175.383 111.702" stroke="#212121" stroke-miterlimit="10"/>
<path d="M178.727 126.026C178.727 126.026 180.564 137.142 177.847 143.148C177.271 144.429 176.483 145.475 175.434 146.13C170.905 148.964 170.041 145.5 169.892 143.635" stroke="#212121" stroke-miterlimit="10"/>
<path d="M171.42 127.528C171.42 127.528 172.799 138.397 169.887 143.63C169.213 144.839 168.307 145.751 167.103 146.151C160.691 148.273 162.4 140.678 162.4 140.678C162.4 140.678 165.05 133.575 163.357 128.133C161.669 122.69 156.693 130.234 156.693 130.234C156.693 130.234 150.477 134.205 148.676 129.332C146.875 124.463 152.299 124.719 152.299 124.719C152.299 124.719 153.58 124.73 158.576 118.37C159.94 116.628 161.093 115.48 162.05 114.737C164.582 112.753 165.714 113.584 165.714 113.584" stroke="#212121" stroke-miterlimit="10"/>
<path d="M162.054 114.736C157.835 111.375 163.526 108.52 163.526 108.52C163.526 108.52 163.747 108.443 164.128 108.315C165.461 107.88 168.785 106.88 171.744 106.732C173.828 106.624 175.732 106.937 176.632 108.161C178.413 110.58 177.595 111.949 176.946 112.553" stroke="#212121" stroke-miterlimit="10"/>
<path d="M164.128 108.315C162.018 101.899 155.736 82.6814 154.526 78.0436C153.07 72.4526 158.633 74.1079 158.633 74.1079C166.49 82.1024 170.581 100.654 171.744 106.732" stroke="#212121" stroke-miterlimit="10"/>
<path d="M127.821 97.6664C128.202 100.818 128.84 103.801 129.874 106.153C129.874 106.153 93.6839 124.105 53.5625 106.404C53.5625 106.404 54.2675 103.206 54.5917 97.0617C54.7769 93.6025 54.8386 89.2158 54.5917 83.9322C54.4836 81.6569 54.3189 79.2073 54.0822 76.6091C54.0822 76.6091 93.4935 56.8329 127.888 77.183C127.888 77.183 127.543 80.3296 127.399 84.701C127.27 88.5137 127.286 93.2592 127.821 97.6664Z" fill="#FAFAEE"/>
<path d="M54.5917 83.9371C54.4836 81.6618 54.3189 79.2122 54.0822 76.614C54.0822 76.614 93.4935 56.8378 127.888 77.1879C127.888 77.1879 127.543 80.3345 127.399 84.7058C127.27 88.5186 127.286 93.2641 127.821 97.6713C128.202 100.823 128.84 103.806 129.874 106.158C129.874 106.158 93.6839 124.11 53.5625 106.409C53.5625 106.409 54.2675 103.211 54.5917 97.0666C54.7769 93.6074 54.8386 89.2207 54.5917 83.9371Z" stroke="#212121" stroke-miterlimit="10"/>
<path d="M112.965 82.8457C112.965 82.8457 98.3924 78.5 54.5918 83.9373" stroke="#212121" stroke-miterlimit="10"/>
<path d="M73.5693 99.4392C73.5693 99.4392 92.1455 103.119 127.821 97.666" stroke="#212121" stroke-miterlimit="10"/>
<path d="M118.527 83.2861C118.527 83.2861 121.661 83.527 127.399 84.7005" stroke="#212121" stroke-miterlimit="10"/>
<path d="M66.6534 98.8395C66.6534 98.8395 60.7049 98.8344 54.5918 97.0664" stroke="#212121" stroke-miterlimit="10"/>
<path d="M25.0186 49.4072L54.1126 76.7167" stroke="#212121" stroke-miterlimit="10"/>
<path d="M129.601 105.958L140.746 116.417" stroke="#212121" stroke-miterlimit="10"/>
<path d="M158.721 49.8789L127.82 77.1883" stroke="#212121" stroke-miterlimit="10"/>
<path d="M53.6955 106.332L38.2686 111.61" stroke="#212121" stroke-miterlimit="10"/>
</g>
<defs>
<clipPath id="clip0_138_515">
<rect width="185" height="194" fill="white"/>
</clipPath>
</defs>
</svg>
