<svg width="182" height="194" viewBox="0 0 182 194" fill="none" xmlns="http://www.w3.org/2000/svg">
<g clip-path="url(#clip0_139_258)">
<path d="M88.1567 189.707C87.833 190.7 88.1769 191.758 90.2357 192.594C107.404 193.834 124.845 194.63 141.993 192.771L141.78 190.795C141.401 190.831 141.082 190.856 140.921 190.871C124.405 192.458 107.029 191.445 90.5088 190.382C90.1902 190.14 90.1092 189.929 90.1851 189.758L88.1618 189.702L88.1567 189.707Z" fill="#212121"/>
<path d="M88.1562 189.707L90.1796 189.763C90.3061 189.48 90.8271 189.304 91.3481 189.254C93.9076 189.002 99.0773 190.261 101.94 190.377C112.512 190.831 123.737 190.801 134.314 190.413C135.568 190.362 144.466 189.067 144.608 189.561C144.85 190.372 142.989 190.675 141.77 190.796L141.982 192.771C143.227 192.64 144.476 192.499 145.715 192.332C149.216 189.234 146.064 188.785 145.291 187.49C145.063 187.112 145.847 180.835 145.478 178.688C144.41 172.577 138.072 167.906 131.967 167.815C126.883 167.745 122.386 171.443 117.277 170.934C120.034 165.15 115.957 162.762 111.157 160.656C111.273 151.188 111.389 141.721 111.516 132.254H100.377C100.261 141.872 100.145 151.491 100.028 161.104C96.4115 162.439 91.945 163.25 90.7664 167.578C89.7395 171.337 92.1726 171.977 92.1726 173.428C92.1726 174.143 89.8457 177.217 89.522 179.116C88.915 182.684 90.645 185.324 90.5337 186.709C90.5134 186.936 88.6317 188.241 88.1562 189.692V189.707ZM93.4271 186.926C91.2216 184.739 91.9804 175.413 95.238 174.824C96.3002 174.637 102.492 174.859 102.78 173.438C103.402 170.42 99.2745 172.173 97.4687 172.093C91.6415 171.846 92.1574 167.029 97.0337 164.943C100.974 163.255 113.908 161.749 115.38 167.034C116.539 171.176 109.315 169.931 108.612 170.919C106.265 174.239 113.59 172.738 114.141 172.783C115.072 172.859 116.003 173.574 117.05 173.675C124.845 174.451 131.83 166.344 139.625 173.413C142.488 176.013 144.795 184.679 141.603 187.107C141.036 187.526 135.143 188.11 133.768 188.191C123.57 188.765 112.634 188.206 102.492 187.616C100.448 187.5 94.6259 188.115 93.4271 186.921V186.926Z" fill="#212121"/>
<path d="M90.1847 189.763C90.1088 189.934 90.1897 190.146 90.5084 190.388C107.029 191.451 124.405 192.458 140.92 190.876C141.087 190.861 141.401 190.836 141.78 190.801C142.999 190.675 144.861 190.377 144.618 189.566C144.471 189.073 135.573 190.367 134.324 190.418C123.747 190.811 112.517 190.836 101.95 190.383C99.0874 190.267 93.9178 189.002 91.3582 189.259C90.8372 189.309 90.3112 189.486 90.1898 189.768L90.1847 189.763Z" fill="#D8B767"/>
<path d="M95.2385 174.823C91.9809 175.413 91.2222 184.734 93.4276 186.926C94.6265 188.12 100.444 187.5 102.492 187.621C112.629 188.21 123.565 188.775 133.768 188.195C135.144 188.115 141.042 187.53 141.604 187.112C144.8 184.684 142.494 176.017 139.626 173.418C131.831 166.344 124.845 174.456 117.05 173.68C116.003 173.579 115.072 172.863 114.142 172.788C113.59 172.737 106.261 174.244 108.613 170.924C109.316 169.936 116.539 171.186 115.381 167.039C113.909 161.749 100.975 163.26 97.0343 164.948C92.158 167.034 91.642 171.851 97.4693 172.098C99.2751 172.178 103.398 170.425 102.781 173.443C102.492 174.864 96.3008 174.642 95.2385 174.828V174.823Z" fill="#D8B767"/>
<path d="M86.9173 189.712C87.241 190.705 86.897 191.763 84.8383 192.599C67.6297 193.834 50.1328 194.635 32.9395 192.755L33.1519 190.78C33.592 190.831 33.9714 190.856 34.1585 190.876C50.6741 192.463 68.0546 191.45 84.5702 190.387C84.8939 190.145 84.9698 189.934 84.8939 189.762L86.9173 189.707V189.712Z" fill="#212121"/>
<path d="M86.9171 189.712L84.8938 189.768C84.7673 189.486 84.2463 189.309 83.7304 189.259C81.1607 189.007 75.9961 190.261 73.1331 190.382C62.5611 190.836 51.3366 190.806 40.7646 190.408C39.5051 190.357 30.6074 189.062 30.4607 189.556C30.228 190.332 31.9428 190.639 33.1518 190.775L32.9393 192.75C31.7405 192.624 30.5416 192.483 29.3529 192.327C25.8525 189.234 29.0039 188.78 29.7778 187.49C30.0054 187.112 29.2214 180.835 29.5907 178.683C30.658 172.571 36.9961 167.901 43.1016 167.815C48.1852 167.745 52.6821 171.438 57.7911 170.929C55.0342 165.145 59.1113 162.767 63.9218 160.661C63.9926 151.193 64.0685 141.721 64.1444 132.254H75.2576C75.1868 141.877 75.121 151.496 75.0502 161.114C78.6568 162.444 83.1335 163.26 84.3121 167.588C85.3339 171.347 82.9008 171.977 82.9008 173.433C82.9008 174.154 85.2276 177.227 85.5514 179.121C86.1634 182.694 84.4284 185.339 84.5397 186.724C84.5599 186.951 86.4416 188.256 86.9171 189.707V189.712ZM81.6564 186.926C83.8518 184.729 83.1031 175.408 79.8405 174.824C78.7782 174.637 72.5868 174.859 72.2984 173.433C71.6763 170.415 75.8039 172.168 77.6148 172.098C83.4319 171.851 82.916 167.034 78.0397 164.948C74.0992 163.26 61.165 161.744 59.693 167.034C58.5346 171.186 65.7681 169.936 66.4611 170.924C68.8183 174.244 61.4887 172.733 60.9323 172.783C60.0016 172.864 59.0708 173.574 58.0237 173.675C50.2288 174.451 43.2533 166.344 35.4533 173.423C32.5802 176.023 30.2735 184.679 33.4755 187.107C34.0319 187.531 39.93 188.115 41.3109 188.191C51.5035 188.775 62.4397 188.211 72.5767 187.621C74.6202 187.495 80.4424 188.12 81.6463 186.926H81.6564Z" fill="#212121"/>
<path d="M84.889 189.768C84.9648 189.939 84.889 190.151 84.5652 190.393C68.0497 191.456 50.6691 192.463 34.1536 190.881C33.9664 190.861 33.587 190.831 33.1469 190.786C31.9329 190.65 30.2181 190.342 30.4559 189.566C30.6026 189.072 39.5003 190.367 40.7598 190.418C51.3318 190.816 62.5563 190.841 73.1283 190.393C75.9913 190.267 81.161 189.012 83.7255 189.269C84.2415 189.319 84.7676 189.496 84.889 189.778V189.768Z" fill="#D8B767"/>
<path d="M79.8355 174.824C83.0982 175.408 83.8519 184.729 81.6515 186.926C80.4476 188.12 74.6254 187.495 72.5818 187.621C62.4449 188.211 51.5087 188.775 41.3161 188.191C39.9301 188.115 34.0371 187.531 33.4807 187.107C30.2787 184.679 32.5853 176.023 35.4585 173.423C43.2534 166.344 50.2289 174.451 58.0289 173.675C59.076 173.574 60.0067 172.864 60.9375 172.783C61.4939 172.733 68.8235 174.244 66.4663 170.924C65.7682 169.936 58.5398 171.186 59.6982 167.034C61.1702 161.744 74.1044 163.261 78.0449 164.948C82.9211 167.034 83.4371 171.851 77.62 172.098C75.8091 172.174 71.6814 170.415 72.3036 173.433C72.592 174.859 78.7834 174.642 79.8457 174.824H79.8355Z" fill="#D8B767"/>
<path d="M90.367 137.01C128.034 137.01 158.569 107.184 158.569 70.3917C158.569 33.5994 128.034 3.77344 90.367 3.77344C52.7001 3.77344 22.165 33.5994 22.165 70.3917C22.165 107.184 52.7001 137.01 90.367 137.01Z" fill="#3F5B7A" stroke="#212121" stroke-width="2" stroke-miterlimit="10"/>
<path d="M154.067 46.5439C156.975 53.9454 158.564 61.9868 158.564 70.3909C158.564 86.0302 153.05 100.405 143.813 111.772" fill="#7A9E79"/>
<path d="M154.067 46.5439C156.975 53.9454 158.564 61.9868 158.564 70.3909C158.564 86.0302 153.05 100.405 143.813 111.772" stroke="#212121" stroke-width="2" stroke-miterlimit="10"/>
<path d="M25.0029 51.3162C32.6259 26.3709 54.7916 7.55737 81.8944 4.27734L25.0029 51.3162Z" fill="#7A9E79"/>
<path d="M25.0029 51.3162C32.6259 26.3709 54.7916 7.55737 81.8944 4.27734" stroke="#212121" stroke-width="2" stroke-miterlimit="10"/>
<path d="M94.3076 3.87891C118.674 5.23425 139.62 19.0899 150.526 38.9767L94.3076 3.87891Z" fill="#7A9E79"/>
<path d="M94.3076 3.87891C118.674 5.23425 139.62 19.0899 150.526 38.9767" stroke="#212121" stroke-width="2" stroke-miterlimit="10"/>
<path d="M82.9316 136.616C85.3748 136.878 87.8534 137.009 90.3674 137.009C101.577 137.009 112.154 134.369 121.487 129.688" fill="#7A9E79"/>
<path d="M82.9316 136.616C85.3748 136.878 87.8534 137.009 90.3674 137.009C101.577 137.009 112.154 134.369 121.487 129.688" stroke="#212121" stroke-width="2" stroke-miterlimit="10"/>
<path d="M86.0571 12.1323C85.6524 13.4221 81.2921 16.4049 81.2921 16.4049C81.2921 16.4049 81.631 20.6069 78.7073 21.2871C75.7785 21.9673 76.4613 17.6947 76.4613 17.6947C76.4613 17.6947 76.6637 15.3921 73.3302 15.7952C69.9917 16.2033 69.7894 20.5414 69.7894 20.5414C69.7894 20.5414 66.5217 21.9673 65.5707 23.4587C64.6146 24.9501 65.7072 31.5958 65.7072 31.5958C65.5049 39.5313 56.8602 40.6851 56.8602 40.6851C56.8602 40.6851 54.5434 41.9044 53.3193 44.076C52.0952 46.2475 52.8438 50.3186 52.8438 50.3186C52.2975 56.6922 49.1006 53.4374 49.1006 53.4374C48.2154 45.5018 41.0679 48.2831 41.0679 48.2831C41.0679 48.2831 35.9641 51.2003 35.008 57.5739C34.0571 63.9476 38.5489 61.7105 38.5489 61.7105C38.5489 61.7105 41.2753 58.6622 42.9041 59.2719C44.538 59.8815 42.3578 65.9831 42.3578 65.9831C47.3302 65.9831 45.1298 68.991 45.1298 68.991C43.5415 74.367 50.0516 74.3671 50.0516 74.3671C53.7037 72.1501 58.4687 71.2029 58.4687 71.2029C58.4687 71.2029 66.2485 73.7322 66.8858 77.5312C67.5181 81.3251 73.5528 80.8515 81.4944 87.341C89.4361 93.8255 80.068 105.686 80.068 105.686C80.068 105.686 75.4648 109.48 74.0333 112.961C72.6018 116.438 68.9547 118.499 68.9547 118.499C67.2045 120.554 68.9547 128.777 68.9547 128.777C57.5178 129.095 57.5178 109.324 57.5178 109.324C57.5178 109.324 58.3119 103.157 51.1644 98.0931C44.017 93.0345 45.2866 86.7062 45.2866 86.7062C50.6839 76.584 46.3995 76.584 46.3995 76.584C40.3648 76.584 39.4139 72.7245 39.4139 72.7245C36.2372 66.1745 35.2862 66.7741 32.5851 66.7741C29.8839 66.7741 28.3006 64.7184 26.5504 55.8609C26.1508 53.8203 25.6096 52.3592 25.0127 51.3212C32.6255 26.3709 54.7913 7.55737 81.894 4.27734C86.1987 6.67564 86.3757 11.1397 86.0571 12.1323Z" fill="#A44F3D" stroke="#212121" stroke-width="2" stroke-miterlimit="10"/>
<path d="M47.4416 58.3744C47.7704 59.0798 48.4229 60.2034 49.6571 61.0801C52.6365 63.2012 56.2533 61.9618 56.663 61.8157C56.3241 61.1506 55.8132 60.3999 55.0494 59.7398C52.1256 57.2257 48.0031 58.2283 47.4365 58.3744H47.4416Z" fill="#A44F3D" stroke="#212121" stroke-width="2" stroke-miterlimit="10"/>
<path d="M59.1218 62.9895C59.1218 62.9895 62.956 62.0574 64.2915 63.3019C65.6269 64.5464 63.2646 66.6323 63.2646 66.6323C63.2646 66.6323 58.9397 67.519 59.1218 62.9895Z" fill="#A44F3D" stroke="#212121" stroke-width="2" stroke-miterlimit="10"/>
<path d="M121.487 129.683C112.154 134.364 101.577 137.004 90.3674 137.004C87.8534 137.004 85.3748 136.873 82.9316 136.611C86.6799 135.699 90.155 134.812 90.9997 134.465C93.0079 133.638 94.9503 134.465 94.9503 134.465C94.9503 134.465 95.5017 135.387 99.3814 133.543C103.261 131.704 106.033 132.162 106.033 132.162C106.033 132.162 109.817 132.807 114.708 130.142C118.204 128.237 120.475 129.053 121.487 129.678V129.683Z" fill="#7A9E79" stroke="#212121" stroke-width="2" stroke-miterlimit="10"/>
<path d="M158.569 70.3866C158.569 86.0259 153.056 100.401 143.819 111.767C143.278 95.0951 148.2 86.7968 148.2 86.7968C150.091 71.5001 146.202 74.3821 146.202 74.3821C144.907 75.3747 140.718 75.3747 140.718 75.3747C132.24 74.1856 133.04 60.2795 133.04 60.2795C133.04 60.2795 133.242 56.3042 135.933 52.2331C138.624 48.1621 136.029 45.5774 136.029 45.5774C136.333 42.8969 139.722 43.3907 139.722 43.3907C144.608 42.7961 146.1 45.8746 146.1 45.8746C147.987 46.5498 152.15 46.5699 154.067 46.5397C156.976 53.9412 158.564 61.9825 158.564 70.3866H158.569Z" fill="#7A9E79" stroke="#212121" stroke-width="2" stroke-miterlimit="10"/>
<path d="M94.3076 3.87891C106.367 12.802 106.938 14.9232 106.938 14.9232C106.938 18.8078 110.419 20.8887 110.419 20.8887C116.964 20.6116 121.977 22.8285 121.977 22.8285C130.748 27.5444 129.635 36.6993 129.635 36.6993C129.635 36.6993 131.026 38.6391 134.648 39.1933C138.27 39.7526 137.572 32.1193 137.572 32.1193C142.033 34.5227 148.791 38.0647 150.526 38.9716" fill="#7A9E79"/>
<path d="M94.3076 3.87891C106.367 12.802 106.938 14.9232 106.938 14.9232C106.938 18.8078 110.419 20.8887 110.419 20.8887C116.964 20.6116 121.977 22.8285 121.977 22.8285C130.748 27.5444 129.635 36.6993 129.635 36.6993C129.635 36.6993 131.026 38.6391 134.648 39.1933C138.27 39.7526 137.572 32.1193 137.572 32.1193C142.033 34.5227 148.791 38.0647 150.526 38.9716" stroke="#212121" stroke-width="2" stroke-miterlimit="10"/>
<path d="M76.001 24.7783C82.6528 24.7783 88.045 34.5579 88.045 46.6199C88.045 58.682 82.6528 68.4616 76.001 68.4616C69.3492 68.4616 63.957 58.682 63.957 46.6199C63.957 34.5579 69.3492 24.7783 76.001 24.7783ZM85.6827 46.6199C85.6827 39.944 82.6983 34.5327 79.0158 34.5327C75.3333 34.5327 72.3489 39.944 72.3489 46.6199C72.3489 53.2959 75.3333 58.7072 79.0158 58.7072C82.6983 58.7072 85.6827 53.2959 85.6827 46.6199Z" fill="#FAFAEE"/>
<path d="M79.0156 34.5332C82.6981 34.5332 85.6825 39.9445 85.6825 46.6204C85.6825 53.2963 82.6981 58.7076 79.0156 58.7076C75.3331 58.7076 72.3486 53.2963 72.3486 46.6204C72.3486 39.9445 75.3331 34.5332 79.0156 34.5332Z" fill="#212121"/>
<path d="M76.001 68.4616C82.6527 68.4616 88.045 58.6827 88.045 46.6199C88.045 34.5571 82.6527 24.7783 76.001 24.7783C69.3493 24.7783 63.957 34.5571 63.957 46.6199C63.957 58.6827 69.3493 68.4616 76.001 68.4616Z" stroke="#212121" stroke-miterlimit="10"/>
<path d="M69.3341 46.0459C70.9991 46.0459 72.3489 44.7014 72.3489 43.0429C72.3489 41.3845 70.9991 40.04 69.3341 40.04C67.6691 40.04 66.3193 41.3845 66.3193 43.0429C66.3193 44.7014 67.6691 46.0459 69.3341 46.0459Z" fill="#FAFAEE"/>
<path d="M104.758 24.7783C111.41 24.7783 116.802 34.5579 116.802 46.6199C116.802 58.682 111.41 68.4616 104.758 68.4616C98.1061 68.4616 92.7139 58.682 92.7139 46.6199C92.7139 34.5579 98.1061 24.7783 104.758 24.7783ZM114.44 46.6199C114.44 39.944 111.455 34.5327 107.773 34.5327C104.09 34.5327 101.106 39.944 101.106 46.6199C101.106 53.2959 104.09 58.7072 107.773 58.7072C111.455 58.7072 114.44 53.2959 114.44 46.6199Z" fill="#FAFAEE"/>
<path d="M107.772 34.5332C111.455 34.5332 114.439 39.9445 114.439 46.6204C114.439 53.2963 111.455 58.7076 107.772 58.7076C104.09 58.7076 101.105 53.2963 101.105 46.6204C101.105 39.9445 104.09 34.5332 107.772 34.5332Z" fill="#212121"/>
<path d="M104.758 68.4616C111.41 68.4616 116.802 58.6827 116.802 46.6199C116.802 34.5571 111.41 24.7783 104.758 24.7783C98.1061 24.7783 92.7139 34.5571 92.7139 46.6199C92.7139 58.6827 98.1061 68.4616 104.758 68.4616Z" stroke="#212121" stroke-miterlimit="10"/>
<path d="M98.091 46.0459C99.756 46.0459 101.106 44.7014 101.106 43.0429C101.106 41.3845 99.756 40.04 98.091 40.04C96.4259 40.04 95.0762 41.3845 95.0762 43.0429C95.0762 44.7014 96.4259 46.0459 98.091 46.0459Z" fill="#FAFAEE"/>
<path d="M107.439 113.224C107.439 113.224 105.37 114.005 98.3794 110.145C98.1771 110.034 97.9697 109.919 97.7623 109.803C90.888 105.908 83.4016 109.243 82.2078 109.828C82.0965 109.878 82.0459 109.908 82.0459 109.908C82.0459 109.908 76.2136 114.383 72.7183 113.294C69.2179 112.201 69.921 105.193 69.921 105.193C69.9969 103.857 70.1588 102.361 70.4522 100.749C70.7253 99.232 71.0693 97.8565 71.4335 96.6372C71.4335 96.6372 76.1175 81.7084 86.1129 79.6325C96.1031 77.5567 100.58 82.9528 100.58 82.9528C100.58 82.9528 107.864 88.8629 110.262 101.509C112.654 114.156 107.449 113.224 107.449 113.224H107.439Z" fill="#212121" stroke="#212121" stroke-miterlimit="10"/>
<path d="M98.7496 108.759C98.7496 109.238 98.6231 109.707 98.3803 110.145C98.178 110.034 97.9706 109.918 97.7632 109.802C90.8889 105.908 83.4025 109.243 82.2087 109.827C82.0671 109.485 81.9912 109.132 81.9912 108.764C81.9912 106.165 85.7445 104.063 90.3729 104.063C95.0013 104.063 98.7546 106.165 98.7546 108.764L98.7496 108.759Z" fill="#A44F3D" stroke="#212121" stroke-miterlimit="10"/>
<path d="M22.555 115.894C23.4958 116.625 24.6289 117.753 25.9744 119.467C30.881 125.719 32.1456 125.709 32.1456 125.709C32.1456 125.709 37.4721 125.457 35.7067 130.244C33.9363 135.03 27.8258 131.131 27.8258 131.131C27.8258 131.131 22.9444 123.714 21.2752 129.065C19.611 134.416 22.2211 141.399 22.2211 141.399C22.2211 141.399 23.8954 148.866 17.5978 146.78C16.409 146.387 15.5188 145.49 14.8561 144.296C14.7094 146.13 13.8647 149.546 9.40826 146.755C8.37635 146.11 7.60242 145.077 7.03589 143.822L6.98024 143.848C6.77285 145.782 3.87947 144.825 3.87947 144.825C3.87947 144.825 -0.460613 142.694 0.358842 129.347C0.950671 119.638 5.49308 115.355 7.92616 113.743C7.28375 113.148 6.48452 111.798 8.23472 109.425C9.11993 108.226 10.9915 107.913 13.0402 108.019C15.9487 108.165 19.2164 109.148 20.5265 109.576C20.9009 109.697 21.1184 109.778 21.1184 109.778C21.1184 109.778 26.7079 112.589 22.5651 115.889L22.555 115.894Z" fill="#FAFAEE"/>
<path d="M25.919 75.9497C25.919 75.9497 31.3871 74.3223 29.9556 79.8192C28.7719 84.379 22.5906 103.278 20.5167 109.581C19.2065 109.153 15.9388 108.171 13.0303 108.024C14.1735 102.049 18.1949 83.8097 25.919 75.9497Z" fill="#212121"/>
<path d="M6.98024 143.847C6.77285 145.782 3.87947 144.825 3.87947 144.825C3.87947 144.825 -0.460613 142.693 0.358842 129.347C0.950671 119.638 5.49308 115.355 7.92616 113.743C8.83666 113.138 9.45378 112.906 9.45378 112.906" stroke="#212121" stroke-miterlimit="10"/>
<path d="M14.8562 144.296C14.7095 146.13 13.8648 149.546 9.40838 146.755C8.37647 146.11 7.60254 145.077 7.036 143.823C4.36519 137.918 6.17102 126.989 6.17102 126.989" stroke="#212121" stroke-miterlimit="10"/>
<path d="M13.3535 128.471C13.3535 128.471 11.9979 139.157 14.8559 144.301C15.5185 145.496 16.4088 146.392 17.5975 146.785C23.8952 148.871 22.2208 141.404 22.2208 141.404C22.2208 141.404 19.6107 134.421 21.2749 129.07C22.9391 123.719 27.8255 131.136 27.8255 131.136C27.8255 131.136 33.936 135.041 35.7064 130.249C37.4769 125.463 32.1453 125.715 32.1453 125.715C32.1453 125.715 30.8808 125.725 25.9741 119.472C24.6286 117.759 23.4955 116.63 22.5547 115.9C20.066 113.95 18.9531 114.766 18.9531 114.766" stroke="#212121" stroke-miterlimit="10"/>
<path d="M7.92099 113.748C7.27858 113.153 6.47936 111.803 8.22955 109.43C9.11476 108.231 10.9864 107.918 13.035 108.024C15.9436 108.17 19.2113 109.153 20.5214 109.581C20.8957 109.702 21.1132 109.783 21.1132 109.783C21.1132 109.783 26.7027 112.594 22.5599 115.894" stroke="#212121" stroke-miterlimit="10"/>
<path d="M13.0303 108.024C14.1735 102.049 18.1949 83.8097 25.919 75.9497C25.919 75.9497 31.3871 74.3223 29.9556 79.8192C28.7719 84.379 22.5906 103.278 20.5167 109.581" stroke="#212121" stroke-miterlimit="10"/>
<path d="M181.737 59.0912C182.263 72.5035 158.944 74.2166 158.944 74.2166V67.6666C158.944 67.6666 169.992 64.3916 172.096 58.154C173.614 53.6598 167.655 48.0268 164.215 45.2355C165.444 44.7065 166.259 44.2782 166.259 44.2782C166.259 44.2782 169.486 42.555 171.712 40.3936C175.298 43.341 181.368 49.6794 181.737 59.0912Z" fill="#212121"/>
<path d="M153.062 41.0633C150.462 40.5393 146.946 38.6096 143.916 32.7096C138.306 21.7863 141.943 24.8849 132.692 20.1689C123.445 15.4479 131.326 10.8629 131.326 10.8629L131.65 10.6362C130.481 9.14484 130.026 7.70888 130.8 6.49966C134.214 1.14884 147.958 14.279 147.958 14.279L149.071 15.4983L142.899 8.25807C142.899 8.25807 138.681 1.33022 142.899 0.433381C147.113 -0.463461 147.846 1.89957 153.8 8.17746C159.683 14.3747 166.82 32.5887 166.997 33.027C168.652 32.8205 171.166 32.9867 173.133 35.2339C174.524 36.826 173.416 38.7356 171.712 40.3983C169.491 42.5598 166.259 44.2829 166.259 44.2829C166.259 44.2829 165.445 44.7112 164.215 45.2402C161.777 46.2882 157.695 47.7292 155.08 46.9684C152.288 46.1622 152.627 42.8973 153.062 41.0633Z" fill="#FAFAEE"/>
<path d="M171.711 40.3936C175.297 43.341 181.367 49.6794 181.736 59.0912C182.262 72.5035 158.943 74.2166 158.943 74.2166V67.6666C158.943 67.6666 169.991 64.3916 172.095 58.154C173.613 53.6598 167.654 48.0268 164.214 45.2355" stroke="#212121" stroke-miterlimit="10"/>
<path d="M131.649 10.6318L131.325 10.8586C131.325 10.8586 123.439 15.4435 132.691 20.1646C141.943 24.8805 138.306 21.7819 143.915 32.7052C146.945 38.6103 150.461 40.535 153.061 41.059C155.266 41.5023 156.804 40.933 156.804 40.933" stroke="#212121" stroke-miterlimit="10"/>
<path d="M149.07 15.4984L147.957 14.2791C147.957 14.2791 134.219 1.1489 130.799 6.49972C130.025 7.70894 130.481 9.1449 131.649 10.6363C135.64 15.7301 147.957 21.5143 147.957 21.5143" stroke="#212121" stroke-miterlimit="10"/>
<path d="M150.957 25.9385C150.957 25.9385 151.23 34.66 155.904 37.1087" stroke="#212121" stroke-miterlimit="10"/>
<path d="M162.414 38.5093C162.414 38.5093 166.536 36.9423 166.996 33.0325C166.819 32.5891 159.682 14.3752 153.799 8.17788C147.845 1.89999 147.112 -0.458 142.898 0.433803C138.68 1.33065 142.898 8.2585 142.898 8.2585L149.07 15.4987L149.125 15.5642L151.599 19.7512" stroke="#212121" stroke-miterlimit="10"/>
<path d="M153.061 41.0639C152.631 42.8928 152.287 46.1577 155.079 46.9689C157.699 47.7297 161.781 46.2887 164.214 45.2408C165.443 44.7117 166.258 44.2834 166.258 44.2834C166.258 44.2834 169.485 42.5603 171.711 40.3988C173.41 38.7412 174.523 36.8266 173.132 35.2344C171.164 32.9873 168.65 32.821 166.996 33.0276" stroke="#212121" stroke-miterlimit="10"/>
<path d="M54.8624 67.8723C56.299 70.6485 59.7639 71.5202 58.4943 75.6618C58.2515 76.4377 56.1826 79.884 55.2924 79.4356C54.5387 79.0577 55.1204 77.788 55.1153 77.1078C55.1001 75.2637 54.0176 74.251 53.2336 72.8856C52.1663 71.0214 52.0651 69.4645 53.3145 67.6053C54.4628 65.9023 54.392 66.9604 54.8675 67.8723H54.8624ZM56.0309 76.5536C56.0713 77.0322 55.8538 77.5109 55.9651 77.9744C57.0628 76.7702 56.1826 74.5584 55.4694 73.3088C55.3581 73.1123 54.7208 72.548 54.5892 72.3011C53.6787 70.5226 54.7663 69.3587 53.8305 67.9328C51.3367 71.7771 55.7375 73.2635 56.0258 76.5536H56.0309Z" fill="#C26A5A"/>
<path d="M55.9648 77.9742C55.8535 77.5107 56.0711 77.032 56.0306 76.5534C55.7423 73.2633 51.3415 71.7769 53.8353 67.9326C54.7711 69.3585 53.6835 70.5224 54.594 72.3009C54.7205 72.5478 55.3578 73.1121 55.4742 73.3086C56.1874 74.5582 57.0676 76.77 55.9699 77.9742H55.9648Z" fill="#D8B767"/>
<path d="M53.2287 72.8856C52.1614 71.0214 52.0602 69.4645 53.3096 67.6053C54.4579 65.9023 54.3871 66.9604 54.8626 67.8723C56.2991 70.6485 59.7641 71.5202 58.4945 75.6618C58.2517 76.4377 56.1828 79.884 55.2925 79.4356C54.5388 79.0577 55.1205 77.788 55.1155 77.1078C55.1003 75.2637 54.0178 74.251 53.2338 72.8856H53.2287Z" stroke="#212121" stroke-width="0.5" stroke-miterlimit="10"/>
<path d="M54.5891 72.3009C53.6786 70.5224 54.7662 69.3585 53.8304 67.9326C51.3366 71.7769 55.7374 73.2633 56.0257 76.5534C56.0662 77.032 55.8487 77.5107 55.9599 77.9742C57.0576 76.77 56.1775 74.5582 55.4642 73.3086C55.3529 73.1121 54.7156 72.5478 54.5841 72.3009H54.5891Z" stroke="#212121" stroke-width="0.5" stroke-miterlimit="10"/>
<path d="M65.6017 74.261C67.0382 77.0372 70.5032 77.9088 69.2336 82.0504C68.9908 82.8264 66.9219 86.2726 66.0316 85.8242C65.2779 85.4463 65.8596 84.1767 65.8546 83.4965C65.8394 81.6524 64.7569 80.6397 63.9729 79.2743C62.9055 77.41 62.8044 75.8532 64.0538 73.994C65.202 72.291 65.1312 73.3491 65.6067 74.261H65.6017ZM66.7701 82.9422C66.8106 83.4209 66.5931 83.8995 66.7044 84.3631C67.802 83.1589 66.9219 80.947 66.2087 79.6975C66.0974 79.501 65.46 78.9367 65.3285 78.6898C64.418 76.9112 65.5055 75.7474 64.5697 74.3215C62.076 78.1658 66.4767 79.6521 66.7651 82.9422H66.7701Z" fill="#C26A5A"/>
<path d="M66.7041 84.3629C66.5928 83.8994 66.8103 83.4207 66.7698 82.9421C66.4815 79.652 62.0807 78.1656 64.5745 74.3213C65.5103 75.7472 64.4228 76.911 65.3333 78.6896C65.4597 78.9365 66.0971 79.5008 66.2134 79.6973C66.9266 80.9468 67.8068 83.1587 66.7091 84.3629H66.7041Z" fill="#D8B767"/>
<path d="M63.968 79.2694C62.9007 77.4052 62.7995 75.8483 64.0489 73.9891C65.1972 72.2861 65.1263 73.3442 65.6018 74.2561C67.0384 77.0323 70.5034 77.904 69.2337 82.0456C68.9909 82.8215 66.9221 86.2678 66.0318 85.8193C65.2781 85.4415 65.8598 84.1718 65.8547 83.4916C65.8396 81.6475 64.7571 80.6348 63.973 79.2694H63.968Z" stroke="#212121" stroke-width="0.5" stroke-miterlimit="10"/>
<path d="M65.3284 78.6896C64.4179 76.911 65.5054 75.7472 64.5696 74.3213C62.0759 78.1656 66.4766 79.652 66.765 82.9421C66.8054 83.4207 66.5879 83.8994 66.6992 84.3629C67.7969 83.1587 66.9167 80.9468 66.2035 79.6973C66.0922 79.5008 65.4548 78.9365 65.3233 78.6896H65.3284Z" stroke="#212121" stroke-width="0.5" stroke-miterlimit="10"/>
<path d="M54.0538 87.4368C55.4904 90.213 58.9554 91.0846 57.6857 95.2262C57.4429 96.0021 55.374 99.4484 54.4838 99C53.7301 98.6221 54.3118 97.3524 54.3067 96.6723C54.2915 94.8282 53.209 93.8155 52.425 92.45C51.3577 90.5858 51.2565 89.0289 52.5059 87.1698C53.6542 85.4668 53.5834 86.5248 54.0589 87.4368H54.0538ZM55.2223 96.118C55.2627 96.5967 55.0452 97.0753 55.1565 97.5389C56.2542 96.3347 55.374 94.1228 54.6608 92.8733C54.5495 92.6768 53.9122 92.1125 53.7806 91.8656C52.8701 90.087 53.9577 88.9231 53.0219 87.4973C50.5281 91.3416 54.9289 92.8279 55.2172 96.118H55.2223Z" fill="#C26A5A"/>
<path d="M55.1611 97.5387C55.0498 97.0751 55.2673 96.5965 55.2269 96.1178C54.9385 92.8277 50.5378 91.3414 53.0315 87.4971C53.9673 88.9229 52.8798 90.0868 53.7903 91.8654C53.9168 92.1123 54.5541 92.6766 54.6705 92.8731C55.3837 94.1226 56.2638 96.3345 55.1662 97.5387H55.1611Z" fill="#D8B767"/>
<path d="M52.4201 92.4452C51.3528 90.5809 51.2516 89.0241 52.5011 87.1649C53.6493 85.4619 53.5785 86.52 54.054 87.4319C55.4905 90.2081 58.9555 91.0797 57.6859 95.2213C57.4431 95.9973 55.3742 99.4435 54.4839 98.9951C53.7302 98.6172 54.312 97.3476 54.3069 96.6674C54.2917 94.8233 53.2092 93.8106 52.4252 92.4452H52.4201Z" stroke="#212121" stroke-width="0.5" stroke-miterlimit="10"/>
<path d="M53.7854 91.8654C52.8749 90.0868 53.9625 88.9229 53.0267 87.4971C50.5329 91.3414 54.9337 92.8277 55.222 96.1178C55.2625 96.5965 55.0449 97.0751 55.1562 97.5387C56.2539 96.3345 55.3737 94.1226 54.6605 92.8731C54.5492 92.6766 53.9119 92.1123 53.7804 91.8654H53.7854Z" stroke="#212121" stroke-width="0.5" stroke-miterlimit="10"/>
<path d="M41.0128 38.1057C42.4494 40.8819 45.9143 41.7536 44.6447 45.8952C44.4019 46.6711 42.333 50.1174 41.4427 49.669C40.689 49.2911 41.2708 48.0214 41.2657 47.3412C41.2505 45.4971 40.168 44.4844 39.384 43.119C38.3167 41.2548 38.2155 39.6979 39.4649 37.8387C40.6132 36.1357 40.5424 37.1938 41.0178 38.1057H41.0128ZM42.1813 46.787C42.2217 47.2656 42.0042 47.7443 42.1155 48.2078C43.2132 47.0036 42.333 44.7917 41.6198 43.5422C41.5085 43.3457 40.8711 42.7814 40.7396 42.5345C39.8291 40.756 40.9167 39.5921 39.9809 38.1662C37.4871 42.0105 41.8879 43.4969 42.1762 46.787H42.1813Z" fill="#C26A5A"/>
<path d="M42.1152 48.2027C42.0039 47.7392 42.2214 47.2606 42.181 46.7819C41.8926 43.4918 37.4919 42.0055 39.9856 38.1611C40.9214 39.587 39.8339 40.7509 40.7444 42.5295C40.8709 42.7763 41.5082 43.3406 41.6246 43.5371C42.3378 44.7867 43.2179 46.9986 42.1203 48.2027H42.1152Z" fill="#D8B767"/>
<path d="M39.3791 43.1141C38.3118 41.2499 38.2106 39.693 39.46 37.8338C40.6083 36.1308 40.5375 37.1889 41.013 38.1009C42.4495 40.877 45.9145 41.7487 44.6449 45.8903C44.4021 46.6662 42.3332 50.1125 41.4429 49.6641C40.6892 49.2862 41.2709 48.0165 41.2659 47.3363C41.2507 45.4922 40.1682 44.4795 39.3842 43.1141H39.3791Z" stroke="#212121" stroke-width="0.5" stroke-miterlimit="10"/>
<path d="M40.7395 42.5295C39.829 40.7509 40.9166 39.587 39.9808 38.1611C37.487 42.0055 41.8878 43.4918 42.1761 46.7819C42.2166 47.2606 41.9991 47.7392 42.1103 48.2027C43.208 46.9986 42.3278 44.7867 41.6146 43.5371C41.5033 43.3406 40.866 42.7763 40.7345 42.5295H40.7395Z" stroke="#212121" stroke-width="0.5" stroke-miterlimit="10"/>
<path d="M50.8722 24.2503C52.3087 27.0265 55.7737 27.8981 54.5041 32.0397C54.2613 32.8156 52.1924 36.2619 51.3021 35.8135C50.5484 35.4356 51.1301 34.1659 51.1251 33.4857C51.1099 31.6417 50.0274 30.6289 49.2434 29.2635C48.176 27.3993 48.0749 25.8424 49.3243 23.9832C50.4725 22.2802 50.4017 23.3383 50.8772 24.2503H50.8722ZM52.0406 32.9315C52.0811 33.4102 51.8636 33.8888 51.9749 34.3523C53.0725 33.1482 52.1924 30.9363 51.4792 29.6867C51.3679 29.4902 50.7305 28.9259 50.599 28.6791C49.6885 26.9005 50.776 25.7366 49.8402 24.3107C47.3465 28.1551 51.7473 29.6414 52.0356 32.9315H52.0406Z" fill="#C26A5A"/>
<path d="M51.9746 34.3522C51.8633 33.8886 52.0808 33.41 52.0404 32.9313C51.752 29.6412 47.3512 28.1549 49.845 24.3105C50.7808 25.7364 49.6933 26.9003 50.6038 28.6789C50.7302 28.9258 51.3676 29.4901 51.4839 29.6866C52.1972 30.9361 53.0773 33.148 51.9797 34.3522H51.9746Z" fill="#D8B767"/>
<path d="M49.2385 29.2586C48.1712 27.3944 48.07 25.8375 49.3194 23.9784C50.4677 22.2754 50.3968 23.3334 50.8723 24.2454C52.3089 27.0216 55.7739 27.8932 54.5042 32.0348C54.2614 32.8107 52.1926 36.257 51.3023 35.8086C50.5486 35.4307 51.1303 34.161 51.1253 33.4808C51.1101 31.6368 50.0276 30.6241 49.2435 29.2586H49.2385Z" stroke="#212121" stroke-width="0.5" stroke-miterlimit="10"/>
<path d="M50.5989 28.674C49.6884 26.8954 50.7759 25.7315 49.8401 24.3057C47.3464 28.15 51.7471 29.6363 52.0355 32.9264C52.0759 33.4051 51.8584 33.8837 51.9697 34.3473C53.0674 33.1431 52.1872 30.9312 51.474 29.6817C51.3627 29.4852 50.7254 28.9209 50.5938 28.674H50.5989Z" stroke="#212121" stroke-width="0.5" stroke-miterlimit="10"/>
<path d="M31.21 30.6389C32.6466 33.4151 36.1116 34.2868 34.842 38.4284C34.5992 39.2043 32.5303 42.6506 31.64 42.2022C30.8863 41.8243 31.468 40.5546 31.463 39.8744C31.4478 38.0303 30.3653 37.0176 29.5813 35.6522C28.5139 33.788 28.4128 32.2311 29.6622 30.3719C30.8104 28.6689 30.7396 29.727 31.2151 30.6389H31.21ZM32.3785 39.3202C32.419 39.7988 32.2015 40.2775 32.3128 40.741C33.4104 39.5368 32.5303 37.325 31.8171 36.0754C31.7058 35.8789 31.0684 35.3146 30.9369 35.0677C30.0264 33.2892 31.1139 32.1253 30.1781 30.6994C27.6844 34.5437 32.0851 36.0301 32.3735 39.3202H32.3785Z" fill="#C26A5A"/>
<path d="M32.3125 40.7359C32.2012 40.2724 32.4187 39.7938 32.3782 39.3151C32.0899 36.025 27.6891 34.5387 30.1829 30.6943C31.1187 32.1202 30.0312 33.2841 30.9417 35.0627C31.0681 35.3095 31.7055 35.8738 31.8218 36.0703C32.5351 37.3199 33.4152 39.5318 32.3175 40.7359H32.3125Z" fill="#D8B767"/>
<path d="M29.5764 35.6473C28.5091 33.7831 28.4079 32.2262 29.6573 30.367C30.8056 28.664 30.7347 29.7221 31.2102 30.6341C32.6468 33.4102 36.1118 34.2819 34.8421 38.4235C34.5993 39.1994 32.5305 42.6457 31.6402 42.1973C30.8865 41.8194 31.4682 40.5497 31.4631 39.8695C31.448 38.0254 30.3655 37.0127 29.5814 35.6473H29.5764Z" stroke="#212121" stroke-width="0.5" stroke-miterlimit="10"/>
<path d="M30.9368 35.0627C30.0263 33.2841 31.1138 32.1202 30.178 30.6943C27.6843 34.5387 32.085 36.025 32.3734 39.3151C32.4138 39.7938 32.1963 40.2724 32.3076 40.7359C33.4053 39.5318 32.5251 37.3199 31.8119 36.0703C31.7006 35.8738 31.0632 35.3095 30.9317 35.0627H30.9368Z" stroke="#212121" stroke-width="0.5" stroke-miterlimit="10"/>
<path d="M59.8809 8.14676C61.3175 10.9229 64.7825 11.7946 63.5129 15.9362C63.27 16.7121 61.2012 20.1584 60.3109 19.71C59.5572 19.3321 60.1389 18.0624 60.1339 17.3822C60.1187 15.5381 59.0362 14.5254 58.2522 13.16C57.1848 11.2958 57.0837 9.7389 58.3331 7.87972C59.4813 6.17673 59.4105 7.2348 59.886 8.14676H59.8809ZM61.0494 16.828C61.0899 17.3066 60.8724 17.7853 60.9837 18.2488C62.0813 17.0446 61.2012 14.8328 60.4879 13.5832C60.3767 13.3867 59.7393 12.8224 59.6078 12.5755C58.6973 10.797 59.7848 9.6331 58.849 8.20722C56.3553 12.0515 60.756 13.5379 61.0444 16.828H61.0494Z" fill="#C26A5A"/>
<path d="M60.9834 18.2486C60.8721 17.7851 61.0896 17.3064 61.0491 16.8278C60.7608 13.5377 56.36 12.0514 58.8538 8.20703C59.7896 9.63291 58.7021 10.7968 59.6126 12.5754C59.739 12.8222 60.3764 13.3865 60.4927 13.583C61.2059 14.8326 62.0861 17.0444 60.9884 18.2486H60.9834Z" fill="#D8B767"/>
<path d="M58.2473 13.16C57.18 11.2958 57.0788 9.7389 58.3282 7.87972C59.4765 6.17673 59.4056 7.2348 59.8811 8.14676C61.3177 10.9229 64.7827 11.7946 63.513 15.9362C63.2702 16.7121 61.2014 20.1584 60.3111 19.71C59.5574 19.3321 60.1391 18.0624 60.134 17.3822C60.1189 15.5381 59.0364 14.5254 58.2523 13.16H58.2473Z" stroke="#212121" stroke-width="0.5" stroke-miterlimit="10"/>
<path d="M59.6077 12.5754C58.6972 10.7968 59.7847 9.63291 58.8489 8.20703C56.3552 12.0514 60.7559 13.5377 61.0443 16.8278C61.0847 17.3064 60.8672 17.7851 60.9785 18.2486C62.0762 17.0445 61.196 14.8326 60.4828 13.583C60.3715 13.3865 59.7341 12.8222 59.6026 12.5754H59.6077Z" stroke="#212121" stroke-width="0.5" stroke-miterlimit="10"/>
<path d="M64.7921 98.8489C66.2287 101.625 69.6936 102.497 68.424 106.638C68.1812 107.414 66.1123 110.861 65.222 110.412C64.4683 110.034 65.0501 108.765 65.045 108.084C65.0298 106.24 63.9473 105.228 63.1633 103.862C62.096 101.998 61.9948 100.441 63.2442 98.5819C64.3925 96.8789 64.3217 97.9369 64.7971 98.8489H64.7921ZM65.9606 107.53C66.001 108.009 65.7835 108.487 65.8948 108.951C66.9925 107.747 66.1123 105.535 65.3991 104.285C65.2878 104.089 64.6504 103.525 64.5189 103.278C63.6084 101.499 64.696 100.335 63.7602 98.9094C61.2664 102.754 65.6672 104.24 65.9555 107.53H65.9606Z" fill="#C26A5A"/>
<path d="M65.8994 108.951C65.7881 108.487 66.0056 108.009 65.9652 107.53C65.6768 104.24 61.2761 102.754 63.7698 98.9092C64.7056 100.335 63.6181 101.499 64.5286 103.278C64.655 103.524 65.2924 104.089 65.4087 104.285C66.122 105.535 67.0021 107.747 65.9045 108.951H65.8994Z" fill="#D8B767"/>
<path d="M63.1584 103.857C62.0911 101.993 61.9899 100.436 63.2393 98.577C64.3876 96.874 64.3168 97.9321 64.7923 98.844C66.2288 101.62 69.6938 102.492 68.4242 106.633C68.1814 107.409 66.1125 110.856 65.2222 110.407C64.4685 110.029 65.0502 108.76 65.0452 108.079C65.03 106.235 63.9475 105.223 63.1635 103.857H63.1584Z" stroke="#212121" stroke-width="0.5" stroke-miterlimit="10"/>
<path d="M64.5237 103.273C63.6132 101.494 64.7007 100.33 63.7649 98.9043C61.2712 102.749 65.6719 104.235 65.9603 107.525C66.0007 108.004 65.7832 108.482 65.8945 108.946C66.9922 107.742 66.112 105.53 65.3988 104.28C65.2875 104.084 64.6502 103.52 64.5186 103.273H64.5237Z" stroke="#212121" stroke-width="0.5" stroke-miterlimit="10"/>
</g>
<defs>
<clipPath id="clip0_139_258">
<rect width="182" height="194" fill="white"/>
</clipPath>
</defs>
</svg>
