<svg width="205" height="192" viewBox="0 0 205 192" fill="none" xmlns="http://www.w3.org/2000/svg">
<g clip-path="url(#clip0_132_276)">
<path d="M175.867 183.589C177.476 186.633 175.867 188.178 175.867 188.178C168.573 193.165 149.823 190.47 149.823 190.47C149.823 190.47 136.914 187.529 135.932 183.6C135.519 181.941 135.669 180.487 135.991 179.365C135.991 179.424 136.002 179.483 136.007 179.547C136.007 179.547 150.526 193.31 175.872 183.589H175.867Z" fill="#D8B767"/>
<path d="M158.828 165.167C177.664 164.094 175.905 183.573 175.905 183.573C175.894 183.578 175.878 183.584 175.867 183.589C150.52 193.31 136.002 179.547 136.002 179.547C135.997 179.483 135.991 179.424 135.986 179.365C135.181 169.918 143.425 167.014 143.425 167.014C137.096 162.409 141.719 160.117 144.508 159.242V161.442C144.508 161.442 149.303 165.162 153.792 161.442V159.107C155.46 159.676 158.469 161.244 158.833 165.173L158.828 165.167Z" fill="#D8B767"/>
<path d="M153.787 155.554V159.966C149.303 166.987 144.503 159.966 144.503 159.966V133.949L153.787 133.074V155.548V155.554Z" fill="#212121"/>
<path d="M144.503 155.817V133.955L153.787 133.08V159.966C149.303 166.987 144.503 159.966 144.503 159.966V155.811V155.817Z" stroke="#212121" stroke-width="2" stroke-miterlimit="10"/>
<path d="M144.502 159.236C141.713 160.111 137.096 162.403 143.419 167.008C143.419 167.008 135.176 169.912 135.98 179.359C135.98 179.418 135.991 179.477 135.996 179.542C135.996 179.542 150.515 193.304 175.861 183.583C175.872 183.578 175.888 183.573 175.899 183.567C175.899 183.567 177.653 164.088 158.822 165.162C158.291 165.194 157.75 165.237 157.186 165.301C157.186 165.301 146.701 166.536 144.502 175.054" stroke="#212121" stroke-width="2" stroke-miterlimit="10"/>
<path d="M153.786 159.097C155.454 159.666 158.463 161.233 158.828 165.162" stroke="#212121" stroke-width="2" stroke-miterlimit="10"/>
<path d="M175.867 183.589C177.476 186.633 175.867 188.178 175.867 188.178C168.573 193.165 149.823 190.47 149.823 190.47C149.823 190.47 136.914 187.529 135.932 183.6C135.519 181.941 135.669 180.487 135.991 179.365" stroke="#212121" stroke-width="2" stroke-miterlimit="10"/>
<path d="M113.696 169.199C118.426 171.303 118.024 179.773 118.024 179.773C117.911 179.843 117.788 179.912 117.643 179.982C111.224 183.09 75.0751 183.283 69.7494 181.426C69.6529 181.394 69.5617 181.356 69.4759 181.319C64.4451 179.209 68.4247 170.1 68.4247 170.1C74.4852 160.508 85.9035 162.833 93.7393 165.999C94.6939 162.489 97.5955 160.176 99.5477 159.199C100.846 158.549 102.111 159.027 102.969 159.58L103.136 164.142C103.136 164.142 108.526 166.627 111.497 164.142L111.438 159.832C113.937 159.762 114.661 161.034 114.661 161.034C114.661 161.034 116.008 162.629 116.067 165.57C116.099 167.084 114.881 168.34 113.696 169.199Z" fill="#D8B767"/>
<path d="M111.438 159.832L111.497 164.142C108.526 166.627 103.136 164.142 103.136 164.142L102.97 159.58L102.042 133.933H111.095L111.438 159.832Z" fill="#212121"/>
<path d="M69.7497 181.426C75.0754 183.283 111.224 183.09 117.644 179.982C119.172 182.435 118.035 184.244 118.035 184.244C113.895 186.063 77.1671 189.021 70.9457 185.698C66.8857 183.53 68.1246 182.07 69.4761 181.318C69.562 181.356 69.6531 181.394 69.7497 181.426Z" fill="#D8B767"/>
<path d="M111.438 159.832L111.095 133.933H102.042L102.97 159.58L103.136 164.142C103.136 164.142 108.526 166.627 111.497 164.142L111.438 159.832Z" stroke="#212121" stroke-width="2" stroke-miterlimit="10"/>
<path d="M113.696 169.199C118.426 171.303 118.024 179.773 118.024 179.773C117.911 179.843 117.788 179.912 117.643 179.982C111.224 183.09 75.0751 183.283 69.7494 181.426C69.6529 181.394 69.5617 181.356 69.4759 181.319C64.4451 179.209 68.4247 170.1 68.4247 170.1C74.4852 160.508 85.9035 162.833 93.7393 166C98.5716 167.959 102.042 170.235 102.042 170.235" stroke="#212121" stroke-width="2" stroke-miterlimit="10"/>
<path d="M111.438 159.832C113.938 159.762 114.662 161.034 114.662 161.034C114.662 161.034 116.008 162.628 116.067 165.57C116.099 167.084 114.882 168.34 113.696 169.198C112.581 170.004 111.497 170.465 111.497 170.465" stroke="#212121" stroke-width="2" stroke-miterlimit="10"/>
<path d="M93.7393 165.999C94.6939 162.489 97.5954 160.176 99.5477 159.199C100.846 158.549 102.111 159.027 102.969 159.58" stroke="#212121" stroke-width="2" stroke-miterlimit="10"/>
<path d="M117.644 179.982C119.172 182.435 118.035 184.244 118.035 184.244C113.895 186.063 77.1671 189.021 70.9457 185.698C66.8857 183.53 68.1246 182.07 69.4761 181.318" stroke="#212121" stroke-width="2" stroke-miterlimit="10"/>
<path d="M123.135 142.478C163.072 142.478 195.448 110.703 195.448 71.5074C195.448 32.3113 163.072 0.536621 123.135 0.536621C83.1978 0.536621 50.8223 32.3113 50.8223 71.5074C50.8223 110.703 83.1978 142.478 123.135 142.478Z" fill="#3F5B7A" stroke="#212121" stroke-miterlimit="10"/>
<path d="M190.675 46.1025C193.759 53.9876 195.443 62.5543 195.443 71.5075C195.443 88.1686 189.597 103.482 179.804 115.592" fill="#7A9E79"/>
<path d="M190.675 46.1025C193.759 53.9876 195.443 62.5543 195.443 71.5075C195.443 88.1686 189.597 103.482 179.804 115.592" stroke="#212121" stroke-miterlimit="10"/>
<path d="M53.8311 51.1854C61.9081 24.6157 85.4153 4.57294 114.152 1.07861L53.8311 51.1854Z" fill="#7A9E79"/>
<path d="M53.8311 51.1854C61.9081 24.6157 85.4153 4.57294 114.152 1.07861" stroke="#212121" stroke-miterlimit="10"/>
<path d="M127.308 0.649414C153.142 2.09331 175.352 16.8543 186.915 38.0403L127.308 0.649414Z" fill="#7A9E79"/>
<path d="M127.308 0.649414C153.142 2.09331 175.352 16.8543 186.915 38.0403" stroke="#212121" stroke-miterlimit="10"/>
<path d="M115.251 142.065C117.841 142.344 120.469 142.484 123.135 142.484C135.02 142.484 146.235 139.671 156.13 134.685" fill="#7A9E79"/>
<path d="M115.251 142.065C117.841 142.344 120.469 142.484 123.135 142.484C135.02 142.484 146.235 139.671 156.13 134.685" stroke="#212121" stroke-miterlimit="10"/>
<path d="M118.566 9.44674C118.137 10.8209 113.513 13.9985 113.513 13.9985C113.513 13.9985 113.873 18.4751 110.773 19.1997C107.667 19.9244 108.392 15.3726 108.392 15.3726C108.392 15.3726 108.606 12.9196 105.072 13.349C101.532 13.7838 101.317 18.4053 101.317 18.4053C101.317 18.4053 97.8527 19.9244 96.8444 21.5132C95.8308 23.102 96.9892 30.1819 96.9892 30.1819C96.7747 38.6359 87.6089 39.8651 87.6089 39.8651C87.6089 39.8651 85.1525 41.164 83.8546 43.4775C82.5567 45.7909 83.3505 50.128 83.3505 50.128C82.7712 56.918 79.3816 53.4505 79.3816 53.4505C78.4431 44.9965 70.8648 47.9595 70.8648 47.9595C70.8648 47.9595 65.4533 51.0673 64.4396 57.8574C63.4313 64.6474 68.1939 62.2642 68.1939 62.2642C68.1939 62.2642 71.0847 59.0168 72.8117 59.6663C74.544 60.3157 72.2324 66.8159 72.2324 66.8159C77.5045 66.8159 75.1715 70.0204 75.1715 70.0204C73.4874 75.7477 80.3899 75.7477 80.3899 75.7477C84.2622 73.3859 89.3144 72.3768 89.3144 72.3768C89.3144 72.3768 97.5631 75.0713 98.2389 79.1185C98.9093 83.1604 105.308 82.6558 113.728 89.5693C122.148 96.4774 112.216 109.113 112.216 109.113C112.216 109.113 107.335 113.155 105.817 116.864C104.299 120.567 100.432 122.763 100.432 122.763C98.5768 124.953 100.432 133.713 100.432 133.713C88.3061 134.051 88.3061 112.988 88.3061 112.988C88.3061 112.988 89.1482 106.418 81.5699 101.024C73.9916 95.6347 75.3378 88.893 75.3378 88.893C81.0604 78.1094 76.5177 78.1094 76.5177 78.1094C70.1193 78.1094 69.111 73.9978 69.111 73.9978C65.7429 67.0199 64.7346 67.6587 61.8706 67.6587C59.0066 67.6587 57.3279 65.4687 55.4722 56.0324C55.0485 53.8585 54.4747 52.3019 53.8418 51.1961C61.9081 24.6157 85.4153 4.57294 114.152 1.07861C118.716 3.6336 118.904 8.38932 118.566 9.44674Z" fill="#7A9E79" stroke="#212121" stroke-miterlimit="10"/>
<path d="M77.6225 58.7059C77.9712 59.4573 78.663 60.6543 79.9717 61.5883C83.1306 63.848 86.9654 62.5276 87.3998 62.3719C87.0404 61.6634 86.4988 60.8636 85.6889 60.1605C82.5889 57.482 78.2179 58.5502 77.6172 58.7059H77.6225Z" fill="#7A9E79" stroke="#212121" stroke-miterlimit="10"/>
<path d="M90.0059 63.6276C90.0059 63.6276 94.0713 62.6346 95.4872 63.9604C96.9031 65.2862 94.3984 67.5084 94.3984 67.5084C94.3984 67.5084 89.8129 68.4531 90.0059 63.6276Z" fill="#7A9E79" stroke="#212121" stroke-miterlimit="10"/>
<path d="M156.13 134.679C146.235 139.665 135.02 142.478 123.135 142.478C120.469 142.478 117.841 142.339 115.251 142.059C119.225 141.088 122.91 140.143 123.805 139.773C125.935 138.893 127.994 139.773 127.994 139.773C127.994 139.773 128.579 140.755 132.692 138.791C136.806 136.831 139.745 137.32 139.745 137.32C139.745 137.32 143.757 138.007 148.943 135.167C152.649 133.138 155.057 134.008 156.13 134.674V134.679Z" fill="#7A9E79" stroke="#212121" stroke-miterlimit="10"/>
<path d="M195.442 71.5075C195.442 88.1686 189.596 103.482 179.803 115.592C179.229 97.8303 184.448 88.9898 184.448 88.9898C186.453 72.6937 182.329 75.764 182.329 75.764C180.956 76.8214 176.515 76.8214 176.515 76.8214C167.526 75.5546 168.374 60.74 168.374 60.74C168.374 60.74 168.588 56.5049 171.442 52.1679C174.295 47.8309 171.544 45.0773 171.544 45.0773C171.865 42.2217 175.459 42.7477 175.459 42.7477C180.64 42.1143 182.222 45.394 182.222 45.394C184.222 46.1132 188.636 46.1347 190.669 46.1025C193.753 53.9875 195.437 62.5543 195.437 71.5075H195.442Z" fill="#7A9E79" stroke="#212121" stroke-miterlimit="10"/>
<path d="M127.308 0.649414C140.094 10.1555 140.7 12.4153 140.7 12.4153C140.7 16.5537 144.39 18.7705 144.39 18.7705C151.33 18.4753 156.645 20.8371 156.645 20.8371C165.945 25.8612 164.765 35.6141 164.765 35.6141C164.765 35.6141 166.24 37.6807 170.08 38.2711C173.92 38.8669 173.18 30.735 173.18 30.735C177.91 33.2953 185.075 37.0688 186.915 38.0349" fill="#7A9E79"/>
<path d="M127.308 0.649414C140.094 10.1555 140.7 12.4153 140.7 12.4153C140.7 16.5537 144.39 18.7705 144.39 18.7705C151.33 18.4753 156.645 20.8371 156.645 20.8371C165.945 25.8612 164.765 35.6141 164.765 35.6141C164.765 35.6141 166.24 37.6807 170.08 38.2711C173.92 38.8669 173.18 30.735 173.18 30.735C177.91 33.2953 185.075 37.0688 186.915 38.0349" stroke="#212121" stroke-miterlimit="10"/>
<path d="M6.60727 45.0667C9.30499 48.8133 11.9866 48.7972 13.4991 48.3463C12.0403 53.1986 7.25622 52.3881 7.25622 52.3881C7.25622 52.3881 6.63409 52.2002 5.7706 51.6581C4.17235 50.649 1.75352 48.4053 0.965116 43.816C0.106994 38.8295 2.78863 37.0152 4.43515 36.3818C4.11871 38.5504 4.24743 41.7978 6.60191 45.0667H6.60727Z" fill="#FAFAEE"/>
<path d="M15.5483 47.0152L14.7545 47.772C14.7545 47.772 14.2826 48.1156 13.5049 48.3518C11.9924 48.8026 9.30545 48.8187 6.61309 45.0721C4.25862 41.8032 4.13526 38.5505 4.44633 36.3873C4.68231 34.7824 5.15428 33.7679 5.15428 33.7679C8.0719 29.3611 11.7189 29.8656 13.5692 30.5205C13.1509 31.0036 12.7648 31.6155 12.4322 32.3831C10.1957 37.5575 13.2421 42.6084 14.7706 44.6642C14.7009 45.5284 14.9101 46.3496 15.5483 47.0259V47.0152Z" fill="#FAFAEE"/>
<path d="M22.4451 36.7951C20.2783 37.2728 18.7337 37.9223 18.7337 37.9223C18.7337 37.9223 15.0169 41.583 14.7702 44.6533C13.2417 42.5975 10.1954 37.5466 12.4318 32.3722C12.7644 31.6046 13.1452 30.9927 13.5689 30.5096C16.8405 26.7469 22.3163 30.778 22.3163 30.778C22.3163 30.778 19.3612 9.48463 27.8137 7.75089C34.9415 6.29089 33.1019 30.2681 32.351 37.8257C29.4388 35.8182 25.3734 36.151 22.4504 36.7951H22.4451Z" fill="#FAFAEE"/>
<path d="M30.9028 57.3157C31.364 59.291 31.0959 61.8084 28.0442 63.7729C26.9232 64.4976 25.4269 65.147 23.4478 65.6623C21.7155 66.1186 20.2674 66.2903 19.0553 66.2528C13.8744 66.0917 13.027 62.0768 12.9948 59.6238C10.4366 59.1675 6.58574 57.4982 5.78125 51.6582C6.64474 52.2003 7.26687 52.3882 7.26687 52.3882C7.26687 52.3882 12.0509 53.2041 13.5097 48.3464C14.2927 48.1156 14.7594 47.7667 14.7594 47.7667L15.5531 47.0098C14.9095 46.3335 14.7057 45.5176 14.7754 44.6481C15.0222 41.5778 18.7389 37.9171 18.7389 37.9171C18.7389 37.9171 20.2835 37.2676 22.4503 36.7899C25.3786 36.1458 29.444 35.813 32.3509 37.8205C34.0832 39.0121 35.4079 41.0303 35.8477 44.2938C36.8721 51.8836 33.6809 55.5658 30.8974 57.3049L30.9028 57.3157Z" fill="#FAFAEE"/>
<path d="M50.5756 72.3934C50.892 75.8716 51.2031 79.3498 51.5195 82.8334C50.8437 83.3057 41.9568 89.2638 31.9597 85.2542C24.3975 82.2215 19.297 74.7336 19.0557 66.2528C20.1015 66.2904 21.3511 66.1186 22.8475 65.6624C24.553 65.1471 25.8456 64.4976 26.8109 63.7729C26.8646 64.1487 28.0928 72.0069 35.3922 75.0772C40.4712 77.2135 46.4083 76.1614 50.5756 72.3934Z" fill="#212121"/>
<path d="M26.6871 63.7729C26.7407 64.1541 27.9528 72.0391 35.2576 75.1308C40.3741 77.2994 46.3756 76.2258 50.5697 72.3934C50.8861 75.8716 51.1972 79.3498 51.5136 82.8334C50.8647 83.2896 41.9617 89.339 31.9324 85.3293C24.3487 82.2966 19.2429 74.7658 19.0498 66.2528" stroke="#212121" stroke-width="2" stroke-miterlimit="10"/>
<path d="M12.9951 59.6235C13.0273 62.0765 13.8801 66.0915 19.0556 66.2525C20.2677 66.2901 21.7158 66.1183 23.4481 65.6621C25.4272 65.1468 26.9235 64.4973 28.0444 63.7727C31.0961 61.8081 31.3643 59.2907 30.9031 57.3154" stroke="#212121" stroke-width="2" stroke-miterlimit="10"/>
<path d="M5.77637 51.6528C6.58622 57.4928 10.4317 59.1621 12.99 59.6184C14.3415 59.8599 15.3337 59.7633 15.3337 59.7633" stroke="#212121" stroke-width="2" stroke-miterlimit="10"/>
<path d="M23.3457 47.9224C26.2204 46.5 27.5344 43.4727 27.5344 43.4727" stroke="#212121" stroke-width="2" stroke-miterlimit="10"/>
<path d="M27.2558 58.7971C27.2558 58.7971 28.9828 58.518 30.8975 57.3157C33.6756 55.5766 36.8668 51.889 35.8477 44.3046C35.408 41.041 34.0832 39.0228 32.3509 37.8312C29.4386 35.8237 25.3733 36.1565 22.4503 36.8006C20.2836 37.2783 18.7389 37.9278 18.7389 37.9278C18.7389 37.9278 15.0222 41.5885 14.7755 44.6588C14.7058 45.523 14.9149 46.3443 15.5532 47.0206C15.9929 47.4876 16.6473 47.8901 17.5644 48.1907C19.9403 48.9744 21.855 48.6684 23.3513 47.9277" stroke="#212121" stroke-width="2" stroke-miterlimit="10"/>
<path d="M24.5529 56.2315C24.5529 56.2315 20.4553 52.3346 23.3408 47.9224" stroke="#212121" stroke-width="2" stroke-miterlimit="10"/>
<path d="M32.351 37.8311C33.1019 30.2735 34.9415 6.29626 27.8137 7.75626C19.3612 9.49 22.3163 30.7834 22.3163 30.7834C22.3163 30.7834 16.8405 26.7523 13.5689 30.515C13.1505 30.9981 12.7644 31.61 12.4318 32.3776C10.1954 37.552 13.2417 42.6029 14.7702 44.6587" stroke="#212121" stroke-width="2" stroke-miterlimit="10"/>
<path d="M22.4446 36.7951C22.1979 34.8628 21.2969 33.3438 21.2969 33.3438" stroke="#212121" stroke-width="2" stroke-miterlimit="10"/>
<path d="M13.5637 30.5098C11.7187 29.8549 8.07168 29.3503 5.1487 33.7572C5.1487 33.7572 4.67137 34.7716 4.44075 36.3766C4.12431 38.5451 4.25303 41.7925 6.60751 45.0614C9.30523 48.808 11.9869 48.7919 13.4993 48.341C14.2823 48.1102 14.7489 47.7613 14.7489 47.7613L15.5427 47.0045" stroke="#212121" stroke-width="2" stroke-miterlimit="10"/>
<path d="M4.44091 36.3765C2.78902 37.0152 0.107391 38.8295 0.970876 43.8106C1.75928 48.3946 4.18347 50.6436 5.77636 51.6527C6.63984 52.1949 7.26198 52.3827 7.26198 52.3827C7.26198 52.3827 12.046 53.1986 13.5048 48.3409" stroke="#212121" stroke-width="2" stroke-miterlimit="10"/>
<path d="M131.529 111.083C130.628 109.526 130.574 107.792 132.306 106.048C137.852 100.449 156.602 110.342 156.602 110.342C156.602 110.342 154.113 102.441 157.562 97.6315C161.005 92.8167 164.835 95.7474 165.789 97.6315C166.744 99.5155 163.494 102.86 168.278 108.716C169.2 109.848 169.924 110.852 170.488 111.738C172.987 110.288 177.079 108.952 179.948 113.321C180.506 114.175 180.908 115.076 181.171 115.989C182.088 119.161 181.423 122.559 180.538 125.141C179.68 127.674 178.613 129.429 178.613 129.429C178.613 129.429 170.461 136.488 169.463 129.66C163.285 138.136 150.37 135.94 150.37 135.94C150.37 135.94 137.305 135.087 131.556 128.748C127.705 124.507 128.724 121.383 129.813 119.778C125.506 114.899 128.987 112.253 131.529 111.083Z" fill="#FAFAEE"/>
<path d="M204.051 102.446C204.051 102.446 207.527 129.021 180.533 125.146C181.418 122.564 182.083 119.166 181.166 115.994C207.317 116.622 189.318 82.5753 189.318 82.5753C189.318 82.5753 191.228 72.9565 197.159 79.4406C203.091 85.9247 204.046 102.452 204.046 102.452L204.051 102.446Z" fill="#212121"/>
<path d="M180.533 125.146C207.527 129.021 204.051 102.446 204.051 102.446C204.051 102.446 203.096 85.9194 197.165 79.4353C191.233 72.9512 189.324 82.57 189.324 82.57C189.324 82.57 207.323 116.622 181.171 115.989" stroke="#212121" stroke-width="2" stroke-miterlimit="10"/>
<path d="M169.421 126.708C169.319 127.9 169.34 128.871 169.458 129.66C170.456 136.488 178.608 129.43 178.608 129.43C178.608 129.43 179.675 127.674 180.533 125.141C181.418 122.559 182.083 119.161 181.166 115.989C180.903 115.071 180.507 114.175 179.943 113.321C177.074 108.952 172.976 110.289 170.483 111.738" stroke="#212121" stroke-width="2" stroke-miterlimit="10"/>
<path d="M131.534 111.083C133.508 114.513 139.574 117.084 139.574 117.084L150.096 120.643" stroke="#212121" stroke-width="2" stroke-miterlimit="10"/>
<path d="M172.483 117.084C172.483 117.084 172.858 115.452 170.482 111.738C169.919 110.852 169.195 109.848 168.273 108.716C163.489 102.86 166.739 99.5155 165.784 97.6315C164.829 95.7474 161 92.8167 157.557 97.6315C154.108 102.441 156.597 110.342 156.597 110.342C156.597 110.342 137.847 100.444 132.301 106.048C130.569 107.792 130.628 109.526 131.524 111.083" stroke="#212121" stroke-width="2" stroke-miterlimit="10"/>
<path d="M152.413 128.694C152.413 128.694 141.108 129.864 131.556 121.496C130.869 120.895 130.295 120.326 129.813 119.784C125.506 114.905 128.987 112.259 131.529 111.088" stroke="#212121" stroke-width="2" stroke-miterlimit="10"/>
<path d="M129.812 119.778C128.718 121.383 127.705 124.502 131.556 128.748C137.305 135.087 150.37 135.94 150.37 135.94C150.37 135.94 163.285 138.141 169.463 129.66" stroke="#212121" stroke-width="2" stroke-miterlimit="10"/>
<path d="M138.436 19.0337C145.548 19.0337 151.319 29.5435 151.319 42.5063C151.319 55.4691 145.553 65.979 138.436 65.979C131.319 65.979 125.554 55.4691 125.554 42.5063C125.554 29.5435 131.325 19.0337 138.436 19.0337ZM145.564 42.501C145.564 35.3244 142.373 29.5113 138.436 29.5113C135.889 29.5113 133.652 31.9482 132.392 35.6143C132.054 35.4908 131.689 35.4264 131.308 35.4264C129.528 35.4264 128.085 36.8703 128.085 38.6524C128.085 40.4344 129.528 41.8783 131.308 41.8783H131.314C131.308 42.0823 131.308 42.2916 131.308 42.501C131.308 49.6721 134.5 55.4906 138.436 55.4906C142.373 55.4906 145.564 49.6721 145.564 42.501Z" fill="#FAFAEE"/>
<path d="M138.436 29.5112C142.373 29.5112 145.564 35.3244 145.564 42.5009C145.564 49.6774 142.373 55.4905 138.436 55.4905C134.5 55.4905 131.309 49.672 131.309 42.5009C131.309 42.2915 131.309 42.0876 131.314 41.8782C133.089 41.8782 134.532 40.429 134.532 38.6523C134.532 37.2513 133.642 36.0597 132.392 35.6142C133.652 31.9481 135.889 29.5112 138.436 29.5112Z" fill="#212121"/>
<path d="M132.391 35.6143C133.641 36.0598 134.531 37.2514 134.531 38.6523C134.531 40.429 133.094 41.8729 131.313 41.8783C131.372 39.5809 131.759 37.4446 132.391 35.6143Z" fill="#FAFAEE"/>
<path d="M131.303 35.4316C131.684 35.4316 132.049 35.4961 132.387 35.6195C131.759 37.4499 131.368 39.5915 131.309 41.8835H131.303C129.523 41.8835 128.08 40.4396 128.08 38.6576C128.08 36.8755 129.523 35.4316 131.303 35.4316Z" fill="#FAFAEE"/>
<path d="M151.319 42.501C151.319 55.4638 145.553 65.9736 138.436 65.9736C131.319 65.9736 125.554 55.4638 125.554 42.501C125.554 29.5381 131.325 19.0283 138.436 19.0283C145.548 19.0283 151.319 29.5381 151.319 42.501Z" stroke="#212121" stroke-miterlimit="10"/>
<path d="M107.834 19.0337C114.945 19.0337 120.716 29.5435 120.716 42.5063C120.716 55.4691 114.951 65.979 107.834 65.979C100.717 65.979 94.9512 55.4691 94.9512 42.5063C94.9512 29.5435 100.722 19.0337 107.834 19.0337ZM114.962 42.501C114.962 35.3244 111.77 29.5113 107.834 29.5113C105.286 29.5113 103.05 31.9482 101.789 35.6143C101.451 35.4908 101.087 35.4264 100.706 35.4264C98.9254 35.4264 97.4826 36.8703 97.4826 38.6524C97.4826 40.4344 98.9254 41.8783 100.706 41.8783H100.711C100.706 42.0823 100.706 42.2916 100.706 42.501C100.706 49.6721 103.897 55.4906 107.834 55.4906C111.77 55.4906 114.962 49.6721 114.962 42.501Z" fill="#FAFAEE"/>
<path d="M107.834 29.5112C111.77 29.5112 114.962 35.3244 114.962 42.5009C114.962 49.6774 111.77 55.4905 107.834 55.4905C103.897 55.4905 100.706 49.672 100.706 42.5009C100.706 42.2915 100.706 42.0876 100.711 41.8782C102.487 41.8782 103.929 40.429 103.929 38.6523C103.929 37.2513 103.039 36.0597 101.789 35.6142C103.05 31.9481 105.286 29.5112 107.834 29.5112Z" fill="#212121"/>
<path d="M101.789 35.6143C103.039 36.0598 103.929 37.2514 103.929 38.6523C103.929 40.429 102.492 41.8729 100.711 41.8783C100.77 39.5809 101.156 37.4446 101.789 35.6143Z" fill="#FAFAEE"/>
<path d="M100.706 35.4316C101.087 35.4316 101.451 35.4961 101.789 35.6195C101.162 37.4499 100.77 39.5915 100.711 41.8835H100.706C98.9251 41.8835 97.4824 40.4396 97.4824 38.6576C97.4824 36.8755 98.9251 35.4316 100.706 35.4316Z" fill="#FAFAEE"/>
<path d="M120.716 42.501C120.716 55.4638 114.951 65.9736 107.834 65.9736C100.717 65.9736 94.9512 55.4638 94.9512 42.501C94.9512 29.5381 100.722 19.0283 107.834 19.0283C114.945 19.0283 120.716 29.5381 120.716 42.501Z" stroke="#212121" stroke-miterlimit="10"/>
<path d="M118.609 79.9507C128.526 79.9507 136.699 89.607 137.783 102.038C132.982 97.9161 125.86 95.3075 117.917 95.3075C110.768 95.3075 104.284 97.4169 99.5586 100.847C101.044 89.0005 109.009 79.9507 118.604 79.9507H118.609ZM134.012 98.1362C130.639 92.6076 125.587 89.0971 119.934 89.0971C115.203 89.0971 110.891 91.5609 107.63 95.6081C110.789 94.6097 114.265 94.0568 117.917 94.0568C123.983 94.0568 129.571 95.5758 134.012 98.1362Z" fill="#212121"/>
<path d="M119.939 89.0972C125.587 89.0972 130.639 92.6076 134.018 98.1362C129.577 95.5813 123.994 94.0568 117.922 94.0568C114.27 94.0568 110.795 94.6097 107.636 95.6081C110.897 91.5609 115.209 89.0972 119.939 89.0972Z" fill="#A44F3D"/>
<path d="M99.5645 100.841C101.05 88.9951 109.015 79.9453 118.609 79.9453C128.204 79.9453 136.7 89.6017 137.783 102.033" stroke="#212121" stroke-linecap="round" stroke-linejoin="round"/>
<path d="M107.631 95.6081C110.892 91.5609 115.204 89.0972 119.934 89.0972C125.582 89.0972 130.634 92.6076 134.013 98.1362" stroke="#212121" stroke-linecap="round" stroke-linejoin="round"/>
<path d="M99.5645 100.842C104.289 97.4117 110.774 95.3022 117.923 95.3022C125.866 95.3022 132.988 97.9109 137.788 102.033" stroke="#212121" stroke-linecap="round" stroke-linejoin="round"/>
<path d="M107.631 95.6079C110.79 94.6095 114.265 94.0566 117.918 94.0566C123.983 94.0566 129.572 95.5757 134.013 98.136" stroke="#212121" stroke-linecap="round" stroke-linejoin="round"/>
</g>
<defs>
<clipPath id="clip0_132_276">
<rect width="205" height="192" fill="white"/>
</clipPath>
</defs>
</svg>
